<?xml version="1.0" standalone="no"?>
<!DOCTYPE svg PUBLIC "-//W3C//DTD SVG 1.1//EN" "http://www.w3.org/Graphics/SVG/1.1/DTD/svg11.dtd" >
<svg xmlns="http://www.w3.org/2000/svg" xmlns:xlink="http://www.w3.org/1999/xlink" version="1.1">
<metadata>
Created by FontForge 20170731 at Sun Sep 17 02:18:28 2017
 By Aleksey,,,
</metadata>
<defs>
<font id="HiveswapAlternian-Regular" horiz-adv-x="250" >
  <font-face 
    font-family="Hiveswap Alternian"
    font-weight="400"
    font-stretch="normal"
    units-per-em="1000"
    panose-1="2 0 5 3 0 0 0 0 0 0"
    ascent="800"
    descent="-200"
    x-height="514"
    cap-height="679"
    bbox="14 -53 686 817"
    underline-thickness="50"
    underline-position="-200"
    unicode-range="U+000D-00A0"
  />
<missing-glyph horiz-adv-x="364" 
d="M33 0v666h265v-666h-265zM66 33h199v600h-199v-600z" />
    <glyph glyph-name=".notdef" horiz-adv-x="364" 
d="M33 0v666h265v-666h-265zM66 33h199v600h-199v-600z" />
    <glyph glyph-name=".null" 
 />
    <glyph glyph-name=".null" 
 />
    <glyph glyph-name="nonmarkingreturn" horiz-adv-x="333" 
 />
    <glyph glyph-name="CR" unicode="&#xd;" 
 />
    <glyph glyph-name="space" unicode=" " 
 />
    <glyph glyph-name="exclam" unicode="!" horiz-adv-x="152" 
d="M45 136q31 28 49 28q14 0 28 -14q14 -13 14 -36q0 -47 -38 -68q-15 -8 -33 -8q-21 0 -35 13t-14 35q0 14 5.5 23.5t23.5 26.5zM62 743q11 10 16 10q4 0 14 -6q17 -9 21.5 -56t4.5 -213q0 -137 -2 -179.5t-9 -51.5q-10 -14 -23 -14t-25.5 13.5t-17.5 35.5q-6 26 -6 209
q0 200 7 218q8 24 20 34z" />
    <glyph glyph-name="quotedbl" unicode="&#x22;" horiz-adv-x="272" 
d="M36 716q10 12 28 12q17 0 27 -10q11 -9 11 -66q0 -148 -47 -157q-1 0 -4 -1q-11 0 -21 13t-13 33q-2 16 -2 30q0 42 6.5 90t14.5 56zM196 726q7 7 17 7q16 0 31 -19q13 -18 13 -67v-19q0 -81 -15.5 -130.5t-42.5 -53.5q-1 0 -3.5 -0.5t-3.5 -0.5q-28 0 -28 50q0 27 6 70
q1 13 4 37.5t5 43t3 29.5q5 44 14 53z" />
    <glyph glyph-name="quotesingle" unicode="'" horiz-adv-x="260" 
d="M157 573q0 11 -10.5 23.5t-20.5 12.5q-8 0 -26.5 -16.5t-18.5 -23.5t21 -27.5t28 -20.5t17 19t10 33zM63 628q51 49 66 51q11 0 64 -53q52 -54 52 -58q0 -6 -32 -39t-54 -51q-22 -17 -32 -17q-16 0 -67 48q-18 17 -25.5 24.5t-13.5 16.5t-6 16q0 16 48 62z" />
    <glyph glyph-name="parenleft" unicode="(" horiz-adv-x="460" 
d="M205 656q15 16 34 16q17 0 29 -12q26 -26 26 -94q0 -31 8 -31q10 0 41 40q36 46 61 46q10 0 21 -6q18 -10 19 -32v-5q0 -17 -17.5 -45t-78.5 -107l-51 -66l-3 -183q-2 -128 -4.5 -159t-11.5 -46q-13 -23 -34 -24q-2 0 -4.5 -0.5t-3.5 -0.5q-25 0 -41 37q-8 17 -8 140v60
v180l-37 39q-50 54 -110 129q-24 28 -24 53q0 18 13 31q12 12 26 12q30 0 84 -57q31 -33 40 -33h1q6 6 8 54q2 49 17 64z" />
    <glyph glyph-name="parenright" unicode=")" horiz-adv-x="461" 
d="M208 666q13 13 29 13t30 -14q16 -17 21 -60t6 -161q0 -151 5 -164q6 -16 76 -113q44 -62 57 -84t13 -37q0 -23 -14 -33q-15 -10 -25 -10q-20 0 -59 42q-36 38 -45 38h-1q-7 -5 -7 -31q0 -93 -62 -93q-23 0 -32 18t-12 67q-4 54 -8 54q-5 0 -38 -39q-54 -61 -86 -61
q-15 0 -27 12q-13 13 -13 34q0 24 15 40q104 117 132 152l23 27l1 150q0 134 4.5 186.5t16.5 66.5z" />
    <glyph glyph-name="comma" unicode="," horiz-adv-x="194" 
d="M53 147q32 39 43 39q15 0 49 -41t34 -58q0 -13 -14 -18q-17 -5 -86 -5q-57 0 -61 4q-3 3 -3 8q0 24 38 71z" />
    <glyph glyph-name="hyphen" unicode="-" horiz-adv-x="294" 
d="M127 579q14 11 23 11q10 0 22 -12q8 -8 10 -24.5t2 -78.5q0 -89 4 -95q5 -3 23 6q15 8 31 8q27 0 33 -19q2 -6 2 -9q0 -9 -29 -48q-32 -41 -32 -47t31 -35q31 -30 31 -44q0 -10 -12 -21q-9 -9 -16 -9q-4 0 -17 5q-23 10 -31 10q-10 0 -13 -14t-5 -60q-4 -74 -15 -86
q-12 -14 -23 -14q-17 0 -24 18.5t-10 70.5q-5 67 -7 70q-1 4 -19 0q-1 0 -3 -0.5t-3 -0.5q-14 0 -24.5 10.5t-10.5 24.5q0 13 19 40q19 26 19 32q0 8 -31 36q-35 32 -35 50q0 8 6 19q11 15 24 15q14 0 31 -13t23 -9q4 7 8 103q3 70 5.5 86.5t12.5 23.5z" />
    <glyph glyph-name="period" unicode="." horiz-adv-x="125" 
d="M40 172q14 10 30 10q17 0 28.5 -11.5t11.5 -29.5q0 -22 -13.5 -34.5t-36.5 -12.5q-20 0 -32.5 10t-12.5 27q0 15 4.5 23t20.5 18z" />
    <glyph glyph-name="zero" unicode="0" horiz-adv-x="477" 
d="M363 501q-11 29 -18 36q-3 3 -5 3q-6 0 -76 -125q-50 -89 -92 -161l-36 -60l19 -19q23 -23 52 -23q45 0 94 52q77 85 77 206q0 48 -15 91zM243 636q-34 16 -44 16t-17 -8.5t-20 -33.5q-61 -122 -61 -238v-19l2 -61l56 103q55 101 91 156q31 44 31 59q0 9 -38 26zM182 737
q20 10 41 10h9t4.5 -1.5t2 -2.5t0 -5t-0.5 -6q0 -9 21 -16q27 -8 64.5 -34.5t56.5 -49.5q81 -99 81 -226q0 -94 -48 -187q-21 -40 -57 -77.5t-69 -54.5q-38 -19 -77 -19q-64 0 -114.5 49.5t-69.5 133.5q-10 41 -10 99q0 110 33 203q23 64 59.5 114.5t73.5 69.5z" />
    <glyph glyph-name="one" unicode="1" horiz-adv-x="278" 
d="M182 784q8 8 31 8q19 0 25.5 -5.5t10 -31.5t3.5 -92q0 -13 -0.5 -48.5t-0.5 -58.5v-64q0 -162 6 -236q4 -48 4 -82q0 -23 -2 -28q-8 -20 -24 -20q-12 0 -25 11t-21 30q-14 31 -26 274l-5 98l-20 -26q-44 -58 -86 -58q-16 0 -27 11q-9 9 -9 19q0 18 36 55q63 69 105 188
q19 50 25 56z" />
    <glyph glyph-name="two" unicode="2" horiz-adv-x="429" 
d="M141 707q36 15 78 15q70 0 120 -35q34 -24 53.5 -64.5t19.5 -86.5q0 -17 -3 -35q-17 -86 -71 -164q-22 -32 -75.5 -97.5t-91.5 -105.5q-41 -45 -41 -49t59 -4q58 0 101 -9q39 -8 76.5 -22t37.5 -19t-137.5 -18.5t-177.5 -13.5q-24 0 -33.5 3t-21.5 15q-18 20 -18 37
q0 34 79 120q171 185 209 270q24 52 24 94q0 46 -28 73.5t-78 27.5h-2q-40 -1 -72 -22t-65 -69q-12 -16 -26 -16q-16 0 -28 16q-13 18 -13 30q0 15 17 43q36 56 108 86z" />
    <glyph glyph-name="three" unicode="3" horiz-adv-x="444" 
d="M172 702q27 6 69 6q48 0 78 -8q44 -13 72 -40t35 -63q1 -4 1 -13q0 -35 -29 -74.5t-77 -70.5q-38 -25 -38 -29q0 -2 31 -35q66 -68 67 -157q0 -48 -17 -87q-31 -69 -105 -105q-24 -12 -40.5 -15t-56.5 -3q-51 0 -78.5 10.5t-50.5 37.5q-17 20 -17 41q0 23 18 23
q7 0 14 -4q20 -10 57 -18.5t62 -8.5h9q49 4 81.5 34.5t36.5 74.5q0 4 0.5 12.5t0.5 13.5q0 17 -2 31q-4 25 -35.5 57.5t-67.5 49.5q-54 24 -54 52q0 29 61 52q77 29 126 83q22 25 22 34q0 7 -11 18q-26 26 -93 26q-27 0 -71.5 -12.5t-67.5 -26.5q-21 -12 -38 -12
q-22 0 -32 16q-7 10 -7 18t4 16q8 20 50 42.5t93 33.5z" />
    <glyph glyph-name="four" unicode="4" horiz-adv-x="494" 
d="M433 703q15 12 19 12q3 0 15 -10q11 -9 11 -31q0 -40 -66 -355q-38 -183 -49.5 -220t-30.5 -37q-34 0 -34 75q0 29 6 65q4 19 9 48t5 32l3 19l-126 3q-102 2 -130.5 8.5t-40.5 29.5q-8 16 -8 25q0 11 19 48q65 124 84 161q43 83 56.5 103.5t25.5 22.5h7q29 0 29 -37
q0 -58 -94 -227l-26 -46h225l22 100q40 188 69 211z" />
    <glyph glyph-name="five" unicode="5" horiz-adv-x="589" 
d="M494 746q45 5 50 7h3q10 0 18 -9.5t8 -21.5q0 -36 -59 -50.5t-207 -15.5l-143 -1l-11 -22q-11 -22 -26 -65l-17 -43h74q193 0 287 -85q52 -47 52 -113q0 -33 -14 -61q-31 -63 -110 -111t-150 -48q-11 0 -17 1q-50 5 -92.5 35t-55.5 70q-4 11 -4 24q0 28 13 28q8 0 46 -29
q57 -45 115 -45q9 0 14 1q65 12 118.5 55t53.5 84q0 17 -24.5 42.5t-52.5 37.5q-72 31 -169 31q-29 0 -45 -1q-48 -2 -58 -2q-32 0 -45.5 4.5t-22.5 17.5q-7 8 -7 23q0 24 22 84q30 79 46 111t33 44q16 11 39 13t138 3q159 2 200 7z" />
    <glyph glyph-name="six" unicode="6" horiz-adv-x="527" 
d="M408 278q-12 12 -26 12t-33 -12q-19 -11 -45 -40t-40 -55l-14 -26h28q43 0 86.5 19.5t57.5 44.5q4 8 4 18q0 23 -18 39zM232 763q23 22 36 22q9 0 21 -12t12 -21q0 -19 -78 -141q-69 -106 -106 -213q-15 -43 -16 -102q0 -51 8.5 -70.5t39.5 -40.5l21 -15l25 51
q32 66 85 109t101 43q52 -1 91 -41.5t39 -95.5q0 -21 -18 -54t-39 -50q-73 -58 -189 -58q-80 0 -141 29q-31 13 -57.5 42.5t-38.5 61.5q-12 33 -12 80q0 69 24 143q27 78 90 188.5t102 144.5z" />
    <glyph glyph-name="seven" unicode="7" horiz-adv-x="621" 
d="M51 756q11 1 156 3h44q104 0 188 -12q84 -11 113 -19.5t41 -23.5t12 -32q0 -33 -76 -150q-120 -181 -197 -318q-34 -62 -52 -86.5t-31 -24.5q-10 0 -19 12q-10 12 -10 29q0 39 47.5 126.5t161.5 260.5q78 120 78 128t-101.5 18t-172.5 11h-102l-4 -68q-3 -59 -12 -78
t-33 -19q-21 0 -31 12q-16 18 -34 163q-1 5 -1 15q0 48 35 53z" />
    <glyph glyph-name="eight" unicode="8" horiz-adv-x="463" 
d="M249 362q-23 36 -30 36q-12 0 -52 -68t-52 -109q-9 -33 -9 -45q0 -14 12 -26t34 -12q15 0 26 1q45 4 69 19q19 13 33.5 38.5t14.5 47.5q0 50 -46 118zM292 664q-42 16 -90 16q-41 0 -72 -12t-31 -33t91 -95l25 -20l51 38q49 35 66 54q11 11 11 16q0 4 -7 11
q-12 14 -44 25zM150 759q21 4 48 4q77 0 137.5 -33.5t60.5 -77.5q0 -8 3 -10t14 0q3 1 9 1q11 0 18 -7.5t7 -18.5q0 -19 -15 -35q-17 -20 -81 -66q-69 -49 -69 -55q0 -4 25 -37q68 -85 68 -178q0 -77 -50 -130t-136 -59q-3 0 -10 -0.5t-11 -0.5q-70 0 -107.5 31t-37.5 90
q0 23 6 50q7 30 39.5 94.5t58.5 99.5l29 38l-24 21q-88 78 -104 109q-12 24 -12 48q0 43 36.5 77.5t97.5 44.5z" />
    <glyph glyph-name="nine" unicode="9" horiz-adv-x="472" 
d="M298 624q-30 15 -61 15q-40 0 -74.5 -23t-52.5 -62q-11 -27 -11 -42q0 -21 17 -39q14 -15 23 -18t42 -3q73 1 133 49q22 19 22 27v2l-1 2q-5 12 4 12q6 0 13 17q2 6 2 10q0 25 -56 53zM169 711q27 10 65 10q56 0 97 -21q23 -12 53.5 -38.5t30.5 -34.5q0 -4 14 -9
q26 -6 26 -37q0 -33 -28 -77q-35 -54 -66 -247q-20 -128 -29.5 -164t-22.5 -40q-6 -2 -9 -2q-17 0 -27 24.5t-10 66.5q0 26 13.5 115.5t22.5 121.5q2 7 1.5 9.5t-3 2.5t-7.5 -2q-55 -22 -114 -22q-37 0 -61 9q-62 23 -85 76q-14 28 -14 61q0 32 14 64q41 100 139 134z" />
    <glyph glyph-name="colon" unicode=":" horiz-adv-x="155" 
d="M41 163q18 19 34 19q17 0 37 -18q13 -11 17 -21t6 -35q1 -10 1 -23q0 -16 -18 -31q-19 -17 -33 -17q-17 0 -35.5 12.5t-25.5 29.5q-6 15 -6 30q0 28 23 54zM57 543q13 7 26 7q21 0 37 -16q19 -21 19 -46t-20 -47q-17 -18 -42 -18q-24 0 -42.5 17.5t-18.5 44.5q0 36 41 58
z" />
    <glyph glyph-name="semicolon" unicode=";" horiz-adv-x="163" 
d="M73 246q12 12 21 12q11 0 29 -15q25 -22 25 -69q0 -19 -5 -54q-8 -63 -30.5 -98.5t-54.5 -35.5q-20 0 -20 24q0 18 9 55q13 55 13 112q0 36 2.5 48.5t10.5 20.5zM34 520q19 18 44 18q17 0 25 -4.5t20 -20.5q19 -23 19 -45q0 -18 -15 -34q-16 -17 -43 -17q-30 1 -49 19
t-19 42t18 42z" />
    <glyph glyph-name="question" unicode="?" horiz-adv-x="404" 
d="M200 176q18 4 25 4q25 0 43 -20q13 -14 13 -30q0 -17 -19 -36q-19 -20 -44 -20q-21 0 -37 15t-16 36q0 10 5 23q10 23 30 28zM110 802q36 15 85 15q39 0 74 -11q32 -10 66 -40.5t45 -59.5q8 -24 8 -52q0 -44 -15 -75q-11 -24 -70 -84q-57 -57 -61 -73q0 -1 -0.5 -6.5
t-0.5 -10.5q0 -12 2 -38q2 -15 2 -38q0 -50 -22 -50q-8 0 -21 8q-44 28 -44 111v6q0 42 14.5 68t64.5 75q52 50 61 68q9 17 9 34q0 35 -32 60t-81 26q-58 0 -102 -44q-25 -25 -37 -25q-11 0 -24 15q-15 15 -15 32q0 23 25 47t69 42z" />
    <glyph glyph-name="A" unicode="A" horiz-adv-x="635" 
d="M149 527q11 23 55 75t61 52q14 0 14 -12q0 -14 -24 -52q-30 -46 -30 -76q0 -21 11 -42q17 -35 45 -45t109 -10q55 0 72.5 -2.5t17.5 -12.5t-23 -46q-26 -38 -26 -48q0 -4 4 -4q15 0 77 52q53 43 73 43q10 0 20 -7q15 -10 15 -38q0 -52 -74 -79q-45 -18 -94 -18
q-28 0 -31 8q-3 10 -11 10q-11 0 -26 -21q-17 -23 -17 -30q0 -10 30 -10q21 0 36 1q42 2 45 2q23 0 37 -14q11 -11 14 -19.5t3 -28.5q0 -31 -5 -34q-11 -4 -131 -7q-41 -2 -135.5 -4.5t-107.5 -2.5q-32 -1 -85 -1q-39 0 -42 1q-11 5 -11 16q0 31 59 95q24 26 41 49
q15 20 28 20q9 0 15 -10q6 -12 11 -43q6 -32 11 -36q8 -5 28 -5q30 0 55 9q19 7 49 47.5t30 56.5q0 3 -1 4q-5 5 -45 12q-61 14 -123 58q-39 30 -39 87q0 31 15 60z" />
    <glyph glyph-name="B" unicode="B" horiz-adv-x="508" 
d="M189 311q-19 40 -24 40q-6 0 -21.5 -36.5t-18.5 -58.5q-2 -16 -2 -22q0 -28 21 -38t76 -10q79 0 112 12t40 43q2 10 2 12q0 13 -17 13q-15 0 -42 -7q-35 -9 -44 -9q-12 0 -33 10q-20 8 -28 16.5t-21 34.5zM293 672q20 4 28 4q60 0 60 -65q0 -58 31 -120q12 -24 12 -42
q0 -22 -19 -22q-21 0 -79 30q-60 32 -69 32q-12 0 -20.5 -16t-8.5 -39q0 -33 11 -68t22 -41q12 -6 30 -6q34 0 82 19q47 19 76 19q23 0 33.5 -13.5t10.5 -45.5q0 -16 -1 -25q-3 -38 -20 -105.5t-24 -69.5q-42 -13 -263 -15h-46q-60 0 -84.5 3t-32 10t-7.5 25q0 21 22 89
t46 122q23 53 74 126q50 73 65 99.5t17 48.5q2 24 17 42.5t37 23.5z" />
    <glyph glyph-name="C" unicode="C" horiz-adv-x="633" 
d="M35 656q9 23 24 23q17 0 29 -16.5t29 -63.5q16 -42 26 -92.5t27 -164.5q17 -115 46 -133q6 -3 15 -3t31 5q22 4 37 13.5t46 38.5q41 38 84 94t64 98q18 36 24 94q4 43 13 62.5t37 45.5q24 22 34 22q17 0 17 -63q0 -4 -0.5 -14t-0.5 -16q-2 -65 -11 -102t-36 -92
q-32 -66 -71.5 -115.5t-102.5 -104.5q-39 -34 -65.5 -49.5t-76.5 -33.5q-42 -15 -61 -15q-17 0 -37 11q-21 12 -28.5 32t-16.5 85q-18 124 -63 225q-26 56 -32 82q-1 4 -1 17q0 28 6.5 70t13.5 60z" />
    <glyph glyph-name="D" unicode="D" horiz-adv-x="667" 
d="M356 648q0 17 5 20.5t25 3.5q14 0 27 -8.5t41 -36.5q41 -42 61 -78.5t28 -86.5q18 -101 72 -221q37 -79 37 -96t-21 -31.5t-52 -19.5q-33 -5 -286 -5h-42q-149 0 -192.5 3.5t-43.5 20.5q0 11 35 56q37 48 60 98.5t43 130.5q11 44 29 192q3 33 10 46q6 11 17 11
q13 0 20 -13t7 -166q0 -109 -4 -181q-2 -56 -2 -58q0 -16 2.5 -21t9.5 -9q10 -6 109 -6q172 0 182 10q2 2 2 7q0 22 -58 139q-44 91 -82.5 185.5t-38.5 113.5z" />
    <glyph glyph-name="E" unicode="E" horiz-adv-x="589" 
d="M492 636q37 36 55 36q16 0 21.5 -7t5.5 -31v-8q-1 -51 -48 -111.5t-198 -203.5q-71 -67 -71 -77q0 -9 16 -9q15 0 56 9q47 10 128 10q57 0 73 -6q15 -6 25 -19t10 -27q0 -6 -1 -8q-4 -17 -28 -34q-22 -16 -50 -16h-17q-164 4 -183 4q-72 0 -97.5 -7t-52.5 -30
q-29 -23 -40 -26q-3 -1 -8 -1q-23 0 -48 23.5t-25 45.5q0 13 14.5 31t70.5 72q115 110 156 149q70 66 70 74q0 16 -82 16h-7q-36 0 -74.5 6t-50.5 14q-8 5 -8 13q0 14 19.5 32.5t52.5 36.5q29 16 63 16q42 0 82 -25q11 -7 33 -20l21 -14l21 -12l30 34q21 25 66 70z" />
    <glyph glyph-name="F" unicode="F" horiz-adv-x="502" 
d="M59 644q35 26 50 26q14 0 26 -20q11 -19 26.5 -80.5t22.5 -113.5q7 -50 12 -50q2 0 4 2q8 7 20.5 45t20.5 83q13 67 40 67q15 0 36 -20.5t36 -49.5q18 -35 18 -56q0 -27 -31 -61q-20 -22 -65 -47t-64 -25q-14 0 -14 -10q0 -2 1 -10.5t2 -15.5q6 -45 17 -45q9 0 45 28
q44 34 71 47.5t59 16.5h12q43 0 63 -27.5t20 -86.5q0 -48 -19.5 -102.5t-35.5 -54.5q-3 0 -6 3q-5 5 -9 77q-3 58 -9 75t-25 17q-29 0 -145 -86q-53 -40 -74 -40q-11 0 -17 11q-9 16 -27 143q-16 122 -101 291q-4 7 -4 15q0 21 44 54z" />
    <glyph glyph-name="G" unicode="G" horiz-adv-x="702" 
d="M406 624q82 55 116 55q12 0 15 -8q1 -2 1 -6q0 -7 -10 -16.5t-43 -34.5q-113 -87 -113 -110q0 -12 37 -16q39 -6 81 -28q28 -14 39.5 -22.5t18.5 -23.5q13 -26 13 -61q0 -45 -18.5 -80.5t-45.5 -35.5t-72 88q-21 39 -50 79t-41 44q-6 2 -7 2q-11 0 -32 -43
q-38 -74 -38 -162q0 -45 14 -59q11 -11 43 -11q4 0 68 2q140 8 152 9q27 3 58 3q73 0 87 -11q7 -6 7 -46q0 -33 -6 -47q-5 -8 -50 -10t-268 -2h-312l-17 15l-18 14l23 28q36 44 36 85q0 40 49 139q38 77 85 126.5t131 101.5q63 39 67 42z" />
    <glyph glyph-name="H" unicode="H" horiz-adv-x="633" 
d="M406 361q0 -5 35 -62.5t35 -63.5q0 -19 -25 -19q-23 0 -82 15q-75 18 -109 18q-28 0 -28 -12q0 -10 20 -30l22 -23l163 5q106 2 114 2q52 0 60 -8q11 -9 6 -24q-2 -5 -5.5 -19.5t-7.5 -26.5t-9 -16q-6 -4 -239 -6h-138q-79 0 -118 0.5t-59.5 4.5t-23 7.5t-2.5 14.5v2
q0 15 26.5 37.5t48.5 26.5q6 2 28 2q25 0 37 -2q22 -2 27 -2q16 0 16 5q0 9 -31 42q-33 36 -33 61q0 12 9 21q7 7 51 7q54 0 103 -9q30 -5 45 -5q9 0 9 2q0 9 -32 55q-20 27 -34.5 49t-21 33t-25.5 44t-30 53q-46 82 -46 107q0 9 5 16q7 9 38 9q69 0 102 -25q15 -11 22 -39
q2 -7 4.5 -18.5t6.5 -27.5t6 -25q20 -80 45 -134q15 -34 15 -42z" />
    <glyph glyph-name="I" unicode="I" horiz-adv-x="617" 
d="M324 657q46 22 67 22q18 0 24 -13q2 -4 2 -9q0 -22 -69 -144q-27 -49 -27 -54q0 -6 -70 -121q-69 -116 -69 -127q0 -10 11 -13.5t51 -3.5q6 0 23 0.5t28 0.5q65 2 82.5 4.5t34.5 13.5q26 17 38.5 32.5t32.5 55.5q22 46 35 46q14 0 43 -60q30 -63 37 -89q3 -14 3 -25
q0 -41 -47 -54q-36 -10 -121.5 -18.5t-141.5 -8.5q-86 0 -176 7.5t-97 14.5q-3 3 -3 8q0 11 21.5 47t92.5 146q77 116 82 128q1 1 1 4q0 6 -16.5 9t-78.5 8t-80.5 10.5t-18.5 21.5q0 11 19.5 21.5t103.5 44.5q123 48 136 68q3 5 47 27z" />
    <glyph glyph-name="J" unicode="J" horiz-adv-x="622" 
d="M64 595q12 19 31 19q9 0 39 -5q17 -4 172 -12q143 -5 196 -19q106 -26 106 -78q0 -28 -29 -71q-15 -24 -49.5 -58.5t-58.5 -49.5q-14 -9 -24 -2q-9 7 -9 14q0 10 25 41q31 38 31 69q0 70 -184 82q-13 1 -36 1q-66 0 -72 -25q-1 -2 -1 -21q0 -57 6 -150q8 -138 8 -189
q0 -69 -12 -76q-5 -4 -24 -4q-60 0 -83 17q-12 10 -18 55t-13 176q-7 126 -11.5 154t-20.5 36q-18 9 -18 22t17 33q11 12 32 41z" />
    <glyph glyph-name="K" unicode="K" horiz-adv-x="608" 
d="M396 512q16 7 95 9q54 0 67 -2.5t24 -13.5q11 -12 11 -18q0 -4 -5 -14q-8 -15 -70 -56q-45 -30 -85.5 -63t-40.5 -40q0 -4 -13 -12t-23 -8q-9 0 -27 18t-18 49q0 23 9 58q7 28 29 55t47 38zM213 648l12 13l14 -16q12 -15 24 -77q11 -67 16 -88q4 -20 9.5 -68.5t5.5 -67.5
q0 -5 -6 -65l-4 -48l23 -10q25 -10 103 -10q38 0 51 4q15 5 18 19q4 15 18 28l15 15l19 -21q14 -15 29.5 -53t15.5 -58q0 -14 -15 -33l-16 -17l-121 -1q-118 -2 -151 -8q-13 -3 -34 -3q-10 0 -26 2q-33 6 -72 6q-43 0 -70 -7q-22 -4 -25 -4q-10 0 -20 9q-11 11 -11 17
q0 9 23 33q79 84 117.5 186t43.5 240q2 70 14 83z" />
    <glyph glyph-name="L" unicode="L" horiz-adv-x="483" 
d="M41 678q8 4 29 4q50 0 72 -13q13 -8 63 -80q50 -70 54 -70q5 0 12 -15t66 -77q63 -67 77 -90q13 -21 33.5 -93t20.5 -96q0 -21 -20.5 -32.5t-53.5 -11.5h-4q-116 2 -210 147q-22 33 -22 54q0 11 9 11q11 0 37 -26q43 -41 83.5 -66.5t62.5 -25.5q6 0 8 1q9 3 9 19
q0 28 -22 71q-17 35 -42.5 61t-141.5 128q-38 33 -87 87t-56 71q-3 7 -3 13q0 18 26 29z" />
    <glyph glyph-name="M" unicode="M" horiz-adv-x="637" 
d="M226 586q12 9 21 9t18 -10q10 -10 13 -29t5 -97q3 -90 13 -117q10 -30 10 -45q0 -20 -12 -32q-9 -9 -16 -9q-5 0 -13 4q-19 8 -55 65.5t-49 100.5q-5 15 -5 22q0 9 8 35q10 29 29 61t33 42zM518 644q19 21 33 21q25 0 48.5 -31t23.5 -63q0 -1 -0.5 -4t-0.5 -5
q-4 -34 -87 -134q-25 -29 -59 -89q-47 -80 -103 -205q-23 -51 -45 -51q-4 0 -16 4q-22 8 -100.5 59.5t-149.5 104.5q-30 22 -35 36q-4 11 -10 113q-2 58 -2 66q0 35 9 51q14 26 45 26q16 0 34 -9q19 -10 26.5 -33.5t20.5 -111.5q10 -67 24 -89t60 -44q58 -27 74 -27
q12 0 20 12q8 13 51 119q38 94 79 178t60 106z" />
    <glyph glyph-name="N" unicode="N" horiz-adv-x="511" 
d="M329 668q18 7 37 7q22 0 35.5 -11t13.5 -30q0 -12 -25.5 -63.5t-50.5 -87.5q-24 -35 -42 -70.5t-18 -44.5q0 -7 29 -7q20 0 33 1q12 1 32 1q37 0 54 -9.5t25 -34.5q5 -17 5 -28q0 -26 -33 -70q-28 -37 -28 -44q0 -10 58 -17q42 -4 42 -23q0 -18 -44 -29q-39 -9 -105 -12
q-34 -2 -42 -2q-35 0 -35 12q0 9 20 34q24 29 42.5 62t18.5 47q0 32 -46 32q-11 0 -17 -1q-36 -4 -56 -21.5t-46 -65.5q-25 -49 -44.5 -63.5t-60.5 -19.5q-8 -1 -23 -1q-43 0 -43 22q0 12 40 70q107 160 131 221q4 10 38 87q8 17 22.5 48.5t17.5 37.5q16 35 29.5 50t35.5 23
z" />
    <glyph glyph-name="O" unicode="O" horiz-adv-x="531" 
d="M62 671q12 13 30 13q17 0 32 -11.5t20 -29.5q3 -12 7 -143q1 -24 3 -73.5t3.5 -85.5t2.5 -57l4 -86l100 -1l100 -2l6 16q6 17 6 38q0 62 -38 115q-21 30 -88 86q-17 14 -17 23q0 7 12 7q19 0 51 -16q65 -33 116.5 -81.5t75.5 -100.5q26 -59 28 -141v-6q0 -17 -4.5 -24
t-26 -12t-67.5 -6.5t-129 -2.5h-18q-116 -2 -140 -2q-86 0 -99 5q-17 6 -17 23q0 14 12 43q25 59 25 279v38v94q0 90 10 101z" />
    <glyph glyph-name="P" unicode="P" horiz-adv-x="433" 
d="M123 670q15 12 29 12q33 0 58 -51t25 -154v-14q0 -72 9 -75h4q14 0 47 10q44 14 66 14q21 0 38 -12q19 -15 19 -46q0 -42 -33.5 -104t-90.5 -123q-34 -37 -45 -37h-1l-2 1q-10 3 -10 15q0 16 21 51q37 62 37 104q0 29 -20 29q-26 0 -72.5 -36.5t-80.5 -85.5
q-43 -61 -67 -61q-16 0 -16 29q0 22 36 77q36 54 45 83.5t10 89.5v27q0 44 -11 65q-12 25 -34 25q-12 0 -41 -6q-14 -2 -16 -2q-12 0 -12 10q0 17 29.5 73.5t43.5 65.5q10 6 35 26z" />
    <glyph glyph-name="Q" unicode="Q" horiz-adv-x="664" 
d="M367 646q11 13 20 13q21 0 47 -112q15 -65 21 -71q6 -7 12 -7q15 0 59 44q54 55 84 55q7 0 10 -1q29 -8 29 -61q0 -57 -32 -101q-13 -17 -47 -37t-51 -20q-7 0 -25 -14q-7 -5 -9.5 -8t-4.5 -8.5t-2 -15.5q0 -4 2 -36q3 -52 16 -63.5t69 -14.5q34 -2 47 -5.5t22 -12.5
q15 -13 15 -29q0 -18 -20 -38q-18 -18 -44 -22.5t-142 -9.5q-78 -3 -141 -3q-74 0 -166 4q-59 2 -78 5t-29 12q-14 12 -14 24q0 11 17 31.5t34 28.5q20 10 68 10q66 0 130 -16q3 -1 9 -1q27 0 43 58q20 67 26 176q2 44 2 47q0 21 -10 21q-12 0 -18 -6q-7 -7 -45 -16.5
t-60 -9.5q-33 0 -65 12t-47 30q-16 17 -31 53.5t-19 65.5q-1 5 -1 13q0 15 8 23q10 12 24 12q22 0 89 -45q30 -21 80 -45t66 -35q19 -11 27 -11h2q3 5 7 64q4 60 16 73z" />
    <glyph glyph-name="R" unicode="R" horiz-adv-x="670" 
d="M266 664q9 13 16 13q6 0 17 -11q20 -20 20 -178q0 -93 -7 -190q-4 -60 -4 -67q0 -29 8.5 -35.5t37.5 -6.5q26 0 35.5 5t9.5 20q0 11 -3 26q-7 29 -7 73q0 39 6 61q5 18 14.5 28t19.5 10q17 0 17 -26q0 -32 28.5 -92.5t50.5 -73.5q21 -12 56 -16q37 -5 53 -18.5t19 -42.5
q1 -6 1 -16q0 -15 -11 -26q-10 -10 -52 -12t-258 -2t-258.5 2t-51.5 12q-9 9 -9 14q0 4 7 16q9 16 35.5 33.5t51.5 23.5q37 10 58.5 49.5t49.5 151.5q40 156 40 219q0 42 10 56z" />
    <glyph glyph-name="S" unicode="S" horiz-adv-x="625" 
d="M401 665q29 11 50 11q14 0 76 -8q50 -8 66.5 -14t16.5 -18q0 -8 -10 -13t-58 -18q-62 -19 -147 -62q-58 -29 -85 -47t-69 -56q-65 -60 -91 -99q-34 -50 -34 -66q0 -6 5 -6q11 0 40 25q31 26 85 56.5t90 42.5q32 12 81 12q32 0 41 -2.5t19 -14.5q11 -15 11 -33
q0 -15 -1 -25q-2 -26 -8 -41t-24 -42q-22 -34 -74.5 -86.5t-76.5 -64.5q-18 -9 -30 -5q-12 3 -12 15q0 19 27 49q53 59 53 99v6q-2 14 -6 18t-20 5h-5q-59 0 -176 -107q-57 -53 -88 -53q-18 0 -28 19q-3 6 -3 19q0 33 19 94.5t32 90.5q22 46 67.5 110t71.5 84q106 79 128 92
q31 19 67 33z" />
    <glyph glyph-name="T" unicode="T" horiz-adv-x="452" 
d="M239 638q30 32 48 32q15 0 31 -24q14 -22 14 -40q0 -23 -19 -43q-33 -38 -55 -109q-6 -21 -6 -32t4 -20q36 -96 128 -184q53 -50 53 -63q0 -7 -12 -9h-3q-14 0 -47 17t-59 39q-30 26 -57 38q-60 27 -86 27q-21 0 -21 -16q0 -29 67 -103q42 -46 42 -56q0 -5 -4 -10
q-1 -3 -5 -3q-21 0 -109 73q-115 94 -115 159q0 22 13 32t46 14q36 5 36 9q0 5 -36 25q-47 28 -59.5 43.5t-12.5 46.5q0 33 20 72q24 45 45 45q32 0 68 -110q10 -34 18 -34q6 0 10 36q9 91 63 148z" />
    <glyph glyph-name="U" unicode="U" horiz-adv-x="535" 
d="M162 664q156 7 208 7q127 0 145 -27q5 -8 5 -20q0 -23 -20 -51q-32 -46 -51 -81q-23 -40 -68.5 -91t-63.5 -57q-8 -2 -12 -2q-22 0 -47 29t-66 100q-30 54 -30 69q0 7 5 14t11 7q8 0 70 -40q41 -27 51 -27q8 0 42.5 24t41.5 34q6 12 3 14q-4 4 -108 13q-138 11 -149 11
q-20 0 -20 -10t41 -75q65 -100 135 -251l27 -59l-16 -24q-23 -34 -52.5 -62t-41.5 -28q-17 0 -25 19.5t-12 78.5q-8 95 -48 220t-83 185q-19 28 -19 39t17 23q17 13 130 18z" />
    <glyph glyph-name="V" unicode="V" horiz-adv-x="482" 
d="M222 537q6 20 16 20q21 0 37 -74q23 -106 36 -113q4 -2 5 -2q12 0 43 60q22 45 39 58q8 5 17 5q17 0 31 -18.5t20 -49.5q1 -5 1 -14q0 -32 -24.5 -67t-63.5 -57q-31 -18 -31 -27q0 -22 75 -101q23 -26 23 -34q0 -5 -3 -9q-14 -26 -52 -26q-22 0 -49 7q-43 10 -58.5 36
t-32.5 114q-9 58 -17 58q-2 0 -7 -5q-10 -10 -23 -101q-7 -48 -43 -75.5t-92 -29.5h-12q-27 0 -36 9q-6 6 -6 10q0 10 74 113q33 46 67 118t46 120q3 11 8 29t8 29.5t4 16.5zM49 654q9 11 21 11q21 0 35 -27q8 -14 22 -67q7 -29 29 -88q12 -30 12 -45q0 -21 -26 -21
q-23 0 -43 11.5t-48 42.5q-24 26 -28.5 36.5t-4.5 38.5q0 29 9 61t22 47z" />
    <glyph glyph-name="W" unicode="W" horiz-adv-x="580" 
d="M458 676q12 5 20 5q34 0 57 -51q11 -24 11 -42q0 -27 -31 -119q-57 -162 -57 -229v-26h31q67 0 74 -35q2 -14 2 -21q0 -39 -16 -52q-11 -10 -257 -11q-59 -1 -139 -1q-112 0 -124 9q-14 9 -14 24q0 16 15 40t15 40t-12 61q-13 50 -13 102q0 44 9 66q33 92 178 148
q69 26 107 26q29 0 29 -16q0 -10 -6 -14.5t-38 -19.5q-16 -8 -25 -12q-33 -15 -74 -51.5t-53 -60.5q-13 -26 -13 -48q0 -44 51 -109q56 -71 146 -71q42 0 48 6q3 5 10 75q8 83 24 201.5t22 145.5q8 32 23 40z" />
    <glyph glyph-name="X" unicode="X" horiz-adv-x="563" 
d="M106 665q9 4 25 4q40 0 94 -26q54 -27 63 -31q16 -7 16 -19q0 -14 -21 -23q-21 -10 -21 -14q0 -18 48.5 -88t110.5 -142q38 -43 38 -51q-1 -34 -103 -35q-34 0 -67 -7.5t-43 -16.5q-7 -7 -6.5 -10t7.5 -10q10 -10 70 -10q21 0 71 1.5t72 1.5q65 0 76 -10q12 -11 12 -29
q0 -17 -11 -28q-20 -20 -61 -24t-215 -4q-207 1 -230 8q-16 6 -16 22q0 10 37 56t66 71q19 16 54 38q20 12 35.5 15t63.5 5q68 2 68 8q0 5 -23.5 27.5t-28.5 22.5q-6 0 -6 -9q0 -10 -13 -21q-11 -10 -39 -10h-18q-41 2 -62 12.5t-39 38.5q-18 30 -18 47q0 13 7 27
q7 19 21 19t42 -21q57 -41 77 -41q4 0 4 3q0 6 -43 56q-37 41 -73 88t-43 62q-3 6 -3 12q0 23 25 35z" />
    <glyph glyph-name="Y" unicode="Y" horiz-adv-x="592" 
d="M386 528q-22 6 -34 6q-10 0 -30 -3q-36 -5 -36 -12q0 -1 2 -5q6 -11 47 -11q9 0 29 2q34 5 34 14q0 5 -12 9zM390 639l54 19q55 19 69 19h1q17 0 37 -14t20 -27q0 -15 -21.5 -34t-41.5 -23t-35.5 -13t-15.5 -17t13 -36q10 -21 10 -29q0 -4 -8 -22l-12 -22h-67
q-74 2 -91 6q-12 2 -17 2q-13 0 -32 -8q-27 -12 -38.5 -35t-14.5 -68q-4 -53 -10 -81q-4 -16 -4 -31q0 -33 37 -43q20 -4 28 -4q7 0 31 4q20 5 105 9q59 2 76 6.5t17 17.5q0 7 -1 12q-1 6 -1 15q0 20 14 20q8 0 30 -10q55 -28 55 -87q0 -20 -3 -30.5t-10.5 -19t-29 -12
t-48 -6t-77.5 -4.5q-44 -2 -140 -2q-240 0 -251 13q-3 3 -3 8q0 11 45 137q39 110 67 173q17 37 17 51q0 16 -27 16q-2 0 -6.5 -0.5t-7.5 -0.5h-4q-48 0 -48 25q0 14 33 28.5t113 34.5q71 18 139 44q23 10 54 19z" />
    <glyph glyph-name="Z" unicode="Z" horiz-adv-x="516" 
d="M265 643q13 27 25 27q7 0 16 -9q10 -9 10 -23q0 -13 -7 -28q-6 -14 -33 -155q-12 -61 -27 -99q-20 -52 -20 -68q0 -10 8 -10q10 0 39 17q106 59 125 59q14 0 40.5 -20t26.5 -31q0 -17 -36.5 -43.5t-60.5 -26.5q-13 0 -65 -21.5t-52 -28.5q0 -2 12 -2q21 0 90 9q22 3 39 3
q9 0 10 -1q4 -3 23 3q4 2 14 2q17 0 34 -9t20 -21q5 -18 5 -26q0 -22 -33.5 -29t-151.5 -13q-109 -7 -174 -7q-64 0 -90 9q-21 7 -21 19q0 10 12 28l13 21l-16 3q-15 4 -22 18q-3 4 -3 9q0 8 14 25q65 78 65 91q0 7 9 12q11 8 29 44q20 41 24 43q7 5 28 52q18 44 45 92
q24 42 24 50t12 35z" />
    <glyph glyph-name="a" unicode="a" horiz-adv-x="501" 
d="M130 448q9 13 21 29t31.5 35t30.5 19q5 0 10 -6q1 -1 1 -2q0 -6 -21 -40q-25 -36 -25 -66q0 -29 12.5 -43t46.5 -25q21 -7 41 -7q14 0 36 3q38 4 49 4h5q10 -1 10 -14q0 -17 -16 -40q-14 -21 -14 -29q0 -2 1 -2q7 0 48 30q48 35 61 35q12 0 20 -11.5t8 -30.5
q0 -28 -41 -49.5t-92 -21.5h-11q-3 0 -8.5 0.5t-7.5 0.5q-19 0 -28 -13l-10 -15h45q46 0 64.5 -10t18.5 -36q0 -10 -1 -15q-2 -13 -6.5 -16.5t-26.5 -6.5q-34 -4 -197 -4h-54q-111 0 -115 7q-1 1 -1 4q0 28 61 96q26 29 38 29t21 -36q5 -21 10 -25t27 -5h7q24 0 37 8
q12 7 32 36.5t20 39.5q0 7 -30 13q-25 4 -61.5 22.5t-51.5 34.5t-16 53q0 23 4 35.5t17 34.5z" />
    <glyph glyph-name="b" unicode="b" horiz-adv-x="408" 
d="M151 270q-9 24 -16 24t-19 -27q-13 -34 -13 -54q0 -19 11 -25q19 -11 65 -11q82 0 102 23q11 15 11 26q0 10 -8 10l-18 -2q-48 -8 -58 -8q-14 0 -28 10q-19 12 -29 34zM226 550q25 10 37 10q35 0 42 -61q6 -42 22 -79q12 -28 12 -42t-15 -14q-19 0 -70 24q-43 21 -52 21
q-5 0 -10 -5q-9 -9 -9 -36q0 -32 13 -60q7 -15 13 -20t22 -6h3q21 0 63 14q43 17 58 17q17 0 27.5 -12t10.5 -32q-1 -21 -15.5 -84t-21.5 -71q-8 -9 -77 -15t-145 -6q-106 0 -113 11q-6 9 -6 22q0 17 15 65q32 102 101 203q46 69 53 92q10 31 18.5 44t23.5 20z" />
    <glyph glyph-name="c" unicode="c" horiz-adv-x="496" 
d="M28 527q8 13 24 13q12 0 18 -8q4 -4 22 -50q16 -42 45 -222q8 -51 18.5 -68.5t30.5 -17.5q43 0 102 62q55 58 86.5 117t31.5 103q0 27 19 55t38 28h4q7 -1 9 -11t4 -48v-20q0 -64 -30 -132q-45 -99 -137 -179.5t-160 -80.5q-10 0 -15 1q-23 4 -33 23.5t-21 82.5
q-19 107 -54 185q-15 31 -15 60q0 21 1 35q4 59 12 72z" />
    <glyph glyph-name="d" unicode="d" horiz-adv-x="515" 
d="M276 526q7 7 15 7q18 0 51 -32q35 -33 50.5 -61.5t23.5 -73.5q15 -80 58 -176q26 -63 26 -75q0 -9 -19 -26q-13 -10 -43.5 -11.5t-185.5 -3.5q-22 0 -57 -0.5t-48 -0.5q-76 0 -104 4.5t-28 16.5t24 41q41 53 52 102q38 154 42 194q5 45 10 60.5t16 15.5h4l13 -2l4 -170
l3 -171l34 -4q24 -2 62 -2q35 0 51 1q26 1 40.5 2t23 3t11 4t2.5 6q0 13 -38 94q-32 71 -66.5 154t-34.5 90q0 6 8 14z" />
    <glyph glyph-name="e" unicode="e" horiz-adv-x="465" 
d="M377 506q36 33 52 33h2q11 -1 13.5 -6t4.5 -24v-10q0 -35 -28 -74t-112 -120q-103 -101 -103 -110q0 -1 8 -1q16 0 33 4q35 7 102 7q47 0 58.5 -2t21.5 -13q15 -14 15 -25q0 -12 -19 -29q-23 -22 -57 -22q-14 0 -32 3q-30 6 -87 6q-49 0 -84 -5q-30 -6 -51 -25
q-21 -21 -42 -21t-39 20t-18 35q0 19 117.5 131.5t117.5 123.5l-1 2q-7 7 -78 11q-75 6 -79 9q-8 5 -8 15q0 18 21 34q49 37 85 37q37 0 91 -39q17 -12 28 -12q13 0 22 16q4 9 46 51z" />
    <glyph glyph-name="f" unicode="f" horiz-adv-x="396" 
d="M42 498q25 22 44 22q10 0 17 -8q6 -7 21 -64t21 -94q5 -29 11 -29q11 0 26 72q9 44 16 58.5t19 14.5q14 0 33 -18t30 -42q11 -22 11 -40q0 -25 -25 -49q-20 -19 -49.5 -36t-42.5 -17q-9 0 -11.5 -4t-2.5 -19q0 -36 12 -36q8 0 31 17q66 49 116 49q18 0 31 -7
q32 -18 32 -82q0 -37 -13 -72q-18 -51 -29 -51q-10 0 -12 60q-1 51 -14 64l-13 13l-25 -12q-24 -12 -72 -49q-55 -40 -71 -40q-9 0 -14 8q-9 13 -19 84q-16 106 -62 208q-23 50 -23 64q0 13 27 35z" />
    <glyph glyph-name="g" unicode="g" horiz-adv-x="545" 
d="M345 520q37 19 56 19q11 0 11 -7q0 -9 -49 -49q-45 -38 -60.5 -53t-15.5 -23t28 -13q28 -4 62.5 -20.5t43.5 -29.5q10 -14 10 -49q0 -29 -7.5 -56t-19.5 -36q-10 -7 -18 -7q-26 0 -61 68q-22 45 -48 72l-26 28l-11 -13q-17 -22 -30 -70.5t-13 -84.5q0 -24 7 -32t55 -8
q8 0 106 2l153 5l7 -15q5 -10 5 -32q0 -34 -8 -42q-6 -6 -289 -6q-142 0 -172 3q-46 6 -46 19q0 11 17 34q20 27 20 45q0 19 16.5 66.5t34.5 80.5q28 51 95 107.5t147 96.5z" />
    <glyph glyph-name="h" unicode="h" horiz-adv-x="499" 
d="M132 517q3 3 17 3q56 0 84 -13q14 -7 22.5 -26.5t20.5 -71.5q22 -103 73 -186q22 -39 22 -49q0 -13 -20 -13q-16 0 -73 13q-50 12 -73 12q-20 0 -20 -9q0 -7 18 -24l21 -19l102 5q83 4 117 4q27 0 35 -8q6 -6 6 -13q0 -4 -5 -24l-8 -28l-82 -4q-68 -4 -197 -4
q-139 0 -156 4q-21 4 -21 18q0 12 15 27q28 30 72 30q10 0 16 -1q14 -2 17 -2q13 0 13 7q0 5 -12 17q-31 28 -31 55q0 18 18 26q6 2 20 2q39 0 109 -12q5 -1 12 -1t7 5q0 9 -20 36q-81 117 -112 179q-12 24 -12 47q0 13 5 18z" />
    <glyph glyph-name="i" unicode="i" horiz-adv-x="477" 
d="M195 483q15 12 52.5 30t59.5 18q20 0 20 -18q0 -11 -39 -86t-92 -163q-49 -84 -49 -96q0 -7 81 -7q75 0 97.5 10t45.5 56q23 44 33 46h1q13 0 34.5 -49t22.5 -81v-13q0 -15 -3.5 -20.5t-17.5 -14.5q-13 -9 -33 -10.5t-112 -3.5q-24 -1 -38 -1q-17 0 -45 -0.5t-40 -0.5
q-158 0 -158 19q0 21 105 182q41 62 41 73q0 7 -59 11q-52 4 -68 8.5t-16 15.5q0 12 17 22.5t77 35.5q70 28 83 37z" />
    <glyph glyph-name="j" unicode="j" horiz-adv-x="490" 
d="M49 486q10 14 14.5 18t12.5 4q2 0 16 -2t140 -10q113 -6 159.5 -15.5t69.5 -30.5q14 -13 14 -33q0 -51 -71 -114q-31 -28 -47 -28q-8 0 -8 8q0 14 19 42q19 29 19 51q0 18 -12 28q-14 13 -64.5 23t-92.5 10q-38 0 -47 -9q-6 -6 -6 -38q0 -23 1 -38q3 -55 3 -172v-104
l-22 -2q-2 0 -7 -0.5t-8 -0.5q-16 0 -28 3q-23 4 -31.5 31.5t-14.5 118.5q-8 127 -12 153.5t-18 37.5q-13 10 -13 15q0 4 7 14q9 12 27 40z" />
    <glyph glyph-name="k" unicode="k" horiz-adv-x="483" 
d="M169 517q8 10 12 10q14 -1 22.5 -28.5t19.5 -113.5q2 -15 4 -33.5t3 -27.5l2 -9q1 -6 9 0q4 3 4 6q0 11 13.5 36t25.5 36q17 16 39 21.5t70 5.5q41 0 51.5 -2t17.5 -12q6 -8 6 -14q0 -10 -14 -23t-52 -39q-60 -41 -81 -61q-26 -25 -44 -25q-13 0 -23 12q-8 8 -12 8
q-7 0 -13 -38q-2 -22 -2 -23q0 -12 14 -17q16 -6 74 -6q46 0 53 5q2 1 14.5 20t20.5 19q16 0 33 -33.5t17 -64.5q0 -28 -28.5 -34t-182.5 -9q-184 -4 -196 -7q-12 -4 -25 9q-7 7 -7 11q0 7 28 39q54 65 80 135.5t34 175.5q5 59 13 71z" />
    <glyph glyph-name="l" unicode="l" horiz-adv-x="375" 
d="M20 511q8 10 44 10h37l34 -39q35 -40 47 -56q69 -94 104 -130q34 -36 42 -51.5t20 -65.5t12 -71q0 -22 -12.5 -28.5t-46.5 -6.5q-36 0 -72 18q-31 16 -48.5 34.5t-40.5 57.5q-16 26 -16 38q0 6 6 6q9 0 30 -15q2 -2 58 -41q32 -23 51 -23q16 0 16 17q0 19 -21.5 56
t-40.5 52q-32 24 -118 112.5t-89 100.5q-5 14 4 25z" />
    <glyph glyph-name="m" unicode="m" horiz-adv-x="503" 
d="M407 523q11 10 21 10q9 0 25 -13q35 -28 35 -65q0 -16 -54 -87q-51 -68 -107 -180q-55 -110 -61 -110h-6q-17 0 -71 34q-55 35 -107 75t-59 52q-6 12 -8 93q0 64 6 81t29 20q5 1 14 1q20 0 30.5 -14t20.5 -51q3 -13 6 -13q1 0 1 3q1 14 15.5 47.5t27.5 50.5q15 20 33 20
q13 0 19 -12q6 -14 6 -68q2 -65 7 -84q11 -52 11 -70q0 -17 -7 -24q-11 -8 -21 -6q-19 4 -77 103l-14 25l3 -35q4 -63 43 -86q45 -26 74 -26q4 0 5 1q8 4 46 96q88 209 114 232z" />
    <glyph glyph-name="n" unicode="n" horiz-adv-x="401" 
d="M249 522q22 11 34 11t27 -10q14 -9 14 -25q0 -17 -19 -50q-84 -138 -84 -156q0 -10 13 -10q4 0 20 2q20 4 40 4q52 0 59 -42q1 -5 1 -14q0 -30 -30 -64q-19 -19 -19 -26q0 -5 35 -9q46 -6 46 -22q0 -5 -5 -9q-10 -8 -56 -18t-79 -10q-34 0 -34 12q0 11 27 47q35 46 35 66
q0 21 -36 21h-3q-32 -2 -50 -13.5t-33 -41.5q-23 -44 -38 -58.5t-43 -16.5q-10 -1 -25 -1q-31 0 -31 17q0 13 53 93q69 105 93 165q33 85 51 116.5t37 41.5z" />
    <glyph glyph-name="o" unicode="o" horiz-adv-x="414" 
d="M54 530q12 9 20 9q9 0 25 -13q11 -10 13 -17q4 -16 13 -231q5 -113 11 -118q7 -5 72 -5q55 0 69.5 7t14.5 33q0 62 -68 129q-42 41 -42 50q0 2 2 4t6 2q16 0 57 -23.5t72 -50.5q54 -48 71 -116q8 -28 8 -67q0 -38 -8 -43q-8 -6 -132 -6h-58l-183 2l-2 14q-2 14 9 41
q12 27 14 209q2 134 4 158.5t12 31.5z" />
    <glyph glyph-name="p" unicode="p" horiz-adv-x="348" 
d="M86 502q30 25 37 25q4 0 23 -15q39 -32 39 -143q0 -45 4 -61t17 -16q6 0 23 5q40 14 65 14q16 0 27 -7q12 -9 12 -32q0 -61 -61 -141q-55 -71 -74 -71q-15 0 -15 13t19 46q22 35 26 66q1 7 1 16q0 7 -3 9t-12 2q-18 0 -46.5 -21.5t-50.5 -50.5q-47 -65 -70 -65h-3
q-9 3 -9 16q0 23 31 73q43 71 43 137q0 41 -17 70q-10 18 -24 18q-7 0 -12 -7q-4 -6 -23 -6q-11 0 -14.5 2.5t-3.5 12.5q0 14 9 23q9 7 20 35q12 29 42 53z" />
    <glyph glyph-name="q" unicode="q" horiz-adv-x="519" 
d="M286 534q8 5 14 5q18 0 38 -85q14 -57 24 -57q11 0 49 36q37 36 54 36h6q33 -3 33 -42q0 -13 -3 -29q-7 -33 -25 -54t-57 -40l-42 -20l-1 -38v-15q0 -30 12.5 -41t48.5 -14q43 -4 53 -14q10 -9 10 -23q0 -17 -14 -31q-13 -13 -61.5 -18t-171.5 -5h-52q-159 1 -172 10
q-14 9 -14 24q0 17 18 33q22 21 73 21q28 0 64 -6q32 -4 36 -4q17 0 24 9t15 36q6 19 13.5 82.5t7.5 87.5q0 7 -1 8h-1q-4 0 -54 -11q-39 -10 -55 -10q-7 0 -27 4q-33 9 -51 29.5t-34 66.5q-10 30 -10 38q0 10 10 20q9 10 21 10q14 0 36 -16q29 -19 93.5 -53.5t71.5 -34.5h1
q3 3 7 52q4 47 13 53z" />
    <glyph glyph-name="r" unicode="r" horiz-adv-x="527" 
d="M208 515q3 7 17 5q15 -2 21 -28t6 -93q0 -8 -0.5 -27t-0.5 -31q-2 -121 -6 -151q-1 -5 -1 -13q0 -29 32 -29q19 0 25.5 7t6.5 31q0 19 -1 31t-1 30q0 32 8 49q9 22 19 22q12 0 20 -31q8 -32 26 -67.5t30 -42.5q14 -9 48 -16q35 -6 42 -13q13 -10 13 -37q0 -18 -7 -29
l-10 -16h-233q-179 0 -213 3.5t-34 22.5q0 11 20 28t46 28q34 15 43 24q10 8 30.5 77.5t30.5 121.5q4 16 13 82q6 56 10 62z" />
    <glyph glyph-name="s" unicode="s" horiz-adv-x="487" 
d="M292 513q30 13 66 13q27 0 73 -8q41 -7 41 -19q0 -11 -56 -29q-142 -47 -236 -135q-36 -35 -61 -69t-25 -46q0 -4 4 -4q9 0 34 21q24 21 82 52q60 30 108 30q27 0 43 -10q15 -11 15 -26q0 -12 -1 -20q-3 -35 -28 -73q-22 -33 -57.5 -67.5t-58.5 -46.5q-13 -8 -19 -8
q-5 0 -10 8q-5 7 -5 12q0 14 32 50q34 39 34 63q0 17 -16 21q-2 1 -6 1q-20 0 -54 -19.5t-62 -47.5q-59 -58 -91 -58q-23 0 -23 32q0 14 5 41q31 151 133 243q86 77 139 99z" />
    <glyph glyph-name="t" unicode="t" horiz-adv-x="357" 
d="M190 509q21 24 35 24q10 0 23 -16t13 -34q0 -19 -20 -44q-23 -27 -33 -63q-9 -27 -9 -36q0 -10 9 -29q14 -33 43 -72t58 -64q33 -29 33 -39v-1l-1 -1q-3 -6 -12 -6q-28 0 -68 34q-29 24 -52 37q-31 17 -67 17q-13 0 -16 -4q-1 -1 -1 -5q0 -20 50 -76q36 -40 36 -46
q0 -10 -8 -10q-22 0 -94 60q-65 52 -82 103q-5 17 -5 20q0 6 8 16q12 14 36 17q24 5 24 10t-19 15q-56 28 -56 71q0 29 17 59.5t34 30.5q11 0 24.5 -17.5t20.5 -40.5q9 -32 17 -32q7 0 13 27q12 52 49 95z" />
    <glyph glyph-name="u" unicode="u" horiz-adv-x="424" 
d="M205 448q-64 4 -86 7q-12 2 -15 2q-12 0 -12 -8q0 -11 30 -57q20 -29 27 -29q1 0 1 2q0 7 -8 23q-10 17 -10 33q0 9 4 13h1q1 1 2 1q19 0 60 -31q23 -19 38 -19q12 0 35 17q28 22 28 29t-20.5 10.5t-74.5 6.5zM129 515q88 5 145 5q114 0 125 -11q10 -9 10 -25
q0 -21 -17 -47q-23 -34 -36 -58q-16 -28 -48 -63t-51 -45q-12 -5 -18 -5q-15 0 -46 35q-19 23 -23 23v-1q0 -4 38 -84t38 -92q0 -10 -33.5 -44t-47.5 -38q-15 -3 -20 1q-7 5 -12.5 32.5t-6.5 60.5q-1 59 -34.5 158t-67.5 141q-10 13 -10 24q0 16 16 24q7 3 99 9z" />
    <glyph glyph-name="v" unicode="v" horiz-adv-x="381" 
d="M179 428q5 9 10 9q18 0 30 -56q10 -43 20 -68q7 -18 11 -18q2 0 8 8q4 4 29 48q23 38 41 38q12 0 26 -21q12 -21 12 -43q0 -56 -57 -91q-30 -19 -30 -28q0 -20 56 -78l23 -24l-18 -17q-14 -13 -30 -13q-10 0 -17 1q-64 9 -80 49q-10 23 -10 41q0 17 -7.5 44.5t-11.5 27.5
t-8 -10.5t-4 -21.5t-7 -43q-8 -39 -39.5 -64.5t-70.5 -25.5q-13 0 -25 3q-15 5 -15 13q0 12 27 47q41 51 78.5 128t48.5 132q7 26 10 33zM41 513q7 9 23 7q11 -1 17.5 -14.5t27.5 -74.5q24 -69 24 -89q0 -16 -15 -16q-4 0 -16 2q-22 4 -51.5 34.5t-33.5 53.5q0 1 -0.5 4.5
t-0.5 5.5q0 20 7.5 47.5t17.5 39.5z" />
    <glyph glyph-name="w" unicode="w" horiz-adv-x="460" 
d="M352 522q9 6 19 6q28 0 46 -32q8 -15 8 -37q0 -34 -27 -115q-27 -79 -30 -129l-2 -44l34 -4q26 -3 35.5 -10.5t9.5 -25.5q0 -13 -7 -30.5t-14 -22.5q-5 -4 -200 -4q-193 0 -200 4q-9 6 -9 18q0 13 10 33q9 19 9 30q0 8 -8 48q-11 52 -11 82q0 57 39 98q31 31 94 59t99 28
q15 0 21 -6q5 -7 5 -10q0 -10 -40 -28q-57 -26 -91 -62.5t-34 -71.5q0 -6 2 -16q7 -24 34.5 -55.5t55.5 -45.5q32 -18 64 -18q22 0 29 9q7 7 13 96q5 85 13 122q23 129 33 134z" />
    <glyph glyph-name="x" unicode="x" horiz-adv-x="444" 
d="M246 267q-7 7 -13 7q-7 0 -25 -15l-18 -16h32q32 0 32 10q0 6 -8 14zM83 513q9 5 24 5q31 0 84 -27q47 -23 47 -36q0 -7 -14 -13t-14 -20q0 -12 10 -26q45 -67 100 -131q38 -46 38 -57q0 -18 -74 -22q-91 -6 -91 -25q0 -15 47 -15q11 0 61 4t61 4q56 0 65 -26q2 -8 2 -11
q0 -28 -44 -39q-21 -6 -158 -6q-187 0 -201 8q-11 6 -11 15q0 15 34 56q57 68 115 88l24 9l-36 4q-35 4 -51 21q-30 33 -30 55q0 16 12 29l11 15l40 -27q38 -26 48 -26q3 0 3 2q0 8 -35 48q-83 94 -83 121q0 14 16 23z" />
    <glyph glyph-name="y" unicode="y" horiz-adv-x="468" 
d="M303 410q-7 3 -20 3q-34 0 -48 -12q-1 -1 -1 -2q0 -9 40 -9q8 0 20 2q19 3 19 10q0 5 -10 8zM373 517q23 5 31 5q11 0 20 -4q21 -9 21 -25q0 -14 -14 -28t-39 -22q-8 -3 -11 -4t-7 -4t-5 -6t-1 -9q0 -8 5 -38q1 -4 1 -11q0 -38 -54 -38q-21 0 -51 6q-25 5 -40 5
q-37 0 -52 -23q-10 -16 -15 -70q-6 -56 -9 -68q-4 -13 5 -24q5 -7 14 -9t38 -2h32q68 2 103 6q19 3 24 6.5t6 13.5q0 20 1 24q0 7 10 7q11 0 29 -9q17 -9 27.5 -28.5t10.5 -40.5q0 -28 -17 -39q-14 -9 -92 -15t-166 -6q-146 0 -159 13q-4 4 -4 12q0 18 63 181q30 79 30 94
q0 9 -20 9q-45 0 -45 19q0 12 22 25t58 19q48 10 127 38q94 33 123 40z" />
    <glyph glyph-name="z" unicode="z" horiz-adv-x="414" 
d="M216 494q7 20 17 20q4 0 14 -5q10 -6 5 -23q-28 -155 -46 -211q-15 -47 -15 -52t8 -5q9 0 69 33q30 17 49 17t38 -12.5t19 -24.5t-20.5 -28.5t-44.5 -23.5q-27 -7 -58 -21l-31 -15h31q57 3 70 5q18 2 24 2q54 0 54 -37q0 -7 -3 -16q-4 -12 -22.5 -15t-116.5 -9
q-105 -5 -117 -5q-23 0 -59 6q-49 8 -49 21q0 5 6 16q6 10 6 15q0 4 -13 16l-16 13l39 51q42 56 63 90q18 31 53.5 102t45.5 96z" />
    <glyph glyph-name="nbsp" unicode="&#xa0;" 
 />
  </font>
</defs>
</svg>
