<?xml version="1.0" standalone="no"?>
<!DOCTYPE svg PUBLIC "-//W3C//DTD SVG 20010904//EN"
 "http://www.w3.org/TR/2001/REC-SVG-20010904/DTD/svg10.dtd">
<svg version="1.0" xmlns="http://www.w3.org/2000/svg"
 width="265.000000pt" height="265.000000pt" viewBox="0 0 265.000000 265.000000"
 preserveAspectRatio="xMidYMid meet">

<g transform="translate(0.000000,265.000000) scale(0.100000,-0.100000)"
fill="#000000" stroke="none">
<path d="M634 2522 c-18 -12 -39 -39 -51 -68 -30 -69 -53 -231 -53 -368 l0
-116 -75 0 c-82 0 -108 -15 -120 -71 -6 -26 -11 -29 -44 -29 -51 0 -81 -32
-81 -87 0 -57 24 -84 82 -90 l46 -5 27 -87 c30 -96 83 -198 126 -244 l29 -30
0 87 0 87 63 -67 c34 -37 65 -77 69 -90 11 -40 47 -82 76 -88 15 -3 55 -8 90
-11 34 -4 62 -11 62 -16 0 -5 -36 -26 -80 -47 l-81 -38 -43 42 c-71 68 -206
123 -302 124 -22 0 -59 9 -82 20 -26 13 -61 20 -96 20 -47 0 -61 -4 -87 -28
-27 -24 -33 -37 -36 -83 -3 -39 1 -64 14 -89 33 -64 127 -88 212 -54 44 18 40
20 146 -61 22 -16 60 -39 85 -49 57 -25 55 -23 40 -41 -11 -13 -24 -15 -61
-10 -52 7 -71 0 -131 -48 -30 -24 -38 -37 -38 -64 0 -85 118 -111 213 -46 23
15 61 37 85 49 l42 21 77 -86 c42 -47 86 -96 97 -108 11 -13 16 -26 13 -30
-12 -12 -231 -53 -372 -69 -145 -17 -219 -14 -334 12 -35 8 -66 12 -68 10 -17
-16 97 -173 188 -262 174 -167 392 -244 613 -216 120 15 239 52 346 109 l86
44 84 -45 c107 -56 225 -93 346 -108 221 -28 439 49 613 216 91 89 205 246
188 262 -2 2 -33 -2 -68 -10 -115 -26 -189 -29 -334 -12 -141 16 -360 57 -372
69 -3 4 2 17 13 30 11 12 55 61 97 108 l77 86 42 -21 c24 -12 62 -34 85 -49
95 -65 213 -39 213 46 0 27 -8 40 -37 64 -61 48 -80 55 -132 48 -37 -5 -50 -3
-61 10 -15 18 -17 16 40 41 25 10 63 33 85 49 106 81 102 79 146 61 85 -34
179 -10 212 54 13 25 17 50 14 89 -3 46 -9 59 -36 83 -26 24 -40 28 -87 28
-35 0 -70 -7 -96 -20 -23 -11 -60 -20 -82 -20 -96 -1 -231 -56 -302 -124 l-43
-42 -81 38 c-44 21 -80 42 -80 47 0 5 28 12 63 16 34 3 74 8 89 11 29 6 65 48
76 88 4 13 35 53 70 90 l62 67 0 -87 0 -87 29 30 c43 46 96 148 126 244 l27
87 46 5 c58 6 82 33 82 91 0 54 -30 86 -82 86 -32 0 -37 4 -43 29 -12 56 -38
71 -120 71 l-75 0 0 123 c-1 142 -27 313 -59 374 -57 112 -187 91 -379 -62
l-83 -66 -62 23 c-54 20 -81 23 -212 23 -131 0 -158 -3 -212 -23 l-62 -23 -83
66 c-148 118 -267 159 -334 117z m153 -46 c120 -56 277 -186 315 -260 31 -60
21 -131 -23 -168 -54 -45 -98 -39 -162 21 -29 27 -90 101 -137 165 -47 63 -88
115 -93 115 -4 1 4 -16 17 -36 47 -73 49 -102 20 -325 -31 -245 -47 -302 -86
-306 -36 -4 -83 19 -137 68 -24 22 -46 39 -48 37 -2 -2 15 -25 38 -51 52 -59
41 -77 -21 -36 -24 16 -56 34 -71 40 -23 10 -27 19 -33 69 -7 59 4 109 27 123
18 11 115 10 138 -2 10 -6 19 -17 19 -26 0 -18 29 -89 34 -83 2 2 -2 42 -10
89 -18 111 -18 199 1 345 29 224 83 281 212 221z m1219 3 c26 -22 54 -111 68
-224 19 -146 20 -234 2 -345 -8 -47 -12 -87 -10 -89 5 -6 34 65 34 83 0 9 9
20 19 26 23 12 120 13 138 2 23 -14 34 -64 27 -123 -6 -50 -10 -59 -33 -69
-15 -6 -47 -24 -71 -40 -62 -41 -73 -23 -21 36 23 26 40 49 38 51 -2 2 -24
-15 -48 -37 -54 -49 -101 -72 -137 -68 -39 4 -55 61 -86 306 -29 223 -27 252
20 325 13 20 21 37 17 36 -5 0 -60 -70 -123 -156 -64 -86 -125 -159 -138 -164
-13 -5 -44 -9 -69 -9 -37 0 -50 5 -74 31 -92 99 57 308 304 425 53 25 115 27
143 3z m-511 -158 c68 -19 68 -19 31 -106 -38 -89 -35 -128 13 -176 37 -37 42
-39 100 -39 69 0 108 16 140 56 12 15 24 25 27 22 16 -17 56 -159 60 -216 6
-72 -23 -229 -41 -225 -6 1 -22 46 -36 100 -26 95 -27 97 -34 60 -15 -78 -2
-151 41 -219 36 -58 39 -69 39 -135 0 -57 -4 -77 -21 -100 -34 -45 -82 -73
-128 -73 -23 0 -58 -5 -79 -11 -32 -8 -41 -18 -57 -54 -14 -32 -31 -51 -67
-72 -45 -26 -55 -28 -158 -28 -103 0 -113 2 -158 28 -36 21 -53 40 -67 72 -16
36 -25 46 -57 54 -21 6 -56 11 -79 11 -62 0 -131 54 -149 117 -5 19 -1 23 36
33 40 11 43 10 70 -20 36 -39 86 -60 144 -60 115 0 198 98 181 213 -10 65 -42
108 -103 137 l-52 25 -1 69 0 68 34 -26 c19 -14 37 -26 40 -26 3 0 6 20 6 44
0 57 23 168 49 237 11 29 19 54 17 56 -9 9 -81 -86 -102 -134 l-24 -54 -26 20
c-15 12 -30 21 -35 21 -16 0 -42 -118 -43 -200 l-1 -86 -38 -18 c-23 -11 -47
-34 -63 -61 -34 -59 -56 -65 -27 -7 23 46 31 136 16 192 -5 19 -12 4 -32 -73
-14 -54 -30 -99 -36 -99 -19 0 -47 152 -41 224 4 58 44 199 61 216 3 3 20 -8
38 -25 86 -82 179 -82 241 -1 44 58 34 129 -30 215 l-23 31 72 20 c94 27 265
28 352 3z m-1153 -498 c39 -35 11 -103 -43 -103 -36 0 -59 24 -59 60 0 54 61
80 102 43z m2052 1 c9 -8 16 -28 16 -44 0 -36 -23 -60 -57 -60 -55 0 -83 62
-46 102 20 22 66 24 87 2z m-1869 -185 l125 -82 0 -71 0 -71 -63 66 c-98 104
-222 253 -204 246 9 -3 73 -43 142 -88z m1678 -1 c-43 -50 -106 -121 -140
-157 l-63 -66 0 71 0 71 133 87 c72 47 135 86 140 86 4 0 -28 -41 -70 -92z
m-1461 24 c-21 -6 -24 3 -10 34 l13 28 5 -30 c4 -19 1 -30 -8 -32z m1188 6 c0
-5 -8 -8 -18 -8 -15 0 -18 6 -14 31 l5 32 13 -24 c7 -13 13 -27 14 -31z
m-1486 -55 l56 -67 0 -80 c0 -78 0 -80 -18 -61 -35 38 -119 275 -98 275 3 0
30 -30 60 -67z m1812 1 c-20 -75 -69 -191 -90 -212 -15 -15 -16 -10 -16 64 l0
80 56 67 c31 38 58 66 61 64 2 -3 -3 -31 -11 -63z m-1484 -49 c-10 -133 -6
-169 21 -222 15 -29 27 -55 27 -58 0 -3 -24 -5 -52 -3 -51 3 -54 5 -73 43 -27
56 -34 209 -10 254 14 29 20 32 53 29 37 -3 37 -3 34 -43z m1194 14 c23 -45
16 -198 -11 -254 -19 -38 -22 -40 -73 -43 -28 -2 -52 -1 -52 2 0 2 13 33 30
68 32 68 38 124 19 189 -16 52 -7 69 35 69 30 0 38 -5 52 -31z m-1089 -85 c-2
-3 -18 -9 -36 -14 -24 -7 -31 -6 -31 5 0 16 63 37 69 23 1 -5 1 -11 -2 -14z
m-613 -185 c29 -13 43 -73 32 -137 -7 -46 -28 -62 -84 -62 -35 0 -49 6 -73 29
-49 50 -35 147 25 171 30 12 71 12 100 -1z m2253 -24 c35 -40 32 -108 -6 -146
-24 -23 -38 -29 -73 -29 -24 0 -52 6 -61 13 -38 27 -34 165 6 186 38 19 108 7
134 -24z m-2127 -26 c0 -15 -22 -21 -31 -8 -14 22 -11 28 11 22 11 -3 20 -9
20 -14z m1904 -3 c-7 -18 -25 -17 -31 1 -2 6 4 13 14 15 23 5 25 4 17 -16z
m-1948 -43 c-8 -20 -12 -16 -20 27 -6 34 -6 35 10 12 9 -13 13 -30 10 -39z
m1975 17 c-5 -24 -9 -31 -15 -21 -5 7 -3 23 5 37 16 31 19 27 10 -16z m-1867
-1 c14 -17 26 -36 26 -43 0 -12 -60 -36 -89 -36 -17 0 -13 57 5 85 21 32 27
31 58 -6z m66 15 l40 -16 -26 -20 c-14 -11 -26 -19 -28 -17 -9 11 -36 69 -31
69 2 0 23 -7 45 -16z m1644 -16 c-9 -18 -18 -35 -20 -37 -2 -2 -14 6 -28 17
l-26 20 38 15 c52 22 55 21 36 -15z m90 7 c18 -28 22 -85 5 -85 -29 0 -89 24
-89 36 0 14 48 74 60 74 4 0 15 -11 24 -25z m-1206 -5 c37 -23 35 -14 37 -115
2 -80 23 -141 69 -200 15 -19 15 -17 16 26 l0 47 37 -19 c52 -27 184 -27 236
0 l37 19 0 -47 c1 -43 1 -45 16 -26 46 59 67 120 69 200 2 101 0 92 38 115 38
24 92 26 101 5 3 -9 0 -15 -10 -15 -26 0 -72 -29 -79 -50 -9 -28 3 -58 26 -65
32 -11 40 -47 21 -97 -37 -92 -65 -120 -36 -34 22 65 13 66 -21 4 -36 -66 -97
-133 -154 -170 -40 -25 -54 -28 -126 -28 -72 0 -86 3 -126 28 -57 37 -118 104
-154 170 -34 62 -43 61 -21 -4 29 -86 1 -58 -36 34 -19 50 -11 86 21 97 23 7
35 37 26 65 -7 21 -53 50 -79 50 -10 0 -13 6 -10 15 9 21 63 19 102 -5z m-443
-114 c6 -31 5 -34 -25 -40 -66 -13 -70 -10 -70 42 0 41 4 50 32 69 l32 23 13
-30 c6 -17 15 -45 18 -64z m1518 61 c12 -10 17 -28 17 -61 0 -50 -4 -53 -69
-40 -36 7 -37 14 -15 82 18 54 21 55 67 19z m-1138 9 c35 -15 48 -46 20 -46
-7 0 -19 -8 -24 -17 -10 -17 -10 -17 -11 0 0 10 -8 17 -19 17 -29 0 -35 -19
-14 -42 18 -20 18 -21 -17 -15 -19 3 -45 8 -56 12 -29 9 -88 -44 -133 -122
-47 -78 -68 -101 -121 -128 -25 -13 -69 -36 -98 -51 -45 -23 -59 -26 -89 -18
-50 12 -62 35 -35 62 17 17 22 18 22 7 0 -17 23 -20 51 -5 26 15 24 27 -8 38
l-28 10 30 12 c22 9 39 9 65 1 34 -11 36 -10 80 37 25 26 61 75 81 109 29 49
47 66 90 88 30 15 70 36 89 46 42 23 79 24 125 5z m805 -5 c19 -10 59 -31 89
-46 43 -22 61 -39 90 -88 20 -34 56 -83 81 -109 44 -47 46 -48 80 -37 26 8 43
8 65 -1 l30 -12 -27 -10 c-33 -11 -35 -23 -9 -38 28 -15 51 -12 51 5 0 11 5
10 22 -7 27 -27 15 -50 -35 -62 -30 -8 -44 -5 -89 18 -29 15 -73 38 -98 51
-53 27 -74 50 -121 128 -45 78 -104 131 -133 122 -11 -4 -37 -9 -56 -12 -35
-6 -35 -5 -17 15 21 23 15 42 -14 42 -11 0 -19 -7 -19 -17 -1 -17 -1 -17 -11
0 -5 9 -17 17 -24 17 -28 0 -15 31 18 45 44 20 86 18 127 -4z m-1430 -11 c0
-14 -7 -20 -22 -20 -20 0 -21 1 -3 20 10 11 20 20 22 20 1 0 3 -9 3 -20z
m1955 0 c18 -19 17 -20 -3 -20 -15 0 -22 6 -22 20 0 11 2 20 3 20 2 0 12 -9
22 -20z m-1635 -50 c0 -4 -11 -12 -25 -18 -23 -10 -25 -9 -25 11 0 12 -3 33
-7 47 l-6 25 32 -29 c17 -17 31 -33 31 -36z m1343 13 c-5 -39 -7 -42 -27 -31
-11 6 -23 12 -25 14 -3 3 8 18 24 34 16 16 30 29 31 27 2 -1 0 -21 -3 -44z
m-1533 -18 c0 -29 -4 -35 -21 -35 -12 0 -38 10 -58 22 l-36 23 44 7 c24 4 46
10 49 13 14 13 22 2 22 -30z m674 -24 c-4 -9 -9 -43 -12 -75 l-5 -60 -17 35
c-22 42 -34 111 -25 139 l6 20 30 -21 c21 -15 28 -26 23 -38z m381 -19 c-4
-26 -15 -63 -25 -82 l-19 -35 -1 47 c0 26 -5 59 -11 75 -9 25 -7 30 18 50 24
19 29 20 36 7 5 -8 6 -36 2 -62z m695 59 l35 -6 -36 -23 c-20 -12 -46 -22 -58
-22 -17 0 -21 6 -21 36 0 32 2 35 23 28 12 -4 38 -10 57 -13z m-915 -42 c50 0
99 3 108 7 16 6 16 2 -2 -47 -11 -29 -19 -55 -16 -57 4 -4 26 41 40 83 l7 20
8 -20 c15 -37 11 -64 -13 -80 -38 -24 -66 -14 -87 32 -10 22 -23 44 -29 47
-16 10 -14 1 9 -41 30 -56 27 -63 -25 -63 -52 0 -55 7 -25 63 23 42 25 51 9
41 -6 -3 -19 -25 -29 -47 -21 -46 -49 -56 -87 -32 -24 16 -28 43 -13 80 l8 20
7 -20 c14 -42 36 -87 40 -83 3 2 -5 28 -16 57 -18 49 -18 53 -2 47 9 -4 58 -7
108 -7z m-671 -48 c-14 -23 -27 -41 -28 -41 -1 0 0 15 2 34 3 22 11 37 25 44
32 14 32 9 1 -37z m1368 -7 c2 -19 3 -34 2 -34 -3 0 -54 80 -54 85 0 2 11 0
24 -6 17 -8 25 -21 28 -45z m-1081 -35 c11 -24 46 -68 77 -98 35 -33 45 -47
27 -36 -48 29 -225 166 -225 174 0 22 23 28 61 17 34 -10 44 -20 60 -57z m889
41 c0 -8 -175 -144 -225 -175 -18 -11 -8 3 27 36 31 30 66 74 77 99 16 36 27
46 58 55 36 11 63 5 63 -15z m-1220 6 c0 -8 -4 -26 -10 -41 l-10 -26 -47 33
-48 33 45 6 c25 3 51 7 58 7 6 1 12 -4 12 -12z m1538 -1 c2 -2 -17 -17 -42
-35 l-46 -31 -10 26 c-19 50 -15 55 43 48 28 -3 53 -7 55 -8z m-1283 -90 c71
-60 261 -192 352 -245 l64 -37 -93 -35 c-51 -20 -117 -43 -147 -52 l-54 -16
-51 53 c-28 29 -93 99 -144 155 l-93 102 19 27 c11 16 29 47 41 71 25 48 21
49 106 -23z m1050 -18 l35 -59 -93 -101 c-181 -200 -289 -295 -485 -426 -225
-152 -423 -212 -637 -196 -160 13 -263 58 -410 182 -40 34 -157 174 -151 181
2 1 34 -2 72 -9 100 -17 255 -5 399 30 65 17 121 28 123 26 3 -2 -37 -25 -88
-50 -104 -50 -101 -52 58 -34 227 24 423 85 630 194 118 63 322 200 427 288
52 44 72 56 78 45 4 -7 23 -39 42 -71z m-552 -220 c-36 -19 -37 -19 -76 0
l-39 19 76 0 76 0 -37 -19z m-428 -157 c-2 -4 -33 -13 -67 -20 -35 -6 -69 -14
-76 -16 -7 -2 11 18 40 45 l53 49 27 -25 c15 -14 25 -29 23 -33z m933 -36 c4
-3 -6 -1 -88 17 -74 16 -76 17 -44 50 l27 29 51 -47 c28 -26 53 -48 54 -49z
m137 16 c144 -36 299 -48 399 -31 38 7 70 10 72 9 6 -7 -111 -147 -151 -181
-92 -77 -179 -130 -248 -152 -187 -59 -424 -35 -625 63 -64 31 -71 37 -58 50
12 13 24 10 98 -21 112 -49 186 -67 293 -74 155 -9 306 27 408 99 45 32 25 31
-35 -2 -30 -17 -93 -39 -139 -51 -149 -37 -375 -14 -526 56 l-54 24 98 82 c54
45 105 88 113 95 12 10 35 9 125 -6 61 -10 151 -21 200 -25 l90 -7 -92 46
c-51 25 -93 48 -93 51 0 7 -12 9 125 -25z"/>
<path d="M1482 1673 c-79 -39 -89 -150 -20 -229 82 -93 206 -100 251 -14 26
49 18 147 -14 195 -41 60 -146 84 -217 48z"/>
<path d="M1266 1402 c-25 -43 -46 -90 -46 -103 0 -49 47 -65 85 -29 l22 20 18
-20 c34 -37 85 -20 85 29 0 30 -87 181 -105 181 -7 0 -34 -35 -59 -78z"/>
<path d="M938 1173 c7 -3 16 -2 19 1 4 3 -2 6 -13 5 -11 0 -14 -3 -6 -6z"/>
<path d="M438 793 c7 -3 16 -2 19 1 4 3 -2 6 -13 5 -11 0 -14 -3 -6 -6z"/>
<path d="M1698 1173 c7 -3 16 -2 19 1 4 3 -2 6 -13 5 -11 0 -14 -3 -6 -6z"/>
<path d="M2198 793 c7 -3 16 -2 19 1 4 3 -2 6 -13 5 -11 0 -14 -3 -6 -6z"/>
<path d="M1451 475 c-206 -156 -401 -232 -621 -242 -134 -6 -243 16 -338 67
-60 33 -80 34 -35 2 125 -88 324 -122 505 -88 147 28 263 84 448 215 83 58
182 140 170 140 -3 0 -61 -42 -129 -94z"/>
</g>
</svg>
