<?xml version="1.0" standalone="no"?>
<!DOCTYPE svg PUBLIC "-//W3C//DTD SVG 1.1//EN" "http://www.w3.org/Graphics/SVG/1.1/DTD/svg11.dtd" >
<svg xmlns="http://www.w3.org/2000/svg" xmlns:xlink="http://www.w3.org/1999/xlink" version="1.1">
<metadata>
Created by FontForge 20170731 at Fri Feb  7 02:48:38 2014
 By Aleksey,,,
Typeface (c) Gunny 1999-2014. http://fonty.condak.cz
</metadata>
<defs>
<font id="GunnyRewritten" horiz-adv-x="1000" >
  <font-face 
    font-family="Gunny Rewritten"
    font-weight="400"
    font-stretch="normal"
    units-per-em="2048"
    panose-1="3 8 4 0 0 0 0 0 0 0"
    ascent="1638"
    descent="-410"
    x-height="652"
    cap-height="1452"
    bbox="-137 -780 1987 1960"
    underline-thickness="150"
    underline-position="-442"
    unicode-range="U+0020-F005"
  />
<missing-glyph horiz-adv-x="1741" 
d="M256 0v1536h1229v-1536h-1229zM294 38h1152v1460h-1152v-1460z" />
    <glyph glyph-name=".notdef" horiz-adv-x="1741" 
d="M256 0v1536h1229v-1536h-1229zM294 38h1152v1460h-1152v-1460z" />
    <glyph glyph-name=".null" horiz-adv-x="0" 
 />
    <glyph glyph-name="nonmarkingreturn" horiz-adv-x="569" 
 />
    <glyph glyph-name="space" unicode=" " horiz-adv-x="569" 
 />
    <glyph glyph-name="space" unicode="&#xa0;" horiz-adv-x="569" 
 />
    <glyph glyph-name="exclam" unicode="!" horiz-adv-x="367" 
d="M291 1506q37 0 37 -70q0 -48 -29.5 -184t-44.5 -274.5t-15 -245.5q0 -117 6 -185t6 -95q0 -31 -15 -31q-32 0 -63 177.5t-31 368.5q0 147 22.5 343t126.5 196zM262 166q26 0 47 -7.5t21 -31.5q0 -20 -30 -55.5t-70 -35.5q-20 0 -43 15t-23 38q0 20 27 48.5t71 28.5z" />
    <glyph glyph-name="quotedbl" unicode="&#x22;" horiz-adv-x="493" 
d="M123 1448q13 36 126 36q-61 -224 -61 -300q0 -38 16 -38q19 0 61 69.5t74 202.5q5 20 118 20q-71 -276 -78 -450l-72 6q-14 89 -14 155q0 58 11 97q-86 -167 -133 -167q-24 0 -49 24q-36 35 -36 127q0 94 37 218z" />
    <glyph glyph-name="numbersign" unicode="#" horiz-adv-x="1130" 
d="M21 677q169 19 383 27q19 119 59 231q30 11 124 11q-50 -152 -66 -242l202 -2q14 132 47 264l129 -14q-36 -126 -55 -252q252 -6 279 -69l-294 -12q-14 -87 -27 -175q335 -8 345 -59q-202 -7 -358 -21q-8 -122 -8 -192q0 -24 2 -69t13 -84q5 -20 5 -30q0 -8 -4 -8
q-9 0 -58.5 67.5t-49.5 268.5v38q-123 0 -229 -13q-13 -94 -13 -133q0 -27 6 -29q0 -1 1 -1q19 0 130 147q-115 -213 -179 -213q-55 6 -55 182v37q-125 -13 -201 -30q-44 0 -48 100q124 24 262 37q13 94 23 168q-182 -11 -256 -42q-104 6 -109 112zM712 623l-204 -10
q-24 -87 -29 -170l216 5q8 88 17 175z" />
    <glyph glyph-name="dollar" unicode="$" horiz-adv-x="750" 
d="M391 380q-12 -132 -26 -270q62 2 102 56q6 9 6 25q0 56 -82 189zM356 1291q-44 -25 -92.5 -91t-48.5 -149q0 -131 110 -321q21 306 31 561zM464 1396q81 -21 145 -108t64 -125q0 -18 -24 -18q-3 0 -7 1q-90 8 -118 67.5t-66 66.5q-16 -316 -48 -685q171 -243 171 -378
q0 -68 -41 -107q-90 -76 -185 -96q-8 -79 -18 -162q-35 -45 -90 -45q10 103 19 203q-55 0 -110 30.5t-55 89.5q0 44 21.5 94t32.5 50q13 0 24 -62t98 -84q18 204 33 390q-40 63 -142 214t-102 322q0 136 101.5 236.5t192.5 117.5q4 88 5 141q4 30 107 30q-3 -89 -8 -183z
" />
    <glyph glyph-name="percent" unicode="%" horiz-adv-x="1116" 
d="M175 33q-22 -23 -77 -23q-45 0 -45 35q0 16 49 80t215.5 264t576.5 924q38 35 135 35q-358 -768 -854 -1315zM321 1218q89 0 150.5 -62t61.5 -150t-61.5 -150t-150.5 -62q-88 0 -149.5 62t-61.5 150t61.5 150t149.5 62zM321 1117q-45 0 -75.5 -31t-30.5 -76
q0 -44 30.5 -75t75.5 -31q44 0 75.5 31t31.5 75q0 45 -31 76t-76 31zM820 492q89 0 150.5 -62t61.5 -150t-61.5 -150t-150.5 -62q-88 0 -149.5 62t-61.5 150t61.5 150t149.5 62zM825 404q-47 0 -80 -28t-33 -74q0 -48 34 -85t81 -37t79 32t32 80q0 46 -33 79t-80 33z" />
    <glyph glyph-name="ampersand" unicode="&#x26;" horiz-adv-x="1040" 
d="M714 178q-129 -168 -294 -168q-174 16 -247 73t-73 155q0 163 239 526q-157 286 -157 382q0 95 77 178.5t231 87.5q94 0 152.5 -52.5t58.5 -110.5q0 -145 -194 -483l203 -336l87 186q100 -10 100 -60l-106 -242q86 -138 171 -217q0 -118 -80 -118q-82 57 -168 199z
M429 866q144 247 144 365q-13 74 -77 74q-134 -19 -159.5 -66.5t-25.5 -71.5q0 -86 118 -301zM639 294l-228 368q-188 -302 -188 -401q8 -114 214 -122q126 0 202 155z" />
    <glyph glyph-name="quotesingle" unicode="'" horiz-adv-x="251" 
d="M92 1328q-6 21 -6 35q0 45 47 47h3q58 0 59 -96v-4q0 -97 -44 -194q-21 -46 -32 -46q-10 0 -10 48v46q0 97 -17 164z" />
    <glyph glyph-name="parenleft" unicode="(" horiz-adv-x="447" 
d="M307 1388l108 -24q-194 -421 -194 -781q0 -481 163 -811l-120 6q-167 326 -167 805q0 370 210 805z" />
    <glyph glyph-name="parenright" unicode=")" horiz-adv-x="447" 
d="M184 1394q210 -435 210 -805q0 -479 -167 -805l-120 -6q163 330 163 811q0 360 -194 781z" />
    <glyph glyph-name="asterisk" unicode="*" horiz-adv-x="823" 
d="M30 636q169 19 316 22l-196 164l64 71l97 -85l114 -119q73 98 158 218l130 -14q-89 -114 -199 -238q252 -6 278 -68l-277 -4q50 -78 83 -155q22 -57 22 -109q0 -19 -2 -36q-5 -27 -13 -27q-13 0 -35 62q-36 102 -125 218q-75 -110 -104 -183q-23 -54 -23 -90q0 -12 4 -22
q4 -20 4 -30q0 -8 -3 -8q-10 0 -37 89q-6 16 -6 39q0 88 87 245l-174 -31l-54 -21z" />
    <glyph glyph-name="plus" unicode="+" horiz-adv-x="800" 
d="M99 646q101 9 255 12q12 132 31 218q13 46 63 46q51 0 70 -35q-26 -106 -45 -232q264 -6 290 -68l-306 -12q-26 -127 -26 -208q0 -78 9 -115t13 -58q0 -18 -9 -18q-10 0 -55 79t-45 316q-150 -9 -204 -47q-78 9 -94 81q1 41 53 41z" />
    <glyph glyph-name="comma" unicode="," horiz-adv-x="278" 
d="M185 192q31 0 31 -54q0 -110 -25.5 -204.5t-54 -155t-42.5 -60.5q-27 0 -29 47q42 135 48 323q12 92 72 104z" />
    <glyph glyph-name="hyphen" unicode="-" horiz-adv-x="874" 
d="M144 551q118 8 235 8q202 0 310.5 -13t115.5 -37q-4 -65 -71 -72q-93 7 -189 7q-216 0 -423 -32q-27 0 -28 61q0 66 50 78z" />
    <glyph glyph-name="hyphen" unicode="&#xad;" horiz-adv-x="874" 
d="M144 551q118 8 235 8q202 0 310.5 -13t115.5 -37q-4 -65 -71 -72q-93 7 -189 7q-216 0 -423 -32q-27 0 -28 61q0 66 50 78z" />
    <glyph glyph-name="period" unicode="." horiz-adv-x="384" 
d="M195 145q29 0 60 -20.5t31 -47.5t-34.5 -61t-69.5 -34q-30 0 -60 25t-30 52t33 56.5t70 29.5z" />
    <glyph glyph-name="slash" unicode="/" horiz-adv-x="805" 
d="M160 41l-120 -6q373 596 608 1344l108 24q-211 -766 -596 -1362z" />
    <glyph glyph-name="zero" unicode="0" horiz-adv-x="1019" 
d="M86 569q0 326 126 553q145 258 367 270q186 0 283.5 -136t97.5 -458q-2 -344 -127 -549.5t-388 -229.5q-133 0 -239.5 146.5t-119.5 403.5zM228 570q0 -187 63 -316.5t175 -129.5q126 0 236.5 163t110.5 450q-11 371 -82 463t-152 92q-99 0 -208.5 -139.5t-142.5 -582.5z
" />
    <glyph glyph-name="one" unicode="1" horiz-adv-x="653" 
d="M60 840q312 442 366 521t100 79q33 0 33 -140q0 -41 -7.5 -184.5t-27.5 -479.5q-16 -292 -16 -427q2 -91 6 -143q0 -22 -11 -22q-30 0 -74 86t-44.5 145.5t-0.5 91.5q0 179 48 863l-312 -426z" />
    <glyph glyph-name="two" unicode="2" horiz-adv-x="925" 
d="M172 1175q154 216 374 216q262 -6 270 -300q0 -220 -301 -514.5t-301 -371.5q0 -57 177 -73q179 0 575 60q-390 -166 -606 -166q-116 0 -203 35t-89 135q0 78 55 160t310 345.5t259 410.5q0 147 -155 167q-110 0 -215 -78q-25 -15 -32.5 -59.5t-23.5 -44.5q-94 0 -94 78z
" />
    <glyph glyph-name="three" unicode="3" horiz-adv-x="932" 
d="M102 1249q0 40 110 108.5t232 68.5q86 0 175 -54t89 -208q0 -88 -44.5 -188.5t-44.5 -148.5q0 -76 113 -175.5t121 -313.5q0 -154 -113.5 -243t-295.5 -89q-183 6 -265.5 84.5t-82.5 114.5q0 16 11 26.5t26 10.5q23 0 101.5 -65t175.5 -65q99 0 199.5 73.5t100.5 163.5
q0 131 -97.5 244.5t-109.5 209.5q0 89 44.5 204t44.5 152q0 124 -166 142q-123 0 -196.5 -58.5t-91.5 -58.5q-29 0 -36 65z" />
    <glyph glyph-name="four" unicode="4" horiz-adv-x="848" 
d="M675 1416q-1 -50 -156.5 -180t-224.5 -306t-69 -253q0 -42 20.5 -56t93.5 -14q63 0 143.5 11.5t129.5 11.5q104 0 140 -33.5t36 -85.5q0 -30 -29.5 -115t-29.5 -157q0 -109 6 -209q-76 4 -88 30q-14 107 -14 209q0 72 34 191q0 30 -18 36.5t-86 6.5q-48 0 -121.5 -8
t-111.5 -8q-124 0 -178.5 45.5t-54.5 139.5q0 97 83 285.5t233 341.5t190 159q71 -1 72 -42z" />
    <glyph glyph-name="five" unicode="5" horiz-adv-x="883" 
d="M629.5 1303.5q-122.5 -35.5 -360.5 -54.5q23 -163 264.5 -441.5t241.5 -513.5q0 -113 -89 -215t-255 -102q-168 11 -235 103.5t-67 202.5q0 17 6 17q11 0 56.5 -80.5t135.5 -104t137 -23.5q79 0 125 54.5t46 114.5q0 223 -267.5 537t-290.5 527q413 59 599 75.5t232 16.5
q39 0 39 -7q0 -8 -49 -24q-146 -47 -268.5 -82.5z" />
    <glyph glyph-name="six" unicode="6" horiz-adv-x="827" 
d="M626 1344q1 -6 1 -10q0 -12 -11 -12q-30 0 -55.5 23t-40.5 23q-91 0 -195 -284.5t-104 -524.5q0 -205 50 -347.5t162 -142.5q82 0 146 103t64 205q0 92 -44.5 166.5t-89.5 74.5q-128 0 -272 -234l-4 43q46 307 266 307q128 -2 195.5 -117t67.5 -279q0 -156 -103.5 -252
t-224.5 -96q-128 0 -226.5 114t-114.5 464q0 277 121 567.5t239 290.5q83 0 128 -35t45 -47z" />
    <glyph glyph-name="seven" unicode="7" horiz-adv-x="915" 
d="M563 863q12 50 12 173q0 112 -66.5 178.5t-208.5 66.5q-83 0 -195 -48l-46 68q124 85 233 85q195 0 299.5 -93.5t104.5 -241.5q0 -116 -18 -207q123 -29 249 -62q-126 -15 -263 -15q-27 -107 -81 -298.5t-54 -464.5l-112 -23q1 301 51.5 488t74.5 304q-101 6 -152 6
q-102 0 -117 -25l-28 136q154 -6 317 -27z" />
    <glyph glyph-name="eight" unicode="8" horiz-adv-x="789" 
d="M387 521q-155 -211 -156 -271v-4q0 -79 115 -120q31 -13 55 -13q113 0 117 79q0 76 -131 329zM463 638q166 -341 166 -464q0 -73 -55 -124t-127 -51q-101 0 -209 60t-113 185q0 132 206 424q-152 280 -159 431l30 41q46 -84 82 -154t114 -220q204 324 204 446
q-5 156 -136 156q-109 -2 -183 -124t-160 -150q178 382 346 387q133 0 188.5 -74.5t55.5 -190.5q0 -220 -250 -578z" />
    <glyph glyph-name="nine" unicode="9" horiz-adv-x="774" 
d="M402 6q-3 0 -3 8q0 26 80.5 210t111 348t30.5 237q0 30 -9.5 72.5t-43.5 43.5h-2q-36 0 -148.5 -42.5t-268.5 -42.5q-97 5 -97 124q0 24 14 112t110.5 213t192.5 125q143 -4 224 -112t90 -192v-12q0 -26 -15 -26q-22 0 -78 56q-102 126 -161.5 134t-83.5 8q-51 0 -86 -53
t-57 -118t-22 -85q0 -46 48 -46q3 0 5 2q75 2 188 47t169 45q52 0 89 -36t50.5 -101.5t13.5 -108.5q0 -102 -43.5 -294t-162 -354t-135.5 -162z" />
    <glyph glyph-name="colon" unicode=":" horiz-adv-x="324" 
d="M212 744q40 0 63.5 -28t23.5 -47q0 -31 -38 -51t-62 -20q-38 0 -58.5 32t-20.5 51q0 33 34.5 48t57.5 15zM190 312q26 0 55 -18.5t29 -43.5q0 -26 -32 -57t-64 -31q-28 0 -55.5 23.5t-27.5 47.5q0 25 30.5 52t64.5 27z" />
    <glyph glyph-name="semicolon" unicode=";" horiz-adv-x="315" 
d="M194 742q40 0 63.5 -28t23.5 -47q0 -31 -38 -51t-62 -20q-38 0 -58.5 32t-20.5 51q0 33 35 48t57 15zM168 288q13 0 41 -8t28 -70q0 -29 -9 -68.5t-28.5 -111.5t-49.5 -91q-6 -2 -10 -2q-22 0 -23 87q5 95 5 161q0 60 10.5 81.5t35.5 21.5z" />
    <glyph glyph-name="semicolon" unicode="&#x37e;" horiz-adv-x="315" 
d="M194 742q40 0 63.5 -28t23.5 -47q0 -31 -38 -51t-62 -20q-38 0 -58.5 32t-20.5 51q0 33 35 48t57 15zM168 288q13 0 41 -8t28 -70q0 -29 -9 -68.5t-28.5 -111.5t-49.5 -91q-6 -2 -10 -2q-22 0 -23 87q5 95 5 161q0 60 10.5 81.5t35.5 21.5z" />
    <glyph glyph-name="less" unicode="&#x3c;" horiz-adv-x="999" 
d="M777 322q-78 0 -204.5 32t-444.5 223q-34 20 -34 120q390 317 560 407t200 90q9 0 9 -7q0 -11 -24 -39q-87 -100 -202.5 -192.5t-340.5 -287.5q229 -158 476 -228q164 -46 164 -76q0 -16 -48 -29t-111 -13z" />
    <glyph glyph-name="equal" unicode="=" horiz-adv-x="1004" 
d="M143 732q120 8 262 8q187 0 343.5 -13t156.5 -31q0 -78 -90 -78q-113 7 -269 7q-164 0 -276 -18.5t-135 -18.5q-39 0 -39 56q1 86 47 88zM171 408q296 40 573 40q131 0 131 -32q0 -54 -54 -54q-348 -18 -680 -104q-42 0 -43 38q1 77 23 91t50 21z" />
    <glyph glyph-name="greater" unicode="&#x3e;" horiz-adv-x="989" 
d="M144 354q0 54 202 126q260 94 312 128t62 59q-10 22 -66.5 63.5t-256 202.5t-204.5 222q0 37 25 37q32 0 128 -54t293 -215.5t239 -170t47 -92.5q0 -80 -234 -205q-260 -129 -346.5 -151.5t-119.5 -22.5q-43 0 -62 28t-19 45z" />
    <glyph glyph-name="question" unicode="?" horiz-adv-x="732" 
d="M108 1355q139 41 265 41q105 0 216.5 -46t111.5 -179q-23 -167 -228 -399t-205 -334q0 -55 52 -108.5t142 -92t90 -46.5q0 -5 -19 -5q-34 0 -125 16q-240 37 -253 220q0 153 204.5 404.5t210.5 345.5q0 83 -174 111q-148 0 -306 -55q0 104 18 127zM370 7q27 0 51.5 -23.5
t24.5 -39.5q0 -18 -33.5 -37.5t-60.5 -19.5q-29 0 -53.5 18.5t-24.5 32.5q0 18 33.5 43.5t62.5 25.5z" />
    <glyph glyph-name="at" unicode="@" horiz-adv-x="1158" 
d="M806 462q12 -54 70 -54q41 14 55.5 70.5t14.5 103.5q0 66 -25.5 138.5t-114 143.5t-208.5 71q-198 0 -296 -129.5t-98 -253.5q0 -241 122 -340t332 -106q250 0 447 203q-24 -170 -148.5 -242.5t-304.5 -72.5q-11 0 -11 1q-270 0 -420 138t-150 397q0 182 131.5 347
t407.5 165q149 0 275 -102.5t154 -197t28 -167.5q0 -101 -49 -185.5t-143 -84.5q-66 0 -142 70q-126 -120 -260 -121h-3q-135 0 -158 149q0 94 81.5 236t208.5 142q137 -3 155.5 -124.5t48.5 -194.5zM671 481q-12 180 -84 180q-77 -6 -119.5 -86.5t-42.5 -165.5
q4 -52 64 -55q81 0 182 127z" />
    <glyph glyph-name="A" unicode="A" horiz-adv-x="908" 
d="M139 49q-48 0 -60.5 54.5t-12.5 228.5q0 162 46.5 401.5t191.5 455.5t249 216q120 -47 184 -217t78 -371t14 -311q0 -120 -16 -235q-9 -211 -43 -211q-51 0 -53 1q-33 5 -43 81q23 182 23 324q-249 -16 -500 -69q-7 -120 -7 -167q0 -63 9 -152q-27 -29 -60 -29zM211 523
q243 48 485 60q-17 411 -59.5 562t-96.5 151q-40 0 -162.5 -207t-166.5 -566z" />
    <glyph glyph-name="B" unicode="B" horiz-adv-x="1058" 
d="M187 1380.5q146 6.5 305 10.5q87 0 238.5 -5.5t151.5 -85.5q-7 -118 -165 -250.5t-158 -161.5q15 -49 222.5 -216.5t227.5 -339.5q0 -172 -145.5 -252t-386.5 -80q-254 6 -314.5 69t-60.5 343q0 110 23.5 428t95.5 328q70 0 70 -72q-4 -94 -32 -223.5t-39.5 -267
t-11.5 -274.5q0 -139 31.5 -187t220.5 -52q150 0 283.5 65t133.5 180q-10 95 -235 281.5t-225 265.5q3 84 153.5 206t150.5 162q0 30 -150 33q-126 0 -261.5 -16.5t-182.5 -16.5q-84 0 -92 50q6 72 152 78.5z" />
    <glyph glyph-name="C" unicode="C" horiz-adv-x="1096" 
d="M698 1260q-1 13 -29 13q-66 0 -248.5 -198.5t-192.5 -451.5q0 -205 103 -341.5t290 -137.5q131 0 292.5 78t186.5 78q7 0 7 -4q0 -16 -158.5 -144t-367.5 -128q-213 6 -350.5 163t-137.5 413q17 348 257.5 573t377.5 225q24 0 62.5 -18.5t38.5 -113.5q0 -80 -46.5 -223
t-66.5 -143q-15 0 -15 102q0 206 -3 258z" />
    <glyph glyph-name="D" unicode="D" horiz-adv-x="1179" 
d="M250 1284q-26 -32 -34 -32q-4 0 -4 8q0 17 25 83t159 78q321 0 531.5 -171.5t210.5 -517.5q-10 -330 -235 -528t-562 -198q-81 0 -163 44t-82 102l14 5q17 0 73 -27t121 -27q326 0 506 182.5t193 471.5q0 274 -178.5 430t-402.5 156q-129 0 -172 -59zM320 1276
q2 25 18 25q92 0 92 -220q0 -57 -26 -302t-58 -449t-59 -204q-41 30 -41 180q24 420 74 970z" />
    <glyph glyph-name="E" unicode="E" 
d="M223 1237q-31 -35 -45 -35q-10 0 -10 21q0 18 9 55q19 142 356 146q210 0 332 -49.5t122 -72.5q0 -6 -22 -6q-28 0 -151.5 10.5t-276.5 10.5q-258 -13 -314 -80zM351 1267q-69 -224 -106 -542t-44.5 -471t-55.5 -153q-38 0 -45 221q0 200 15 375q10 186 56 382
q43 188 171 188h9zM65 4q-12 0 -12 16q0 82 264 114q76 5 169 5q189 0 300 -27.5t111 -38.5q0 -50 -243 -50.5t-390 -9.5t-199 -9zM257 740q0 35 113.5 55.5t194.5 20.5q65 0 142.5 -11.5t123.5 -31t46 -34.5q0 -33 -100 -38q-26 0 -62 1.5t-70 1.5q-132 0 -194 -16t-91 -16
q-55 0 -79 27.5t-24 40.5z" />
    <glyph glyph-name="F" unicode="F" horiz-adv-x="873" 
d="M212 1219q-33 -27 -50 -27t-17 27q0 49 80 114t185.5 88t194.5 23q170 0 269 -39t99 -65q0 -12 -45 -12q-30 0 -87.5 2.5t-158.5 2.5q-115 0 -247.5 -19.5t-222.5 -94.5zM328 1228q-69 -191 -100 -464t-44 -757q-100 16 -106 257q1 252 12.5 432.5t56 373t175.5 192.5
q6 -1 6 -34zM226 590q-4 14 -4 27q0 122 278 180q161 32 239 32q71 0 73 -30q0 -55 -214.5 -104t-371.5 -105z" />
    <glyph glyph-name="G" unicode="G" horiz-adv-x="975" 
d="M890 1307q0 -13 -8 -27.5t-21 -14.5q-32 0 -62.5 52.5t-67.5 52.5q-44 0 -195 -165t-247 -369t-96 -445q0 -115 49 -194q67 -107 199 -117q98 0 181 80t125 170.5t42 156.5q0 42 -19 104.5t-59 62.5q-22 0 -49 -17t-55.5 -61t-58.5 -44q-19 0 -30.5 19t-11.5 48
q0 45 54 90q63 51 154 51q121 -14 162.5 -93t41.5 -150q0 -147 -125.5 -322t-347.5 -175q-186 10 -288 128.5t-102 262.5q0 69 23.5 211t120.5 336t265.5 357.5t250.5 163.5q90 0 132.5 -60.5t42.5 -91.5z" />
    <glyph glyph-name="H" unicode="H" horiz-adv-x="1049" 
d="M182 1397q0 29 92 29q63 0 63 -116q0 -92 -27.5 -279t-51.5 -350t-24 -398q0 -133 13.5 -180.5t13.5 -62.5q0 -14 -11 -14q-10 0 -51 43t-69 142t-28 264q0 117 32 345t52 333.5t20 153.5q0 47 -12 64t-12 26zM281 734q23 73 152 73q194 -3 370 -51q21 262 21 421
q0 65 -3 99t-3 55q0 103 57 103q66 -8 74 -266q9 -129 9 -243q0 -93 -8.5 -244t-72 -409t-160.5 -258q-13 0 -26 8q101 441 106 642q-259 70 -472 70h-44z" />
    <glyph glyph-name="I" unicode="I" horiz-adv-x="384" 
d="M283 1428q57 0 57 -54q0 -28 -15 -68q-86 -656 -100 -968q-4 -43 -4 -80q0 -121 28 -182q23 -40 23 -51q0 -6 -6 -6q-11 0 -42 21q-84 50 -105 109t-21 159q0 150 22 452q38 500 59 584t104 84z" />
    <glyph glyph-name="J" unicode="J" horiz-adv-x="726" 
d="M616.5 887q47.5 -507 47.5 -659q-11 -122 -93 -171.5t-149 -49.5q-73 0 -179 70.5t-152 165t-46 136.5q0 61 50 91t71 30t21 -24q0 -122 50 -200t152 -149q44 -25 69 -25q54 0 59 136q0 220 -37 576.5t-37 482.5q0 78 12 93q21 25 48 25q11 0 24 -5q42 -16 89.5 -523z
" />
    <glyph glyph-name="K" unicode="K" horiz-adv-x="943" 
d="M226 270v-204q-13 -30 -98 -30q-26 0 -30 47q0 407 -6 687q0 280 66 634q28 36 143 36q-56 -306 -70 -627q162 429 502 609q95 0 118 -54q-304 -213 -388 -364t-119 -233q28 -133 145.5 -366t231.5 -245q96 0 142.5 32.5t68.5 32.5q20 0 20 -17q0 -23 -25.5 -69.5
t-72.5 -82.5t-147 -36q-124 12 -244 183.5t-190 371.5q-40 -164 -47 -305z" />
    <glyph glyph-name="L" unicode="L" horiz-adv-x="897" 
d="M307 1414q8 29 69 29l63 -5q-169 -600 -223 -827q-51 -214 -51 -397q0 -110 46 -110q19 0 151.5 46.5t297.5 46.5q159 -6 302 -80q-338 -23 -450 -47.5t-192 -55t-146 -30.5q-117 0 -133 179q2 256 47 455q54 248 219 796z" />
    <glyph glyph-name="M" unicode="M" horiz-adv-x="1006" 
d="M74 72q23 248 23 466q-10 603 -17 896h126q12 -168 196 -211q66 0 175 78.5t209 78.5q118 0 143 -139t25 -297q0 -161 -43 -387.5t-43 -444.5q-9 -66 -84 -66q-25 0 -27.5 46t-2.5 161q0 166 32.5 342.5t32.5 321.5q0 263 -20.5 293t-63.5 30q-65 0 -154 -83t-168 -83
q-68 0 -201 72q18 -456 24 -696q0 -30 -4 -147.5t-32 -296.5q-103 3 -126 66z" />
    <glyph glyph-name="N" unicode="N" horiz-adv-x="1120" 
d="M235 280q-27 -234 -63 -234h-1q-36 6 -57.5 72t-21.5 164q0 93 21.5 254t21.5 346q0 78 -8.5 183t-8.5 172q0 45 8.5 70t72.5 25q56 0 56 -40v-14q0 -56 111 -359t215 -505.5t180 -202.5q98 0 133.5 220.5t35.5 594.5q0 72 -3 152q23 90 126 90q4 -108 4 -204
q0 -441 -56 -694.5t-224 -266.5q-160 0 -284 210.5t-224 496.5q-8 -270 -34 -530z" />
    <glyph glyph-name="O" unicode="O" horiz-adv-x="1240" 
d="M94 588q0 334 181.5 593t435.5 259q257 0 365.5 -144t108.5 -493q-15 -358 -181.5 -577t-490.5 -219q-180 0 -299.5 164.5t-119.5 416.5zM234 545q0 -157 69.5 -276.5t245.5 -153.5q164 0 326.5 172.5t168.5 510.5q0 352 -95.5 444t-204.5 92q-212 0 -361 -248.5
t-149 -540.5z" />
    <glyph glyph-name="P" unicode="P" horiz-adv-x="819" 
d="M74 1205q0 51 87.5 125t283.5 84q192 0 285.5 -77t93.5 -205q0 -228 -118.5 -348t-439.5 -164q-35 -422 -47 -524q-12 -94 -31 -94q-30 0 -58 77t-28 235q0 60 12 159.5t49 578.5q20 150 98 203q42 -2 42 -57l-32 -466q280 34 349.5 150t69.5 254q0 75 -39 134.5
t-149 59.5q-69 0 -152 -17t-133 -89q-49 -60 -100 -60q-43 3 -43 41z" />
    <glyph glyph-name="Q" unicode="Q" horiz-adv-x="1225" 
d="M854 292q164 178 170 460q0 380 -102.5 481t-217.5 101q-104 0 -238 -131t-185.5 -323.5t-51.5 -314.5q0 -157 67 -286.5t243 -158.5q117 0 217 85q-9 41 -14 84q0 70 80 119q15 -60 32 -116zM799 78q-85 -74 -252 -81q-204 0 -333.5 169.5t-129.5 421.5q0 334 194 589
q181 263 423 263q227 0 346.5 -159t119.5 -506q-27 -448 -267 -636q28 -86 56 -159q0 -50 -40 -80q-74 83 -117 178z" />
    <glyph glyph-name="R" unicode="R" horiz-adv-x="897" 
d="M85 878q-17 77 -17 140q0 92 35 158q60 110 206.5 169t296.5 59q211 -30 228 -262q0 -253 -203.5 -420t-203.5 -329q0 -139 63 -202.5t160 -63.5q135 0 335 65q-213 -155 -386 -155q-139 4 -219 86.5t-80 277.5q0 153 197.5 344.5t197.5 344.5q-8 212 -137 218
q-84 0 -218.5 -59t-152.5 -113l36 6l-50 -1076q-2 -69 -124 -78z" />
    <glyph glyph-name="S" unicode="S" horiz-adv-x="703" 
d="M591.5 1295.5q-57.5 33.5 -107.5 33.5q-80 0 -161 -76t-81 -211q0 -171 173.5 -416.5t173.5 -375.5q0 -105 -66.5 -173.5t-191.5 -68.5q-210 27 -210 127q0 24 16.5 79t37.5 55q13 0 24 -36q16 -84 62.5 -103.5t119.5 -19.5q55 0 83.5 37.5t28.5 73.5q0 83 -198.5 366.5
t-198.5 466.5q0 136 121 256t256 120q102 0 198 -73t96 -96q0 -9 -17 -9q-5 0 -11 2q-90 8 -147.5 41.5z" />
    <glyph glyph-name="T" unicode="T" horiz-adv-x="1040" 
d="M144 1234q-36 70 -70 98.5t-34 35.5q0 30 148 50.5t248 20.5q145 0 330.5 -38.5t254.5 -76.5t69 -47q0 -12 -44 -12q-45 0 -193 23.5t-331 23.5q-169 0 -366 -28zM524 1279q42 22 56 22q22 0 22 -32q-6 -76 -26 -354.5t-22 -596.5q0 -229 48 -270q27 -22 27 -32t-24 -10
q-46 0 -108 63t-72 225.5t-10 244.5q0 167 12.5 386.5t33.5 275.5t63 78z" />
    <glyph glyph-name="U" unicode="U" 
d="M239 1322q21 0 21 -55q-29 -255 -44 -426.5t-15 -234.5q0 -314 82.5 -411t163.5 -97q125 0 220 121t119 395q19 401 33 661q0 88 29 95q88 -4 103 -138q-15 -452 -15 -498q0 -356 -132 -522t-307 -183q-162 0 -296.5 112.5t-136.5 436.5q29 491 69 649q19 95 106 95z" />
    <glyph glyph-name="V" unicode="V" horiz-adv-x="812" 
d="M64 1440q67 -3 95.5 -9.5t53 -71t26.5 -221.5q0 -72 0.5 -212t0.5 -338q20 -378 93 -449q89 83 207.5 573.5t321.5 516.5q-96 -90 -146 -288.5t-134 -535t-253 -393.5q-59 0 -120.5 103t-95.5 457q0 75 -7 189t-7 349q0 176 -35 330z" />
    <glyph glyph-name="W" unicode="W" horiz-adv-x="1251" 
d="M600 758q-26 261 -54 452l63 -46q40 -121 58 -218q49 146 75 248q8 -68 8 -132q0 -114 -19.5 -191t-38.5 -138q13 -92 44.5 -253.5t129.5 -280.5q166 149 235.5 529t129.5 535q7 -69 7 -132q0 -114 -38.5 -403.5t-148 -467t-201.5 -177.5q-74 0 -134 120t-91 338
q-99 -253 -196 -385.5t-169 -132.5q-57 0 -106.5 120t-49.5 571q0 226 1 432q0 119 -31 294l114 -6q49 -149 49 -276q0 -32 -3 -64q-10 -87 -10 -238q0 -111 3.5 -352.5t49.5 -364.5q86 97 163 243q72 136 160 376z" />
    <glyph glyph-name="X" unicode="X" horiz-adv-x="852" 
d="M167 7q-104 0 -104 95q0 30 29.5 132t85 212t125.5 203q-166 316 -166 682q0 45 6.5 68t48.5 28q82 0 82 -37q0 -408 130 -636q132 157 246 287.5t188 385.5q9 -48 9 -95q0 -218 -137.5 -397t-232.5 -293q80 -144 164 -281.5t279 -340.5h-32q-202 0 -497 495
q-118 -139 -159.5 -276t-43 -184.5t-21.5 -47.5z" />
    <glyph glyph-name="Y" unicode="Y" horiz-adv-x="935" 
d="M378 655q-122 6 -215 140.5t-99 632.5q132 0 132 -31q7 -427 72.5 -511t157.5 -84q113 0 209 188t121 434q15 26 55 26q74 0 74 -62q0 -84 -27 -208t-106 -271t-177 -204q-41 -23 -82 -36q-22 -205 -22 -373q0 -128 12 -259q-35 -39 -139 -39q-10 160 -10 297
q0 202 16 342z" />
    <glyph glyph-name="Z" unicode="Z" horiz-adv-x="1050" 
d="M90 1384q248 44 386 44q162 -6 342 -26q212 -22 212 -155v-1q-1 -56 -286.5 -382.5t-600.5 -722.5q218 -27 448 -27q126 0 182 6t99 6q52 0 224 -54q-173 -80 -266 -80l-565 9q-115 2 -192.5 36.5t-78.5 86.5q20 94 262.5 375t637.5 742q-178 50 -378 54
q-218 -2 -470 -42q0 78 44 131z" />
    <glyph glyph-name="bracketleft" unicode="[" horiz-adv-x="700" 
d="M264 1445q78 4 155 4q32 0 140.5 -13t115.5 -37q-4 -65 -71 -72q-93 7 -189 7q-35 0 -165 -19q-38 -404 -38 -745q0 -430 -1 -625q0 -34 39.5 -41t124.5 -7q96 0 189 7q67 -7 71 -42q-7 -24 -115.5 -52t-200.5 -28q-57 0 -135 8q-83 5 -90 88q-9 250 -9 703q0 401 48 841
q30 36 132 36q-1 -6 -1 -13z" />
    <glyph glyph-name="backslash" unicode="\" horiz-adv-x="805" 
d="M40 1403q74 0 108 -24q235 -748 608 -1344q-100 0 -130 16q-375 586 -586 1352z" />
    <glyph glyph-name="bracketright" unicode="]" horiz-adv-x="700" 
d="M481 1314q-140 20 -177 20q-96 0 -189 -7q-67 7 -71 72q7 24 115.5 37t140.5 13q117 0 235 -8q40 -5 58 -51q20 -443 20 -823q-10 -634 -23.5 -702t-64.5 -75q-108 -8 -225 -8q-32 0 -140.5 13t-115.5 37q4 65 71 72q93 -7 189 -7q35 0 161 18q23 326 23 712
q0 318 -7 687z" />
    <glyph glyph-name="asciicircum" unicode="^" horiz-adv-x="1006" 
d="M936 704q-30 0 -76 165q-82 211 -240 440q-195 -225 -287.5 -340.5t-192.5 -202.5q-28 -24 -39 -24q-7 0 -7 9q0 30 62 149q118 221 435 611l110 -15q201 -337 239 -450.5t38 -181.5q0 -64 -13 -112t-29 -48z" />
    <glyph glyph-name="underscore" unicode="_" horiz-adv-x="1095" 
d="M99 14q249 20 678 20q338 0 338 -23q0 -6 -24 -13q-115 -38 -333.5 -50.5t-711.5 -50.5z" />
    <glyph glyph-name="grave" unicode="`" horiz-adv-x="712" 
d="M216 1064q0 35 36 35q19 0 52.5 -5.5t62 -106.5t28.5 -129q-7 -22 -41 -22q-6 0 -10 6q-7 14 -31.5 62.5t-96.5 159.5z" />
    <glyph glyph-name="a" unicode="a" horiz-adv-x="840" 
d="M525 511q-13 115 -78 115q-79 0 -158.5 -116t-79.5 -211q1 -143 80 -147q53 0 149 97t171 97q82 -4 132 -97.5t50 -133.5q0 -7 -3 -15t-13 -8q-19 0 -68 68t-101 68q-28 0 -130.5 -108t-223.5 -108q-81 0 -131 81.5t-50 193.5q4 133 111 288t302 155q75 0 116.5 -56.5
t41.5 -155.5q0 -110 -25.5 -133t-64.5 -23q-24 0 -27 149z" />
    <glyph glyph-name="b" unicode="b" horiz-adv-x="778" 
d="M286 1405q52 0 52 -35q0 -111 -25.5 -248.5t-54.5 -260.5t-29 -179q0 -33 13 -44.5t36 -11.5q35 0 99 22.5t149 22.5q121 -11 160 -68t39 -131q0 -184 -129 -322t-286 -138q-59 0 -121 33t-79 91t-17 97q0 62 24.5 168.5t56.5 106.5q45 -20 45 -78q0 -118 -1 -194
q0 -54 32 -75.5t106 -21.5q81 0 162 107.5t81 243.5q-2 74 -100 78q-50 0 -145 -22t-151 -22q-42 0 -67.5 37t-25.5 139q0 110 44.5 281t64 297.5t67.5 126.5z" />
    <glyph glyph-name="c" unicode="c" horiz-adv-x="733" 
d="M576 524q-49 78 -129 78q-140 -7 -198 -110t-58 -204q6 -102 69.5 -146t142.5 -44q34 0 110 19t184 88q36 21 44 21q2 0 2 -2q0 -12 -119.5 -117t-264.5 -105q-131 0 -211.5 75t-80.5 193q0 139 63 249t148 147t177 37q84 0 133 -43t49 -72q0 -64 -61 -64z" />
    <glyph glyph-name="d" unicode="d" horiz-adv-x="779" 
d="M597 1352q14 63 68 65q53 -2 53 -35q-74 -560 -74 -763q5 -448 61 -574q0 -27 -17 -29q-19 0 -65 76t-57 234q-60 -200 -159 -260q-51 -35 -108 -35q-123 0 -185 76.5t-62 215.5q0 119 52 230t112.5 144t115.5 33q102 0 189 -54q7 232 76 676zM509 602q-49 44 -129 44
q-54 0 -102 -41t-75 -148.5t-27 -174.5q24 -162 98 -166q65 0 109 76q45 78 81 174t45 236z" />
    <glyph glyph-name="e" unicode="e" horiz-adv-x="737" 
d="M381 438.5q144 82.5 146 162.5q0 48 -51 48q-103 0 -192.5 -93.5t-89.5 -257.5q0 -90 65.5 -148t167.5 -58q148 9 265 85q35 27 40 27q6 0 6 -11q0 -9 -34 -54t-117.5 -92.5t-212.5 -47.5q-122 0 -209 71t-99 218q0 200 122 313t310 113q62 0 102.5 -28.5t40.5 -83.5
q-11 -90 -99 -162t-223 -113q-82 -20 -106 -20q-14 0 -14 7q0 5 7 14q31 28 175 110.5z" />
    <glyph glyph-name="f" unicode="f" horiz-adv-x="548" 
d="M143.5 77q-15.5 35 -15.5 272q0 119 15 249l-76 -42l4 52q2 52 20.5 63t54.5 32q30 268 84.5 416t135 233.5t120.5 85.5q42 0 59 -12q-164 -168 -212 -352.5t-56 -325.5q122 60 252 60q47 0 84 -16q-96 -17 -179.5 -58.5t-160.5 -86.5q-18 -209 -18 -376q0 -165 18 -277
q-114 48 -129.5 83z" />
    <glyph glyph-name="g" unicode="g" horiz-adv-x="739" 
d="M549 380q0 80 -21.5 140t-73.5 60q-105 0 -163.5 -121.5t-58.5 -235.5q0 -89 99 -89q19 0 36.5 2t30.5 2q170 0 254 -230q36 -136 36 -274q0 -150 -61 -282t-143 -132q-78 0 -159.5 62t-81.5 156q0 139 83 234.5t125 95.5q3 0 3 -4q0 -16 -30.5 -78t-49.5 -118t-19 -115
q0 -63 35 -110.5t83 -47.5q33 0 57 84.5t24 180.5q0 152 -32 326q-30 189 -160 189q-38 0 -92 -8t-92 -8q-86 0 -86 104q0 217 99 344.5t221 127.5q114 0 184 -59t70 -143q0 -62 -20.5 -137t-65.5 -113.5t-86 -38.5q-5 0 -5 5q0 6 6 17q33 69 43.5 126t10.5 88z" />
    <glyph glyph-name="h" unicode="h" horiz-adv-x="744" 
d="M203 1370q55 58 135 58l-132 -1284q154 362 318 362q138 -12 162 -256q11 -107 11 -171q0 -72 -13 -91q-5 -6 -10 -6q-24 0 -60 166q-42 226 -96 227q-68 0 -146 -197q-96 -173 -162 -173q-70 0 -97 52t-27 130q0 241 117 1183z" />
    <glyph glyph-name="i" unicode="i" horiz-adv-x="364" 
d="M202 919q24 0 53.5 -20.5t29.5 -46.5q0 -22 -24 -49t-55 -27q-24 0 -53.5 22t-29.5 49q0 20 24 46t55 26zM91 523q22 87 64.5 87.5t74.5 0.5q27 0 27 -75q-8 -219 -21.5 -357t-40.5 -138v1q-27 0 -58 18q-20 10 -20 186q0 92 8 323z" />
    <glyph glyph-name="j" unicode="j" horiz-adv-x="360" 
d="M159 569q2 23 35.5 29.5t96.5 6.5q-94 -701 -94 -1255q-87 24 -98 48q-11 73 -11 226q0 441 71 945zM147 865q0 24 22.5 38t42.5 14q44 0 72 -23.5t28 -48.5t-18 -35.5t-62 -10.5q-29 0 -57 20t-28 46z" />
    <glyph glyph-name="k" unicode="k" horiz-adv-x="827" 
d="M268 1366q46 62 142 62q-131 -523 -163.5 -768t-32.5 -356q2 -164 64 -164q50 0 113 74.5t131 174t114 101.5q41 0 51.5 -13.5t10.5 -36.5q0 -39 -46 -114t-46 -149q10 -109 181 -110q139 -1 139 -11q0 -5 -56 -25.5t-167 -30.5q-103 0 -151.5 47t-48.5 105q0 26 5 52
q-15 -28 -73.5 -100.5t-150.5 -73.5q-105 0 -150.5 69.5t-45.5 267.5q0 84 29.5 310.5t150.5 688.5z" />
    <glyph glyph-name="l" unicode="l" horiz-adv-x="468" 
d="M230 1396q47 56 134 56q-134 -714 -134 -1109q0 -81 21 -165t89 -84q48 0 104 28t66 28q24 0 24 -8q0 -24 -73 -83t-176 -59q-115 0 -153 118t-38 240q0 418 136 1038z" />
    <glyph glyph-name="m" unicode="m" horiz-adv-x="990" 
d="M90 203q0 203 78 553q25 90 155 90q-108 -521 -108 -671q0 -18 3 -18q110 357 264 369q57 0 88.5 -71.5t47.5 -167.5q50 75 114 75q100 -6 146 -96.5t46 -169.5q0 -43 -3.5 -58.5t-27.5 -15.5q-26 0 -54.5 98t-101.5 102q-50 0 -85.5 -85.5t-69.5 -85.5q-50 0 -56.5 62.5
t-22 167.5t-51.5 105q-28 0 -97 -190.5t-173 -190.5q-92 9 -92 198z" />
    <glyph glyph-name="n" unicode="n" horiz-adv-x="734" 
d="M80 259q0 192 8 267.5t16 140.5t67 65q49 0 65 -48q-17 -163 -23.5 -262t-6.5 -157q14 0 64 125q96 168 204 168q94 0 140 -68t54 -221q0 -89 -11 -174t-40 -93q-40 0 -45 46q0 37 -1.5 98t-11.5 171.5t-88 120.5q-65 0 -150 -197.5t-184 -197.5q-25 0 -41 26t-16 190z
" />
    <glyph glyph-name="o" unicode="o" horiz-adv-x="740" 
d="M348 738q186 -6 267 -141t85 -253q0 -108 -106 -220q-103 -124 -254 -124q-124 6 -190 72.5t-66 175.5q0 122 56.5 306t207.5 184zM361 625q-67 0 -108.5 -127.5t-41.5 -213.5q0 -90 33 -131t85 -41q75 0 159.5 81t84.5 167q0 100 -79.5 182.5t-132.5 82.5z" />
    <glyph glyph-name="p" unicode="p" horiz-adv-x="731" 
d="M77 454q-11 26 -11 50q0 65 83 106q109 66 218 66q167 0 229.5 -51t68.5 -157q0 -164 -99 -272t-309 -228l-42 -558q-28 0 -56 93t-28 141q12 444 36 870zM284 557l-26 -445q175 84 234 176.5t59 202.5q-5 75 -127 87q-76 0 -140 -21z" />
    <glyph glyph-name="q" unicode="q" horiz-adv-x="880" 
d="M364 694q135 0 196.5 -158t109.5 -608q72 186 214 268q-88 -178 -145 -340t-87 -378q-91 5 -102 90q6 89 6 179q0 270 -54 553q-138 -256 -272 -256q-100 10 -123 86t-23 128q0 125 77 275.5t203 160.5zM387 612q-83 -6 -140 -123t-61 -197q0 -75 10.5 -100t31.5 -25
q48 0 134.5 99.5t86.5 241.5q0 55 -62 104z" />
    <glyph glyph-name="r" unicode="r" horiz-adv-x="583" 
d="M79 684q5 32 47 32q95 0 95 -204q118 154 239 158q76 0 90.5 -20t14.5 -32q0 -26 -95 -53t-169 -131t-78 -236t-29 -153t-58 -21q-37 0 -37 90q0 65 7 124t7 116q0 160 -17 232.5t-17 97.5z" />
    <glyph glyph-name="s" unicode="s" horiz-adv-x="609" 
d="M572 560q27 -44 27 -57q0 -6 -5 -6q-13 0 -60 42q-84 81 -209 81q-98 -7 -98 -50q0 -72 144 -223.5t144 -252.5q0 -48 -49.5 -81t-106.5 -33q-41 0 -111.5 31t-124.5 115q-20 38 -20 65q0 6 3 6q6 0 23 -19q48 -58 113 -75t88 -17q31 0 57 20v2q0 47 -130.5 190
t-155 204.5t-24.5 94.5q0 65 67 99t129 34q56 0 149 -27t150 -143z" />
    <glyph glyph-name="t" unicode="t" horiz-adv-x="625" 
d="M518 1446q-69 -342 -102 -678q330 -8 330 -31q0 -10 -69 -24q-193 -40 -275 -49q-25 -273 -25 -424q4 -242 6 -296q-1 -25 -8 -25q-19 0 -67.5 134.5t-48.5 412.5q0 85 7 182l-258 -49q-29 0 -30 12q0 31 20.5 76t37.5 45q127 31 242 31q47 403 71.5 543t168.5 140z" />
    <glyph glyph-name="u" unicode="u" horiz-adv-x="780" 
d="M210 710q66 0 66 -37q0 -51 -35.5 -139t-39.5 -233q9 -197 123 -197q101 0 177 212t137 220q78 0 78 -126q0 -48 -8.5 -101t-8.5 -91q0 -33 7 -99.5t7 -82.5q0 -36 -44 -36q-18 0 -44 62.5t-26 141.5q0 68 9 123q-43 -169 -118 -251.5t-169 -82.5q-99 0 -169 67t-70 246
q0 98 42 251t86 153z" />
    <glyph glyph-name="v" unicode="v" horiz-adv-x="718" 
d="M69 702q129 -3 139 -52q79 -464 141 -464q24 0 73 165t128 255t127 90q15 0 27 -2t12 -19q0 -20 -32.5 -54.5t-65.5 -90.5t-97 -278t-198 -235q-138 0 -254 685z" />
    <glyph glyph-name="w" unicode="w" horiz-adv-x="1024" 
d="M58 598q0 27 19 40.5t53 13.5t39 -20q96 -482 172 -488q79 0 176 126q-59 105 -108 230q24 52 96 54q34 -101 78 -182l102 228q1 -22 1 -43q0 -145 -37 -263q43 -80 98 -104q82 0 244 412q-20 -304 -92 -431t-149 -127q-72 0 -167 136q-145 -175 -260 -175
q-148 13 -265 593z" />
    <glyph glyph-name="x" unicode="x" horiz-adv-x="620" 
d="M131 6h-4q-103 0 -103 54q0 13 16 63.5t48.5 116t73.5 113.5q-95 132 -107 351q0 33 57 33q55 0 55 -17q12 -204 86 -290q57 64 123.5 116t121.5 197q2 -28 2 -53q0 -140 -39 -210q-81 -80 -150 -150q41 -62 110.5 -160t186.5 -163h-2q-245 0 -371 225q-37 -41 -104 -226
z" />
    <glyph glyph-name="y" unicode="y" horiz-adv-x="820" 
d="M262 652q-76 -91 -76 -260q0 -84 31 -131t77 -47q62 2 130 141t135 191t128 52q57 -4 71 -93t14 -174q0 -135 -67 -335.5t-67 -510.5q5 -164 44 -259q-180 158 -180 383q6 203 79 429t73 382q0 45 -8 70q-102 -248 -181 -309t-124 -63t-49 -2q-112 0 -176 73t-67 181
q-1 1 -1 2q0 219 214 280z" />
    <glyph glyph-name="z" unicode="z" horiz-adv-x="738" 
d="M104 690q201 23 329 23q147 0 187 -28.5t40 -50.5q0 -81 -224 -249.5t-238 -258.5q0 -73 75.5 -108.5t163.5 -35.5q132 0 339 66q-201 -143 -364 -143q-160 1 -244 62.5t-84 163.5q0 41 18 85q38 102 428 390q-63 6 -126 6q-124 0 -246 -24q-47 11 -54 102z" />
    <glyph glyph-name="braceleft" unicode="{" horiz-adv-x="594" 
d="M472 1418l60 -24q-94 -201 -107.5 -432.5t-100.5 -288.5t-87 -80q0 -9 88 -78.5t89 -317.5t87 -395q-107 0 -132 18q-89 135 -91 383t-98.5 302t-96.5 88q0 37 104 100t114.5 291t85.5 391q25 43 85 43z" />
    <glyph glyph-name="bar" unicode="|" horiz-adv-x="346" 
d="M233 1468q51 0 51 -75q0 -39 -13 -94q-40 -1213 -56 -1350q-3 -85 -73 -85q-40 0 -44 69q0 39 18.5 670.5t37.5 748t79 116.5z" />
    <glyph glyph-name="braceright" unicode="}" horiz-adv-x="594" 
d="M148 -184l-60 24q94 201 107.5 423.5t100.5 279.5t87 80q0 9 -88 78.5t-89.5 326.5t-86.5 404q107 0 132 -18q89 -135 97 -386t98.5 -311t90.5 -94q0 -37 -104 -100t-114.5 -282t-84.5 -382q-26 -43 -86 -43z" />
    <glyph glyph-name="asciitilde" unicode="~" horiz-adv-x="758" 
d="M752 493q-2 -92 -58 -140.5t-104 -48.5q-49 0 -102 12t-134.5 43t-127.5 31q-49 0 -73.5 -24t-30.5 -58q-7 -33 -43 -33h-3q-32 1 -32 33q0 70 46 128t127 68q60 0 140 -59q90 -67 214 -80q53 0 92 31t49 50.5t40 46.5z" />
    <glyph glyph-name="exclamdown" unicode="&#xa1;" horiz-adv-x="367" 
d="M141 -727q-37 0 -37 70q0 48 29.5 184t44.5 274.5t15 245.5q0 117 -6 185t-6 95q0 31 15 31q32 0 63 -177.5t31 -368.5q0 -147 -22.5 -343t-126.5 -196zM170 613q-26 0 -47 7.5t-21 31.5q0 20 30 55.5t70 35.5q20 0 43 -15t23 -38q0 -20 -27 -48.5t-71 -28.5z" />
    <glyph glyph-name="cent" unicode="&#xa2;" horiz-adv-x="733" 
d="M462 703q79 -2 127 -44t48 -71q0 -64 -61 -64q-45 72 -117 78q-11 -302 -19 -501q149 35 257 104q36 21 44 21q2 0 2 -2q0 -12 -119 -117q-88 -77 -188 -97q-10 -213 -16 -268q-4 -85 -70 -85q-39 0 -42 69q0 25 8 278q-102 11 -175.5 79.5t-73.5 186.5q0 139 63 254
t208 163q12 280 26.5 377t72.5 97q48 0 48 -75q0 -39 -13 -94q-5 -154 -10 -289zM334 574q-143 -85 -143 -286q6 -142 128 -176q3 103 7 231t8 231z" />
    <glyph glyph-name="sterling" unicode="&#xa3;" horiz-adv-x="1110" 
d="M288 279q-51 -2 -75.5 -43.5t-31.5 -117.5q1 -45 32 -45q86 1 130 33.5t71 122.5q-55 48 -126 50zM469 676q10 -40 25 -79q68 -135 68 -336q40 -40 115 -112t170 -72q109 24 241 125q11 -8 11 -60q-108 -153 -260 -162q-122 0 -193 44.5t-132 103.5q-39 -78 -118 -117
t-204 -41q-46 0 -85.5 43.5t-39.5 126.5q17 123 80 187t146 64q77 0 128 -31q-6 65 -56 221q-14 40 -23 78q-65 -10 -125 -21l-10 -49q-29 65 -56.5 88t-27.5 29q0 24 120 41q37 5 78 10q-7 50 -7 95h-1q1 234 141 405t297 171q24 0 62.5 -18.5t38.5 -113.5
q0 -80 -46.5 -183t-66.5 -103q-15 0 -15 102q0 126 -3 178q-1 13 -29 13q-86 0 -166 -137t-80 -294q0 -50 5 -98q35 4 72 9q118 0 236 -11t174 -42t56 -38q0 -10 -36 -10t-164 3t-216 3q-53 -5 -104 -12z" />
    <glyph glyph-name="currency" unicode="&#xa4;" horiz-adv-x="1200" 
d="M591 925q-67 0 -108.5 -127.5t-41.5 -213.5q0 -90 33 -131t85 -41q75 0 159.5 81t84.5 167q0 100 -79.5 182.5t-132.5 82.5zM315 526q0 147 41 279q-56 23 -172 116t-121 154q0 37 25 37q32 0 113 -44t203 -134q60 104 174 104q139 -4 220 -81q36 45 148 105t142 60
q9 0 9 -7q0 -11 -24 -39q-47 -80 -162 -172q-28 -22 -50 -35q65 -119 69 -225q0 -61 -34 -123q90 -76 167 -137.5t77 -86.5q0 -19 -85 -19q-145 52 -250 125q-98 -103 -235 -103q-124 6 -199 82q-97 -83 -164.5 -112t-96.5 -29q-38 0 -54.5 13t-16.5 30q0 44 82 105t194 137
z" />
    <glyph glyph-name="yen" unicode="&#xa5;" horiz-adv-x="1016" 
d="M263 768q-60 43 -86.5 172.5t-32.5 487.5q132 0 132 -31q0 -398 49 -506.5t181 -108.5q113 0 209 168t121 474q15 26 55 26q74 0 74 -62q0 -84 -27 -208t-86 -243t-125 -176q32 -2 61 -4q156 -13 156 -31q0 -78 -90 -78q-113 7 -282 7q-10 -96 -16 -183q120 6 227 6
q131 0 131 -32q0 -54 -54 -54q-150 -8 -308 -28q-1 -35 -1 -68q0 -128 12 -259q-35 -39 -139 -39q-10 160 -10 297v49q-144 -23 -294 -56q-41 0 -42 38q0 77 22.5 91t49.5 21q140 16 267 25q4 97 13 174l25 16q-129 -4 -205 -16q-112 -19 -136 -19q-39 0 -39 56q1 86 47 88
q67 4 141 6z" />
    <glyph glyph-name="brokenbar" unicode="&#xa6;" horiz-adv-x="346" 
d="M121 813q16 437 33 539q19 116 79 116q51 0 51 -75q0 -39 -13 -94q-10 -285 -19 -486q-3 -30 -65 -30q-63 0 -66 30zM245 653q-19 -510 -30 -604q-3 -85 -73 -85q-40 0 -44 69q0 39 19 621q0 20 20.5 29.5t45.5 9.5q62 0 62 -40z" />
    <glyph glyph-name="section" unicode="&#xa7;" horiz-adv-x="678" 
d="M625 484q0 -48 -44.5 -91t-108.5 -44q-72 0 -144 10q98 -82 167.5 -158t69.5 -147q0 -58 -39.5 -101t-126.5 -43q-41 0 -106.5 31t-102.5 92t-37 88q0 6 3 6q6 0 38.5 -38.5t97.5 -55.5t98 -17q67 0 67 30v2q0 47 -82.5 123.5t-180.5 158t-107 197.5q0 105 57 154t129 49
q24 0 64 -5q-165 146 -187.5 197.5t-22.5 84.5q0 75 67 119t129 44q66 0 134 -22t105 -92t37 -83q0 -6 -5 -6q-13 0 -68.5 46.5t-170.5 56.5q-98 -7 -98 -60q0 -62 160.5 -205.5t184 -209t23.5 -111.5zM335 620q-126 -7 -126 -82q38 -88 118 -90t103 -2q31 0 67 40v2
q0 57 -46 94.5t-116 37.5z" />
    <glyph glyph-name="dieresis" unicode="&#xa8;" horiz-adv-x="418" 
d="M96 1183q17 42 72 44q53 0 53 -20q0 -13 -22.5 -34t-42.5 -93q0 -34 19 -49q19 0 39.5 15t43.5 53t47 72.5t54 34.5q38 0 39 -21q0 -12 -11.5 -31t-19.5 -40q-15 -41 -15 -65q3 -29 3 -45q-1 -14 -63 -21q-17 0 -23 12.5t-6 38.5q0 13 4 43q-36 -33 -73 -69
q-24 -25 -54 -25q-37 0 -59 17t-22 58q0 55 37 125z" />
    <glyph glyph-name="copyright" unicode="&#xa9;" horiz-adv-x="1274" 
d="M788 747q-49 78 -128 78q-140 0 -194 -107t-54 -188q7 -122 71.5 -160.5t132.5 -38.5q176 7 294 97q36 20 44 20q1 0 1 -1q0 -12 -104 -117t-280 -105q-47 0 -93 14q-184 54 -207 258q0 165 89 297t307 132q84 0 142 -51q41 -36 41 -65q0 -36 -62 -63zM654 1168
q219 0 397.5 -214t178.5 -389q0 -211 -214.5 -380t-396.5 -169q-298 0 -445.5 170t-147.5 413q0 229 206.5 399t421.5 170zM651 1037q-167 0 -325 -129.5t-158 -319.5q0 -199 100.5 -327.5t333.5 -128.5q136 0 302.5 133t166.5 305q0 133 -126 300t-294 167z" />
    <glyph glyph-name="ordfeminine" unicode="&#xaa;" horiz-adv-x="809" 
d="M498 1224q-12 87 -72 87q-74 0 -137.5 -98t-63.5 -186q1 -112 54 -116q49 0 138 80t159 80q76 -4 122.5 -90.5t46.5 -123.5q0 -7 -3 -14.5t-12 -7.5q-18 0 -63.5 63t-93.5 63q-26 0 -121 -100t-207 -100q-75 0 -121.5 75.5t-46.5 179.5q4 123 103 267t280 144
q70 0 108.5 -52.5t38.5 -144.5q0 -102 -24 -123t-60 -21q-22 0 -25 138z" />
    <glyph glyph-name="guillemotleft" unicode="&#xab;" horiz-adv-x="1058" 
d="M558 322q-53 0 -138.5 32t-205.5 142.5t-125 145.5l6 55q264 317 379.5 407t135.5 90q6 0 6 -7q0 -11 -16 -39q-59 -100 -137 -197.5t-221 -292.5q145 -148 313 -218q111 -46 111 -76q0 -16 -32.5 -29t-75.5 -13zM882 370q-51 0 -133 40.5t-302 233.5q-39 42 -39 105
q263 304 373.5 380t130.5 76q6 0 6 -7q0 -10 -16 -37q-57 -96 -122 -174.5t-211 -255.5q149 -161 309 -248q107 -44 107 -73q0 -15 -31 -27.5t-72 -12.5z" />
    <glyph glyph-name="logicalnot" unicode="&#xac;" horiz-adv-x="977" 
d="M92 674q460 -6 750 -12q61 -1 74 -98q2 -100 5 -310q-21 -48 -79 -49q-34 1 -53 36q-5 145 -12 285l-337 7l-331 -7q-47 6 -71 60q9 88 54 88z" />
    <glyph glyph-name="registered" unicode="&#xae;" horiz-adv-x="1279" 
d="M267 1003q202 165 387 165q219 0 414 -232q162 -196 162 -371q0 -211 -233 -396q-196 -153 -378 -153q-268 0 -430.5 185t-162.5 398q0 209 241 404zM960 851q-141 186 -309 186q-137 0 -290 -124q-193 -155 -193 -325q0 -169 115.5 -312.5t318.5 -143.5q136 0 283 118
q186 148 186 320q0 133 -111 281zM632 923q-78 -4 -121 -28t-53 -54l20 4l-13 -594q-19 -36 -108 -36l21 483q-10 42 -10 78q0 51 19 88q34 61 99.5 98.5t167.5 37.5q177 -27 187 -156q0 -141 -124.5 -226.5t-124.5 -165.5q0 -60 31 -97t85 -39q110 2 219 31
q-116 -105 -241 -105q-112 14 -151 62.5t-39 134.5q0 79 113 191t113 197q-17 86 -90 96z" />
    <glyph glyph-name="overscore" unicode="&#xaf;" horiz-adv-x="1095" 
d="M99 1474q249 30 528 30q488 -10 488 -33q0 -6 -24 -13q-115 -38 -333.5 -45.5t-711.5 -55.5q3 117 53 117z" />
    <glyph glyph-name="degree" unicode="&#xb0;" horiz-adv-x="846" 
d="M206 829q24 0 53.5 -20.5t29.5 -46.5q0 -22 -24 -49t-55 -27q-24 0 -53.5 22t-29.5 49q0 20 24 46t55 26z" />
    <glyph glyph-name="plusminus" unicode="&#xb1;" horiz-adv-x="800" 
d="M30 666q169 19 323 22q12 132 44 264q101 0 130 -15q-36 -126 -55 -252q264 -6 290 -68l-306 -32q-26 -77 -26 -118q0 -28 9 -65t13 -58q0 -18 -9 -18q-10 0 -55 54t-45 201q-150 -9 -204 -27q-78 9 -109 112zM114 281q118 8 235 8q202 0 310.5 -13t115.5 -37
q-4 -65 -71 -72q-93 7 -189 7q-216 0 -423 -32q-27 0 -28 61q0 66 50 78z" />
    <glyph glyph-name="twosuperior" unicode="&#xb2;" horiz-adv-x="558" 
d="M117 1313q83 116 198 116q144 -3 148 -162q0 -113 -133 -248t-133 -163q0 -9 65 -15q83 0 316 2q-245 -102 -351 -102q-59 0 -108.5 20t-50.5 81q0 43 28.5 85t142.5 165t115 185q0 52 -55 59q-24 0 -69 -33q-5 -3 -9 -28t-29 -25q-75 0 -75 63z" />
    <glyph glyph-name="threesuperior" unicode="&#xb3;" horiz-adv-x="561" 
d="M99 1330q0 31 59.5 68t122.5 37q47 0 96.5 -30t49.5 -115q0 -46 -21.5 -93.5t-21.5 -66.5q0 -26 61 -73t65 -159q0 -84 -68 -131t-161 -47q-95 3 -140 46t-45 69q0 16 11 31.5t27 15.5q18 0 55 -30.5t76 -30.5q41 0 84 25t43 57q0 54 -58 107.5t-65 107.5q0 47 26.5 96.5
t26.5 63.5q0 41 -60 47q-51 0 -81 -27.5t-45 -27.5q-32 0 -37 60z" />
    <glyph glyph-name="acute" unicode="&#xb4;" horiz-adv-x="248" 
d="M165 1053q67 75 108 75q7 0 7 -8q0 -17 -40.5 -91.5t-62.5 -216.5q0 -44 -68 -44q-61 6 -61 65q0 19 25 82t92 138z" />
    <glyph glyph-name="mu1" unicode="&#xb5;" horiz-adv-x="860" 
d="M191 730q66 0 66 -37q0 -71 -25.5 -219t-25.5 -323q0 -47 44 -47q81 0 194.5 197t204.5 205q68 0 68 -116l-19 -266q2 -36 23 -51.5t66 -36t45 -34.5q0 -22 -22 -24q-114 0 -170 22q-58 20 -58 75q0 39 1.5 63t15.5 181q-133 -231 -217 -282q-71 -44 -155 -44
q-29 0 -59 34q-62 -226 -134 -538q-8 -50 -66 -50q-56 0 -57 36q152 652 190.5 952t89.5 303z" />
    <glyph glyph-name="paragraph" unicode="&#xb6;" horiz-adv-x="997" 
d="M529 1394q325 -9 435 -102q25 -29 25 -69q0 -33 -49 -38q-49 23 -98 25q-10 -184 -28 -677q0 -116 11 -275.5t11 -177.5q-15 -58 -88 -58q-73 10 -77 483l27 564l-2 174q-69 10 -153 10q19 -260 19 -848q0 -77 -5.5 -156t-15.5 -140q-14 -87 -58 -87q-83 0 -83 73
q1 29 11 129.5t10 300.5v527q-51 -49 -177 -78q-169 0 -184 117q0 162 118 232t351 71zM210 1149q3 -45 55 -45q61 0 151 31q-10 58 -12 108q-129 -14 -160 -44t-34 -50z" />
    <glyph glyph-name="periodcentered" unicode="&#xb7;" horiz-adv-x="355" 
d="M198 515q30 0 62 -21t32 -49t-35.5 -63t-71.5 -35q-31 0 -62 26t-31 53q0 28 34 58.5t72 30.5z" />
    <glyph glyph-name="periodcentered" unicode="&#x2219;" horiz-adv-x="355" 
d="M198 515q30 0 62 -21t32 -49t-35.5 -63t-71.5 -35q-31 0 -62 26t-31 53q0 28 34 58.5t72 30.5z" />
    <glyph glyph-name="cedilla" unicode="&#xb8;" horiz-adv-x="542" 
d="M172 -355q3 41 38.5 68.5t35.5 68.5q0 32 -10.5 55t-11.5 50q0 24 34 63t59 45q27 0 27 -30l-23 -49q53 -60 57 -142q-10 -146 -142 -164q-57 0 -64 35z" />
    <glyph glyph-name="onesuperior" unicode="&#xb9;" horiz-adv-x="508" 
d="M60 1146q201 216 235.5 255t64.5 39q71 -10 71 -79q0 -20 -5 -90.5t-18 -235.5q-10 -143 -10 -209q1 -45 4 -70q0 -11 -7 -11q-69 10 -97.5 52t-29.5 116q0 79 25 355l-144 -150q-82 0 -89 28z" />
    <glyph glyph-name="ordmasculine" unicode="&#xba;" horiz-adv-x="638" 
d="M99 1012q0 163 63 277q73 129 184 135q93 0 141.5 -68t48.5 -229q-1 -172 -63.5 -275t-193.5 -115q-67 0 -120 73.5t-60 201.5zM226 1039q0 -57 19.5 -96.5t53.5 -39.5q39 0 73 49.5t34 137.5q-3 114 -25 142.5t-47 28.5q-30 0 -64 -43t-44 -179z" />
    <glyph glyph-name="guillemotright" unicode="&#xbb;" horiz-adv-x="1058" 
d="M521 1205q53 0 138.5 -32t315.5 -313l9 -110q-244 -277 -369.5 -347t-145.5 -70q-6 0 -6 7q0 11 16 39q79 100 157 177.5t201 232.5q-145 228 -313 298q-111 46 -111 76q0 16 32.5 29t75.5 13zM197 1157q51 0 133 -40.5t302 -273.5q39 -42 39 -105q-233 -274 -358.5 -345
t-145.5 -71q-6 0 -6 7q0 10 16 37q77 96 147 169.5t186 220.5q-149 161 -309 288q-107 44 -107 73q0 15 31 27.5t72 12.5z" />
    <glyph glyph-name="onequarter" unicode="&#xbc;" horiz-adv-x="1028" 
d="M356.5 461q-158.5 -206 -177.5 -232.5t-74 -26.5q-55 11 -65 43q323 446 858 934q44 -3 58 -26q-441 -486 -599.5 -692zM60 1146q201 216 235.5 255t64.5 39q71 -10 71 -79q0 -20 -5 -90.5t-18 -235.5q-10 -143 -10 -209q1 -45 4 -70q0 -11 -7 -11q-69 10 -97.5 52
t-29.5 116q0 79 25 355l-144 -150q-82 0 -89 28zM897 685q-1 -33 -76.5 -96t-106.5 -142.5t-31 -112.5q0 -9 2.5 -11t31.5 -2q28 0 74 7q31 4 56 4q57 0 80 -21.5t23 -55.5q0 -18 -14 -53.5t-14 -65.5q0 -51 11 -130q-82 3 -94 29q-12 65 -12 115q0 37 16 83q-41 -2 -99 -7
q-22 -2 -41 -2q-66 0 -98.5 27t-32.5 81q0 50 41 143t116 169.5t102 80.5q65 -1 66 -40z" />
    <glyph glyph-name="onehalf" unicode="&#xbd;" horiz-adv-x="1087" 
d="M356.5 461q-158.5 -206 -177.5 -232.5t-74 -26.5q-55 11 -65 43q323 446 858 934q44 -3 58 -26q-441 -486 -599.5 -692zM60 1146q201 216 235.5 255t64.5 39q71 -10 71 -79q0 -20 -5 -90.5t-18 -235.5q-10 -143 -10 -209q1 -45 4 -70q0 -11 -7 -11q-69 10 -97.5 52
t-29.5 116q0 79 25 355l-144 -150q-82 0 -89 28zM627 613q83 116 198 116q144 -3 148 -162q0 -113 -133 -248t-133 -163q0 -9 65 -15q83 0 316 2q-245 -102 -351 -102q-59 0 -108.5 20t-50.5 81q0 43 28.5 85t142.5 165t115 185q0 52 -55 59q-24 0 -69 -33q-5 -3 -9 -28
t-29 -25q-75 0 -75 63z" />
    <glyph glyph-name="threequarters" unicode="&#xbe;" horiz-adv-x="1002" 
d="M356.5 461q-158.5 -206 -177.5 -232.5t-74 -26.5q-55 11 -65 43q323 446 858 934q44 -3 58 -26q-441 -486 -599.5 -692zM79 1330q0 31 59.5 68t122.5 37q47 0 96.5 -30t49.5 -115q0 -46 -21.5 -93.5t-21.5 -66.5q0 -26 61 -73t65 -159q0 -84 -68 -131t-161 -47
q-95 3 -140 46t-45 69q0 16 11 31.5t27 15.5q18 0 55 -30.5t76 -30.5q41 0 84 25t43 57q0 54 -58 107.5t-65 107.5q0 47 26.5 96.5t26.5 63.5q0 41 -60 47q-51 0 -81 -27.5t-45 -27.5q-32 0 -37 60zM882 785q-1 -33 -76.5 -96t-106.5 -142.5t-31 -112.5q0 -9 2.5 -11
t31.5 -2q28 0 74 7q31 4 56 4q57 0 80 -21.5t23 -55.5q0 -18 -14 -53.5t-14 -65.5q0 -51 11 -130q-82 3 -94 29q-12 65 -12 115q0 37 16 83q-41 -2 -99 -7q-22 -2 -41 -2q-66 0 -98.5 27t-32.5 81q0 50 41 143t116 169.5t102 80.5q65 -1 66 -40z" />
    <glyph glyph-name="questiondown" unicode="&#xbf;" horiz-adv-x="732" 
d="M643 -725q-139 -41 -265 -41q-105 0 -216.5 46t-111.5 179q23 167 228 399t205 334q0 55 -52 108.5t-142 92t-90 46.5q0 5 19 5q34 0 125 -16q240 -37 253 -220q0 -153 -204.5 -404.5t-210.5 -345.5q0 -83 174 -111q148 0 306 55q0 -104 -18 -127zM381 623
q-27 0 -51.5 23.5t-24.5 39.5q0 18 33.5 37.5t60.5 19.5q29 0 53.5 -18.5t24.5 -32.5q0 -18 -33.5 -43.5t-62.5 -25.5z" />
    <glyph glyph-name="Agrave" unicode="&#xc0;" horiz-adv-x="886" 
d="M139 49q-48 0 -60.5 54.5t-12.5 228.5q0 162 46.5 401.5t191.5 455.5t249 216q120 -47 184 -217t78 -371t14 -311q0 -120 -16 -235q-9 -211 -43 -211q-51 0 -53 1q-33 5 -43 81q23 182 23 324q-249 -16 -500 -69q-7 -120 -7 -167q0 -63 9 -152q-27 -29 -60 -29zM211 523
q243 48 485 60q-17 411 -59.5 562t-96.5 151q-40 0 -162.5 -207t-166.5 -566zM386 1784q0 35 36 35q19 0 52.5 -5.5t62 -106.5t28.5 -129q-7 -22 -41 -22q-6 0 -10 6q-7 14 -31.5 62.5t-96.5 159.5z" />
    <glyph glyph-name="Aacute" unicode="&#xc1;" horiz-adv-x="928" 
d="M159 19q-48 0 -60.5 54.5t-12.5 228.5q0 162 46.5 401.5t191.5 455.5t249 216q120 -47 184 -217t78 -371t14 -311q0 -120 -16 -235q-9 -211 -43 -211q-51 0 -53 1q-33 5 -43 81q23 182 23 324q-249 -16 -500 -69q-7 -120 -7 -167q0 -63 9 -152q-27 -29 -60 -29zM231 493
q243 48 485 60q-17 411 -59.5 562t-96.5 151q-40 0 -162.5 -207t-166.5 -566zM634 1839q67 75 108 75q7 0 7 -8q0 -17 -40.5 -91.5t-62.5 -216.5q0 -44 -68 -44q-61 6 -61 65q0 19 25 82t92 138z" />
    <glyph glyph-name="Acircumflex" unicode="&#xc2;" horiz-adv-x="904" 
d="M144 19q-48 0 -60.5 54.5t-12.5 228.5q0 162 46.5 401.5t191.5 455.5t249 216q120 -47 184 -217t78 -371t14 -311q0 -120 -16 -235q-9 -211 -43 -211q-51 0 -53 1q-33 5 -43 81q23 182 23 324q-249 -16 -500 -69q-7 -120 -7 -167q0 -63 9 -152q-27 -29 -60 -29zM216 493
q243 48 485 60q-17 411 -59.5 562t-96.5 151q-40 0 -162.5 -207t-166.5 -566zM802 1488q-21 0 -54 104q-47 96 -176 204q-88 -77 -143.5 -141.5t-126.5 -120.5q-19 -15 -26 -15q-6 0 -6 6q0 19 43 95q65 124 240 304l77 -9q157 -177 178 -241q24 -35 24 -84q0 -41 -12 -77
q-8 -25 -18 -25z" />
    <glyph glyph-name="Atilde" unicode="&#xc3;" horiz-adv-x="904" 
d="M149 29q-48 0 -60.5 54.5t-12.5 228.5q0 162 46.5 401.5t191.5 455.5t249 216q120 -47 184 -217t78 -371t14 -311q0 -120 -16 -235q-9 -211 -43 -211q-51 0 -53 1q-33 5 -43 81q23 182 23 324q-249 -16 -500 -69q-7 -120 -7 -167q0 -63 9 -152q-27 -29 -60 -29zM221 503
q243 48 485 60q-17 411 -59.5 562t-96.5 151q-40 0 -162.5 -207t-166.5 -566zM932 1729q-2 -80 -52 -134.5t-134 -54.5q-97 0 -189.5 48t-162.5 48q-49 0 -73.5 -23t-30.5 -45q-7 -21 -50 -21q-40 1 -40 42q0 73 58 121.5t127 53.5q96 0 187 -70t179 -81q53 0 92 25t55 56.5
t34 34.5z" />
    <glyph glyph-name="Adieresis" unicode="&#xc4;" horiz-adv-x="874" 
d="M112 39q-48 0 -60.5 54.5t-12.5 228.5q0 162 46.5 401.5t191.5 455.5t249 216q120 -47 184 -217t78 -371t14 -311q0 -120 -16 -235q-9 -211 -43 -211q-51 0 -53 1q-33 5 -43 81q23 182 23 324q-249 -16 -500 -69q-7 -120 -7 -167q0 -63 9 -152q-27 -29 -60 -29zM184 513
q243 48 485 60q-17 411 -59.5 562t-96.5 151q-40 0 -162.5 -207t-166.5 -566zM426 1803q17 42 72 44q53 0 53 -20q0 -13 -22.5 -34t-42.5 -93q0 -34 19 -49q19 0 39.5 15t43.5 53t47 72.5t54 34.5q38 0 39 -21q0 -12 -11.5 -31t-19.5 -40q-15 -41 -15 -65q3 -29 3 -45
q-1 -14 -63 -21q-17 0 -23 12.5t-6 38.5q0 13 4 43q-36 -33 -73 -69q-24 -25 -54 -25q-37 0 -59 17t-22 58q0 55 37 125z" />
    <glyph glyph-name="Aring" unicode="&#xc5;" horiz-adv-x="874" 
d="M142 19q-48 0 -60.5 54.5t-12.5 228.5q0 162 46.5 401.5t191.5 455.5t249 216q120 -47 184 -217t78 -371t14 -311q0 -120 -16 -235q-9 -211 -43 -211q-51 0 -53 1q-33 5 -43 81q23 182 23 324q-249 -16 -500 -69q-7 -120 -7 -167q0 -63 9 -152q-27 -29 -60 -29zM214 493
q243 48 485 60q-17 411 -59.5 562t-96.5 151q-40 0 -162.5 -207t-166.5 -566zM581 1846q48 0 104.5 -30.5t56.5 -91.5q0 -23 -20.5 -85.5t-71.5 -98.5t-82 -36q-51 0 -97 44t-46 148q4 78 50 114t106 36zM573 1773q-27 0 -46 -23.5t-19 -79.5q0 -67 48 -82q33 0 61.5 49
t28.5 75q0 27 -25.5 44t-47.5 17z" />
    <glyph glyph-name="AE" unicode="&#xc6;" horiz-adv-x="1527" 
d="M211 523q243 48 485 60q0 411 -36 562t-120 151q-40 0 -167.5 -207t-161.5 -566zM813 1237q-31 -35 -45 -35q-10 0 -10 21q0 18 9 55q19 142 356 146q210 0 327 -49.5t117 -72.5q0 -6 -22 -6q-28 0 -141.5 20.5t-266.5 20.5q-258 -13 -324 -100zM847 740q0 35 103.5 55.5
t184.5 20.5q65 0 142.5 -11.5t123.5 -31t46 -34.5q0 -23 -100 -23q-26 0 -62 1.5t-70 1.5q-132 0 -184 -23.5t-81 -23.5q-55 0 -79 27.5t-24 40.5zM769 1149q28 118 153 118h9q-69 -224 -85 -385.5t-16.5 -235t-0.5 -140.5q0 -120 -16 -235q-10 -95 -25 -147q54 10 144.5 15
t183.5 5q159 0 245 -20t86 -31q0 -35 -203 -35.5t-365 -17t-214 -16.5q-12 0 -12 16q0 30 35 51q-24 19 -24 71q33 162 33 304q-249 -16 -500 -69q-7 -120 -7 -167q0 -73 9 -162q-27 -29 -60 -29q-48 0 -60.5 54.5t-12.5 238.5q0 162 41.5 401.5t191.5 455.5t254 216
q110 -7 160 -97t56 -159z" />
    <glyph glyph-name="Ccedilla" unicode="&#xc7;" horiz-adv-x="1105" 
d="M698 1260q-1 13 -29 13q-66 0 -248.5 -198.5t-192.5 -451.5q0 -205 103 -341.5t290 -137.5q131 0 292.5 78t186.5 78q7 0 7 -4q0 -16 -158.5 -144t-367.5 -128q-213 6 -350.5 163t-137.5 413q17 348 257.5 573t377.5 225q24 0 62.5 -18.5t38.5 -113.5q0 -80 -46.5 -223
t-66.5 -143q-15 0 -15 102q0 206 -3 258zM494 -328q3 41 38.5 68.5t35.5 68.5q0 32 -10.5 55t-11.5 50q0 24 34 63t59 45q27 0 27 -30l-23 -49q53 -60 57 -142q-10 -146 -142 -164q-57 0 -64 35z" />
    <glyph glyph-name="Egrave" unicode="&#xc8;" 
d="M223 1237q-31 -35 -45 -35q-10 0 -10 21q0 18 9 55q19 142 356 146q210 0 332 -49.5t122 -72.5q0 -6 -22 -6q-28 0 -151.5 10.5t-276.5 10.5q-258 -13 -314 -80zM351 1267q-69 -224 -106 -542t-44.5 -471t-55.5 -153q-38 0 -45 221q0 200 15 375q10 186 56 382
q43 188 171 188h9zM65 4q-12 0 -12 16q0 82 264 114q76 5 169 5q189 0 300 -27.5t111 -38.5q0 -50 -243 -50.5t-390 -9.5t-199 -9zM257 740q0 35 113.5 55.5t194.5 20.5q65 0 142.5 -11.5t123.5 -31t46 -34.5q0 -33 -100 -38q-26 0 -62 1.5t-70 1.5q-132 0 -194 -16t-91 -16
q-55 0 -79 27.5t-24 40.5zM456 1784q0 35 36 35q19 0 52.5 -5.5t62 -106.5t28.5 -129q-7 -22 -41 -22q-6 0 -10 6q-7 14 -31.5 62.5t-96.5 159.5z" />
    <glyph glyph-name="Eacute" unicode="&#xc9;" 
d="M223 1237q-31 -35 -45 -35q-10 0 -10 21q0 18 9 55q19 142 356 146q210 0 332 -49.5t122 -72.5q0 -6 -22 -6q-28 0 -151.5 10.5t-276.5 10.5q-258 -13 -314 -80zM351 1267q-69 -224 -106 -542t-44.5 -471t-55.5 -153q-38 0 -45 221q0 200 15 375q10 186 56 382
q43 188 171 188h9zM65 4q-12 0 -12 16q0 82 264 114q76 5 169 5q189 0 300 -27.5t111 -38.5q0 -50 -243 -50.5t-390 -9.5t-199 -9zM257 740q0 35 113.5 55.5t194.5 20.5q65 0 142.5 -11.5t123.5 -31t46 -34.5q0 -33 -100 -38q-26 0 -62 1.5t-70 1.5q-132 0 -194 -16t-91 -16
q-55 0 -79 27.5t-24 40.5zM677 1831q67 75 108 75q7 0 7 -8q0 -17 -40.5 -91.5t-62.5 -216.5q0 -44 -68 -44q-61 6 -61 65q0 19 25 82t92 138z" />
    <glyph glyph-name="Ecircumflex" unicode="&#xca;" 
d="M223 1237q-31 -35 -45 -35q-10 0 -10 21q0 18 9 55q19 142 356 146q210 0 332 -49.5t122 -72.5q0 -6 -22 -6q-28 0 -151.5 10.5t-276.5 10.5q-258 -13 -314 -80zM351 1267q-69 -224 -106 -542t-44.5 -471t-55.5 -153q-38 0 -45 221q0 200 15 375q10 186 56 382
q43 188 171 188h9zM65 4q-12 0 -12 16q0 82 264 114q76 5 169 5q189 0 300 -27.5t111 -38.5q0 -50 -243 -50.5t-390 -9.5t-199 -9zM257 740q0 35 113.5 55.5t194.5 20.5q65 0 142.5 -11.5t123.5 -31t46 -34.5q0 -33 -100 -38q-26 0 -62 1.5t-70 1.5q-132 0 -194 -16t-91 -16
q-55 0 -79 27.5t-24 40.5zM847 1479q-21 0 -54 104q-47 96 -176 204q-88 -77 -143.5 -141.5t-126.5 -120.5q-19 -15 -26 -15q-6 0 -6 6q0 19 43 95q65 124 240 304l77 -9q157 -177 178 -241q24 -35 24 -84q0 -41 -12 -77q-8 -25 -18 -25z" />
    <glyph glyph-name="Edieresis" unicode="&#xcb;" 
d="M223 1237q-31 -35 -45 -35q-10 0 -10 21q0 18 9 55q19 142 356 146q210 0 332 -49.5t122 -72.5q0 -6 -22 -6q-28 0 -151.5 10.5t-276.5 10.5q-258 -13 -314 -80zM351 1267q-69 -224 -106 -542t-44.5 -471t-55.5 -153q-38 0 -45 221q0 200 15 375q10 186 56 382
q43 188 171 188h9zM65 4q-12 0 -12 16q0 82 264 114q76 5 169 5q189 0 300 -27.5t111 -38.5q0 -50 -243 -50.5t-390 -9.5t-199 -9zM257 740q0 35 113.5 55.5t194.5 20.5q65 0 142.5 -11.5t123.5 -31t46 -34.5q0 -33 -100 -38q-26 0 -62 1.5t-70 1.5q-132 0 -194 -16t-91 -16
q-55 0 -79 27.5t-24 40.5zM523 1853q17 42 72 44q53 0 53 -20q0 -13 -22.5 -34t-42.5 -93q0 -34 19 -49q19 0 39.5 15t43.5 53t47 72.5t54 34.5q38 0 39 -21q0 -12 -11.5 -31t-19.5 -40q-15 -41 -15 -65q3 -29 3 -45q-1 -14 -63 -21q-17 0 -23 12.5t-6 38.5q0 13 4 43
q-36 -33 -73 -69q-24 -25 -54 -25q-37 0 -59 17t-22 58q0 55 37 125z" />
    <glyph glyph-name="Igrave" unicode="&#xcc;" horiz-adv-x="381" 
d="M273 1418q57 0 57 -54q0 -28 -15 -68q-86 -656 -100 -968q-4 -43 -4 -80q0 -121 28 -182q23 -40 23 -51q0 -6 -6 -6q-11 0 -42 21q-84 50 -105 109t-21 159q0 150 22 452q38 500 59 584t104 84zM146 1804q0 35 36 35q19 0 52.5 -5.5t62 -106.5t28.5 -129q-7 -22 -41 -22
q-6 0 -10 6q-7 14 -31.5 62.5t-96.5 159.5z" />
    <glyph glyph-name="Iacute" unicode="&#xcd;" horiz-adv-x="370" 
d="M266 1418q57 0 57 -54q0 -28 -15 -68q-86 -656 -100 -968q-4 -43 -4 -80q0 -121 28 -182q23 -40 23 -51q0 -6 -6 -6q-11 0 -42 21q-84 50 -105 109t-21 159q0 150 22 452q38 500 59 584t104 84zM355 1833q67 75 108 75q7 0 7 -8q0 -17 -40.5 -91.5t-62.5 -216.5
q0 -44 -68 -44q-61 6 -61 65q0 19 25 82t92 138z" />
    <glyph glyph-name="Icircumflex" unicode="&#xce;" horiz-adv-x="457" 
d="M264 1428q57 0 57 -54q0 -28 -15 -68q-86 -656 -100 -968q-4 -43 -4 -80q0 -121 28 -182q23 -40 23 -51q0 -6 -6 -6q-11 0 -42 21q-84 50 -105 109t-21 159q0 150 22 452q38 500 59 584t104 84zM538 1455q-21 0 -54 104q-47 96 -176 204q-88 -77 -143.5 -141.5
t-126.5 -120.5q-19 -15 -26 -15q-6 0 -6 6q0 19 43 95q65 124 240 304l77 -9q157 -177 178 -241q24 -35 24 -84q0 -41 -12 -77q-8 -25 -18 -25z" />
    <glyph glyph-name="Idieresis" unicode="&#xcf;" horiz-adv-x="370" 
d="M240 1428q57 0 57 -54q0 -28 -15 -68q-86 -656 -100 -968q-4 -43 -4 -80q0 -121 28 -182q23 -40 23 -51q0 -6 -6 -6q-11 0 -42 21q-84 50 -105 109t-21 159q0 150 22 452q38 500 59 584t104 84zM155 1823q17 42 72 44q53 0 53 -20q0 -13 -22.5 -34t-42.5 -93
q0 -34 19 -49q19 0 39.5 15t43.5 53t47 72.5t54 34.5q38 0 39 -21q0 -12 -11.5 -31t-19.5 -40q-15 -41 -15 -65q3 -29 3 -45q-1 -14 -63 -21q-17 0 -23 12.5t-6 38.5q0 13 4 43q-36 -33 -73 -69q-24 -25 -54 -25q-37 0 -59 17t-22 58q0 55 37 125z" />
    <glyph glyph-name="Eth" unicode="&#xd0;" horiz-adv-x="1188" 
d="M260 1284q-25 -32 -34 -32q-3 0 -3 8q0 17 24.5 83t158.5 78q339 0 540.5 -180.5t201.5 -496.5q-10 -378 -217 -558t-604 -180q-80 0 -144.5 26t-64.5 84l15 5q17 0 66.5 -21t114.5 -21q254 0 470 158.5t230 531.5q0 274 -179 424t-402 150q-130 0 -173 -59zM296 854
q14 177 35 400q1 25 18 25q91 0 91 -198q0 -53 -23 -229q160 -5 348 -24q-7 -78 -74 -96q-93 7 -189 7q-49 0 -99 -2q-19 -156 -35 -337q-31 -274 -59 -274q-41 30 -41 220q5 188 20 385q-93 0 -141.5 -15.5t-72.5 -15.5q-24 1 -24 26q0 52 16 86t61 34q57 8 169 8z" />
    <glyph glyph-name="Ntilde" unicode="&#xd1;" horiz-adv-x="1128" 
d="M255 280q-27 -234 -63 -234h-1q-36 6 -57.5 72t-21.5 164q0 93 21.5 254t21.5 346q0 78 -8.5 183t-8.5 172q0 45 8.5 70t72.5 25q56 0 56 -40v-14q0 -56 111 -359t215 -505.5t180 -202.5q98 0 133.5 220.5t35.5 594.5q0 72 -3 152q23 90 126 90q4 -108 4 -204
q0 -441 -56 -694.5t-224 -266.5q-160 0 -284 210.5t-224 496.5q-8 -270 -34 -530zM1035 1687q-2 -80 -52 -134.5t-134 -54.5q-97 0 -189.5 48t-162.5 48q-49 0 -73.5 -23t-30.5 -45q-7 -21 -50 -21q-40 1 -40 42q0 73 58 121.5t127 53.5q96 0 187 -70t179 -81q53 0 92 25
t55 56.5t34 34.5z" />
    <glyph glyph-name="Ograve" unicode="&#xd2;" horiz-adv-x="1291" 
d="M94 588q0 334 181.5 593t435.5 259q257 0 365.5 -144t108.5 -493q-15 -358 -181.5 -577t-490.5 -219q-180 0 -299.5 164.5t-119.5 416.5zM234 545q0 -157 69.5 -276.5t245.5 -153.5q164 0 326.5 172.5t168.5 510.5q0 352 -95.5 444t-204.5 92q-212 0 -361 -248.5
t-149 -540.5zM616 1834q0 35 36 35q19 0 52.5 -5.5t62 -106.5t28.5 -129q-7 -22 -41 -22q-6 0 -10 6q-7 14 -31.5 62.5t-96.5 159.5z" />
    <glyph glyph-name="Oacute" unicode="&#xd3;" horiz-adv-x="1327" 
d="M94 588q0 334 181.5 593t435.5 259q257 0 365.5 -144t108.5 -493q-15 -358 -181.5 -577t-490.5 -219q-180 0 -299.5 164.5t-119.5 416.5zM234 545q0 -157 69.5 -276.5t245.5 -153.5q164 0 326.5 172.5t168.5 510.5q0 352 -95.5 444t-204.5 92q-212 0 -361 -248.5
t-149 -540.5zM877 1839q67 75 108 75q7 0 7 -8q0 -17 -40.5 -91.5t-62.5 -216.5q0 -44 -68 -44q-61 6 -61 65q0 19 25 82t92 138z" />
    <glyph glyph-name="Ocircumflex" unicode="&#xd4;" horiz-adv-x="1322" 
d="M104 578q0 334 181.5 593t435.5 259q257 0 365.5 -144t108.5 -493q-15 -358 -181.5 -577t-490.5 -219q-180 0 -299.5 164.5t-119.5 416.5zM244 535q0 -157 69.5 -276.5t245.5 -153.5q164 0 326.5 172.5t168.5 510.5q0 352 -95.5 444t-204.5 92q-212 0 -361 -248.5
t-149 -540.5zM1058 1522q-21 0 -54 104q-47 96 -176 204q-88 -77 -143.5 -141.5t-126.5 -120.5q-19 -15 -26 -15q-6 0 -6 6q0 19 43 95q65 124 240 304l77 -9q157 -177 178 -241q24 -35 24 -84q0 -41 -12 -77q-8 -25 -18 -25z" />
    <glyph glyph-name="Otilde" unicode="&#xd5;" horiz-adv-x="1297" 
d="M94 588q0 334 181.5 593t435.5 259q257 0 365.5 -144t108.5 -493q-15 -358 -181.5 -577t-490.5 -219q-180 0 -299.5 164.5t-119.5 416.5zM234 545q0 -157 69.5 -276.5t245.5 -153.5q164 0 326.5 172.5t168.5 510.5q0 352 -95.5 444t-204.5 92q-212 0 -361 -248.5
t-149 -540.5zM1156 1781q-2 -80 -52 -134.5t-134 -54.5q-97 0 -189.5 48t-162.5 48q-49 0 -73.5 -23t-30.5 -45q-7 -21 -50 -21q-40 1 -40 42q0 73 58 121.5t127 53.5q96 0 187 -70t179 -81q53 0 92 25t55 56.5t34 34.5z" />
    <glyph glyph-name="Odieresis" unicode="&#xd6;" horiz-adv-x="1242" 
d="M655 1833q17 42 72 44q53 0 53 -20q0 -13 -22.5 -34t-42.5 -93q0 -34 19 -49q19 0 39.5 15t43.5 53t47 72.5t54 34.5q38 0 39 -21q0 -12 -11.5 -31t-19.5 -40q-15 -41 -15 -65q3 -29 3 -45q-1 -14 -63 -21q-17 0 -23 12.5t-6 38.5q0 13 4 43q-36 -33 -73 -69
q-24 -25 -54 -25q-37 0 -59 17t-22 58q0 55 37 125zM55 588q0 334 181.5 593t435.5 259q257 0 365.5 -144t108.5 -493q-15 -358 -181.5 -577t-490.5 -219q-180 0 -299.5 164.5t-119.5 416.5zM195 545q0 -157 69.5 -276.5t245.5 -153.5q164 0 326.5 172.5t168.5 510.5
q0 352 -95.5 444t-204.5 92q-212 0 -361 -248.5t-149 -540.5z" />
    <glyph glyph-name="multiply" unicode="&#xd7;" horiz-adv-x="620" 
d="M201 166h-4q-103 0 -103 54q0 13 16 48.5t48.5 86t73.5 88.5q-95 132 -107 251q0 33 57 33q55 0 55 -17q12 -104 86 -190q57 64 108.5 111t106.5 112q2 -28 2 -53q0 -60 -39 -130q-51 -70 -120 -140q41 -52 75.5 -105t121.5 -118h-2q-215 0 -271 135q-37 -41 -104 -166z
" />
    <glyph glyph-name="Oslash" unicode="&#xd8;" horiz-adv-x="1299" 
d="M909 1298q-64 37 -158 37q-135 0 -294 -155q-186 -180 -192 -518v-24q0 -231 80 -368q228 554 564 1028zM454 153q55 -37 121 -37q104 0 225 96q221 176 275 486q20 115 20 207q0 157 -58 249q-18 28 -38 52q-314 -489 -545 -1053zM1076 1323q20 -21 39 -45
q130 -164 130 -396v-20q0 -334 -194 -589q-201 -263 -423 -263h-20q-114 0 -202 32q-35 -129 -60 -206q-18 -33 -98 -35q-57 6 -57 58q21 72 84 247q-32 23 -61 58q-110 134 -110 393q0 47 3 99q24 361 193.5 574t505.5 213q85 0 168 -42q33 41 77.5 97t204.5 117
q-107 -164 -180 -292z" />
    <glyph glyph-name="Ugrave" unicode="&#xd9;" 
d="M245 1322q21 0 21 -55q-29 -255 -44 -426.5t-15 -234.5q0 -314 82.5 -411t163.5 -97q125 0 220 121t119 395q19 401 33 661q0 88 29 95q88 -4 103 -138q-15 -452 -15 -498q0 -356 -132 -522t-307 -183q-162 0 -296.5 112.5t-136.5 436.5q29 491 69 649q19 95 106 95z
M392 1724q0 35 36 35q19 0 52.5 -5.5t62 -106.5t28.5 -129q-7 -22 -41 -22q-6 0 -10 6q-7 14 -31.5 62.5t-96.5 159.5z" />
    <glyph glyph-name="Uacute" unicode="&#xda;" 
d="M245 1322q21 0 21 -55q-29 -255 -44 -426.5t-15 -234.5q0 -314 82.5 -411t163.5 -97q125 0 220 121t119 395q19 401 33 661q0 88 29 95q88 -4 103 -138q-15 -452 -15 -498q0 -356 -132 -522t-307 -183q-162 0 -296.5 112.5t-136.5 436.5q29 491 69 649q19 95 106 95z
M596 1760q67 75 108 75q7 0 7 -8q0 -17 -40.5 -91.5t-62.5 -216.5q0 -44 -68 -44q-61 6 -61 65q0 19 25 82t92 138z" />
    <glyph glyph-name="Ucircumflex" unicode="&#xdb;" 
d="M245 1322q21 0 21 -55q-29 -255 -44 -426.5t-15 -234.5q0 -314 82.5 -411t163.5 -97q125 0 220 121t119 395q19 401 33 661q0 88 29 95q88 -4 103 -138q-15 -452 -15 -498q0 -356 -132 -522t-307 -183q-162 0 -296.5 112.5t-136.5 436.5q29 491 69 649q19 95 106 95z
M779 1480q-21 0 -54 104q-47 96 -176 204q-88 -77 -143.5 -141.5t-126.5 -120.5q-19 -15 -26 -15q-6 0 -6 6q0 19 43 95q65 124 240 304l77 -9q157 -177 178 -241q24 -35 24 -84q0 -41 -12 -77q-8 -25 -18 -25z" />
    <glyph glyph-name="Udieresis" unicode="&#xdc;" 
d="M245 1322q21 0 21 -55q-29 -255 -44 -426.5t-15 -234.5q0 -314 82.5 -411t163.5 -97q125 0 220 121t119 395q19 401 33 661q0 88 29 95q88 -4 103 -138q-15 -452 -15 -498q0 -356 -132 -522t-307 -183q-162 0 -296.5 112.5t-136.5 436.5q29 491 69 649q19 95 106 95z
M426 1793q17 42 72 44q53 0 53 -20q0 -13 -22.5 -34t-42.5 -93q0 -34 19 -49q19 0 39.5 15t43.5 53t47 72.5t54 34.5q38 0 39 -21q0 -12 -11.5 -31t-19.5 -40q-15 -41 -15 -65q3 -29 3 -45q-1 -14 -63 -21q-17 0 -23 12.5t-6 38.5q0 13 4 43q-36 -33 -73 -69
q-24 -25 -54 -25q-37 0 -59 17t-22 58q0 55 37 125z" />
    <glyph glyph-name="Yacute" unicode="&#xdd;" horiz-adv-x="964" 
d="M396 655q-122 6 -215 140.5t-99 632.5q132 0 132 -31q7 -427 72.5 -511t157.5 -84q113 0 209 188t121 434q15 26 55 26q74 0 74 -62q0 -84 -27 -208t-106 -271t-177 -204q-41 -23 -82 -36q-22 -205 -22 -373q0 -128 12 -259q-35 -39 -139 -39q-10 160 -10 297
q0 202 16 342zM540 1813q67 75 108 75q7 0 7 -8q0 -17 -40.5 -91.5t-62.5 -216.5q0 -44 -68 -44q-61 6 -61 65q0 19 25 82t92 138z" />
    <glyph glyph-name="Thorn" unicode="&#xde;" horiz-adv-x="964" 
d="M154 1352q19 116 79 116q51 0 51 -75q0 -39 -13 -94q-3 -97 -7 -203q40 3 97 6q131 7 152 7q208 0 305 -122.5t107 -283.5q0 -180 -101 -289.5t-325 -110.5q-209 0 -268 13q-9 -210 -16 -267q-3 -85 -73 -85q-40 0 -44 69q0 39 19.5 629t36.5 690zM260 958
q-4 -145 -12 -287.5t-11 -232.5q139 -9 246 -9q228 0 274.5 76.5t46.5 141.5q0 125 -35.5 213t-179.5 101l-239 1q-43 -1 -90 -4z" />
    <glyph glyph-name="germandbls" unicode="&#xdf;" horiz-adv-x="862" 
d="M744 619q-27 1 -60.5 31t-88.5 30q-88 -7 -88 -110q0 -52 139 -78.5t139 -187.5q0 -108 -84.5 -201t-191.5 -93q-81 0 -138.5 67t-57.5 144q0 46 23 46q36 0 48.5 -48.5t47.5 -75.5t78 -27q36 0 88.5 40t58.5 132q0 87 -145 116.5t-145 162.5q0 65 52 144t153 81
q0 454 -87 454q-114 -8 -187 -238t-93 -777q0 -125 18 -237q-114 28 -129.5 73t-15.5 242q0 119 29 375.5t129 460t240 203.5q82 0 145.5 -93.5t69.5 -479.5q28 -6 71.5 -33t43.5 -54q-4 -68 -62 -69z" />
    <glyph glyph-name="agrave" unicode="&#xe0;" horiz-adv-x="835" 
d="M530 511q-13 115 -78 115q-79 0 -158.5 -116t-79.5 -211q1 -143 80 -147q53 0 149 97t171 97q82 -4 132 -97.5t50 -133.5q0 -7 -3 -15t-13 -8q-19 0 -68 68t-101 68q-28 0 -130.5 -108t-223.5 -108q-81 0 -131 81.5t-50 193.5q4 133 111 288t302 155q75 0 116.5 -56.5
t41.5 -155.5q0 -110 -25.5 -133t-64.5 -23q-24 0 -27 149zM332 1084q0 35 36 35q19 0 52.5 -5.5t62 -106.5t28.5 -129q-7 -22 -41 -22q-6 0 -10 6q-7 14 -31.5 62.5t-96.5 159.5z" />
    <glyph glyph-name="aacute" unicode="&#xe1;" horiz-adv-x="820" 
d="M522 511q-13 115 -78 115q-79 0 -158.5 -116t-79.5 -211q1 -143 80 -147q53 0 149 97t171 97q82 -4 132 -97.5t50 -133.5q0 -7 -3 -15t-13 -8q-19 0 -68 68t-101 68q-28 0 -130.5 -108t-223.5 -108q-81 0 -131 81.5t-50 193.5q4 133 111 288t302 155q75 0 116.5 -56.5
t41.5 -155.5q0 -110 -25.5 -133t-64.5 -23q-24 0 -27 149zM512 1153q67 75 108 75q7 0 7 -8q0 -17 -40.5 -91.5t-62.5 -216.5q0 -44 -68 -44q-61 6 -61 65q0 19 25 82t92 138z" />
    <glyph glyph-name="acircumflex" unicode="&#xe2;" horiz-adv-x="820" 
d="M525 511q-13 115 -78 115q-79 0 -158.5 -116t-79.5 -211q1 -143 80 -147q53 0 149 97t171 97q82 -4 132 -97.5t50 -133.5q0 -7 -3 -15t-13 -8q-19 0 -68 68t-101 68q-28 0 -130.5 -108t-223.5 -108q-81 0 -131 81.5t-50 193.5q4 133 111 288t302 155q75 0 116.5 -56.5
t41.5 -155.5q0 -110 -25.5 -133t-64.5 -23q-24 0 -27 149zM693 819q-21 0 -54 104q-47 96 -176 204q-88 -77 -143.5 -141.5t-126.5 -120.5q-19 -15 -26 -15q-6 0 -6 6q0 19 43 95q65 124 240 304l77 -9q157 -177 178 -241q24 -35 24 -84q0 -41 -12 -77q-8 -25 -18 -25z" />
    <glyph glyph-name="atilde" unicode="&#xe3;" horiz-adv-x="820" 
d="M537 511q-13 115 -78 115q-79 0 -158.5 -116t-79.5 -211q1 -143 80 -147q53 0 149 97t171 97q82 -4 132 -97.5t50 -133.5q0 -7 -3 -15t-13 -8q-19 0 -68 68t-101 68q-28 0 -130.5 -108t-223.5 -108q-81 0 -131 81.5t-50 193.5q4 133 111 288t302 155q75 0 116.5 -56.5
t41.5 -155.5q0 -110 -25.5 -133t-64.5 -23q-24 0 -27 149zM833 1111q-2 -80 -52 -134.5t-134 -54.5q-97 0 -189.5 48t-162.5 48q-49 0 -73.5 -23t-30.5 -45q-7 -21 -50 -21q-40 1 -40 42q0 73 58 121.5t127 53.5q96 0 187 -70t179 -81q53 0 92 25t55 56.5t34 34.5z" />
    <glyph glyph-name="adieresis" unicode="&#xe4;" horiz-adv-x="820" 
d="M526 511q-13 115 -78 115q-79 0 -158.5 -116t-79.5 -211q1 -143 80 -147q53 0 149 97t171 97q82 -4 132 -97.5t50 -133.5q0 -7 -3 -15t-13 -8q-19 0 -68 68t-101 68q-28 0 -130.5 -108t-223.5 -108q-81 0 -131 81.5t-50 193.5q4 133 111 288t302 155q75 0 116.5 -56.5
t41.5 -155.5q0 -110 -25.5 -133t-64.5 -23q-24 0 -27 149zM345 1173q17 42 72 44q53 0 53 -20q0 -13 -22.5 -34t-42.5 -93q0 -34 19 -49q19 0 39.5 15t43.5 53t47 72.5t54 34.5q38 0 39 -21q0 -12 -11.5 -31t-19.5 -40q-15 -41 -15 -65q3 -29 3 -45q-1 -14 -63 -21
q-17 0 -23 12.5t-6 38.5q0 13 4 43q-36 -33 -73 -69q-24 -25 -54 -25q-37 0 -59 17t-22 58q0 55 37 125z" />
    <glyph glyph-name="aring" unicode="&#xe5;" horiz-adv-x="820" 
d="M535 511q-13 115 -78 115q-79 0 -158.5 -116t-79.5 -211q1 -143 80 -147q53 0 149 97t171 97q82 -4 132 -97.5t50 -133.5q0 -7 -3 -15t-13 -8q-19 0 -68 68t-101 68q-28 0 -130.5 -108t-223.5 -108q-81 0 -131 81.5t-50 193.5q4 133 111 288t302 155q75 0 116.5 -56.5
t41.5 -155.5q0 -110 -25.5 -133t-64.5 -23q-24 0 -27 149zM499 1216q48 0 104.5 -30.5t56.5 -91.5q0 -23 -20.5 -85.5t-71.5 -98.5t-82 -36q-51 0 -97 44t-46 148q4 78 50 114t106 36zM491 1143q-27 0 -46 -23.5t-19 -79.5q0 -67 48 -82q33 0 61.5 49t28.5 75q0 27 -25.5 44
t-47.5 17z" />
    <glyph glyph-name="ae" unicode="&#xe6;" horiz-adv-x="1174" 
d="M550 460q0 81 -14 123.5t-89 42.5q-79 0 -158.5 -116t-79.5 -211q1 -143 80 -147q53 0 127.5 55.5t121.5 119.5q12 106 12 133zM553 187q-190 -175 -301 -175q-81 0 -131 81.5t-50 193.5q4 133 111 288t302 155q75 0 117 -56q26 -36 35 -89q61 62 127.5 98.5t214.5 36.5
q52 0 92.5 -23t40.5 -78q-21 -91 -104 -163t-218 -118q-72 -25 -96 -25q-14 0 -14 7q0 5 7 14q31 28 167.5 110.5t138.5 187.5q0 23 -26 23q-123 0 -210.5 -93.5t-87.5 -257.5q0 -90 66 -148t168 -58q143 9 260 90q39 22 45 22q1 0 1 -1q0 -9 -122.5 -105t-251.5 -96
q-122 0 -204 65q-53 41 -77 114z" />
    <glyph glyph-name="ccedilla" unicode="&#xe7;" horiz-adv-x="736" 
d="M576 524q-49 78 -129 78q-140 -7 -198 -110t-58 -204q6 -102 69.5 -146t142.5 -44q34 0 110 19t184 88q36 21 44 21q2 0 2 -2q0 -12 -119.5 -117t-264.5 -105q-131 0 -211.5 75t-80.5 193q0 139 63 249t148 147t177 37q84 0 133 -43t49 -72q0 -64 -61 -64zM252 -353
q3 41 38.5 68.5t35.5 68.5q0 32 -10.5 55t-11.5 50q0 24 34 63t59 45q27 0 27 -30l-23 -49q53 -60 57 -142q-10 -146 -142 -164q-57 0 -64 35z" />
    <glyph glyph-name="egrave" unicode="&#xe8;" horiz-adv-x="751" 
d="M355 1074q0 35 36 35q19 0 52.5 -5.5t62 -106.5t28.5 -129q-7 -22 -41 -22q-6 0 -10 6q-7 14 -31.5 62.5t-96.5 159.5zM402 438.5q144 82.5 146 162.5q0 48 -51 48q-103 0 -192.5 -93.5t-89.5 -257.5q0 -90 65.5 -148t167.5 -58q148 9 265 85q35 27 40 27q6 0 6 -11
q0 -9 -34 -54t-117.5 -92.5t-212.5 -47.5q-122 0 -209 71t-99 218q0 200 122 313t310 113q62 0 102.5 -28.5t40.5 -83.5q-11 -90 -99 -162t-223 -113q-82 -20 -106 -20q-14 0 -14 7q0 5 7 14q31 28 175 110.5z" />
    <glyph glyph-name="eacute" unicode="&#xe9;" horiz-adv-x="758" 
d="M402 438.5q144 82.5 146 162.5q0 48 -51 48q-103 0 -192.5 -93.5t-89.5 -257.5q0 -90 65.5 -148t167.5 -58q148 9 265 85q35 27 40 27q6 0 6 -11q0 -9 -34 -54t-117.5 -92.5t-212.5 -47.5q-122 0 -209 71t-99 218q0 200 122 313t310 113q62 0 102.5 -28.5t40.5 -83.5
q-11 -90 -99 -162t-223 -113q-82 -20 -106 -20q-14 0 -14 7q0 5 7 14q31 28 175 110.5zM503 1128q67 75 108 75q7 0 7 -8q0 -17 -40.5 -91.5t-62.5 -216.5q0 -44 -68 -44q-61 6 -61 65q0 19 25 82t92 138z" />
    <glyph glyph-name="ecircumflex" unicode="&#xea;" horiz-adv-x="749" 
d="M411 438.5q144 82.5 146 162.5q0 48 -51 48q-103 0 -192.5 -93.5t-89.5 -257.5q0 -90 65.5 -148t167.5 -58q148 9 265 85q35 27 40 27q6 0 6 -11q0 -9 -34 -54t-117.5 -92.5t-212.5 -47.5q-122 0 -209 71t-99 218q0 200 122 313t310 113q62 0 102.5 -28.5t40.5 -83.5
q-11 -90 -99 -162t-223 -113q-82 -20 -106 -20q-14 0 -14 7q0 5 7 14q31 28 175 110.5zM719 826q-21 0 -54 104q-47 96 -176 204q-88 -77 -143.5 -141.5t-126.5 -120.5q-19 -15 -26 -15q-6 0 -6 6q0 19 43 95q65 124 240 304l77 -9q157 -177 178 -241q24 -35 24 -84
q0 -41 -12 -77q-8 -25 -18 -25z" />
    <glyph glyph-name="edieresis" unicode="&#xeb;" horiz-adv-x="772" 
d="M407 438.5q144 82.5 146 162.5q0 48 -51 48q-103 0 -192.5 -93.5t-89.5 -257.5q0 -90 65.5 -148t167.5 -58q148 9 265 85q35 27 40 27q6 0 6 -11q0 -9 -34 -54t-117.5 -92.5t-212.5 -47.5q-122 0 -209 71t-99 218q0 200 122 313t310 113q62 0 102.5 -28.5t40.5 -83.5
q-11 -90 -99 -162t-223 -113q-82 -20 -106 -20q-14 0 -14 7q0 5 7 14q31 28 175 110.5zM357 1163q17 42 72 44q53 0 53 -20q0 -13 -22.5 -34t-42.5 -93q0 -34 19 -49q19 0 39.5 15t43.5 53t47 72.5t54 34.5q38 0 39 -21q0 -12 -11.5 -31t-19.5 -40q-15 -41 -15 -65
q3 -29 3 -45q-1 -14 -63 -21q-17 0 -23 12.5t-6 38.5q0 13 4 43q-36 -33 -73 -69q-24 -25 -54 -25q-37 0 -59 17t-22 58q0 55 37 125z" />
    <glyph glyph-name="igrave" unicode="&#xec;" horiz-adv-x="322" 
d="M81 523q22 87 64.5 87.5t74.5 0.5q27 0 27 -75q-8 -219 -21.5 -357t-40.5 -138v1q-27 0 -58 18q-20 10 -20 186q0 92 8 323zM36 1064q0 35 36 35q19 0 52.5 -5.5t62 -106.5t28.5 -129q-7 -22 -41 -22q-6 0 -10 6q-7 14 -31.5 62.5t-96.5 159.5z" />
    <glyph glyph-name="iacute" unicode="&#xed;" horiz-adv-x="347" 
d="M76 439q22 87 64.5 87.5t74.5 0.5q27 0 27 -75q-8 -135 -21 -261q-14 -126 -41 -126v1q-27 0 -52.5 14t-25.5 166q0 92 8 239zM247 1058q67 75 108 75q7 0 7 -8q0 -17 -40.5 -91.5t-62.5 -216.5q0 -44 -68 -44q-61 6 -61 65q0 19 25 82t92 138z" />
    <glyph glyph-name="icircumflex" unicode="&#xee;" horiz-adv-x="490" 
d="M141 523q22 87 64.5 87.5t74.5 0.5q27 0 27 -75q-8 -219 -21.5 -357t-40.5 -138v1q-27 0 -58 18q-20 10 -20 186q0 92 8 323zM493 720q-21 0 -54 104q-47 96 -176 204q-88 -77 -143.5 -141.5t-126.5 -120.5q-19 -15 -26 -15q-6 0 -6 6q0 19 43 95q65 124 240 304l77 -9
q157 -177 178 -241q24 -35 24 -84q0 -41 -12 -77q-8 -25 -18 -25z" />
    <glyph glyph-name="idieresis" unicode="&#xef;" horiz-adv-x="360" 
d="M85 523q22 87 64.5 87.5t74.5 0.5q27 0 27 -75q-8 -219 -21.5 -357t-40.5 -138v1q-27 0 -58 18q-20 10 -20 186q0 92 8 323zM95 1113q17 42 72 44q53 0 53 -20q0 -13 -22.5 -34t-42.5 -93q0 -34 19 -49q19 0 39.5 15t43.5 53t47 72.5t54 34.5q38 0 39 -21
q0 -12 -11.5 -31t-19.5 -40q-15 -41 -15 -65q3 -29 3 -45q-1 -14 -63 -21q-17 0 -23 12.5t-6 38.5q0 13 4 43q-36 -33 -73 -69q-24 -25 -54 -25q-37 0 -59 17t-22 58q0 55 37 125z" />
    <glyph glyph-name="eth" unicode="&#xf0;" horiz-adv-x="774" 
d="M441 1073q-8 23 -104 159t-177 136q-15 0 -40.5 -23t-55.5 -23q-11 0 -11 12q0 4 1 10q0 12 45 47t128 35q108 0 220.5 -155t132.5 -189q47 0 119 -8.5t79 -32.5q-4 -65 -71 -72q-34 3 -69 4q89 -195 89 -485q0 -210 -71.5 -354t-259.5 -144q-111 0 -214.5 91t-103.5 257
q0 164 62.5 279t190.5 117q210 0 256 -307l-4 -43q-134 234 -262 234q-45 0 -84.5 -74.5t-39.5 -166.5q0 -102 59 -215t141 -113q152 0 177 147.5t25 282.5q0 287 -102 494q-205 -31 -402 -109q-27 0 -28 61q0 66 50 78q118 38 200 51.5t124 18.5z" />
    <glyph glyph-name="ntilde" unicode="&#xf1;" horiz-adv-x="758" 
d="M91 259q0 192 8 267.5t16 140.5t67 65q49 0 65 -48q-17 -163 -23.5 -262t-6.5 -157q14 0 64 125q96 168 204 168q94 0 140 -68t54 -221q0 -89 -11 -174t-40 -93q-40 0 -45 46q0 37 -1.5 98t-11.5 171.5t-88 120.5q-65 0 -150 -197.5t-184 -197.5q-25 0 -41 26t-16 190z
M798 1103q-2 -80 -52 -134.5t-134 -54.5q-97 0 -189.5 48t-162.5 48q-49 0 -73.5 -23t-30.5 -45q-7 -21 -50 -21q-40 1 -40 42q0 73 58 121.5t127 53.5q96 0 187 -70t179 -81q53 0 92 25t55 56.5t34 34.5z" />
    <glyph glyph-name="ograve" unicode="&#xf2;" horiz-adv-x="749" 
d="M263 1114q0 35 36 35q19 0 52.5 -5.5t62 -106.5t28.5 -129q-7 -22 -41 -22q-6 0 -10 6q-7 14 -31.5 62.5t-96.5 159.5zM357 738q186 -6 267 -141t85 -253q0 -108 -106 -220q-103 -124 -254 -124q-124 6 -190 72.5t-66 175.5q0 122 56.5 306t207.5 184zM370 625
q-67 0 -108.5 -127.5t-41.5 -213.5q0 -90 33 -131t85 -41q75 0 159.5 81t84.5 167q0 100 -79.5 182.5t-132.5 82.5z" />
    <glyph glyph-name="oacute" unicode="&#xf3;" horiz-adv-x="758" 
d="M357 738q186 -6 267 -141t85 -253q0 -108 -106 -220q-103 -124 -254 -124q-124 6 -190 72.5t-66 175.5q0 122 56.5 306t207.5 184zM370 625q-67 0 -108.5 -127.5t-41.5 -213.5q0 -90 33 -131t85 -41q75 0 159.5 81t84.5 167q0 100 -79.5 182.5t-132.5 82.5zM452 1168
q67 75 108 75q7 0 7 -8q0 -17 -40.5 -91.5t-62.5 -216.5q0 -44 -68 -44q-61 6 -61 65q0 19 25 82t92 138z" />
    <glyph glyph-name="ocircumflex" unicode="&#xf4;" horiz-adv-x="758" 
d="M357 738q186 -6 267 -141t85 -253q0 -108 -106 -220q-103 -124 -254 -124q-124 6 -190 72.5t-66 175.5q0 122 56.5 306t207.5 184zM370 625q-67 0 -108.5 -127.5t-41.5 -213.5q0 -90 33 -131t85 -41q75 0 159.5 81t84.5 167q0 100 -79.5 182.5t-132.5 82.5zM668 830
q-21 0 -54 104q-47 96 -176 204q-88 -77 -143.5 -141.5t-126.5 -120.5q-19 -15 -26 -15q-6 0 -6 6q0 19 43 95q65 124 240 304l77 -9q157 -177 178 -241q24 -35 24 -84q0 -41 -12 -77q-8 -25 -18 -25z" />
    <glyph glyph-name="otilde" unicode="&#xf5;" horiz-adv-x="774" 
d="M367 738q186 -6 267 -141t85 -253q0 -108 -106 -220q-103 -124 -254 -124q-124 6 -190 72.5t-66 175.5q0 122 56.5 306t207.5 184zM380 625q-67 0 -108.5 -127.5t-41.5 -213.5q0 -90 33 -131t85 -41q75 0 159.5 81t84.5 167q0 100 -79.5 182.5t-132.5 82.5zM821 1126
q-2 -80 -52 -134.5t-134 -54.5q-97 0 -189.5 48t-162.5 48q-49 0 -73.5 -23t-30.5 -45q-7 -21 -50 -21q-40 1 -40 42q0 73 58 121.5t127 53.5q96 0 187 -70t179 -81q53 0 92 25t55 56.5t34 34.5z" />
    <glyph glyph-name="odieresis" unicode="&#xf6;" horiz-adv-x="746" 
d="M349 738q186 -6 267 -141t85 -253q0 -108 -106 -220q-103 -124 -254 -124q-124 6 -190 72.5t-66 175.5q0 122 56.5 306t207.5 184zM362 625q-67 0 -108.5 -127.5t-41.5 -213.5q0 -90 33 -131t85 -41q75 0 159.5 81t84.5 167q0 100 -79.5 182.5t-132.5 82.5zM302 1183
q17 42 72 44q53 0 53 -20q0 -13 -22.5 -34t-42.5 -93q0 -34 19 -49q19 0 39.5 15t43.5 53t47 72.5t54 34.5q38 0 39 -21q0 -12 -11.5 -31t-19.5 -40q-15 -41 -15 -65q3 -29 3 -45q-1 -14 -63 -21q-17 0 -23 12.5t-6 38.5q0 13 4 43q-36 -33 -73 -69q-24 -25 -54 -25
q-37 0 -59 17t-22 58q0 55 37 125z" />
    <glyph glyph-name="divide" unicode="&#xf7;" horiz-adv-x="874" 
d="M144 551q118 8 235 8q202 0 310.5 -13t115.5 -37q-4 -65 -71 -72q-93 7 -189 7q-216 0 -423 -32q-27 0 -28 61q0 66 50 78zM443 328q29 0 60 -20.5t31 -47.5t-34.5 -61t-69.5 -34q-30 0 -60 25t-30 52t33 56.5t70 29.5zM476 813q29 0 60 -20.5t31 -47.5t-34.5 -61
t-69.5 -34q-30 0 -60 25t-30 52t33 56.5t70 29.5z" />
    <glyph glyph-name="oslash" unicode="&#xf8;" horiz-adv-x="766" 
d="M326 130q23 -10 69 -10q53 0 114 77t61 163q0 98 -39 153q-113 -192 -205 -383zM452 593q-50 32 -83 32q-68 0 -124.5 -97.5t-56.5 -183.5q0 -104 39 -142q99 195 225 391zM156 67q-19 19 -57 65.5t-38 175.5q0 166 83.5 298t210.5 132q75 -2 162 -45q44 66 105 149
t165 165q-114 -217 -190 -363q26 -24 61 -93t39 -197q0 -128 -94.5 -235t-242.5 -107q-58 1 -90 14q-67 -149 -92 -220t-63 -73q-70 7 -70 74q14 71 111 260z" />
    <glyph glyph-name="ugrave" unicode="&#xf9;" horiz-adv-x="783" 
d="M210 710q66 0 66 -37q0 -51 -35.5 -139t-39.5 -233q9 -197 123 -197q101 0 177 212t137 220q78 0 78 -126q0 -48 -8.5 -101t-8.5 -91q0 -33 7 -99.5t7 -82.5q0 -36 -44 -36q-18 0 -44 62.5t-26 141.5q0 68 9 123q-43 -169 -118 -251.5t-169 -82.5q-99 0 -169 67t-70 246
q0 98 42 251t86 153zM346 1074q0 35 36 35q19 0 52.5 -5.5t62 -106.5t28.5 -129q-7 -22 -41 -22q-6 0 -10 6q-7 14 -31.5 62.5t-96.5 159.5z" />
    <glyph glyph-name="uacute" unicode="&#xfa;" horiz-adv-x="780" 
d="M213 710q66 0 66 -37q0 -51 -35.5 -139t-39.5 -233q9 -197 123 -197q101 0 177 212t137 220q78 0 78 -126q0 -48 -8.5 -101t-8.5 -91q0 -33 7 -99.5t7 -82.5q0 -36 -44 -36q-18 0 -44 62.5t-26 141.5q0 68 9 123q-43 -169 -118 -251.5t-169 -82.5q-99 0 -169 67t-70 246
q0 98 42 251t86 153zM550 1153q67 75 108 75q7 0 7 -8q0 -17 -40.5 -91.5t-62.5 -216.5q0 -44 -68 -44q-61 6 -61 65q0 19 25 82t92 138z" />
    <glyph glyph-name="ucircumflex" unicode="&#xfb;" horiz-adv-x="786" 
d="M210 710q66 0 66 -37q0 -51 -35.5 -139t-39.5 -233q9 -197 123 -197q101 0 177 212t137 220q78 0 78 -126q0 -48 -8.5 -101t-8.5 -91q0 -33 7 -99.5t7 -82.5q0 -36 -44 -36q-18 0 -44 62.5t-26 141.5q0 68 9 123q-43 -169 -118 -251.5t-169 -82.5q-99 0 -169 67t-70 246
q0 98 42 251t86 153zM763 880q-21 0 -54 104q-47 96 -176 204q-88 -77 -143.5 -141.5t-126.5 -120.5q-19 -15 -26 -15q-6 0 -6 6q0 19 43 95q65 124 240 304l77 -9q157 -177 178 -241q24 -35 24 -84q0 -41 -12 -77q-8 -25 -18 -25z" />
    <glyph glyph-name="udieresis" unicode="&#xfc;" horiz-adv-x="771" 
d="M209 710q66 0 66 -37q0 -51 -35.5 -139t-39.5 -233q9 -197 123 -197q101 0 177 212t137 220q78 0 78 -126q0 -48 -8.5 -101t-8.5 -91q0 -33 7 -99.5t7 -82.5q0 -36 -44 -36q-18 0 -44 62.5t-26 141.5q0 68 9 123q-43 -169 -118 -251.5t-169 -82.5q-99 0 -169 67t-70 246
q0 98 42 251t86 153zM375 1183q17 42 72 44q53 0 53 -20q0 -13 -22.5 -34t-42.5 -93q0 -34 19 -49q19 0 39.5 15t43.5 53t47 72.5t54 34.5q38 0 39 -21q0 -12 -11.5 -31t-19.5 -40q-15 -41 -15 -65q3 -29 3 -45q-1 -14 -63 -21q-17 0 -23 12.5t-6 38.5q0 13 4 43
q-36 -33 -73 -69q-24 -25 -54 -25q-37 0 -59 17t-22 58q0 55 37 125z" />
    <glyph glyph-name="yacute" unicode="&#xfd;" horiz-adv-x="829" 
d="M269 652q-76 -91 -76 -260q0 -84 31 -131t77 -47q62 2 130 141t135 191t128 52q57 -4 71 -93t14 -174q0 -135 -67 -335.5t-67 -510.5q5 -164 44 -259q-180 158 -180 383q6 203 79 429t73 382q0 45 -8 70q-102 -248 -181 -309t-124 -63t-49 -2q-112 0 -176 73t-67 181
q-1 1 -1 2q0 219 214 280zM521 1123q67 75 108 75q7 0 7 -8q0 -17 -40.5 -91.5t-62.5 -216.5q0 -44 -68 -44q-61 6 -61 65q0 19 25 82t92 138z" />
    <glyph glyph-name="thorn" unicode="&#xfe;" horiz-adv-x="740" 
d="M361 625q-67 0 -108.5 -127.5t-41.5 -213.5q0 -90 33 -131t85 -41q75 0 159.5 81t84.5 167q0 100 -79.5 182.5t-132.5 82.5zM221 693q52 45 127 45q186 -6 267 -141t85 -253q0 -108 -106 -220q-103 -124 -254 -124q-87 4 -145 38q-13 -266 -20 -329q-3 -85 -73 -85
q-40 0 -44 69q0 39 18.5 620.5t37.5 698t79 116.5q51 0 51 -75q0 -39 -13 -94q-5 -141 -10 -266z" />
    <glyph glyph-name="ydieresis" unicode="&#xff;" horiz-adv-x="848" 
d="M286 652q-76 -91 -76 -260q0 -84 31 -131t77 -47q62 2 130 141t135 191t128 52q57 -4 71 -93t14 -174q0 -135 -67 -335.5t-67 -510.5q5 -164 44 -259q-180 158 -180 383q6 203 79 429t73 382q0 45 -8 70q-102 -248 -181 -309t-124 -63t-49 -2q-112 0 -176 73t-67 181
q-1 1 -1 2q0 219 214 280zM367 1183q17 42 72 44q53 0 53 -20q0 -13 -22.5 -34t-42.5 -93q0 -34 19 -49q19 0 39.5 15t43.5 53t47 72.5t54 34.5q38 0 39 -21q0 -12 -11.5 -31t-19.5 -40q-15 -41 -15 -65q3 -29 3 -45q-1 -14 -63 -21q-17 0 -23 12.5t-6 38.5q0 13 4 43
q-36 -33 -73 -69q-24 -25 -54 -25q-37 0 -59 17t-22 58q0 55 37 125z" />
    <glyph glyph-name="Amacron" unicode="&#x100;" horiz-adv-x="894" 
d="M139 49q-48 0 -60.5 54.5t-12.5 228.5q0 162 46.5 401.5t191.5 455.5t249 216q120 -47 184 -217t78 -371t14 -311q0 -120 -16 -235q-9 -211 -43 -211q-51 0 -53 1q-33 5 -43 81q23 182 23 324q-249 -16 -500 -69q-7 -120 -7 -167q0 -63 9 -152q-27 -29 -60 -29zM211 523
q243 48 485 60q-17 411 -59.5 562t-96.5 151q-40 0 -162.5 -207t-166.5 -566zM321 1694q35 0 100.5 1t173.5 1q65 0 217 3q33 0 33 -9q0 -82 -121 -92.5t-256 -10.5q-59 0 -131 3.5t-72 50.5q0 40 14.5 46.5t41.5 6.5z" />
    <glyph glyph-name="amacron" unicode="&#x101;" horiz-adv-x="824" 
d="M525 511q-13 115 -78 115q-79 0 -158.5 -116t-79.5 -211q1 -143 80 -147q53 0 149 97t171 97q82 -4 132 -97.5t50 -133.5q0 -7 -3 -15t-13 -8q-19 0 -68 68t-101 68q-28 0 -130.5 -108t-223.5 -108q-81 0 -131 81.5t-50 193.5q4 133 111 288t302 155q75 0 116.5 -56.5
t41.5 -155.5q0 -110 -25.5 -133t-64.5 -23q-24 0 -27 149zM211 1004q35 0 100.5 1t173.5 1q65 0 217 3q33 0 33 -9q0 -82 -121 -92.5t-256 -10.5q-59 0 -131 3.5t-72 50.5q0 40 14.5 46.5t41.5 6.5z" />
    <glyph glyph-name="Abreve" unicode="&#x102;" horiz-adv-x="894" 
d="M139 49q-48 0 -60.5 54.5t-12.5 228.5q0 162 46.5 401.5t191.5 455.5t249 216q120 -47 184 -217t78 -371t14 -311q0 -120 -16 -235q-9 -211 -43 -211q-51 0 -53 1q-33 5 -43 81q23 182 23 324q-249 -16 -500 -69q-7 -120 -7 -167q0 -63 9 -152q-27 -29 -60 -29zM211 523
q243 48 485 60q-17 411 -59.5 562t-96.5 151q-40 0 -162.5 -207t-166.5 -566zM371 1844q18 0 18 -22q4 -31 4 -82q0 -54 39 -87t113 -33q105 0 199 78.5t118 170.5q7 20 27 20q6 0 6 -19q0 -132 -96 -255t-251 -123q-129 0 -191 58t-62 125q0 70 24.5 119.5t51.5 49.5z" />
    <glyph glyph-name="abreve" unicode="&#x103;" horiz-adv-x="831" 
d="M525 511q-13 115 -78 115q-79 0 -158.5 -116t-79.5 -211q1 -143 80 -147q53 0 149 97t171 97q82 -4 132 -97.5t50 -133.5q0 -7 -3 -15t-13 -8q-19 0 -68 68t-101 68q-28 0 -130.5 -108t-223.5 -108q-81 0 -131 81.5t-50 193.5q4 133 111 288t302 155q75 0 116.5 -56.5
t41.5 -155.5q0 -110 -25.5 -133t-64.5 -23q-24 0 -27 149zM271 1224q18 0 18 -22q4 -31 4 -82q0 -54 39 -87t113 -33q105 0 199 78.5t118 170.5q7 20 27 20q6 0 6 -19q0 -132 -96 -255t-251 -123q-129 0 -191 58t-62 125q0 70 24.5 119.5t51.5 49.5z" />
    <glyph glyph-name="Aogonek" unicode="&#x104;" horiz-adv-x="891" 
d="M142 49q-48 0 -60.5 54.5t-12.5 228.5q0 162 46.5 401.5t191.5 455.5t249 216q120 -47 184 -217t78 -371t14 -311q0 -120 -16 -235q-9 -211 -43 -211q-51 0 -53 1q-33 5 -43 81q23 182 23 324q-249 -16 -500 -69q-7 -120 -7 -167q0 -63 9 -152q-27 -29 -60 -29zM214 523
q243 48 485 60q-17 411 -59.5 562t-96.5 151q-40 0 -162.5 -207t-166.5 -566zM702 -333q-132 18 -142 164q4 82 67.5 151.5t113.5 69.5q25 -6 25 -24q-69 -50 -74 -179q0 -51 35.5 -78.5t38.5 -68.5q-7 -35 -64 -35z" />
    <glyph glyph-name="aogonek" unicode="&#x105;" horiz-adv-x="784" 
d="M485 511q-13 115 -78 115q-79 0 -158.5 -116t-79.5 -211q1 -143 80 -147q53 0 149 97t171 97q82 -4 132 -97.5t50 -133.5q0 -7 -3 -15t-13 -8q-19 0 -68 68t-101 68q-28 0 -130.5 -108t-223.5 -108q-81 0 -131 81.5t-50 193.5q4 133 111 288t302 155q75 0 116.5 -56.5
t41.5 -155.5q0 -110 -25.5 -133t-64.5 -23q-24 0 -27 149zM658 -283q-132 18 -142 164q4 82 67.5 151.5t113.5 69.5q25 -6 25 -24q-69 -50 -74 -179q0 -51 35.5 -78.5t38.5 -68.5q-7 -35 -64 -35z" />
    <glyph glyph-name="Cacute" unicode="&#x106;" horiz-adv-x="1137" 
d="M718 1260q-1 13 -29 13q-66 0 -248.5 -198.5t-192.5 -451.5q0 -205 103 -341.5t290 -137.5q131 0 292.5 78t186.5 78q7 0 7 -4q0 -16 -158.5 -144t-367.5 -128q-213 6 -350.5 163t-137.5 413q17 348 257.5 573t377.5 225q24 0 62.5 -18.5t38.5 -113.5q0 -80 -46.5 -223
t-66.5 -143q-15 0 -15 102q0 206 -3 258zM819 1823q67 75 108 75q7 0 7 -8q0 -17 -40.5 -91.5t-62.5 -216.5q0 -44 -68 -44q-61 6 -61 65q0 19 25 82t92 138z" />
    <glyph glyph-name="cacute" unicode="&#x107;" horiz-adv-x="829" 
d="M602 524q-49 78 -129 78q-140 -7 -198 -110t-58 -204q6 -102 69.5 -146t142.5 -44q34 0 110 19t184 88q36 21 44 21q2 0 2 -2q0 -12 -119.5 -117t-264.5 -105q-131 0 -211.5 75t-80.5 193q0 139 63 249t148 147t177 37q84 0 133 -43t49 -72q0 -64 -61 -64zM537 1148
q67 75 108 75q7 0 7 -8q0 -17 -40.5 -91.5t-62.5 -216.5q0 -44 -68 -44q-61 6 -61 65q0 19 25 82t92 138z" />
    <glyph glyph-name="Ccircumflex" unicode="&#x108;" horiz-adv-x="1117" 
d="M698 1260q-1 13 -29 13q-66 0 -248.5 -198.5t-192.5 -451.5q0 -205 103 -341.5t290 -137.5q131 0 292.5 78t186.5 78q7 0 7 -4q0 -16 -158.5 -144t-367.5 -128q-213 6 -350.5 163t-137.5 413q17 348 257.5 573t377.5 225q24 0 62.5 -18.5t38.5 -113.5q0 -80 -46.5 -223
t-66.5 -143q-15 0 -15 102q0 206 -3 258zM963 1480q-21 0 -54 104q-47 96 -176 204q-88 -77 -143.5 -141.5t-126.5 -120.5q-19 -15 -26 -15q-6 0 -6 6q0 19 43 95q65 124 240 304l77 -9q157 -177 178 -241q24 -35 24 -84q0 -41 -12 -77q-8 -25 -18 -25z" />
    <glyph glyph-name="ccircumflex" unicode="&#x109;" horiz-adv-x="737" 
d="M586 524q-49 78 -129 78q-140 -7 -198 -110t-58 -204q6 -102 69.5 -146t142.5 -44q34 0 110 19t184 88q36 21 44 21q2 0 2 -2q0 -12 -119.5 -117t-264.5 -105q-131 0 -211.5 75t-80.5 193q0 139 63 249t148 147t177 37q84 0 133 -43t49 -72q0 -64 -61 -64zM711 814
q-21 0 -54 104q-47 96 -176 204q-88 -77 -143.5 -141.5t-126.5 -120.5q-19 -15 -26 -15q-6 0 -6 6q0 19 43 95q65 124 240 304l77 -9q157 -177 178 -241q24 -35 24 -84q0 -41 -12 -77q-8 -25 -18 -25z" />
    <glyph glyph-name="Cdot" unicode="&#x10a;" horiz-adv-x="1123" 
d="M698 1260q-1 13 -29 13q-66 0 -248.5 -198.5t-192.5 -451.5q0 -205 103 -341.5t290 -137.5q131 0 292.5 78t186.5 78q7 0 7 -4q0 -16 -158.5 -144t-367.5 -128q-213 6 -350.5 163t-137.5 413q17 348 257.5 573t377.5 225q24 0 62.5 -18.5t38.5 -113.5q0 -80 -46.5 -223
t-66.5 -143q-15 0 -15 102q0 206 -3 258zM705 1765q29 0 60 -20.5t31 -47.5t-34.5 -61t-69.5 -34q-30 0 -60 25t-30 52t33 56.5t70 29.5z" />
    <glyph glyph-name="cdot" unicode="&#x10b;" horiz-adv-x="740" 
d="M586 524q-49 78 -129 78q-140 -7 -198 -110t-58 -204q6 -102 69.5 -146t142.5 -44q34 0 110 19t184 88q36 21 44 21q2 0 2 -2q0 -12 -119.5 -117t-264.5 -105q-131 0 -211.5 75t-80.5 193q0 139 63 249t148 147t177 37q84 0 133 -43t49 -72q0 -64 -61 -64zM465 1045
q29 0 60 -20.5t31 -47.5t-34.5 -61t-69.5 -34q-30 0 -60 25t-30 52t33 56.5t70 29.5z" />
    <glyph glyph-name="Ccaron" unicode="&#x10c;" horiz-adv-x="1099" 
d="M693 1260q-1 13 -29 13q-66 0 -248.5 -198.5t-192.5 -451.5q0 -205 103 -341.5t290 -137.5q131 0 292.5 78t186.5 78q7 0 7 -4q0 -16 -158.5 -144t-367.5 -128q-213 6 -350.5 163t-137.5 413q17 348 257.5 573t377.5 225q24 0 62.5 -18.5t38.5 -113.5q0 -80 -46.5 -223
t-66.5 -143q-15 0 -15 102q0 206 -3 258zM512 1850q-19 -25 -33.5 -47t-14.5 -53q30 -23 82 -23q207 0 392.5 16t271.5 43q-59 -67 -274 -118.5t-391 -51.5q-91 1 -162 23.5t-71 85.5q0 44 53.5 72.5t146.5 52.5z" />
    <glyph glyph-name="ccaron" unicode="&#x10d;" horiz-adv-x="756" 
d="M577 524q-49 78 -129 78q-140 -7 -198 -110t-58 -204q6 -102 69.5 -146t142.5 -44q34 0 110 19t184 88q36 21 44 21q2 0 2 -2q0 -12 -119.5 -117t-264.5 -105q-131 0 -211.5 75t-80.5 193q0 139 63 249t148 147t177 37q84 0 133 -43t49 -72q0 -64 -61 -64zM250 994
q35 0 100.5 -14t173.5 -14q65 0 119 10.5t98 22.5q33 0 33 -9q0 -12 -121 -62.5t-256 -50.5q-59 0 -131 23.5t-72 60.5q0 20 14.5 26.5t41.5 6.5z" />
    <glyph glyph-name="Dcaron" unicode="&#x10e;" horiz-adv-x="1203" 
d="M238 1284q-26 -32 -34 -32q-4 0 -4 8q0 17 25 83t159 78q321 0 531.5 -171.5t210.5 -517.5q-10 -330 -235 -528t-562 -198q-81 0 -163 44t-82 102l14 5q17 0 73 -27t121 -27q326 0 506 182.5t193 471.5q0 274 -178.5 430t-402.5 156q-129 0 -172 -59zM308 1276
q2 25 18 25q92 0 92 -220q0 -57 -26 -302t-58 -449t-59 -204q-41 30 -41 180q24 420 74 970zM396 1815q-19 -25 -33.5 -47t-14.5 -53q30 -23 82 -23q207 0 392.5 16t271.5 43q-59 -67 -274 -118.5t-391 -51.5q-91 1 -162 23.5t-71 85.5q0 44 53.5 72.5t146.5 52.5z" />
    <glyph glyph-name="dcaron" unicode="&#x10f;" horiz-adv-x="824" 
d="M632 1327q14 63 68 65q53 -2 53 -35q-74 -560 -74 -763q5 -448 61 -574q0 -27 -17 -29q-19 0 -65 76t-57 234q-60 -200 -159 -260q-51 -35 -108 -35q-123 0 -185 76.5t-62 215.5q0 119 52 230t112.5 144t115.5 33q102 0 189 -54q7 232 76 676zM544 577q-49 44 -129 44
q-54 0 -102 -41t-75 -148.5t-27 -174.5q24 -162 98 -166q65 0 109 76q45 78 81 174t45 236zM847 1115q-67 -75 -108 -75q-7 0 -7 8q0 17 40.5 91.5t62.5 216.5q0 44 68 44q61 -6 61 -65q0 -19 -25 -82t-92 -138z" />
    <glyph glyph-name="Dslash" unicode="&#x110;" horiz-adv-x="1208" 
d="M260 1284q-25 -32 -34 -32q-3 0 -3 8q0 17 24.5 83t158.5 78q329 0 535.5 -195.5t206.5 -481.5q-10 -378 -217 -558t-604 -180q-80 0 -144.5 26t-64.5 84l15 5q17 0 66.5 -21t114.5 -21q254 0 470 158.5t230 531.5q0 274 -179 424t-402 150q-130 0 -173 -59zM296 854
q14 177 35 400q1 25 18 25q91 0 91 -198q0 -53 -23 -217q136 12 348 12l-74 -108q-93 -5 -288 -31q-19 -156 -35 -337q-31 -298 -59 -298q-41 30 -41 244q5 188 20 373q-93 -12 -141.5 -27.5t-72.5 -15.5q-24 1 -24 26q0 52 16 86t61 34q57 20 169 32z" />
    <glyph glyph-name="dmacron" unicode="&#x111;" horiz-adv-x="825" 
d="M512 622q-82 24 -132 24q-54 0 -102 -41t-75 -143.5t-27 -179.5q24 -162 98 -166q65 0 109.5 77t80.5 173t48 256zM554 1045q18 141 54 377h114q-31 -240 -46 -386q59 -5 121 -12q-7 -89 -74 -96l-58 4q-21 -220 -21 -313q0 -418 72 -601q-144 70 -150 318
q-50 -160 -125 -232.5t-142 -72.5q-123 0 -185 76.5t-62 215.5q0 119 57 225t112.5 144t110.5 38q72 0 192 -34q2 80 18 239h-8q-216 0 -423 -28q-28 0 -28 57q0 66 50 78q118 8 234 8q91 0 187 -5z" />
    <glyph glyph-name="Emacron" unicode="&#x112;" 
d="M223 1237q-31 -35 -45 -35q-10 0 -10 21q0 18 9 55q19 142 356 146q210 0 332 -49.5t122 -72.5q0 -6 -22 -6q-28 0 -151.5 10.5t-276.5 10.5q-258 -13 -314 -80zM351 1267q-69 -224 -106 -542t-44.5 -471t-55.5 -153q-38 0 -45 221q0 200 15 375q10 186 56 382
q43 188 171 188h9zM65 4q-12 0 -12 16q0 82 264 114q76 5 169 5q189 0 300 -27.5t111 -38.5q0 -50 -243 -50.5t-390 -9.5t-199 -9zM257 740q0 35 113.5 55.5t194.5 20.5q65 0 142.5 -11.5t123.5 -31t46 -34.5q0 -33 -100 -38q-26 0 -62 1.5t-70 1.5q-132 0 -194 -16t-91 -16
q-55 0 -79 27.5t-24 40.5zM401 1704q35 0 100.5 1t173.5 1q65 0 217 3q33 0 33 -9q0 -82 -121 -92.5t-256 -10.5q-59 0 -131 3.5t-72 50.5q0 40 14.5 46.5t41.5 6.5z" />
    <glyph glyph-name="emacron" unicode="&#x113;" horiz-adv-x="726" 
d="M381 438.5q144 82.5 146 162.5q0 48 -51 48q-103 0 -192.5 -93.5t-89.5 -257.5q0 -90 65.5 -148t167.5 -58q148 9 265 85q35 27 40 27q6 0 6 -11q0 -9 -34 -54t-117.5 -92.5t-212.5 -47.5q-122 0 -209 71t-99 218q0 200 122 313t310 113q62 0 102.5 -28.5t40.5 -83.5
q-11 -90 -99 -162t-223 -113q-82 -20 -106 -20q-14 0 -14 7q0 5 7 14q31 28 175 110.5zM201 1004q35 0 100.5 1t173.5 1q65 0 217 3q33 0 33 -9q0 -82 -121 -92.5t-256 -10.5q-59 0 -131 3.5t-72 50.5q0 40 14.5 46.5t41.5 6.5z" />
    <glyph glyph-name="Ebreve" unicode="&#x114;" 
d="M223 1237q-31 -35 -45 -35q-10 0 -10 21q0 18 9 55q19 142 356 146q210 0 332 -49.5t122 -72.5q0 -6 -22 -6q-28 0 -151.5 10.5t-276.5 10.5q-258 -13 -314 -80zM351 1267q-69 -224 -106 -542t-44.5 -471t-55.5 -153q-38 0 -45 221q0 200 15 375q10 186 56 382
q43 188 171 188h9zM65 4q-12 0 -12 16q0 82 264 114q76 5 169 5q189 0 300 -27.5t111 -38.5q0 -50 -243 -50.5t-390 -9.5t-199 -9zM257 740q0 35 113.5 55.5t194.5 20.5q65 0 142.5 -11.5t123.5 -31t46 -34.5q0 -33 -100 -38q-26 0 -62 1.5t-70 1.5q-132 0 -194 -16t-91 -16
q-55 0 -79 27.5t-24 40.5zM401 1864q18 0 18 -22q4 -31 4 -82q0 -54 39 -87t113 -33q105 0 199 78.5t118 170.5q7 20 27 20q6 0 6 -19q0 -132 -96 -255t-251 -123q-129 0 -191 58t-62 125q0 70 24.5 119.5t51.5 49.5z" />
    <glyph glyph-name="ebreve" unicode="&#x115;" horiz-adv-x="737" 
d="M381 438.5q144 82.5 146 162.5q0 48 -51 48q-103 0 -192.5 -93.5t-89.5 -257.5q0 -90 65.5 -148t167.5 -58q148 9 265 85q35 27 40 27q6 0 6 -11q0 -9 -34 -54t-117.5 -92.5t-212.5 -47.5q-122 0 -209 71t-99 218q0 200 122 313t310 113q62 0 102.5 -28.5t40.5 -83.5
q-11 -90 -99 -162t-223 -113q-82 -20 -106 -20q-14 0 -14 7q0 5 7 14q31 28 175 110.5zM261 1234q18 0 18 -22q4 -31 4 -82q0 -54 39 -87t113 -33q105 0 199 78.5t118 170.5q7 20 27 20q6 0 6 -19q0 -132 -96 -255t-251 -123q-129 0 -191 58t-62 125q0 70 24.5 119.5
t51.5 49.5z" />
    <glyph glyph-name="Edot" unicode="&#x116;" 
d="M223 1237q-31 -35 -45 -35q-10 0 -10 21q0 18 9 55q19 142 356 146q210 0 332 -49.5t122 -72.5q0 -6 -22 -6q-28 0 -151.5 10.5t-276.5 10.5q-258 -13 -314 -80zM351 1267q-69 -224 -106 -542t-44.5 -471t-55.5 -153q-38 0 -45 221q0 200 15 375q10 186 56 382
q43 188 171 188h9zM65 4q-12 0 -12 16q0 82 264 114q76 5 169 5q189 0 300 -27.5t111 -38.5q0 -50 -243 -50.5t-390 -9.5t-199 -9zM257 740q0 35 113.5 55.5t194.5 20.5q65 0 142.5 -11.5t123.5 -31t46 -34.5q0 -33 -100 -38q-26 0 -62 1.5t-70 1.5q-132 0 -194 -16t-91 -16
q-55 0 -79 27.5t-24 40.5zM625 1755q29 0 60 -20.5t31 -47.5t-34.5 -61t-69.5 -34q-30 0 -60 25t-30 52t33 56.5t70 29.5z" />
    <glyph glyph-name="edot" unicode="&#x117;" horiz-adv-x="744" 
d="M381 438.5q144 82.5 146 162.5q0 48 -51 48q-103 0 -192.5 -93.5t-89.5 -257.5q0 -90 65.5 -148t167.5 -58q148 9 265 85q35 27 40 27q6 0 6 -11q0 -9 -34 -54t-117.5 -92.5t-212.5 -47.5q-122 0 -209 71t-99 218q0 200 122 313t310 113q62 0 102.5 -28.5t40.5 -83.5
q-11 -90 -99 -162t-223 -113q-82 -20 -106 -20q-14 0 -14 7q0 5 7 14q31 28 175 110.5zM475 1065q29 0 60 -20.5t31 -47.5t-34.5 -61t-69.5 -34q-30 0 -60 25t-30 52t33 56.5t70 29.5z" />
    <glyph glyph-name="Eogonek" unicode="&#x118;" 
d="M223 1237q-31 -35 -45 -35q-10 0 -10 21q0 18 9 55q19 142 356 146q210 0 332 -49.5t122 -72.5q0 -6 -22 -6q-28 0 -151.5 10.5t-276.5 10.5q-258 -13 -314 -80zM351 1267q-69 -224 -106 -542t-44.5 -471t-55.5 -153q-38 0 -45 221q0 200 15 375q10 186 56 382
q43 188 171 188h9zM65 4q-12 0 -12 16q0 82 264 114q76 5 169 5q189 0 300 -27.5t111 -38.5q0 -50 -243 -50.5t-390 -9.5t-199 -9zM257 740q0 35 113.5 55.5t194.5 20.5q65 0 142.5 -11.5t123.5 -31t46 -34.5q0 -33 -100 -38q-26 0 -62 1.5t-70 1.5q-132 0 -194 -16t-91 -16
q-55 0 -79 27.5t-24 40.5zM848 -343q-132 18 -142 164q4 82 67.5 151.5t113.5 69.5q25 -6 25 -24q-69 -50 -74 -179q0 -51 35.5 -78.5t38.5 -68.5q-7 -35 -64 -35z" />
    <glyph glyph-name="eogonek" unicode="&#x119;" horiz-adv-x="740" 
d="M401 438.5q144 82.5 146 162.5q0 48 -51 48q-103 0 -192.5 -93.5t-89.5 -257.5q0 -90 65.5 -148t167.5 -58q148 9 265 85q35 27 40 27q6 0 6 -11q0 -9 -34 -54t-117.5 -92.5t-212.5 -47.5q-122 0 -209 71t-99 218q0 200 122 313t310 113q62 0 102.5 -28.5t40.5 -83.5
q-11 -90 -99 -162t-223 -113q-82 -20 -106 -20q-14 0 -14 7q0 5 7 14q31 28 175 110.5zM537 -360q-132 18 -142 164q4 82 67.5 151.5t113.5 69.5q25 -6 25 -24q-69 -50 -74 -179q0 -51 35.5 -78.5t38.5 -68.5q-7 -35 -64 -35z" />
    <glyph glyph-name="Ecaron" unicode="&#x11a;" 
d="M223 1237q-31 -35 -45 -35q-10 0 -10 21q0 18 9 55q19 142 356 146q210 0 332 -49.5t122 -72.5q0 -6 -22 -6q-28 0 -151.5 10.5t-276.5 10.5q-258 -13 -314 -80zM351 1267q-69 -224 -106 -542t-44.5 -471t-55.5 -153q-38 0 -45 221q0 200 15 375q10 186 56 382
q43 188 171 188h9zM65 4q-12 0 -12 16q0 82 264 114q76 5 169 5q189 0 300 -27.5t111 -38.5q0 -50 -243 -50.5t-390 -9.5t-199 -9zM257 740q0 35 113.5 55.5t194.5 20.5q65 0 142.5 -11.5t123.5 -31t46 -34.5q0 -33 -100 -38q-26 0 -62 1.5t-70 1.5q-132 0 -194 -16t-91 -16
q-55 0 -79 27.5t-24 40.5zM387 1840q-19 -25 -33.5 -47t-14.5 -53q30 -23 82 -23q207 0 392.5 16t271.5 43q-59 -67 -274 -118.5t-391 -51.5q-91 1 -162 23.5t-71 85.5q0 44 53.5 72.5t146.5 52.5z" />
    <glyph glyph-name="ecaron" unicode="&#x11b;" horiz-adv-x="754" 
d="M402 438.5q144 82.5 146 162.5q0 48 -51 48q-103 0 -192.5 -93.5t-89.5 -257.5q0 -90 65.5 -148t167.5 -58q148 9 265 85q35 27 40 27q6 0 6 -11q0 -9 -34 -54t-117.5 -92.5t-212.5 -47.5q-122 0 -209 71t-99 218q0 200 122 313t310 113q62 0 102.5 -28.5t40.5 -83.5
q-11 -90 -99 -162t-223 -113q-82 -20 -106 -20q-14 0 -14 7q0 5 7 14q31 28 175 110.5zM246 1004q35 0 100.5 -14t173.5 -14q65 0 119 10.5t98 22.5q33 0 33 -9q0 -12 -121 -62.5t-256 -50.5q-59 0 -131 23.5t-72 60.5q0 20 14.5 26.5t41.5 6.5z" />
    <glyph glyph-name="Gcircumflex" unicode="&#x11c;" horiz-adv-x="988" 
d="M890 1307q0 -13 -8 -27.5t-21 -14.5q-32 0 -62.5 52.5t-67.5 52.5q-44 0 -195 -165t-247 -369t-96 -445q0 -115 49 -194q67 -107 199 -117q98 0 181 80t125 170.5t42 156.5q0 42 -19 104.5t-59 62.5q-22 0 -49 -17t-55.5 -61t-58.5 -44q-19 0 -30.5 19t-11.5 48
q0 45 54 90q63 51 154 51q121 -14 162.5 -93t41.5 -150q0 -147 -125.5 -322t-347.5 -175q-186 10 -288 128.5t-102 262.5q0 69 23.5 211t120.5 336t265.5 357.5t250.5 163.5q90 0 132.5 -60.5t42.5 -91.5zM983 1480q-21 0 -54 104q-47 96 -176 204q-88 -77 -143.5 -141.5
t-126.5 -120.5q-19 -15 -26 -15q-6 0 -6 6q0 19 43 95q65 124 240 304l77 -9q157 -177 178 -241q24 -35 24 -84q0 -41 -12 -77q-8 -25 -18 -25z" />
    <glyph glyph-name="gcircumflex" unicode="&#x11d;" horiz-adv-x="779" 
d="M549 380q0 80 -21.5 140t-73.5 60q-105 0 -163.5 -121.5t-58.5 -235.5q0 -89 99 -89q19 0 36.5 2t30.5 2q170 0 254 -230q36 -136 36 -274q0 -150 -61 -282t-143 -132q-78 0 -159.5 62t-81.5 156q0 139 83 234.5t125 95.5q3 0 3 -4q0 -16 -30.5 -78t-49.5 -118t-19 -115
q0 -63 35 -110.5t83 -47.5q33 0 57 84.5t24 180.5q0 152 -32 326q-30 189 -160 189q-38 0 -92 -8t-92 -8q-86 0 -86 104q0 217 99 344.5t221 127.5q114 0 184 -59t70 -143q0 -62 -20.5 -137t-65.5 -113.5t-86 -38.5q-5 0 -5 5q0 6 6 17q33 69 43.5 126t10.5 88zM683 790
q-21 0 -54 104q-47 96 -176 204q-88 -77 -143.5 -141.5t-126.5 -120.5q-19 -15 -26 -15q-6 0 -6 6q0 19 43 95q65 124 240 304l77 -9q157 -177 178 -241q24 -35 24 -84q0 -41 -12 -77q-8 -25 -18 -25z" />
    <glyph glyph-name="Gbreve" unicode="&#x11e;" horiz-adv-x="971" 
d="M890 1307q0 -13 -8 -27.5t-21 -14.5q-32 0 -62.5 52.5t-67.5 52.5q-44 0 -195 -165t-247 -369t-96 -445q0 -115 49 -194q67 -107 199 -117q98 0 181 80t125 170.5t42 156.5q0 42 -19 104.5t-59 62.5q-22 0 -49 -17t-55.5 -61t-58.5 -44q-19 0 -30.5 19t-11.5 48
q0 45 54 90q63 51 154 51q121 -14 162.5 -93t41.5 -150q0 -147 -125.5 -322t-347.5 -175q-186 10 -288 128.5t-102 262.5q0 69 23.5 211t120.5 336t265.5 357.5t250.5 163.5q90 0 132.5 -60.5t42.5 -91.5zM541 1884q18 0 18 -22q4 -31 4 -82q0 -54 39 -87t113 -33
q105 0 199 78.5t118 170.5q7 20 27 20q6 0 6 -19q0 -132 -96 -255t-251 -123q-129 0 -191 58t-62 125q0 70 24.5 119.5t51.5 49.5z" />
    <glyph glyph-name="gbreve" unicode="&#x11f;" horiz-adv-x="754" 
d="M549 380q0 80 -21.5 140t-73.5 60q-105 0 -163.5 -121.5t-58.5 -235.5q0 -89 99 -89q19 0 36.5 2t30.5 2q170 0 254 -230q36 -136 36 -274q0 -150 -61 -282t-143 -132q-78 0 -159.5 62t-81.5 156q0 139 83 234.5t125 95.5q3 0 3 -4q0 -16 -30.5 -78t-49.5 -118t-19 -115
q0 -63 35 -110.5t83 -47.5q33 0 57 84.5t24 180.5q0 152 -32 326q-30 189 -160 189q-38 0 -92 -8t-92 -8q-86 0 -86 104q0 217 99 344.5t221 127.5q114 0 184 -59t70 -143q0 -62 -20.5 -137t-65.5 -113.5t-86 -38.5q-5 0 -5 5q0 6 6 17q33 69 43.5 126t10.5 88zM271 1184
q18 0 18 -22q4 -31 4 -82q0 -54 39 -87t113 -33q105 0 199 78.5t118 170.5q7 20 27 20q6 0 6 -19q0 -132 -96 -255t-251 -123q-129 0 -191 58t-62 125q0 70 24.5 119.5t51.5 49.5z" />
    <glyph glyph-name="Gdot" unicode="&#x120;" horiz-adv-x="981" 
d="M890 1307q0 -13 -8 -27.5t-21 -14.5q-32 0 -62.5 52.5t-67.5 52.5q-44 0 -195 -165t-247 -369t-96 -445q0 -115 49 -194q67 -107 199 -117q98 0 181 80t125 170.5t42 156.5q0 42 -19 104.5t-59 62.5q-22 0 -49 -17t-55.5 -61t-58.5 -44q-19 0 -30.5 19t-11.5 48
q0 45 54 90q63 51 154 51q121 -14 162.5 -93t41.5 -150q0 -147 -125.5 -322t-347.5 -175q-186 10 -288 128.5t-102 262.5q0 69 23.5 211t120.5 336t265.5 357.5t250.5 163.5q90 0 132.5 -60.5t42.5 -91.5zM715 1805q29 0 60 -20.5t31 -47.5t-34.5 -61t-69.5 -34
q-30 0 -60 25t-30 52t33 56.5t70 29.5z" />
    <glyph glyph-name="gdot" unicode="&#x121;" horiz-adv-x="733" 
d="M549 380q0 80 -21.5 140t-73.5 60q-105 0 -163.5 -121.5t-58.5 -235.5q0 -89 99 -89q19 0 36.5 2t30.5 2q170 0 254 -230q36 -136 36 -274q0 -150 -61 -282t-143 -132q-78 0 -159.5 62t-81.5 156q0 139 83 234.5t125 95.5q3 0 3 -4q0 -16 -30.5 -78t-49.5 -118t-19 -115
q0 -63 35 -110.5t83 -47.5q33 0 57 84.5t24 180.5q0 152 -32 326q-30 189 -160 189q-38 0 -92 -8t-92 -8q-86 0 -86 104q0 217 99 344.5t221 127.5q114 0 184 -59t70 -143q0 -62 -20.5 -137t-65.5 -113.5t-86 -38.5q-5 0 -5 5q0 6 6 17q33 69 43.5 126t10.5 88zM475 1045
q29 0 60 -20.5t31 -47.5t-34.5 -61t-69.5 -34q-30 0 -60 25t-30 52t33 56.5t70 29.5z" />
    <glyph glyph-name="Gcedilla" unicode="&#x122;" horiz-adv-x="951" 
d="M870 1307q0 -13 -8 -27.5t-21 -14.5q-32 0 -62.5 52.5t-67.5 52.5q-44 0 -195 -165t-247 -369t-96 -445q0 -115 49 -194q67 -107 199 -117q98 0 181 80t125 170.5t42 156.5q0 42 -19 104.5t-59 62.5q-22 0 -49 -17t-55.5 -61t-58.5 -44q-19 0 -30.5 19t-11.5 48
q0 45 54 90q63 51 154 51q121 -14 162.5 -93t41.5 -150q0 -147 -125.5 -322t-347.5 -175q-186 10 -288 128.5t-102 262.5q0 69 23.5 211t120.5 336t265.5 357.5t250.5 163.5q90 0 132.5 -60.5t42.5 -91.5zM362 -345q3 41 38.5 68.5t35.5 68.5q0 32 -10.5 55t-11.5 50
q0 24 34 63t59 45q27 0 27 -30l-23 -49q53 -60 57 -142q-10 -146 -142 -164q-57 0 -64 35z" />
    <glyph glyph-name="gcedilla" unicode="&#x123;" horiz-adv-x="742" 
d="M549 380q0 80 -21.5 140t-73.5 60q-105 0 -163.5 -121.5t-58.5 -235.5q0 -89 99 -89q19 0 36.5 2t30.5 2q170 0 254 -230q36 -136 36 -274q0 -150 -61 -282t-143 -132q-78 0 -159.5 62t-81.5 156q0 139 83 234.5t125 95.5q3 0 3 -4q0 -16 -30.5 -78t-49.5 -118t-19 -115
q0 -63 35 -110.5t83 -47.5q33 0 57 84.5t24 180.5q0 152 -32 326q-30 189 -160 189q-38 0 -92 -8t-92 -8q-86 0 -86 104q0 217 99 344.5t221 127.5q114 0 184 -59t70 -143q0 -62 -20.5 -137t-65.5 -113.5t-86 -38.5q-5 0 -5 5q0 6 6 17q33 69 43.5 126t10.5 88zM547 995
q-3 -41 -38.5 -68.5t-35.5 -68.5q0 -32 10.5 -55t11.5 -50q0 -24 -34 -63t-59 -45q-27 0 -27 30l23 49q-53 60 -57 142q10 146 142 164q57 0 64 -35z" />
    <glyph glyph-name="Hcircumflex" unicode="&#x124;" horiz-adv-x="1044" 
d="M182 1357q0 29 92 29q63 0 63 -116q0 -92 -27.5 -279t-51.5 -350t-24 -398q0 -133 13.5 -180.5t13.5 -62.5q0 -14 -11 -14q-10 0 -51 43t-69 142t-28 264q0 117 32 345t52 333.5t20 153.5q0 47 -12 64t-12 26zM281 694q23 73 152 73q194 -3 370 -51q21 262 21 421
q0 65 -3 99t-3 55q0 103 57 103q66 -8 74 -266q9 -129 9 -243q0 -93 -8.5 -244t-72 -409t-160.5 -258q-13 0 -26 8q101 441 106 642q-259 70 -472 70h-44zM833 1480q-21 0 -54 104q-47 96 -176 204q-88 -77 -143.5 -141.5t-126.5 -120.5q-19 -15 -26 -15q-6 0 -6 6
q0 19 43 95q65 124 240 304l77 -9q157 -177 178 -241q24 -35 24 -84q0 -41 -12 -77q-8 -25 -18 -25z" />
    <glyph glyph-name="hcircumflex" unicode="&#x125;" horiz-adv-x="754" 
d="M203 1370q55 58 135 58l-132 -1284q154 362 318 362q138 -12 162 -256q11 -107 11 -171q0 -72 -13 -91q-5 -6 -10 -6q-24 0 -60 166q-42 226 -96 227q-68 0 -146 -197q-96 -173 -162 -173q-70 0 -97 52t-27 130q0 241 117 1183zM623 1470q-21 0 -54 104q-47 96 -176 204
q-88 -77 -143.5 -141.5t-126.5 -120.5q-19 -15 -26 -15q-6 0 -6 6q0 19 43 95q65 124 240 304l77 -9q157 -177 178 -241q24 -35 24 -84q0 -41 -12 -77q-8 -25 -18 -25z" />
    <glyph glyph-name="Hbar" unicode="&#x126;" horiz-adv-x="1049" 
d="M203 1126q4 20 13.5 76.5t9.5 104.5q0 47 -12 64t-12 26q0 29 92 29q73 0 73 -116q0 -65 -23 -176q131 12 273 12q72 0 207 -15v46q0 65 -3 99t-3 55q0 103 57 103q66 -8 84 -266q2 -28 3 -55q89 -4 89 -13q0 -52 -85 -67q2 -56 2 -108q0 -93 -13.5 -244t-87 -409
t-170.5 -258q-13 0 -26 8q111 441 126 642q-299 80 -492 80h-24q23 63 152 63q154 -3 370 -71q13 168 18 292q-201 9 -424 9q-37 0 -77 -6q-48 -187 -67 -390t-19 -348q0 -133 18.5 -175.5t18.5 -57.5q0 -14 -11 -14q-10 0 -56 38t-74 137t-28 254q0 117 37 345
q19 116 31 191q-125 3 -125 40q0 40 158 75z" />
    <glyph glyph-name="hbar" unicode="&#x127;" horiz-adv-x="744" 
d="M157 984q20 176 56 386q55 58 135 58q-33 -221 -55 -442q147 0 299 3q33 0 33 -9q0 -82 -121 -92q-106 -10 -223 -11q-47 -366 -75 -733q174 342 318 342q138 -12 162 -236q11 -107 11 -171q0 -72 -13 -91q-5 -6 -10 -6q-24 0 -60 166q-42 206 -96 207q-48 0 -146 -177
q-96 -173 -162 -173q-70 0 -97 52t-27 130q0 171 59 692q-100 5 -100 52q0 40 14.5 46.5t97.5 6.5z" />
    <glyph glyph-name="Itilde" unicode="&#x128;" horiz-adv-x="395" 
d="M283 1428q57 0 57 -54q0 -28 -15 -68q-86 -656 -100 -968q-4 -43 -4 -80q0 -121 28 -182q23 -40 23 -51q0 -6 -6 -6q-11 0 -42 21q-84 50 -105 109t-21 159q0 150 22 452q38 500 59 584t104 84zM706 1771q-2 -80 -52 -134.5t-134 -54.5q-97 0 -189.5 48t-162.5 48
q-49 0 -73.5 -23t-30.5 -45q-7 -21 -50 -21q-40 1 -40 42q0 73 58 121.5t127 53.5q96 0 187 -70t179 -81q53 0 92 25t55 56.5t34 34.5z" />
    <glyph glyph-name="itilde" unicode="&#x129;" horiz-adv-x="356" 
d="M91 523q22 87 64.5 87.5t74.5 0.5q27 0 27 -75q-8 -219 -21.5 -357t-40.5 -138v1q-27 0 -58 18q-20 10 -20 186q0 92 8 323zM497 1061q-1.5 -80 -39 -134.5t-100.5 -54.5q-72.75 0 -142.125 48t-121.875 48q-36.75 0 -55.125 -23t-22.875 -45q-5.25 -21 -37.5 -21
q-30 1 -30 42q0 73 43.5 121.5t95.25 53.5q72 0 140.25 -70t134.25 -81q39.75 0 69 25t41.25 56.5t25.5 34.5z" />
    <glyph glyph-name="Imacron" unicode="&#x12a;" horiz-adv-x="398" 
d="M283 1428q57 0 57 -54q0 -28 -15 -68q-86 -656 -100 -968q-4 -43 -4 -80q0 -121 28 -182q23 -40 23 -51q0 -6 -6 -6q-11 0 -42 21q-84 50 -105 109t-21 159q0 150 22 452q38 500 59 584t104 84zM61 1724q35 0 100.5 1t173.5 1q65 0 217 3q33 0 33 -9q0 -82 -121 -92.5
t-256 -10.5q-59 0 -131 3.5t-72 50.5q0 40 14.5 46.5t41.5 6.5z" />
    <glyph glyph-name="imacron" unicode="&#x12b;" horiz-adv-x="356" 
d="M91 523q22 87 64.5 87.5t74.5 0.5q27 0 27 -75q-8 -219 -21.5 -357t-40.5 -138v1q-27 0 -58 18q-20 10 -20 186q0 92 8 323zM25.75 994q26.25 0 75.375 1t130.125 1q48.75 0 162.75 3q24.75 0 24.75 -9q0 -82 -90.75 -92.5t-192 -10.5q-44.25 0 -98.25 3.5t-54 50.5
q0 40 10.875 46.5t31.125 6.5z" />
    <glyph glyph-name="Ibreve" unicode="&#x12c;" horiz-adv-x="402" 
d="M283 1408q57 0 57 -54q0 -28 -15 -68q-86 -656 -100 -968q-4 -43 -4 -80q0 -121 28 -182q23 -40 23 -51q0 -6 -6 -6q-11 0 -42 21q-84 50 -105 109t-21 159q0 150 22 452q38 500 59 584t104 84zM91 1874q18 0 18 -22q4 -31 4 -82q0 -54 39 -87t113 -33q105 0 199 78.5
t118 170.5q7 20 27 20q6 0 6 -19q0 -132 -96 -255t-251 -123q-129 0 -191 58t-62 125q0 70 24.5 119.5t51.5 49.5z" />
    <glyph glyph-name="ibreve" unicode="&#x12d;" horiz-adv-x="355" 
d="M91 523q22 87 64.5 87.5t74.5 0.5q27 0 27 -75q-8 -219 -21.5 -357t-40.5 -138v1q-27 0 -58 18q-20 10 -20 186q0 92 8 323zM-9 1214q18 0 18 -22q4 -31 4 -82q0 -54 39 -87t113 -33q105 0 199 78.5t118 170.5q7 20 27 20q6 0 6 -19q0 -132 -96 -255t-251 -123
q-129 0 -191 58t-62 125q0 70 24.5 119.5t51.5 49.5z" />
    <glyph glyph-name="Iogonek" unicode="&#x12e;" horiz-adv-x="388" 
d="M283 1428q57 0 57 -54q0 -28 -15 -68q-86 -656 -100 -968q-4 -43 -4 -80q0 -121 28 -182q23 -40 23 -51q0 -6 -6 -6q-11 0 -42 21q-84 50 -105 109t-21 159q0 150 22 452q38 500 59 584t104 84zM204 -360q-132 18 -142 164q4 82 67.5 151.5t113.5 69.5q25 -6 25 -24
q-69 -50 -74 -179q0 -51 35.5 -78.5t38.5 -68.5q-7 -35 -64 -35z" />
    <glyph glyph-name="iogonek" unicode="&#x12f;" horiz-adv-x="334" 
d="M202 919q24 0 53.5 -20.5t29.5 -46.5q0 -22 -24 -49t-55 -27q-24 0 -53.5 22t-29.5 49q0 20 24 46t55 26zM91 523q22 87 64.5 87.5t74.5 0.5q27 0 27 -75q-8 -219 -21.5 -357t-40.5 -138v1q-27 0 -58 18q-20 10 -20 186q0 92 8 323zM157 -351q-132 18 -142 164
q4 82 67.5 151.5t113.5 69.5q25 -6 25 -24q-69 -50 -74 -179q0 -51 35.5 -78.5t38.5 -68.5q-7 -35 -64 -35z" />
    <glyph glyph-name="Idotaccent" unicode="&#x130;" horiz-adv-x="388" 
d="M283 1428q57 0 57 -54q0 -28 -15 -68q-86 -656 -100 -968q-4 -43 -4 -80q0 -121 28 -182q23 -40 23 -51q0 -6 -6 -6q-11 0 -42 21q-84 50 -105 109t-21 159q0 150 22 452q38 500 59 584t104 84zM335 1765q29 0 60 -20.5t31 -47.5t-34.5 -61t-69.5 -34q-30 0 -60 25
t-30 52t33 56.5t70 29.5z" />
    <glyph glyph-name="dotlessi" unicode="&#x131;" horiz-adv-x="366" 
d="M91 523q22 87 64.5 87.5t74.5 0.5q27 0 27 -75q-8 -219 -21.5 -357t-40.5 -138v1q-27 0 -58 18q-20 10 -20 186q0 92 8 323z" />
    <glyph glyph-name="Jcircumflex" unicode="&#x134;" horiz-adv-x="730" 
d="M626.5 887q47.5 -507 47.5 -659q-11 -122 -93 -171.5t-149 -49.5q-73 0 -179 70.5t-152 165t-46 136.5q0 61 50 91t71 30t21 -24q0 -122 50 -200t152 -149q44 -25 69 -25q54 0 59 136q0 220 -37 576.5t-37 482.5q0 78 12 93q21 25 48 25q11 0 24 -5q42 -16 89.5 -523z
M743 1470q-21 0 -54 104q-47 96 -176 204q-88 -77 -143.5 -141.5t-126.5 -120.5q-19 -15 -26 -15q-6 0 -6 6q0 19 43 95q65 124 240 304l77 -9q157 -177 178 -241q24 -35 24 -84q0 -41 -12 -77q-8 -25 -18 -25z" />
    <glyph glyph-name="jcircumflex" unicode="&#x135;" horiz-adv-x="360" 
d="M159 569q2 23 35.5 29.5t96.5 6.5q-94 -701 -94 -1255q-87 24 -98 48q-11 73 -11 226q0 441 71 945zM483 840q-21 0 -54 104q-47 96 -176 204q-88 -77 -143.5 -141.5t-126.5 -120.5q-19 -15 -26 -15q-6 0 -6 6q0 19 43 95q65 124 240 304l77 -9q157 -177 178 -241
q24 -35 24 -84q0 -41 -12 -77q-8 -25 -18 -25z" />
    <glyph glyph-name="Kcedilla" unicode="&#x136;" horiz-adv-x="988" 
d="M226 270v-204q-13 -30 -98 -30q-26 0 -30 47q0 407 -6 687q0 280 66 634q28 36 143 36q-56 -306 -70 -627q162 429 502 609q95 0 118 -54q-304 -213 -388 -364t-119 -233q28 -133 145.5 -366t231.5 -245q96 0 142.5 32.5t68.5 32.5q20 0 20 -17q0 -23 -25.5 -69.5
t-72.5 -82.5t-147 -36q-124 12 -244 183.5t-190 371.5q-40 -164 -47 -305zM362 -275q3 41 38.5 68.5t35.5 68.5q0 32 -10.5 55t-11.5 50q0 24 34 63t59 45q27 0 27 -30l-23 -49q53 -60 57 -142q-10 -146 -142 -164q-57 0 -64 35z" />
    <glyph glyph-name="kcedilla" unicode="&#x137;" horiz-adv-x="925" 
d="M268 1366q46 62 142 62q-131 -523 -163.5 -768t-32.5 -356q2 -164 64 -164q50 0 113 74.5t131 174t114 101.5q41 0 51.5 -13.5t10.5 -36.5q0 -39 -46 -114t-46 -149q10 -109 181 -110q139 -1 139 -11q0 -5 -56 -25.5t-167 -30.5q-103 0 -151.5 47t-48.5 105q0 26 5 52
q-15 -28 -73.5 -100.5t-150.5 -73.5q-105 0 -150.5 69.5t-45.5 267.5q0 84 29.5 310.5t150.5 688.5zM332 -335q3 41 38.5 68.5t35.5 68.5q0 32 -10.5 55t-11.5 50q0 24 34 63t59 45q27 0 27 -30l-23 -49q53 -60 57 -142q-10 -146 -142 -164q-57 0 -64 35z" />
    <glyph glyph-name="kgreenlandic" unicode="&#x138;" horiz-adv-x="760" 
d="M242 278q-10 -38 -16 -78l-10 -174q-13 -30 -88 -30q-26 0 -30 47q0 197 10 701q28 36 129 36q-10 -106 -20 -277q126 259 416 259q35 0 58 -54q-144 -13 -233 -94q-87 -79 -149 -182q52 -127 111 -212q67 -98 141 -110q56 0 72.5 12.5t48.5 12.5q20 0 20 -17
q0 -23 -10.5 -54.5t-47.5 -52.5t-97 -21q-64 2 -144 64q-72 55 -161 224z" />
    <glyph glyph-name="Lacute" unicode="&#x139;" horiz-adv-x="907" 
d="M326 1414q8 29 69 29l63 -5q-169 -600 -223 -827q-51 -214 -51 -397q0 -110 46 -110q19 0 151.5 46.5t297.5 46.5q159 -6 302 -80q-338 -23 -450 -47.5t-192 -55t-146 -30.5q-117 0 -133 179q2 256 47 455q54 248 219 796zM541 1838q67 75 108 75q7 0 7 -8
q0 -17 -40.5 -91.5t-62.5 -216.5q0 -44 -68 -44q-61 6 -61 65q0 19 25 82t92 138z" />
    <glyph glyph-name="lacute" unicode="&#x13a;" horiz-adv-x="461" 
d="M215 1396q47 56 134 56q-134 -714 -134 -1109q0 -81 21 -165t89 -84q48 0 104 28t66 28q24 0 24 -8q0 -24 -73 -83t-176 -59q-115 0 -153 118t-38 240q0 418 136 1038zM360 1818q67 75 108 75q7 0 7 -8q0 -17 -40.5 -91.5t-62.5 -216.5q0 -44 -68 -44q-61 6 -61 65
q0 19 25 82t92 138z" />
    <glyph glyph-name="Lcedilla" unicode="&#x13b;" horiz-adv-x="952" 
d="M338 1414q8 29 69 29l63 -5q-169 -600 -223 -827q-51 -214 -51 -397q0 -110 46 -110q19 0 151.5 46.5t297.5 46.5q159 -6 302 -80q-338 -23 -450 -47.5t-192 -55t-146 -30.5q-117 0 -133 179q2 256 47 455q54 248 219 796zM473 -295q3 41 38.5 68.5t35.5 68.5
q0 32 -10.5 55t-11.5 50q0 24 34 63t59 45q27 0 27 -30l-23 -49q53 -60 57 -142q-10 -146 -142 -164q-57 0 -64 35z" />
    <glyph glyph-name="lcedilla" unicode="&#x13c;" horiz-adv-x="503" 
d="M230 1396q47 56 134 56q-134 -714 -134 -1109q0 -81 21 -165t89 -84q48 0 104 28t66 28q24 0 24 -8q0 -24 -73 -83t-176 -59q-115 0 -153 118t-38 240q0 418 136 1038zM162 -365q3 41 38.5 68.5t35.5 68.5q0 32 -10.5 55t-11.5 50q0 24 34 63t59 45q27 0 27 -30l-23 -49
q53 -60 57 -142q-10 -146 -142 -164q-57 0 -64 35z" />
    <glyph glyph-name="Lcaron" unicode="&#x13d;" horiz-adv-x="915" 
d="M329 1414q8 29 69 29l63 -5q-169 -600 -223 -827q-51 -214 -51 -397q0 -110 46 -110q19 0 151.5 46.5t297.5 46.5q159 -6 302 -80q-338 -23 -450 -47.5t-192 -55t-146 -30.5q-117 0 -133 179q2 256 47 455q54 248 219 796zM618 1140q-67 -75 -108 -75q-7 0 -7 8
q0 17 40.5 91.5t62.5 216.5q0 44 68 44q61 -6 61 -65q0 -19 -25 -82t-92 -138z" />
    <glyph glyph-name="lcaron" unicode="&#x13e;" horiz-adv-x="461" 
d="M205 1396q47 56 134 56q-134 -714 -134 -1109q0 -81 21 -165t89 -84q48 0 104 28t66 28q24 0 24 -8q0 -24 -73 -83t-176 -59q-115 0 -153 118t-38 240q0 418 136 1038zM439 1154q-67 -75 -108 -75q-7 0 -7 8q0 17 40.5 91.5t62.5 216.5q0 44 68 44q61 -6 61 -65
q0 -19 -25 -82t-92 -138z" />
    <glyph glyph-name="Ldot" unicode="&#x13f;" horiz-adv-x="948" 
d="M338 1414q8 29 69 29l63 -5q-169 -600 -223 -827q-51 -214 -51 -397q0 -110 46 -110q19 0 151.5 46.5t297.5 46.5q159 -6 302 -80q-338 -23 -450 -47.5t-192 -55t-146 -30.5q-117 0 -133 179q2 256 47 455q54 248 219 796zM556 825q29 0 60 -20.5t31 -47.5t-34.5 -61
t-69.5 -34q-30 0 -60 25t-30 52t33 56.5t70 29.5z" />
    <glyph glyph-name="ldot" unicode="&#x140;" horiz-adv-x="510" 
d="M230 1396q47 56 134 56q-134 -714 -134 -1109q0 -81 21 -165t89 -84q48 0 104 28t66 28q24 0 24 -8q0 -24 -73 -83t-176 -59q-115 0 -153 118t-38 240q0 418 136 1038zM445 785q29 0 60 -20.5t31 -47.5t-34.5 -61t-69.5 -34q-30 0 -60 25t-30 52t33 56.5t70 29.5z" />
    <glyph glyph-name="Lslash" unicode="&#x141;" horiz-adv-x="1026" 
d="M230 716q61 252 202 728l120 -6q-110 -393 -175 -638q213 130 397 321q63 0 69 -70q-226 -234 -496 -391q-11 -29 -18 -61q-51 -202 -51 -365v-20q2 -130 62 -130q19 0 46 14q103 54 255 88q63 10 128 10q159 0 322 -59q-358 -23 -440 -47.5t-276 -89.5q-46 -16 -82 -16
q-117 0 -127 167q-4 45 -4 89q0 170 40 335q-42 -24 -86 -35q-70 12 -70 72q94 50 184 104z" />
    <glyph glyph-name="lslash" unicode="&#x142;" horiz-adv-x="663" 
d="M231 734q37 311 131 712l114 6q-66 -350 -106 -636q133 86 218 187q68 0 68 -70q-106 -139 -299 -257q-16 -174 -16 -333q0 -81 21 -165t90 -84q48 0 103.5 28t66.5 28q24 0 24 -8q0 -24 -73 -83t-177 -59q-127 0 -158.5 124t-31.5 234q0 122 13 254q-52 -36 -133 -60
q-59 5 -70 72q128 50 215 110z" />
    <glyph glyph-name="Nacute" unicode="&#x143;" horiz-adv-x="1130" 
d="M240 280q-27 -234 -63 -234h-1q-36 6 -57.5 72t-21.5 164q0 93 21.5 254t21.5 346q0 78 -8.5 183t-8.5 172q0 45 8.5 70t72.5 25q56 0 56 -40v-14q0 -56 111 -359t215 -505.5t180 -202.5q98 0 133.5 220.5t35.5 594.5q0 72 -3 152q23 90 126 90q4 -108 4 -204
q0 -441 -56 -694.5t-224 -266.5q-160 0 -284 210.5t-224 496.5q-8 -270 -34 -530zM631 1548q67 75 108 75q7 0 7 -8q0 -17 -40.5 -91.5t-62.5 -216.5q0 -44 -68 -44q-61 6 -61 65q0 19 25 82t92 138z" />
    <glyph glyph-name="nacute" unicode="&#x144;" horiz-adv-x="755" 
d="M100 259q0 192 8 267.5t16 140.5t67 65q49 0 65 -48q-17 -163 -23.5 -262t-6.5 -157q14 0 64 125q96 168 204 168q94 0 140 -68t54 -221q0 -89 -11 -174t-40 -93q-40 0 -45 46q0 37 -1.5 98t-11.5 171.5t-88 120.5q-65 0 -150 -197.5t-184 -197.5q-25 0 -41 26t-16 190z
M474 1101q67 75 108 75q7 0 7 -8q0 -17 -40.5 -91.5t-62.5 -216.5q0 -44 -68 -44q-61 6 -61 65q0 19 25 82t92 138z" />
    <glyph glyph-name="Ncedilla" unicode="&#x145;" horiz-adv-x="1121" 
d="M235 280q-27 -234 -63 -234h-1q-36 6 -57.5 72t-21.5 164q0 93 21.5 254t21.5 346q0 78 -8.5 183t-8.5 172q0 45 8.5 70t72.5 25q56 0 56 -40v-14q0 -56 111 -359t215 -505.5t180 -202.5q98 0 133.5 220.5t35.5 594.5q0 72 -3 152q23 90 126 90q4 -108 4 -204
q0 -441 -56 -694.5t-224 -266.5q-160 0 -284 210.5t-224 496.5q-8 -270 -34 -530zM434 -279q3 41 38.5 68.5t35.5 68.5q0 32 -10.5 55t-11.5 50q0 24 34 63t59 45q27 0 27 -30l-23 -49q53 -60 57 -142q-10 -146 -142 -164q-57 0 -64 35z" />
    <glyph glyph-name="ncedilla" unicode="&#x146;" horiz-adv-x="719" 
d="M80 259q0 192 8 267.5t16 140.5t67 65q49 0 65 -48q-17 -163 -23.5 -262t-6.5 -157q14 0 64 125q96 168 204 168q94 0 140 -68t54 -221q0 -89 -11 -174t-40 -93q-40 0 -45 46q0 37 -1.5 98t-11.5 171.5t-88 120.5q-65 0 -150 -197.5t-184 -197.5q-25 0 -41 26t-16 190z
M262 -285q3 41 38.5 68.5t35.5 68.5q0 32 -10.5 55t-11.5 50q0 24 34 63t59 45q27 0 27 -30l-23 -49q53 -60 57 -142q-10 -146 -142 -164q-57 0 -64 35z" />
    <glyph glyph-name="Ncaron" unicode="&#x147;" horiz-adv-x="1140" 
d="M241 280q-27 -234 -63 -234h-1q-36 6 -57.5 72t-21.5 164q0 93 21.5 254t21.5 346q0 78 -8.5 183t-8.5 172q0 45 8.5 70t72.5 25q56 0 56 -40v-14q0 -56 111 -359t215 -505.5t180 -202.5q98 0 133.5 220.5t35.5 594.5q0 72 -3 152q23 90 126 90q4 -108 4 -204
q0 -441 -56 -694.5t-224 -266.5q-160 0 -284 210.5t-224 496.5q-8 -270 -34 -530zM388 1775q-19 -25 -33.5 -47t-14.5 -53q30 -23 82 -23q207 0 392.5 16t271.5 43q-59 -67 -274 -118.5t-391 -51.5q-91 1 -162 23.5t-71 85.5q0 44 53.5 72.5t146.5 52.5z" />
    <glyph glyph-name="ncaron" unicode="&#x148;" horiz-adv-x="748" 
d="M100 259q0 192 8 267.5t16 140.5t67 65q49 0 65 -48q-17 -163 -23.5 -262t-6.5 -157q14 0 64 125q96 168 204 168q94 0 140 -68t54 -221q0 -89 -11 -174t-40 -93q-40 0 -45 46q0 37 -1.5 98t-11.5 171.5t-88 120.5q-65 0 -150 -197.5t-184 -197.5q-25 0 -41 26t-16 190z
M219 1019q35 0 100.5 -14t173.5 -14q65 0 119 10.5t98 22.5q33 0 33 -9q0 -12 -121 -62.5t-256 -50.5q-59 0 -131 23.5t-72 60.5q0 20 14.5 26.5t41.5 6.5z" />
    <glyph glyph-name="napostrophe" unicode="&#x149;" horiz-adv-x="803" 
d="M140 259q0 192 8 267.5t16 140.5t67 65q49 0 65 -48q-17 -163 -23.5 -262t-6.5 -157q14 0 64 125q96 168 204 168q94 0 140 -68t54 -221q0 -89 -11 -174t-40 -93q-40 0 -45 46q0 37 -1.5 98t-11.5 171.5t-88 120.5q-65 0 -150 -197.5t-184 -197.5q-25 0 -41 26t-16 190z
M52 1108q-6 21 -6 35q0 45 47 47h3q58 0 59 -96v-4q0 -97 -44 -194q-21 -46 -32 -46q-10 0 -10 48v46q0 97 -17 164z" />
    <glyph glyph-name="Eng" unicode="&#x14a;" horiz-adv-x="1006" 
d="M70 859q0 292 8 367.5t16 140.5t67 65q49 0 65 -48q-17 -163 -18.5 -187t-1.5 -82q54 125 142 184t216 59q164 0 260 -98t104 -491q0 -289 -8 -411.5t-76 -235t-117 -120.5q-70 0 -75 36q0 37 67 130t73.5 216t6.5 397q0 277 -57 364.5t-181 92.5q-163 -9 -255 -209
t-96 -448q-2 -444 -3 -496t-80 -52q-25 0 -41 26t-16 800z" />
    <glyph glyph-name="eng" unicode="&#x14b;" horiz-adv-x="739" 
d="M80 259q0 192 8 267.5t16 140.5t67 65q49 0 65 -48q-17 -163 -23.5 -262t-6.5 -157q14 0 64 125q96 168 204 168q94 0 140 -68t54 -321q0 -189 -8 -261.5t-56 -150t-97 -85.5q-70 0 -75 46q0 37 52 90t58.5 126t6.5 247q0 247 -78 257q-65 0 -150 -197.5t-184 -197.5
q-25 0 -41 26t-16 190z" />
    <glyph glyph-name="Omacron" unicode="&#x14c;" horiz-adv-x="1295" 
d="M94 588q0 334 181.5 593t435.5 259q257 0 365.5 -144t108.5 -493q-15 -358 -181.5 -577t-490.5 -219q-180 0 -299.5 164.5t-119.5 416.5zM234 545q0 -157 69.5 -276.5t245.5 -153.5q164 0 326.5 172.5t168.5 510.5q0 352 -95.5 444t-204.5 92q-212 0 -361 -248.5
t-149 -540.5zM551 1734q35 0 100.5 1t173.5 1q65 0 217 3q33 0 33 -9q0 -82 -121 -92.5t-256 -10.5q-59 0 -131 3.5t-72 50.5q0 40 14.5 46.5t41.5 6.5z" />
    <glyph glyph-name="omacron" unicode="&#x14d;" horiz-adv-x="744" 
d="M348 738q186 -6 267 -141t85 -253q0 -108 -106 -220q-103 -124 -254 -124q-124 6 -190 72.5t-66 175.5q0 122 56.5 306t207.5 184zM361 625q-67 0 -108.5 -127.5t-41.5 -213.5q0 -90 33 -131t85 -41q75 0 159.5 81t84.5 167q0 100 -79.5 182.5t-132.5 82.5zM171 994
q35 0 100.5 1t173.5 1q65 0 217 3q33 0 33 -9q0 -82 -121 -92.5t-256 -10.5q-59 0 -131 3.5t-72 50.5q0 40 14.5 46.5t41.5 6.5z" />
    <glyph glyph-name="Obreve" unicode="&#x14e;" horiz-adv-x="1297" 
d="M94 588q0 334 181.5 593t435.5 259q257 0 365.5 -144t108.5 -493q-15 -358 -181.5 -577t-490.5 -219q-180 0 -299.5 164.5t-119.5 416.5zM234 545q0 -157 69.5 -276.5t245.5 -153.5q164 0 326.5 172.5t168.5 510.5q0 352 -95.5 444t-204.5 92q-212 0 -361 -248.5
t-149 -540.5zM581 1884q18 0 18 -22q4 -31 4 -82q0 -54 39 -87t113 -33q105 0 199 78.5t118 170.5q7 20 27 20q6 0 6 -19q0 -132 -96 -255t-251 -123q-129 0 -191 58t-62 125q0 70 24.5 119.5t51.5 49.5z" />
    <glyph glyph-name="obreve" unicode="&#x14f;" horiz-adv-x="753" 
d="M348 738q186 -6 267 -141t85 -253q0 -108 -106 -220q-103 -124 -254 -124q-124 6 -190 72.5t-66 175.5q0 122 56.5 306t207.5 184zM361 625q-67 0 -108.5 -127.5t-41.5 -213.5q0 -90 33 -131t85 -41q75 0 159.5 81t84.5 167q0 100 -79.5 182.5t-132.5 82.5zM191 1214
q18 0 18 -22q4 -31 4 -82q0 -54 39 -87t113 -33q105 0 199 78.5t118 170.5q7 20 27 20q6 0 6 -19q0 -132 -96 -255t-251 -123q-129 0 -191 58t-62 125q0 70 24.5 119.5t51.5 49.5z" />
    <glyph glyph-name="Odblacute" unicode="&#x150;" horiz-adv-x="1297" 
d="M94 588q0 334 181.5 593t435.5 259q257 0 365.5 -144t108.5 -493q-15 -358 -181.5 -577t-490.5 -219q-180 0 -299.5 164.5t-119.5 416.5zM234 545q0 -157 69.5 -276.5t245.5 -153.5q164 0 326.5 172.5t168.5 510.5q0 352 -95.5 444t-204.5 92q-212 0 -361 -248.5
t-149 -540.5zM689 1876q16 67 73 68q58 0 58 -40q0 -21 -15 -48.5t-36.5 -93.5t-21.5 -98q5 -33 22 -35q27 0 55.5 62t44.5 141.5t73 79.5q44 0 45 -33q0 -28 -10.5 -58t-28 -88.5t-17.5 -96.5q-7 -55 -7 -79q-1 -23 -62 -34q-13 0 -19 20t-6 69q0 32 4 79q-32 -62 -59 -95
t-54 -33q-33 0 -52.5 27t-19.5 91q0 85 33 195z" />
    <glyph glyph-name="odblacute" unicode="&#x151;" horiz-adv-x="757" 
d="M348 738q186 -6 267 -141t85 -253q0 -108 -106 -220q-103 -124 -254 -124q-124 6 -190 72.5t-66 175.5q0 122 56.5 306t207.5 184zM361 625q-67 0 -108.5 -127.5t-41.5 -213.5q0 -90 33 -131t85 -41q75 0 159.5 81t84.5 167q0 100 -79.5 182.5t-132.5 82.5zM269 1226
q16 67 73 68q58 0 58 -40q0 -21 -15 -48.5t-36.5 -93.5t-21.5 -98q5 -33 22 -35q27 0 55.5 62t44.5 141.5t73 79.5q44 0 45 -33q0 -28 -10.5 -58t-28 -88.5t-17.5 -96.5q-7 -55 -7 -79q-1 -23 -62 -34q-13 0 -19 20t-6 69q0 32 4 79q-32 -62 -59 -95t-54 -33q-33 0 -52.5 27
t-19.5 91q0 85 33 195z" />
    <glyph glyph-name="OE" unicode="&#x152;" horiz-adv-x="1966" 
d="M1247 1263q-49 -20 -77 -49l12 -26q29 49 65 75zM244 545q0 -157 74.5 -276.5t250.5 -153.5q164 0 331.5 167.5t173.5 505.5q0 362 -100.5 454t-209.5 92q-212 0 -366 -248.5t-154 -540.5zM1307 1284q14 -6 14 -27q-52 -159 -86 -357v-7q-53 -490 -67.5 -641t-52.5 -151
q-33 0 -43 170q-36 -64 -170.5 -164t-368.5 -100q-180 0 -309.5 164.5t-129.5 416.5q0 334 191.5 593t445.5 259q197 0 293.5 -70.5t118.5 -109.5q23 160 390 164q210 0 332 -49.5t122 -72.5q0 -6 -22 -6q-28 0 -146.5 10.5t-271.5 10.5q-145 -7 -240 -33zM1035 4
q-12 0 -12 16q0 82 264 99q106 5 199 5q189 0 300 -20t111 -31q0 -55 -243 -55.5t-405 -7t-214 -6.5zM1227 740q0 35 128.5 55.5t209.5 20.5q65 0 142.5 -11.5t123.5 -31t46 -34.5q0 -23 -100 -33q-26 0 -62 1.5t-70 1.5q-132 0 -209 -18.5t-106 -18.5q-55 0 -79 27.5
t-24 40.5z" />
    <glyph glyph-name="oe" unicode="&#x153;" horiz-adv-x="1174" 
d="M550 460q0 81 -44 123.5t-119 42.5q-89 0 -138.5 -86t-49.5 -211q11 -173 160 -187q63 0 112.5 60.5t66.5 124.5q12 106 12 133zM583 157q-120 -145 -231 -145t-196 86.5t-85 228.5q4 173 81 288t252 115q95 0 159 -46t73 -99q61 62 127.5 98.5t214.5 36.5q52 0 92.5 -23
t40.5 -78q-21 -91 -104 -163t-218 -118q-72 -25 -96 -25q-14 0 -14 7q0 5 7 14q31 28 167.5 110.5t138.5 187.5q0 23 -26 23q-123 0 -210.5 -93.5t-87.5 -257.5q0 -90 66 -148t168 -58q143 9 260 90q39 22 45 22q1 0 1 -1q0 -9 -122.5 -105t-251.5 -96q-122 0 -174.5 38
t-76.5 111z" />
    <glyph glyph-name="Racute" unicode="&#x154;" horiz-adv-x="929" 
d="M85 878q-17 77 -17 140q0 92 35 158q60 110 206.5 169t296.5 59q211 -30 228 -262q0 -253 -203.5 -420t-203.5 -329q0 -139 63 -202.5t160 -63.5q135 0 335 65q-213 -155 -386 -155q-139 4 -219 86.5t-80 277.5q0 153 197.5 344.5t197.5 344.5q-8 212 -137 218
q-84 0 -218.5 -59t-152.5 -113l36 6l-50 -1076q-2 -69 -124 -78zM608 1816q67 75 108 75q7 0 7 -8q0 -17 -40.5 -91.5t-62.5 -216.5q0 -44 -68 -44q-61 6 -61 65q0 19 25 82t92 138z" />
    <glyph glyph-name="racute" unicode="&#x155;" horiz-adv-x="594" 
d="M84 684q5 32 47 32q95 0 95 -204q118 154 239 158q76 0 90.5 -20t14.5 -32q0 -26 -95 -53t-169 -131t-78 -236t-29 -153t-58 -21q-37 0 -37 90q0 65 7 124t7 116q0 160 -17 232.5t-17 97.5zM401 1139q67 75 108 75q7 0 7 -8q0 -17 -40.5 -91.5t-62.5 -216.5
q0 -44 -68 -44q-61 6 -61 65q0 19 25 82t92 138z" />
    <glyph glyph-name="Rcedilla" unicode="&#x156;" horiz-adv-x="922" 
d="M85 878q-17 77 -17 140q0 92 35 158q60 110 206.5 169t296.5 59q211 -30 228 -262q0 -253 -203.5 -420t-203.5 -329q0 -139 63 -202.5t160 -63.5q135 0 335 65q-213 -155 -386 -155q-139 4 -219 86.5t-80 277.5q0 153 197.5 344.5t197.5 344.5q-8 212 -137 218
q-84 0 -218.5 -59t-152.5 -113l36 6l-50 -1076q-2 -69 -124 -78zM352 -305q3 41 38.5 68.5t35.5 68.5q0 32 -10.5 55t-11.5 50q0 24 34 63t59 45q27 0 27 -30l-23 -49q53 -60 57 -142q-10 -146 -142 -164q-57 0 -64 35z" />
    <glyph glyph-name="rcedilla" unicode="&#x157;" horiz-adv-x="608" 
d="M79 684q5 32 47 32q95 0 95 -204q118 154 239 158q76 0 90.5 -20t14.5 -32q0 -26 -95 -53t-169 -131t-78 -236t-29 -153t-58 -21q-37 0 -37 90q0 65 7 124t7 116q0 160 -17 232.5t-17 97.5zM42 -325q3 41 38.5 68.5t35.5 68.5q0 32 -10.5 55t-11.5 50q0 24 34 63t59 45
q27 0 27 -30l-23 -49q53 -60 57 -142q-10 -146 -142 -164q-57 0 -64 35z" />
    <glyph glyph-name="Rcaron" unicode="&#x158;" horiz-adv-x="960" 
d="M110 878q-17 77 -17 140q0 92 35 158q60 110 206.5 169t296.5 59q211 -30 228 -262q0 -253 -203.5 -420t-203.5 -329q0 -139 63 -202.5t160 -63.5q135 0 335 65q-213 -155 -386 -155q-139 4 -219 86.5t-80 277.5q0 153 197.5 344.5t197.5 344.5q-8 212 -137 218
q-84 0 -218.5 -59t-152.5 -113l36 6l-50 -1076q-2 -69 -124 -78zM346 1835q-19 -25 -33.5 -47t-14.5 -53q30 -23 82 -23q207 0 392.5 16t271.5 43q-59 -67 -274 -118.5t-391 -51.5q-91 1 -162 23.5t-71 85.5q0 44 53.5 72.5t146.5 52.5z" />
    <glyph glyph-name="rcaron" unicode="&#x159;" horiz-adv-x="597" 
d="M75 684q5 32 47 32q95 0 95 -204q118 154 239 158q76 0 90.5 -20t14.5 -32q0 -26 -95 -53t-169 -131t-78 -236t-29 -153t-58 -21q-37 0 -37 90q0 65 7 124t7 116q0 160 -17 232.5t-17 97.5zM142 969q35 0 100.5 -14t173.5 -14q65 0 119 10.5t98 22.5q33 0 33 -9
q0 -12 -121 -62.5t-256 -50.5q-59 0 -131 23.5t-72 60.5q0 20 14.5 26.5t41.5 6.5z" />
    <glyph glyph-name="Sacute" unicode="&#x15a;" horiz-adv-x="717" 
d="M576.5 1295.5q-57.5 33.5 -107.5 33.5q-80 0 -161 -76t-81 -211q0 -171 173.5 -416.5t173.5 -375.5q0 -105 -66.5 -173.5t-191.5 -68.5q-210 27 -210 127q0 24 16.5 79t37.5 55q13 0 24 -36q16 -84 62.5 -103.5t119.5 -19.5q55 0 83.5 37.5t28.5 73.5q0 83 -198.5 366.5
t-198.5 466.5q0 136 121 256t256 120q102 0 198 -73t96 -96q0 -9 -17 -9q-5 0 -11 2q-90 8 -147.5 41.5zM542 1864q67 75 108 75q7 0 7 -8q0 -17 -40.5 -91.5t-62.5 -216.5q0 -44 -68 -44q-61 6 -61 65q0 19 25 82t92 138z" />
    <glyph glyph-name="sacute" unicode="&#x15b;" horiz-adv-x="609" 
d="M582 560q27 -44 27 -57q0 -6 -5 -6q-13 0 -60 42q-84 81 -209 81q-98 -7 -98 -50q0 -72 144 -223.5t144 -252.5q0 -48 -49.5 -81t-106.5 -33q-41 0 -111.5 31t-124.5 115q-20 38 -20 65q0 6 3 6q6 0 23 -19q48 -58 113 -75t88 -17q31 0 57 20v2q0 47 -130.5 190
t-155 204.5t-24.5 94.5q0 65 67 99t129 34q56 0 149 -27t150 -143zM379 1145q67 75 108 75q7 0 7 -8q0 -17 -40.5 -91.5t-62.5 -216.5q0 -44 -68 -44q-61 6 -61 65q0 19 25 82t92 138z" />
    <glyph glyph-name="Scircumflex" unicode="&#x15c;" horiz-adv-x="730" 
d="M591.5 1295.5q-57.5 33.5 -107.5 33.5q-80 0 -161 -76t-81 -211q0 -171 173.5 -416.5t173.5 -375.5q0 -105 -66.5 -173.5t-191.5 -68.5q-210 27 -210 127q0 24 16.5 79t37.5 55q13 0 24 -36q16 -84 62.5 -103.5t119.5 -19.5q55 0 83.5 37.5t28.5 73.5q0 83 -198.5 366.5
t-198.5 466.5q0 136 121 256t256 120q102 0 198 -73t96 -96q0 -9 -17 -9q-5 0 -11 2q-90 8 -147.5 41.5zM733 1490q-21 0 -54 104q-47 96 -176 204q-88 -77 -143.5 -141.5t-126.5 -120.5q-19 -15 -26 -15q-6 0 -6 6q0 19 43 95q65 124 240 304l77 -9q157 -177 178 -241
q24 -35 24 -84q0 -41 -12 -77q-8 -25 -18 -25z" />
    <glyph glyph-name="scircumflex" unicode="&#x15d;" horiz-adv-x="608" 
d="M572 560q27 -44 27 -57q0 -6 -5 -6q-13 0 -60 42q-84 81 -209 81q-98 -7 -98 -50q0 -72 144 -223.5t144 -252.5q0 -48 -49.5 -81t-106.5 -33q-41 0 -111.5 31t-124.5 115q-20 38 -20 65q0 6 3 6q6 0 23 -19q48 -58 113 -75t88 -17q31 0 57 20v2q0 47 -130.5 190
t-155 204.5t-24.5 94.5q0 65 67 99t129 34q56 0 149 -27t150 -143zM583 890q-21 0 -54 104q-47 96 -176 204q-88 -77 -143.5 -141.5t-126.5 -120.5q-19 -15 -26 -15q-6 0 -6 6q0 19 43 95q65 124 240 304l77 -9q157 -177 178 -241q24 -35 24 -84q0 -41 -12 -77
q-8 -25 -18 -25z" />
    <glyph glyph-name="Scedilla" unicode="&#x15e;" horiz-adv-x="712" 
d="M591.5 1295.5q-57.5 33.5 -107.5 33.5q-80 0 -161 -76t-81 -211q0 -171 173.5 -416.5t173.5 -375.5q0 -105 -66.5 -173.5t-191.5 -68.5q-210 27 -210 127q0 24 16.5 79t37.5 55q13 0 24 -36q16 -84 62.5 -103.5t119.5 -19.5q55 0 83.5 37.5t28.5 73.5q0 83 -198.5 366.5
t-198.5 466.5q0 136 121 256t256 120q102 0 198 -73t96 -96q0 -9 -17 -9q-5 0 -11 2q-90 8 -147.5 41.5zM272 -335q3 41 38.5 68.5t35.5 68.5q0 32 -10.5 55t-11.5 50q0 24 34 63t59 45q27 0 27 -30l-23 -49q53 -60 57 -142q-10 -146 -142 -164q-57 0 -64 35z" />
    <glyph glyph-name="scedilla" unicode="&#x15f;" horiz-adv-x="608" 
d="M572 560q27 -44 27 -57q0 -6 -5 -6q-13 0 -60 42q-84 81 -209 81q-98 -7 -98 -50q0 -72 144 -223.5t144 -252.5q0 -48 -49.5 -81t-106.5 -33q-41 0 -111.5 31t-124.5 115q-20 38 -20 65q0 6 3 6q6 0 23 -19q48 -58 113 -75t88 -17q31 0 57 20v2q0 47 -130.5 190
t-155 204.5t-24.5 94.5q0 65 67 99t129 34q56 0 149 -27t150 -143zM202 -375q3 41 38.5 68.5t35.5 68.5q0 32 -10.5 55t-11.5 50q0 24 34 63t59 45q27 0 27 -30l-23 -49q53 -60 57 -142q-10 -146 -142 -164q-57 0 -64 35z" />
    <glyph glyph-name="Scaron" unicode="&#x160;" horiz-adv-x="698" 
d="M581.5 1295.5q-57.5 33.5 -107.5 33.5q-80 0 -161 -76t-81 -211q0 -171 173.5 -416.5t173.5 -375.5q0 -105 -66.5 -173.5t-191.5 -68.5q-210 27 -210 127q0 24 16.5 79t37.5 55q13 0 24 -36q16 -84 62.5 -103.5t119.5 -19.5q55 0 83.5 37.5t28.5 73.5q0 83 -198.5 366.5
t-198.5 466.5q0 136 121 256t256 120q102 0 198 -73t96 -96q0 -9 -17 -9q-5 0 -11 2q-90 8 -147.5 41.5zM295 1835q-19 -25 -33.5 -47t-14.5 -53q30 -23 82 -23q207 0 392.5 16t271.5 43q-59 -67 -274 -118.5t-391 -51.5q-91 1 -162 23.5t-71 85.5q0 44 53.5 72.5
t146.5 52.5z" />
    <glyph glyph-name="scaron" unicode="&#x161;" horiz-adv-x="614" 
d="M582 560q27 -44 27 -57q0 -6 -5 -6q-13 0 -60 42q-84 81 -209 81q-98 -7 -98 -50q0 -72 144 -223.5t144 -252.5q0 -48 -49.5 -81t-106.5 -33q-41 0 -111.5 31t-124.5 115q-20 38 -20 65q0 6 3 6q6 0 23 -19q48 -58 113 -75t88 -17q31 0 57 20v2q0 47 -130.5 190
t-155 204.5t-24.5 94.5q0 65 67 99t129 34q56 0 149 -27t150 -143zM113 1004q35 0 100.5 -14t173.5 -14q65 0 119 10.5t98 22.5q33 0 33 -9q0 -12 -121 -62.5t-256 -50.5q-59 0 -131 23.5t-72 60.5q0 20 14.5 26.5t41.5 6.5z" />
    <glyph glyph-name="Tcedilla" unicode="&#x162;" horiz-adv-x="1107" 
d="M164 1234q-36 70 -70 98.5t-34 35.5q0 30 148 50.5t248 20.5q145 0 330.5 -38.5t254.5 -76.5t69 -47q0 -12 -44 -12q-45 0 -193 23.5t-331 23.5q-169 0 -366 -28zM544 1279q42 22 56 22q22 0 22 -32q-6 -76 -26 -354.5t-22 -596.5q0 -229 48 -270q27 -22 27 -32t-24 -10
q-46 0 -108 63t-72 225.5t-10 244.5q0 167 12.5 386.5t33.5 275.5t63 78zM492 -355q3 41 38.5 68.5t35.5 68.5q0 32 -10.5 55t-11.5 50q0 24 34 63t59 45q27 0 27 -30l-23 -49q53 -60 57 -142q-10 -146 -142 -164q-57 0 -64 35z" />
    <glyph glyph-name="tcedilla" unicode="&#x163;" horiz-adv-x="695" 
d="M546 1496q-69 -342 -102 -678q330 -8 330 -31q0 -10 -69 -24q-193 -40 -275 -49q-25 -273 -25 -424q4 -242 6 -296q-1 -25 -8 -25q-19 0 -67.5 134.5t-48.5 412.5q0 85 7 182l-258 -49q-29 0 -30 12q0 31 20.5 76t37.5 45q127 31 242 31q47 403 71.5 543t168.5 140z
M252 -435q3 41 38.5 68.5t35.5 68.5q0 32 -10.5 55t-11.5 50q0 24 34 63t59 45q27 0 27 -30l-23 -49q53 -60 57 -142q-10 -146 -142 -164q-57 0 -64 35z" />
    <glyph glyph-name="Tcaron" unicode="&#x164;" horiz-adv-x="1128" 
d="M190 1234q-36 70 -70 98.5t-34 35.5q0 30 148 50.5t248 20.5q145 0 330.5 -38.5t254.5 -76.5t69 -47q0 -12 -44 -12q-45 0 -193 23.5t-331 23.5q-169 0 -366 -28zM570 1279q42 22 56 22q22 0 22 -32q-6 -76 -26 -354.5t-22 -596.5q0 -229 48 -270q27 -22 27 -32t-24 -10
q-46 0 -108 63t-72 225.5t-10 244.5q0 167 12.5 386.5t33.5 275.5t63 78zM424 1704q35 0 100.5 -14t173.5 -14q65 0 119 10.5t98 22.5q33 0 33 -9q0 -12 -121 -62.5t-256 -50.5q-59 0 -131 23.5t-72 60.5q0 20 14.5 26.5t41.5 6.5z" />
    <glyph glyph-name="tcaron" unicode="&#x165;" horiz-adv-x="646" 
d="M519 1446q-69 -342 -102 -678q330 -8 330 -31q0 -10 -69 -24q-193 -40 -275 -49q-25 -273 -25 -424q4 -242 6 -296q-1 -25 -8 -25q-19 0 -67.5 134.5t-48.5 412.5q0 85 7 182l-258 -49q-29 0 -30 12q0 31 20.5 76t37.5 45q127 31 242 31q47 403 71.5 543t168.5 140z
M653 1341q67 75 108 75q7 0 7 -8q0 -17 -40.5 -91.5t-62.5 -216.5q0 -44 -68 -44q-61 6 -61 65q0 19 25 82t92 138z" />
    <glyph glyph-name="Tbar" unicode="&#x166;" horiz-adv-x="1105" 
d="M164 1224q-36 80 -70 108.5t-34 35.5q0 30 148 50.5t248 20.5q145 0 340.5 -38.5t264.5 -76.5t69 -47q0 -12 -44 -12q-45 0 -203 16t-341 16q-169 0 -366 -13zM454 853q2 29 9 153t28 180t63 78t56 22q22 0 22 -32q-6 -76 -14 -233t-8 -171q64 -7 200.5 -29.5
t136.5 -31.5q-50 -52 -141 -57l-202 1q-8 -220 -10 -415q0 -229 53 -270q27 -22 27 -32t-24 -10q-51 0 -118 63t-77 225.5t-10 244.5q0 85 4 187q-32 -1 -202 -23l-5 -11q-22 24 -35 78q0 40 14.5 51.5t92 19.5t140.5 12z" />
    <glyph glyph-name="tbar" unicode="&#x167;" horiz-adv-x="653" 
d="M288 596q11 81 16 152l-258 -49q-29 0 -30 12q0 31 20.5 76t37.5 45q127 31 242 31q37 303 61.5 443t168.5 140q-69 -342 -92 -578q330 -8 330 -31q0 -10 -69 -24q-193 -40 -275 -49q-7 -81 -22 -171q65 -5 204.5 -24t139.5 -28q-70 -42 -177.5 -49.5t-174.5 -12.5
q-5 -179 -5 -249q4 -282 6 -336q-1 -25 -8 -25q-19 0 -67 160q-43 139 -48 441q-52 -2 -226 -25l-5 -11q-22 24 -35 78q0 40 14.5 51.5t96.5 20t155 12.5z" />
    <glyph glyph-name="Utilde" unicode="&#x168;" horiz-adv-x="990" 
d="M245 1322q21 0 21 -55q-29 -255 -44 -426.5t-15 -234.5q0 -314 82.5 -411t163.5 -97q125 0 220 121t119 395q19 401 33 661q0 88 29 95q88 -4 103 -138q-15 -452 -15 -498q0 -356 -132 -522t-307 -183q-162 0 -296.5 112.5t-136.5 436.5q29 491 69 649q19 95 106 95z
M882 1781q-2 -80 -52 -134.5t-134 -54.5q-97 0 -189.5 48t-162.5 48q-49 0 -73.5 -23t-30.5 -45q-7 -21 -50 -21q-40 1 -40 42q0 73 58 121.5t127 53.5q96 0 187 -70t179 -81q53 0 92 25t55 56.5t34 34.5z" />
    <glyph glyph-name="utilde" unicode="&#x169;" horiz-adv-x="786" 
d="M210 710q66 0 66 -37q0 -51 -35.5 -139t-39.5 -233q9 -197 123 -197q101 0 177 212t137 220q78 0 78 -126q0 -48 -8.5 -101t-8.5 -91q0 -33 7 -99.5t7 -82.5q0 -36 -44 -36q-18 0 -44 62.5t-26 141.5q0 68 9 123q-43 -169 -118 -251.5t-169 -82.5q-99 0 -169 67t-70 246
q0 98 42 251t86 153zM846 1101q-2 -80 -52 -134.5t-134 -54.5q-97 0 -189.5 48t-162.5 48q-49 0 -73.5 -23t-30.5 -45q-7 -21 -50 -21q-40 1 -40 42q0 73 58 121.5t127 53.5q96 0 187 -70t179 -81q53 0 92 25t55 56.5t34 34.5z" />
    <glyph glyph-name="Umacron" unicode="&#x16a;" horiz-adv-x="990" 
d="M245 1322q21 0 21 -55q-29 -255 -44 -426.5t-15 -234.5q0 -314 82.5 -411t163.5 -97q125 0 220 121t119 395q19 401 33 661q0 88 29 95q88 -4 103 -138q-15 -452 -15 -498q0 -356 -132 -522t-307 -183q-162 0 -296.5 112.5t-136.5 436.5q29 491 69 649q19 95 106 95z
M317 1714q35 0 100.5 1t173.5 1q65 0 217 3q33 0 33 -9q0 -82 -121 -92.5t-256 -10.5q-59 0 -131 3.5t-72 50.5q0 40 14.5 46.5t41.5 6.5z" />
    <glyph glyph-name="umacron" unicode="&#x16b;" horiz-adv-x="779" 
d="M210 710q66 0 66 -37q0 -51 -35.5 -139t-39.5 -233q9 -197 123 -197q101 0 177 212t137 220q78 0 78 -126q0 -48 -8.5 -101t-8.5 -91q0 -33 7 -99.5t7 -82.5q0 -36 -44 -36q-18 0 -44 62.5t-26 141.5q0 68 9 123q-43 -169 -118 -251.5t-169 -82.5q-99 0 -169 67t-70 246
q0 98 42 251t86 153zM241 1014q35 0 100.5 1t173.5 1q65 0 217 3q33 0 33 -9q0 -82 -121 -92.5t-256 -10.5q-59 0 -131 3.5t-72 50.5q0 40 14.5 46.5t41.5 6.5z" />
    <glyph glyph-name="Ubreve" unicode="&#x16c;" 
d="M245 1322q21 0 21 -55q-29 -255 -44 -426.5t-15 -234.5q0 -314 82.5 -411t163.5 -97q125 0 220 121t119 395q19 401 33 661q0 88 29 95q88 -4 103 -138q-15 -452 -15 -498q0 -356 -132 -522t-307 -183q-162 0 -296.5 112.5t-136.5 436.5q29 491 69 649q19 95 106 95z
M327 1864q18 0 18 -22q4 -31 4 -82q0 -54 39 -87t113 -33q105 0 199 78.5t118 170.5q7 20 27 20q6 0 6 -19q0 -132 -96 -255t-251 -123q-129 0 -191 58t-62 125q0 70 24.5 119.5t51.5 49.5z" />
    <glyph glyph-name="ubreve" unicode="&#x16d;" horiz-adv-x="789" 
d="M210 710q66 0 66 -37q0 -51 -35.5 -139t-39.5 -233q9 -197 123 -197q101 0 177 212t137 220q78 0 78 -126q0 -48 -8.5 -101t-8.5 -91q0 -33 7 -99.5t7 -82.5q0 -36 -44 -36q-18 0 -44 62.5t-26 141.5q0 68 9 123q-43 -169 -118 -251.5t-169 -82.5q-99 0 -169 67t-70 246
q0 98 42 251t86 153zM271 1234q18 0 18 -22q4 -31 4 -82q0 -54 39 -87t113 -33q105 0 199 78.5t118 170.5q7 20 27 20q6 0 6 -19q0 -132 -96 -255t-251 -123q-129 0 -191 58t-62 125q0 70 24.5 119.5t51.5 49.5z" />
    <glyph glyph-name="Uring" unicode="&#x16e;" 
d="M245 1322q21 0 21 -55q-29 -255 -44 -426.5t-15 -234.5q0 -314 82.5 -411t163.5 -97q125 0 220 121t119 395q19 401 33 661q0 88 29 95q88 -4 103 -138q-15 -452 -15 -498q0 -356 -132 -522t-307 -183q-162 0 -296.5 112.5t-136.5 436.5q29 491 69 649q19 95 106 95z
M531 1743q48 0 104.5 -30.5t56.5 -91.5q0 -23 -20.5 -85.5t-71.5 -98.5t-82 -36q-51 0 -97 44t-46 148q4 78 50 114t106 36zM523 1670q-27 0 -46 -23.5t-19 -79.5q0 -67 48 -82q33 0 61.5 49t28.5 75q0 27 -25.5 44t-47.5 17z" />
    <glyph glyph-name="uring" unicode="&#x16f;" horiz-adv-x="784" 
d="M228 710q66 0 66 -37q0 -51 -35.5 -139t-39.5 -233q9 -197 123 -197q101 0 177 212t137 220q78 0 78 -126q0 -48 -8.5 -101t-8.5 -91q0 -33 7 -99.5t7 -82.5q0 -36 -44 -36q-18 0 -44 62.5t-26 141.5q0 68 9 123q-43 -169 -118 -251.5t-169 -82.5q-99 0 -169 67t-70 246
q0 98 42 251t86 153zM529 1136q48 0 104.5 -30.5t56.5 -91.5q0 -23 -20.5 -85.5t-71.5 -98.5t-82 -36q-51 0 -97 44t-46 148q4 78 50 114t106 36zM521 1063q-27 0 -46 -23.5t-19 -79.5q0 -67 48 -82q33 0 61.5 49t28.5 75q0 27 -25.5 44t-47.5 17z" />
    <glyph glyph-name="Udblacute" unicode="&#x170;" 
d="M245 1322q21 0 21 -55q-29 -255 -44 -426.5t-15 -234.5q0 -314 82.5 -411t163.5 -97q125 0 220 121t119 395q19 401 33 661q0 88 29 95q88 -4 103 -138q-15 -452 -15 -498q0 -356 -132 -522t-307 -183q-162 0 -296.5 112.5t-136.5 436.5q29 491 69 649q19 95 106 95z
M425 1816q16 67 73 68q58 0 58 -40q0 -21 -15 -48.5t-36.5 -93.5t-21.5 -98q5 -33 22 -35q27 0 55.5 62t44.5 141.5t73 79.5q44 0 45 -33q0 -28 -10.5 -58t-28 -88.5t-17.5 -96.5q-7 -55 -7 -79q-1 -23 -62 -34q-13 0 -19 20t-6 69q0 32 4 79q-32 -62 -59 -95t-54 -33
q-33 0 -52.5 27t-19.5 91q0 85 33 195z" />
    <glyph glyph-name="udblacute" unicode="&#x171;" horiz-adv-x="771" 
d="M210 710q66 0 66 -37q0 -51 -35.5 -139t-39.5 -233q9 -197 123 -197q101 0 177 212t137 220q78 0 78 -126q0 -48 -8.5 -101t-8.5 -91q0 -33 7 -99.5t7 -82.5q0 -36 -44 -36q-18 0 -44 62.5t-26 141.5q0 68 9 123q-43 -169 -118 -251.5t-169 -82.5q-99 0 -169 67t-70 246
q0 98 42 251t86 153zM399 1216q16 67 73 68q58 0 58 -40q0 -21 -15 -48.5t-36.5 -93.5t-21.5 -98q5 -33 22 -35q27 0 55.5 62t44.5 141.5t73 79.5q44 0 45 -33q0 -28 -10.5 -58t-28 -88.5t-17.5 -96.5q-7 -55 -7 -79q-1 -23 -62 -34q-13 0 -19 20t-6 69q0 32 4 79
q-32 -62 -59 -95t-54 -33q-33 0 -52.5 27t-19.5 91q0 85 33 195z" />
    <glyph glyph-name="Uogonek" unicode="&#x172;" 
d="M245 1322q21 0 21 -55q-29 -255 -44 -426.5t-15 -234.5q0 -314 82.5 -411t163.5 -97q125 0 220 121t119 395q19 401 33 661q0 88 29 95q88 -4 103 -138q-15 -452 -15 -498q0 -356 -132 -522t-307 -183q-162 0 -296.5 112.5t-136.5 436.5q29 491 69 649q19 95 106 95z
M620 -330q-132 18 -142 164q4 82 67.5 151.5t113.5 69.5q25 -6 25 -24q-69 -50 -74 -179q0 -51 35.5 -78.5t38.5 -68.5q-7 -35 -64 -35z" />
    <glyph glyph-name="uogonek" unicode="&#x173;" horiz-adv-x="775" 
d="M210 710q66 0 66 -37q0 -51 -35.5 -139t-39.5 -233q9 -197 123 -197q101 0 177 212t137 220q78 0 78 -126q0 -48 -8.5 -101t-8.5 -91q0 -33 7 -99.5t7 -82.5q0 -36 -44 -36q-18 0 -44 62.5t-26 141.5q0 68 9 123q-43 -169 -118 -251.5t-169 -82.5q-99 0 -169 67t-70 246
q0 98 42 251t86 153zM588 -361q-132 18 -142 164q4 82 67.5 151.5t113.5 69.5q25 -6 25 -24q-69 -50 -74 -179q0 -51 35.5 -78.5t38.5 -68.5q-7 -35 -64 -35z" />
    <glyph glyph-name="Wcircumflex" unicode="&#x174;" horiz-adv-x="1285" 
d="M600 758q-26 261 -54 452l63 -46q40 -121 58 -218q49 146 75 248q8 -68 8 -132q0 -114 -19.5 -191t-38.5 -138q13 -92 44.5 -253.5t129.5 -280.5q166 149 235.5 529t129.5 535q7 -69 7 -132q0 -114 -38.5 -403.5t-148 -467t-201.5 -177.5q-74 0 -134 120t-91 338
q-99 -253 -196 -385.5t-169 -132.5q-57 0 -106.5 120t-49.5 571q0 226 1 432q0 119 -31 294l114 -6q49 -149 49 -276q0 -32 -3 -64q-10 -87 -10 -238q0 -111 3.5 -352.5t49.5 -364.5q86 97 163 243q72 136 160 376zM943 1480q-21 0 -54 104q-47 96 -176 204
q-88 -77 -143.5 -141.5t-126.5 -120.5q-19 -15 -26 -15q-6 0 -6 6q0 19 43 95q65 124 240 304l77 -9q157 -177 178 -241q24 -35 24 -84q0 -41 -12 -77q-8 -25 -18 -25z" />
    <glyph glyph-name="wcircumflex" unicode="&#x175;" horiz-adv-x="1051" 
d="M58 598q0 27 19 40.5t53 13.5t39 -20q96 -482 172 -488q79 0 176 126q-59 105 -108 230q24 52 96 54q34 -101 78 -182l102 228q1 -22 1 -43q0 -145 -37 -263q43 -80 98 -104q82 0 244 412q-20 -304 -92 -431t-149 -127q-72 0 -167 136q-145 -175 -260 -175
q-148 13 -265 593zM823 830q-21 0 -54 104q-47 96 -176 204q-88 -77 -143.5 -141.5t-126.5 -120.5q-19 -15 -26 -15q-6 0 -6 6q0 19 43 95q65 124 240 304l77 -9q157 -177 178 -241q24 -35 24 -84q0 -41 -12 -77q-8 -25 -18 -25z" />
    <glyph glyph-name="Ycircumflex" unicode="&#x176;" horiz-adv-x="936" 
d="M378 655q-122 6 -215 140.5t-99 632.5q132 0 132 -31q7 -427 72.5 -511t157.5 -84q113 0 209 188t121 434q15 26 55 26q74 0 74 -62q0 -84 -27 -208t-106 -271t-177 -204q-41 -23 -82 -36q-22 -205 -22 -373q0 -128 12 -259q-35 -39 -139 -39q-10 160 -10 297
q0 202 16 342zM723 1480q-21 0 -54 104q-47 96 -176 204q-88 -77 -143.5 -141.5t-126.5 -120.5q-19 -15 -26 -15q-6 0 -6 6q0 19 43 95q65 124 240 304l77 -9q157 -177 178 -241q24 -35 24 -84q0 -41 -12 -77q-8 -25 -18 -25z" />
    <glyph glyph-name="ycircumflex" unicode="&#x177;" horiz-adv-x="834" 
d="M262 652q-76 -91 -76 -260q0 -84 31 -131t77 -47q62 2 130 141t135 191t128 52q57 -4 71 -93t14 -174q0 -135 -67 -335.5t-67 -510.5q5 -164 44 -259q-180 158 -180 383q6 203 79 429t73 382q0 45 -8 70q-102 -248 -181 -309t-124 -63t-49 -2q-112 0 -176 73t-67 181
q-1 1 -1 2q0 219 214 280zM703 810q-21 0 -54 104q-47 96 -176 204q-88 -77 -143.5 -141.5t-126.5 -120.5q-19 -15 -26 -15q-6 0 -6 6q0 19 43 95q65 124 240 304l77 -9q157 -177 178 -241q24 -35 24 -84q0 -41 -12 -77q-8 -25 -18 -25z" />
    <glyph glyph-name="Ydieresis" unicode="&#x178;" horiz-adv-x="935" 
d="M381 655q-122 6 -215 140.5t-99 632.5q132 0 132 -31q7 -427 72.5 -511t157.5 -84q113 0 209 188t121 434q15 26 55 26q74 0 74 -62q0 -84 -27 -208t-106 -271t-177 -204q-41 -23 -82 -36q-22 -205 -22 -373q0 -128 12 -259q-35 -39 -139 -39q-10 160 -10 297
q0 202 16 342zM353 1783q17 42 72 44q53 0 53 -20q0 -13 -22.5 -34t-42.5 -93q0 -34 19 -49q19 0 39.5 15t43.5 53t47 72.5t54 34.5q38 0 39 -21q0 -12 -11.5 -31t-19.5 -40q-15 -41 -15 -65q3 -29 3 -45q-1 -14 -63 -21q-17 0 -23 12.5t-6 38.5q0 13 4 43q-36 -33 -73 -69
q-24 -25 -54 -25q-37 0 -59 17t-22 58q0 55 37 125z" />
    <glyph glyph-name="Zacute" unicode="&#x179;" horiz-adv-x="1040" 
d="M83 1384q248 44 386 44q162 -6 342 -26q212 -22 212 -155v-1q-1 -56 -286.5 -382.5t-600.5 -722.5q218 -27 448 -27q126 0 182 6t99 6q52 0 224 -54q-173 -80 -266 -80l-565 9q-115 2 -192.5 36.5t-78.5 86.5q20 94 262.5 375t637.5 742q-178 50 -378 54
q-218 -2 -470 -42q0 78 44 131zM578 1828q67 75 108 75q7 0 7 -8q0 -17 -40.5 -91.5t-62.5 -216.5q0 -44 -68 -44q-61 6 -61 65q0 19 25 82t92 138z" />
    <glyph glyph-name="zacute" unicode="&#x17a;" horiz-adv-x="742" 
d="M104 690q201 23 329 23q147 0 187 -28.5t40 -50.5q0 -81 -224 -249.5t-238 -258.5q0 -73 75.5 -108.5t163.5 -35.5q132 0 339 66q-201 -143 -364 -143q-160 1 -244 62.5t-84 163.5q0 41 18 85q38 102 428 390q-63 6 -126 6q-124 0 -246 -24q-47 11 -54 102zM463 1148
q67 75 108 75q7 0 7 -8q0 -17 -40.5 -91.5t-62.5 -216.5q0 -44 -68 -44q-61 6 -61 65q0 19 25 82t92 138z" />
    <glyph glyph-name="Zdot" unicode="&#x17b;" horiz-adv-x="1048" 
d="M80 1384q248 44 386 44q162 -6 342 -26q212 -22 212 -155v-1q-1 -56 -286.5 -382.5t-600.5 -722.5q218 -27 448 -27q126 0 182 6t99 6q52 0 224 -54q-173 -80 -266 -80l-565 9q-115 2 -192.5 36.5t-78.5 86.5q20 94 262.5 375t637.5 742q-178 50 -378 54
q-218 -2 -470 -42q0 78 44 131zM538 1750q29 0 60 -20.5t31 -47.5t-34.5 -61t-69.5 -34q-30 0 -60 25t-30 52t33 56.5t70 29.5z" />
    <glyph glyph-name="zdot" unicode="&#x17c;" horiz-adv-x="748" 
d="M104 690q201 23 329 23q147 0 187 -28.5t40 -50.5q0 -81 -224 -249.5t-238 -258.5q0 -73 75.5 -108.5t163.5 -35.5q132 0 339 66q-201 -143 -364 -143q-160 1 -244 62.5t-84 163.5q0 41 18 85q38 102 428 390q-63 6 -126 6q-124 0 -246 -24q-47 11 -54 102zM405 1012
q29 0 60 -20.5t31 -47.5t-34.5 -61t-69.5 -34q-30 0 -60 25t-30 52t33 56.5t70 29.5z" />
    <glyph glyph-name="Zcaron" unicode="&#x17d;" horiz-adv-x="1048" 
d="M88 1384q248 44 386 44q162 -6 342 -26q212 -22 212 -155v-1q-1 -56 -286.5 -382.5t-600.5 -722.5q218 -27 448 -27q126 0 182 6t99 6q52 0 224 -54q-173 -80 -266 -80l-565 9q-115 2 -192.5 36.5t-78.5 86.5q20 94 262.5 375t637.5 742q-178 50 -378 54
q-218 -2 -470 -42q0 78 44 131zM392 1840q-19 -25 -33.5 -47t-14.5 -53q30 -23 82 -23q207 0 392.5 16t271.5 43q-59 -67 -274 -118.5t-391 -51.5q-91 1 -162 23.5t-71 85.5q0 44 53.5 72.5t146.5 52.5z" />
    <glyph glyph-name="zcaron" unicode="&#x17e;" horiz-adv-x="733" 
d="M98 690q201 23 329 23q147 0 187 -28.5t40 -50.5q0 -81 -224 -249.5t-238 -258.5q0 -73 75.5 -108.5t163.5 -35.5q132 0 339 66q-201 -143 -364 -143q-160 1 -244 62.5t-84 163.5q0 41 18 85q38 102 428 390q-63 6 -126 6q-124 0 -246 -24q-47 11 -54 102zM208 1014
q35 0 100.5 -14t173.5 -14q65 0 119 10.5t98 22.5q33 0 33 -9q0 -12 -121 -62.5t-256 -50.5q-59 0 -131 23.5t-72 60.5q0 20 14.5 26.5t41.5 6.5z" />
    <glyph glyph-name="longs" unicode="&#x17f;" horiz-adv-x="576" 
d="M555 770q27 -44 27 -57q0 -6 -5 -6q-13 0 -60 42q-84 81 -189 81q-118 -7 -118 -60q0 -102 16 -228.5t16 -254.5q0 -157 -18.5 -324.5t-23.5 -208.5q-20 -86 -54 -86q-37 2 -46 58v2q0 47 10.5 242.5t10.5 276.5q0 124 -20.5 275.5t-20.5 264.5q0 75 67 114t129 39
q56 0 139 -27t140 -143z" />
    <glyph glyph-name="florin" unicode="&#x192;" horiz-adv-x="548" 
d="M143 598l-76 -42l4 52q2 52 20.5 63t54.5 32q30 268 84.5 416t135 233.5t120.5 85.5q42 0 59 -12q-164 -168 -212 -352.5t-56 -325.5q122 60 252 60q47 0 84 -16q-96 -17 -179.5 -58.5t-160.5 -86.5q-18 -209 -19.5 -418t-66 -351.5t-145 -201t-120.5 -58.5q-42 0 -59 10
q174 175 216 300t45.5 317.5t18.5 352.5z" />
    <glyph glyph-name="Aringacute" unicode="&#x1fa;" horiz-adv-x="908" 
d="M211 453q243 48 485 60q-17 311 -59.5 487t-96.5 176q-40 0 -162.5 -232t-166.5 -491zM542.5 1304.5q11.5 -0.5 13.5 -0.5q37 1 60.5 23.5t23.5 61.5q0 41 -24.5 60t-60.5 19q-31 0 -48 -26.5t-17 -69.5q0 -30 20.5 -48.5t32 -19zM624 1242q70 -59 113 -174
q64 -220 78 -371t14 -261q0 -120 -16 -235q-9 -211 -43 -211q-51 0 -53 1q-33 5 -43 81q23 182 23 324q-249 -16 -500 -69q-7 -120 -7 -167q0 -63 9 -152q-27 -29 -60 -29q-48 0 -60.5 54.5t-12.5 228.5q0 162 46.5 351.5t191.5 455.5q92 138 168 188q-23 13 -43 46.5
t-20 87.5q4 78 55 114t111 36q58 0 109.5 -35.5t51.5 -106.5q0 -63 -31 -102t-81 -55zM642 1854q66 75 104 75q6 0 6 -8q0 -17 -51 -91.5t-62 -216.5q0 -44 -53 -44q-56 6 -56 65q0 19 23 82t89 138z" />
    <glyph glyph-name="aringacute" unicode="&#x1fb;" horiz-adv-x="827" 
d="M535 511q-13 115 -78 115q-79 0 -158.5 -116t-79.5 -211q1 -143 80 -147q53 0 149 97t171 97q82 -4 132 -97.5t50 -133.5q0 -7 -3 -15t-13 -8q-19 0 -68 68t-101 68q-28 0 -130.5 -108t-223.5 -108q-81 0 -131 81.5t-50 193.5q4 133 111 288t302 155q75 0 116.5 -56.5
t41.5 -155.5q0 -110 -25.5 -133t-64.5 -23q-24 0 -27 149zM499 1216q48 0 104.5 -30.5t56.5 -91.5q0 -23 -20.5 -85.5t-71.5 -98.5t-82 -36q-51 0 -97 44t-46 148q4 78 50 114t106 36zM491 1143q-27 0 -46 -23.5t-19 -79.5q0 -67 48 -82q33 0 61.5 49t28.5 75q0 27 -25.5 44
t-47.5 17zM567 1577q67 75 108 75q7 0 7 -8q0 -17 -40.5 -91.5t-62.5 -216.5q0 -44 -68 -44q-61 6 -61 65q0 19 25 82t92 138z" />
    <glyph glyph-name="AEacute" unicode="&#x1fc;" horiz-adv-x="1563" 
d="M211 523q243 48 485 60q0 411 -36 562t-120 151q-40 0 -167.5 -207t-161.5 -566zM813 1237q-31 -35 -45 -35q-10 0 -10 21q0 18 9 55q19 142 356 146q210 0 327 -49.5t117 -72.5q0 -6 -22 -6q-28 0 -141.5 20.5t-266.5 20.5q-258 -13 -324 -100zM847 740q0 35 103.5 55.5
t184.5 20.5q65 0 142.5 -11.5t123.5 -31t46 -34.5q0 -23 -100 -23q-26 0 -62 1.5t-70 1.5q-132 0 -184 -23.5t-81 -23.5q-55 0 -79 27.5t-24 40.5zM769 1149q28 118 153 118h9q-69 -224 -85 -385.5t-16.5 -235t-0.5 -140.5q0 -120 -16 -235q-10 -95 -25 -147q54 10 144.5 15
t183.5 5q159 0 245 -20t86 -31q0 -35 -203 -35.5t-365 -17t-214 -16.5q-12 0 -12 16q0 30 35 51q-24 19 -24 71q33 162 33 304q-249 -16 -500 -69q-7 -120 -7 -167q0 -73 9 -162q-27 -29 -60 -29q-48 0 -60.5 54.5t-12.5 238.5q0 162 41.5 401.5t191.5 455.5t254 216
q110 -7 160 -97t56 -159zM905 1833q67 75 108 75q7 0 7 -8q0 -17 -40.5 -91.5t-62.5 -216.5q0 -44 -68 -44q-61 6 -61 65q0 19 25 82t92 138z" />
    <glyph glyph-name="aeacute" unicode="&#x1fd;" horiz-adv-x="1185" 
d="M550 460q0 81 -14 123.5t-89 42.5q-79 0 -158.5 -116t-79.5 -211q1 -143 80 -147q53 0 127.5 55.5t121.5 119.5q12 106 12 133zM553 187q-190 -175 -301 -175q-81 0 -131 81.5t-50 193.5q4 133 111 288t302 155q75 0 117 -56q26 -36 35 -89q61 62 127.5 98.5t214.5 36.5
q52 0 92.5 -23t40.5 -78q-21 -91 -104 -163t-218 -118q-72 -25 -96 -25q-14 0 -14 7q0 5 7 14q31 28 167.5 110.5t138.5 187.5q0 23 -26 23q-123 0 -210.5 -93.5t-87.5 -257.5q0 -90 66 -148t168 -58q143 9 260 90q39 22 45 22q1 0 1 -1q0 -9 -122.5 -105t-251.5 -96
q-122 0 -204 65q-53 41 -77 114zM745 1173q67 75 108 75q7 0 7 -8q0 -17 -40.5 -91.5t-62.5 -216.5q0 -44 -68 -44q-61 6 -61 65q0 19 25 82t92 138z" />
    <glyph glyph-name="Oslashacute" unicode="&#x1fe;" horiz-adv-x="1297" 
d="M909 1298q-64 37 -158 37q-135 0 -294 -155q-186 -180 -192 -518v-24q0 -231 80 -368q228 554 564 1028zM454 153q55 -37 121 -37q104 0 225 96q221 176 275 486q20 115 20 207q0 157 -58 249q-18 28 -38 52q-314 -489 -545 -1053zM1076 1323q20 -21 39 -45
q130 -164 130 -396v-20q0 -334 -194 -589q-201 -263 -423 -263h-20q-114 0 -202 32q-35 -129 -60 -206q-18 -33 -98 -35q-57 6 -57 58q21 72 84 247q-32 23 -61 58q-110 134 -110 393q0 47 3 99q24 361 193.5 574t505.5 213q85 0 168 -42q33 41 77.5 97t204.5 117
q-107 -164 -180 -292zM820 1833q67 75 108 75q7 0 7 -8q0 -17 -40.5 -91.5t-62.5 -216.5q0 -44 -68 -44q-61 6 -61 65q0 19 25 82t92 138z" />
    <glyph glyph-name="oslashacute" unicode="&#x1ff;" horiz-adv-x="774" 
d="M286 130q23 -10 69 -10q53 0 114 77t61 163q0 98 -39 153q-113 -192 -205 -383zM412 593q-50 32 -83 32q-68 0 -124.5 -97.5t-56.5 -183.5q0 -104 39 -142q99 195 225 391zM116 67q-19 19 -57 65.5t-38 175.5q0 166 83.5 298t210.5 132q75 -2 162 -45q44 66 105 149
t165 165q-114 -217 -190 -363q26 -24 61 -93t39 -197q0 -128 -94.5 -235t-242.5 -107q-58 1 -90 14q-67 -149 -92 -220t-63 -73q-70 7 -70 74q14 71 111 260zM412 1222q67 75 108 75q7 0 7 -8q0 -17 -40.5 -91.5t-62.5 -216.5q0 -44 -68 -44q-61 6 -61 65q0 19 25 82t92 138
z" />
    <glyph glyph-name="apostrophe" unicode="&#x2bc;" horiz-adv-x="251" 
d="M92 1328q-6 21 -6 35q0 45 47 47h3q58 0 59 -96q0 -123 -37.5 -208.5t-58.5 -85.5q-10 0 -10 38q0 36 6 94.5t6 86.5q0 24 -9 89z" />
    <glyph glyph-name="circumflex" unicode="&#x2c6;" horiz-adv-x="953" 
d="M773 1300q-21 0 -54 104q-47 96 -176 204q-88 -77 -143.5 -141.5t-126.5 -120.5q-19 -15 -26 -15q-6 0 -6 6q0 19 43 95q65 124 240 304l77 -9q157 -177 178 -241q24 -35 24 -84q0 -41 -12 -77q-8 -25 -18 -25z" />
    <glyph glyph-name="caron" unicode="&#x2c7;" horiz-adv-x="779" 
d="M101 1004q35 0 100.5 -14t173.5 -14q65 0 119 10.5t98 22.5q33 0 33 -9q0 -12 -121 -62.5t-256 -50.5q-59 0 -131 23.5t-72 60.5q0 20 14.5 26.5t41.5 6.5z" />
    <glyph glyph-name="macron" unicode="&#x2c9;" horiz-adv-x="779" 
d="M101 1024q35 0 100.5 1t173.5 1q65 0 217 3q33 0 33 -9q0 -82 -121 -92.5t-256 -10.5q-59 0 -131 3.5t-72 50.5q0 40 14.5 46.5t41.5 6.5z" />
    <glyph glyph-name="breve" unicode="&#x2d8;" horiz-adv-x="779" 
d="M171 1224q18 0 18 -22q4 -31 4 -82q0 -54 39 -87t113 -33q105 0 199 78.5t118 170.5q7 20 27 20q6 0 6 -19q0 -132 -96 -255t-251 -123q-129 0 -191 58t-62 125q0 70 24.5 119.5t51.5 49.5z" />
    <glyph glyph-name="dotaccent" unicode="&#x2d9;" horiz-adv-x="367" 
d="M202 1090q29 0 60 -20.5t31 -47.5t-34.5 -61t-69.5 -34q-30 0 -60 25t-30 52t33 56.5t70 29.5z" />
    <glyph glyph-name="ring" unicode="&#x2da;" horiz-adv-x="735" 
d="M321 1136q48 0 104.5 -30.5t56.5 -91.5q0 -23 -20.5 -85.5t-71.5 -98.5t-82 -36q-51 0 -97 44t-46 148q4 78 50 114t106 36zM313 1063q-27 0 -46 -23.5t-19 -79.5q0 -67 48 -82q33 0 61.5 49t28.5 75q0 27 -25.5 44t-47.5 17z" />
    <glyph glyph-name="ogonek" unicode="&#x2db;" horiz-adv-x="542" 
d="M314 -390q-132 18 -142 164q4 82 67.5 151.5t113.5 69.5q25 -6 25 -24q-69 -50 -74 -179q0 -51 35.5 -78.5t38.5 -68.5q-7 -35 -64 -35z" />
    <glyph glyph-name="tilde" unicode="&#x2dc;" horiz-adv-x="762" 
d="M756 1381q-2 -80 -52 -134.5t-134 -54.5q-97 0 -189.5 48t-162.5 48q-49 0 -73.5 -23t-30.5 -45q-7 -21 -50 -21q-40 1 -40 42q0 73 58 121.5t127 53.5q96 0 187 -70t179 -81q53 0 92 25t55 56.5t34 34.5z" />
    <glyph glyph-name="hungarumlaut" unicode="&#x2dd;" horiz-adv-x="499" 
d="M139 1396q16 67 73 68q58 0 58 -40q0 -21 -15 -48.5t-36.5 -93.5t-21.5 -98q5 -33 22 -35q27 0 55.5 62t44.5 141.5t73 79.5q44 0 45 -33q0 -28 -10.5 -58t-28 -88.5t-17.5 -96.5q-7 -55 -7 -79q-1 -23 -62 -34q-13 0 -19 20t-6 69q0 32 4 79q-32 -62 -59 -95t-54 -33
q-33 0 -52.5 27t-19.5 91q0 85 33 195z" />
    <glyph glyph-name="tonos" unicode="&#x384;" horiz-adv-x="301" 
d="M170 1188q-21 -80 -49 -80q-36 0 -36 58q0 27 11 101.5t52 156.5q20 44 63 44q56 -6 56 -65q0 -19 -38 -77t-59 -138z" />
    <glyph glyph-name="Alphatonos" unicode="&#x386;" horiz-adv-x="892" 
d="M110 1188q-21 -80 -49 -80q-36 0 -36 58q0 27 11 101.5t52 156.5q20 44 63 44q56 -6 56 -65q0 -19 -38 -77t-59 -138zM139 49q-48 0 -60.5 54.5t-12.5 228.5q0 162 46.5 401.5t191.5 455.5t249 216q120 -47 184 -217t78 -371t14 -311q0 -120 -16 -235q-9 -211 -43 -211
q-51 0 -53 1q-33 5 -43 81q23 182 23 324q-249 -16 -500 -69q-7 -120 -7 -167q0 -63 9 -152q-27 -29 -60 -29zM211 523q243 48 485 60q-17 411 -59.5 562t-96.5 151q-40 0 -162.5 -207t-166.5 -566z" />
    <glyph glyph-name="anoteleia" unicode="&#x387;" horiz-adv-x="355" 
d="M198 911q30 0 62 -21t32 -49t-35.5 -63t-71.5 -35q-31 0 -62 26t-31 53q0 28 34 58.5t72 30.5z" />
    <glyph glyph-name="Epsilontonos" unicode="&#x388;" horiz-adv-x="1134" 
d="M170 1188q-21 -80 -49 -80q-36 0 -36 58q0 27 11 101.5t52 156.5q20 44 63 44q56 -6 56 -65q0 -19 -38 -77t-59 -138zM423 1237q-31 -35 -45 -35q-10 0 -10 21q0 18 9 55q19 142 356 146q210 0 332 -49.5t122 -72.5q0 -6 -22 -6q-28 0 -151.5 10.5t-276.5 10.5
q-258 -13 -314 -80zM551 1267q-69 -224 -106 -542t-44.5 -471t-55.5 -153q-38 0 -45 221q0 200 15 375q10 186 56 382q43 188 171 188h9zM265 4q-12 0 -12 16q0 82 264 114q76 5 169 5q189 0 300 -27.5t111 -38.5q0 -50 -243 -50.5t-390 -9.5t-199 -9zM457 740
q0 35 113.5 55.5t194.5 20.5q65 0 142.5 -11.5t123.5 -31t46 -34.5q0 -33 -100 -38q-26 0 -62 1.5t-70 1.5q-132 0 -194 -16t-91 -16q-55 0 -79 27.5t-24 40.5z" />
    <glyph glyph-name="Etatonos" unicode="&#x389;" horiz-adv-x="1250" 
d="M170 1188q-21 -80 -49 -80q-36 0 -36 58q0 27 11 101.5t52 156.5q20 44 63 44q56 -6 56 -65q0 -19 -38 -77t-59 -138zM383 1397q0 29 92 29q63 0 63 -116q0 -92 -27.5 -279t-51.5 -350t-24 -398q0 -133 13.5 -180.5t13.5 -62.5q0 -14 -11 -14q-10 0 -51 43t-69 142
t-28 264q0 117 32 345t52 333.5t20 153.5q0 47 -12 64t-12 26zM482 734q23 73 152 73q194 -3 370 -51q21 262 21 421q0 65 -3 99t-3 55q0 103 57 103q66 -8 74 -266q9 -129 9 -243q0 -93 -8.5 -244t-72 -409t-160.5 -258q-13 0 -26 8q101 441 106 642q-259 70 -472 70h-44z
" />
    <glyph glyph-name="Iotatonos" unicode="&#x38a;" horiz-adv-x="600" 
d="M170 1188q-21 -80 -49 -80q-36 0 -36 58q0 27 11 101.5t52 156.5q20 44 63 44q56 -6 56 -65q0 -19 -38 -77t-59 -138zM484 1428q57 0 57 -54q0 -28 -15 -68q-86 -656 -100 -968q-4 -43 -4 -80q0 -121 28 -182q23 -40 23 -51q0 -6 -6 -6q-11 0 -42 21q-84 50 -105 109
t-21 159q0 150 22 452q38 500 59 584t104 84z" />
    <glyph glyph-name="Omicrontonos" unicode="&#x38c;" horiz-adv-x="1400" 
d="M170 1188q-21 -80 -49 -80q-36 0 -36 58q0 27 11 101.5t52 156.5q20 44 63 44q56 -6 56 -65q0 -19 -38 -77t-59 -138zM195 588q0 334 181.5 593t435.5 259q257 0 365.5 -144t108.5 -493q-15 -358 -181.5 -577t-490.5 -219q-180 0 -299.5 164.5t-119.5 416.5zM335 545
q0 -157 69.5 -276.5t245.5 -153.5q164 0 326.5 172.5t168.5 510.5q0 352 -95.5 444t-204.5 92q-212 0 -361 -248.5t-149 -540.5z" />
    <glyph glyph-name="Upsilontonos" unicode="&#x38e;" horiz-adv-x="1226" 
d="M170 1188q-21 -80 -49 -80q-36 0 -36 58q0 27 11 101.5t52 156.5q20 44 63 44q56 -6 56 -65q0 -19 -38 -77t-59 -138zM679 655q-122 6 -215 140.5t-99 632.5q132 0 132 -31q7 -427 72.5 -511t157.5 -84q113 0 209 188t121 434q15 26 55 26q74 0 74 -62q0 -84 -27 -208
t-106 -271t-177 -204q-41 -23 -82 -36q-22 -205 -22 -373q0 -128 12 -259q-35 -39 -139 -39q-10 160 -10 297q0 202 16 342z" />
    <glyph glyph-name="Omegatonos" unicode="&#x38f;" horiz-adv-x="1450" 
d="M170 1188q-21 -80 -49 -80q-36 0 -36 58q0 27 11 101.5t52 156.5q20 44 63 44q56 -6 56 -65q0 -19 -38 -77t-59 -138zM643 54q0 -51 -54 -53t-146 -6q-250 -14 -330 -14q-19 0 -19 19q0 85 305 111q-28 27 -54 61q-130 164 -130 416q0 334 191.5 593t445.5 259
q267 0 385.5 -144t118.5 -403q-15 -438 -116.5 -578.5t-184.5 -205.5q131 -6 227 -19q171 -24 171 -49q0 -41 -375 -42q-150 0 -210 -12q-60 9 -70 71q0 42 63 69.5t195.5 180t138.5 480.5q0 362 -100.5 454t-209.5 92q-212 0 -366 -248.5t-154 -540.5q0 -157 75 -276
q64 -103 133.5 -133t69.5 -82z" />
    <glyph glyph-name="Alpha" unicode="&#x391;" horiz-adv-x="892" 
d="M139 49q-48 0 -60.5 54.5t-12.5 228.5q0 162 46.5 401.5t191.5 455.5t249 216q120 -47 184 -217t78 -371t14 -311q0 -120 -16 -235q-9 -211 -43 -211q-51 0 -53 1q-33 5 -43 81q23 182 23 324q-249 -16 -500 -69q-7 -120 -7 -167q0 -63 9 -152q-27 -29 -60 -29zM211 523
q243 48 485 60q-17 411 -59.5 562t-96.5 151q-40 0 -162.5 -207t-166.5 -566z" />
    <glyph glyph-name="Beta" unicode="&#x392;" horiz-adv-x="1066" 
d="M187 1380.5q146 6.5 305 10.5q87 0 238.5 -5.5t151.5 -85.5q-7 -118 -165 -250.5t-158 -161.5q15 -49 222.5 -216.5t227.5 -339.5q0 -172 -145.5 -252t-386.5 -80q-254 6 -314.5 69t-60.5 343q0 110 23.5 428t95.5 328q70 0 70 -72q-4 -94 -32 -223.5t-39.5 -267
t-11.5 -274.5q0 -139 31.5 -187t220.5 -52q150 0 283.5 65t133.5 180q-10 95 -235 281.5t-225 265.5q3 84 153.5 206t150.5 162q0 30 -150 33q-126 0 -261.5 -16.5t-182.5 -16.5q-84 0 -92 50q6 72 152 78.5z" />
    <glyph glyph-name="Gamma" unicode="&#x393;" horiz-adv-x="860" 
d="M217 16q-8 -40 -68 -40q-57 6 -57 60q0 623 40 1290q6 70 43 70q272 25 647 25q40 -17 40 -115q-358 0 -607 -25q-38 -635 -38 -1265z" />
    <glyph glyph-name="uni0394" unicode="&#x394;" horiz-adv-x="976" 
d="M164 49q-48 0 -73 75q153 729 268 975t219 306q120 -97 189 -337t113 -531t44 -401q-35 -76 -69 -76q-51 0 -354.5 -5.5t-336.5 -5.5zM236 183q243 18 555 20q-87 601 -129.5 797t-96.5 246q-40 -60 -122.5 -272t-206.5 -791z" />
    <glyph glyph-name="Epsilon" unicode="&#x395;" horiz-adv-x="925" 
d="M223 1237q-31 -35 -45 -35q-10 0 -10 21q0 18 9 55q19 142 356 146q210 0 332 -49.5t122 -72.5q0 -6 -22 -6q-28 0 -151.5 10.5t-276.5 10.5q-258 -13 -314 -80zM351 1267q-69 -224 -106 -542t-44.5 -471t-55.5 -153q-38 0 -45 221q0 200 15 375q10 186 56 382
q43 188 171 188h9zM65 4q-12 0 -12 16q0 82 264 114q76 5 169 5q189 0 300 -27.5t111 -38.5q0 -50 -243 -50.5t-390 -9.5t-199 -9zM257 740q0 35 113.5 55.5t194.5 20.5q65 0 142.5 -11.5t123.5 -31t46 -34.5q0 -33 -100 -38q-26 0 -62 1.5t-70 1.5q-132 0 -194 -16t-91 -16
q-55 0 -79 27.5t-24 40.5z" />
    <glyph glyph-name="Zeta" unicode="&#x396;" horiz-adv-x="1058" 
d="M87 1384q248 44 386 44q162 -6 342 -26q212 -22 212 -155v-1q-1 -56 -286.5 -382.5t-600.5 -722.5q218 -27 448 -27q126 0 182 6t99 6q52 0 224 -54q-173 -80 -266 -80l-565 9q-115 2 -192.5 36.5t-78.5 86.5q20 94 262.5 375t637.5 742q-178 50 -378 54
q-218 -2 -470 -42q0 78 44 131z" />
    <glyph glyph-name="Eta" unicode="&#x397;" horiz-adv-x="1031" 
d="M182 1397q0 29 92 29q63 0 63 -116q0 -92 -27.5 -279t-51.5 -350t-24 -398q0 -133 13.5 -180.5t13.5 -62.5q0 -14 -11 -14q-10 0 -51 43t-69 142t-28 264q0 117 32 345t52 333.5t20 153.5q0 47 -12 64t-12 26zM281 734q23 73 152 73q194 -3 370 -51q21 262 21 421
q0 65 -3 99t-3 55q0 103 57 103q66 -8 74 -266q9 -129 9 -243q0 -93 -8.5 -244t-72 -409t-160.5 -258q-13 0 -26 8q101 441 106 642q-259 70 -472 70h-44z" />
    <glyph glyph-name="Theta" unicode="&#x398;" horiz-adv-x="1297" 
d="M94 588q0 334 191.5 593t445.5 259q267 0 383 -144t116 -463q-15 -388 -194 -607t-503 -219q-180 0 -309.5 164.5t-129.5 416.5zM244 545q0 -157 74.5 -276.5t250.5 -153.5q164 0 331.5 167.5t173.5 505.5q0 362 -100.5 454t-209.5 92q-212 0 -366 -238.5t-154 -550.5z
M364 821q118 8 235 8q202 0 429 -26q-7 -89 -74 -96q-93 7 -189 7q-216 0 -451 -37q0 132 50 144z" />
    <glyph glyph-name="Iota" unicode="&#x399;" horiz-adv-x="399" 
d="M283 1428q57 0 57 -54q0 -28 -15 -68q-86 -656 -100 -968q-4 -43 -4 -80q0 -121 28 -182q23 -40 23 -51q0 -6 -6 -6q-11 0 -42 21q-84 50 -105 109t-21 159q0 150 22 452q38 500 59 584t104 84z" />
    <glyph glyph-name="Kappa" unicode="&#x39a;" horiz-adv-x="966" 
d="M226 270v-204q-13 -30 -98 -30q-26 0 -30 47q0 407 -6 687q0 280 66 634q28 36 143 36q-56 -306 -70 -627q162 429 502 609q95 0 118 -54q-304 -213 -388 -364t-119 -233q28 -133 145.5 -366t231.5 -245q96 0 142.5 32.5t68.5 32.5q20 0 20 -17q0 -23 -25.5 -69.5
t-72.5 -82.5t-147 -36q-124 12 -244 183.5t-190 371.5q-40 -164 -47 -305z" />
    <glyph glyph-name="Lambda" unicode="&#x39b;" horiz-adv-x="812" 
d="M99 292q0 275 74 578.5t155.5 436.5t170.5 133q149 -107 173 -513.5t79 -620t111 -303.5q-203 16 -252 309t-68.5 580.5t-68.5 420.5q-113 -161 -173.5 -504t-60.5 -495q-2 -147 -26.5 -211.5t-53 -71t-95.5 -9.5q35 154 35 270z" />
    <glyph glyph-name="Mu" unicode="&#x39c;" horiz-adv-x="1016" 
d="M74 72q23 248 23 466q-10 603 -17 896h126q12 -168 196 -211q66 0 175 78.5t209 78.5q118 0 143 -139t25 -297q0 -161 -43 -387.5t-43 -444.5q-9 -66 -84 -66q-25 0 -27.5 46t-2.5 161q0 166 32.5 342.5t32.5 321.5q0 263 -20.5 293t-63.5 30q-65 0 -154 -83t-168 -83
q-68 0 -201 72q18 -456 24 -696q0 -30 -4 -147.5t-32 -296.5q-103 3 -126 66z" />
    <glyph glyph-name="Nu" unicode="&#x39d;" horiz-adv-x="1124" 
d="M235 280q-27 -234 -63 -234h-1q-36 6 -57.5 72t-21.5 164q0 93 21.5 254t21.5 346q0 78 -8.5 183t-8.5 172q0 45 8.5 70t72.5 25q56 0 56 -40v-14q0 -56 111 -359t215 -505.5t180 -202.5q98 0 133.5 220.5t35.5 594.5q0 72 -3 152q23 90 126 90q4 -108 4 -204
q0 -441 -56 -694.5t-224 -266.5q-160 0 -284 210.5t-224 496.5q-8 -270 -34 -530z" />
    <glyph glyph-name="Xi" unicode="&#x39e;" horiz-adv-x="1028" 
d="M137 1203q-32 -40 -47 -40q-10 0 -10 24q0 20 9 62q20 130 404 135q219 0 346.5 -56t127.5 -82q0 -7 -23 -7q-29 0 -153 13.5t-284 13.5q-301 -15 -370 -63zM65 4q-12 0 -12 16q0 82 264 119q106 5 199 5q189 0 300 -30t111 -51q0 -35 -243 -35.5t-405 -12t-214 -11.5z
M177 720q0 35 128.5 55.5t209.5 20.5q65 0 142.5 -11.5t123.5 -31t46 -34.5q0 -23 -110 -43q-26 0 -62 1.5t-70 1.5q-132 0 -204 -13.5t-101 -13.5q-55 0 -79 27.5t-24 40.5z" />
    <glyph glyph-name="Omicron" unicode="&#x39f;" horiz-adv-x="1229" 
d="M94 588q0 334 181.5 593t435.5 259q257 0 365.5 -144t108.5 -493q-15 -358 -181.5 -577t-490.5 -219q-180 0 -299.5 164.5t-119.5 416.5zM234 545q0 -157 69.5 -276.5t245.5 -153.5q164 0 326.5 172.5t168.5 510.5q0 352 -95.5 444t-204.5 92q-212 0 -361 -248.5
t-149 -540.5z" />
    <glyph glyph-name="Pi" unicode="&#x3a0;" horiz-adv-x="1131" 
d="M360 1276q-3 -520 -9.5 -780t-39.5 -361t-97 -108q-54 0 -54 33q46 286 51 518.5t5 697.5l67 10zM926 1282q-10 -130 -10 -242q0 -821 46 -984q-1 -23 -63 -23q-91 4 -103 87q-25 99 -25 940q0 102 5 216l80 13zM80 1400q272 46 675 46q170 0 303 -16q72 -12 72 -48
q-4 -74 -48 -88q-143 16 -318 16q-415 0 -740 -56l-7 48q2 74 63 98z" />
    <glyph glyph-name="Rho" unicode="&#x3a1;" horiz-adv-x="876" 
d="M74 1205q0 51 87.5 125t283.5 84q192 0 285.5 -77t93.5 -205q0 -228 -118.5 -348t-439.5 -164q-35 -422 -47 -524q-12 -94 -31 -94q-30 0 -58 77t-28 235q0 60 12 159.5t49 578.5q20 150 98 203q42 -2 42 -57l-32 -466q280 34 349.5 150t69.5 254q0 75 -39 134.5
t-149 59.5q-69 0 -152 -17t-133 -89q-49 -60 -100 -60q-43 3 -43 41z" />
    <glyph glyph-name="Sigma" unicode="&#x3a3;" horiz-adv-x="948" 
d="M80 1247q29 132 413 137q219 0 346.5 -56t127.5 -82q0 -7 -23 -7q-29 0 -148 13.5t-279 13.5q-220 -11 -286 -40q17 -11 175.5 -203t196.5 -239t38 -118q-1 -52 -137 -218.5t-244 -317.5q76 6 144.5 7t161.5 1q189 0 275 -32t86 -53q0 -35 -243 -35.5t-390 -7t-199 -6.5
q-42 0 -42 16q0 23 13 39.5t136 208.5t290 405q-158 222 -277.5 365.5t-134.5 208.5z" />
    <glyph glyph-name="Tau" unicode="&#x3a4;" horiz-adv-x="1096" 
d="M164 1234q-36 70 -70 98.5t-34 35.5q0 30 148 50.5t248 20.5q145 0 330.5 -38.5t254.5 -76.5t69 -47q0 -12 -44 -12q-45 0 -193 23.5t-331 23.5q-169 0 -366 -28zM544 1279q42 22 56 22q22 0 22 -32q-6 -76 -26 -354.5t-22 -596.5q0 -229 48 -270q27 -22 27 -32t-24 -10
q-46 0 -108 63t-72 225.5t-10 244.5q0 167 12.5 386.5t33.5 275.5t63 78z" />
    <glyph glyph-name="Upsilon" unicode="&#x3a5;" horiz-adv-x="925" 
d="M378 655q-122 6 -215 140.5t-99 632.5q132 0 132 -31q7 -427 72.5 -511t157.5 -84q113 0 209 188t121 434q15 26 55 26q74 0 74 -62q0 -84 -27 -208t-106 -271t-177 -204q-41 -23 -82 -36q-22 -205 -22 -373q0 -128 12 -259q-35 -39 -139 -39q-10 160 -10 297
q0 202 16 342z" />
    <glyph glyph-name="Phi" unicode="&#x3a6;" horiz-adv-x="1302" 
d="M609 999q-116 -23 -240.5 -102.5t-124.5 -251.5q0 -57 74.5 -131.5t269.5 -78.5q4 106 9 244q6 186 12 320zM742 1014q-14 -346 -24 -562q91 20 220.5 84t135.5 202q0 172 -100.5 224t-231.5 52zM584 308q-231 0 -360.5 114t-129.5 266q0 184 169 302.5t353 142.5
q9 150 18 194q19 91 79 91q51 0 51 -75q0 -39 -13 -94q-2 -56 -4 -109q255 -4 361.5 -106t106.5 -291q-15 -188 -160 -291t-344 -133q-10 -186 -16 -220q-3 -85 -73 -85q-40 0 -44 69q0 23 6 225z" />
    <glyph glyph-name="Chi" unicode="&#x3a7;" horiz-adv-x="934" 
d="M167 7q-104 0 -104 95q0 30 29.5 132t85 212t125.5 203q-166 316 -166 682q0 45 6.5 68t48.5 28q82 0 82 -37q0 -408 130 -636q132 157 246 287.5t188 385.5q9 -48 9 -95q0 -218 -137.5 -397t-232.5 -293q80 -144 164 -281.5t279 -340.5h-32q-202 0 -497 495
q-118 -139 -159.5 -276t-43 -184.5t-21.5 -47.5z" />
    <glyph glyph-name="Psi" unicode="&#x3a8;" horiz-adv-x="1302" 
d="M634 1327q19 91 79 91q51 0 51 -75q0 -39 -13 -94q-2 -56 -7.5 -218.5t-15.5 -378.5q81 20 210.5 84t135.5 202q0 140 33 331v158q61 -25 102 -63q6 -232 6 -421q-15 -188 -160 -291t-334 -133q-20 -386 -26 -420q-3 -85 -73 -85q-40 0 -44 69q0 23 16 425
q-241 0 -370.5 114t-129.5 266q0 184 69 503q29 20 59 38v-170q22 -278 22 -414q0 -57 74.5 -131.5t279.5 -78.5q4 106 9 244q6 186 12 295t15 153z" />
    <glyph glyph-name="Omega" unicode="&#x3a9;" horiz-adv-x="1368" 
d="M562 54q0 -51 -54 -53t-146 -6q-250 -14 -330 -14q-19 0 -19 19q0 85 305 111q-28 27 -54 61q-130 164 -130 416q0 334 191.5 593t445.5 259q267 0 385.5 -144t118.5 -403q-15 -438 -116.5 -578.5t-184.5 -205.5q131 -6 227 -19q171 -24 171 -49q0 -41 -375 -42
q-150 0 -210 -12q-60 9 -70 71q0 42 63 69.5t195.5 180t138.5 480.5q0 362 -100.5 454t-209.5 92q-212 0 -366 -248.5t-154 -540.5q0 -157 75 -276q64 -103 133.5 -133t69.5 -82z" />
    <glyph glyph-name="Iotadieresis" unicode="&#x3aa;" horiz-adv-x="412" 
d="M283 1428q57 0 57 -54q0 -28 -15 -68q-86 -656 -100 -968q-4 -43 -4 -80q0 -121 28 -182q23 -40 23 -51q0 -6 -6 -6q-11 0 -42 21q-84 50 -105 109t-21 159q0 150 22 452q38 500 59 584t104 84zM196 1803q17 42 72 44q53 0 53 -20q0 -13 -22.5 -34t-42.5 -93
q0 -34 19 -49q19 0 39.5 15t43.5 53t47 72.5t54 34.5q38 0 39 -21q0 -12 -11.5 -31t-19.5 -40q-15 -41 -15 -65q3 -29 3 -45q-1 -14 -63 -21q-17 0 -23 12.5t-6 38.5q0 13 4 43q-36 -33 -73 -69q-24 -25 -54 -25q-37 0 -59 17t-22 58q0 55 37 125z" />
    <glyph glyph-name="Upsilondieresis" unicode="&#x3ab;" horiz-adv-x="922" 
d="M378 655q-122 6 -215 140.5t-99 632.5q132 0 132 -31q7 -427 72.5 -511t157.5 -84q113 0 209 188t121 434q15 26 55 26q74 0 74 -62q0 -84 -27 -208t-106 -271t-177 -204q-41 -23 -82 -36q-22 -205 -22 -373q0 -128 12 -259q-35 -39 -139 -39q-10 160 -10 297
q0 202 16 342zM366 1783q17 42 72 44q53 0 53 -20q0 -13 -22.5 -34t-42.5 -93q0 -34 19 -49q19 0 39.5 15t43.5 53t47 72.5t54 34.5q38 0 39 -21q0 -12 -11.5 -31t-19.5 -40q-15 -41 -15 -65q3 -29 3 -45q-1 -14 -63 -21q-17 0 -23 12.5t-6 38.5q0 13 4 43q-36 -33 -73 -69
q-24 -25 -54 -25q-37 0 -59 17t-22 58q0 55 37 125z" />
    <glyph glyph-name="alphatonos" unicode="&#x3ac;" horiz-adv-x="980" 
d="M361 625q-67 0 -108.5 -127.5t-41.5 -213.5q0 -90 33 -131t85 -41q95 0 169.5 76t104.5 152q-50 120 -119.5 202.5t-122.5 82.5zM662 223q-45 -84 -118 -153.5t-204 -69.5q-124 6 -190 72.5t-66 175.5q0 122 56.5 306t207.5 184q146 -6 217 -93t123 -192q47 89 71 187
t69 123q62 0 62 -73q0 -50 -40 -130t-109 -230q21 -52 90.5 -150t186.5 -163h-2q-229 0 -354 206zM480 988q-21 -80 -49 -80q-36 0 -36 58q0 27 11 101.5t52 156.5q20 44 63 44q56 -6 56 -65q0 -19 -38 -77t-59 -138z" />
    <glyph glyph-name="epsilontonos" unicode="&#x3ad;" horiz-adv-x="550" 
d="M486 607q-16 0 -56.5 18.5t-92.5 18.5q-62 -7 -62 -69q0 -64 52 -100.5t52 -64.5q0 -35 -90.5 -80.5t-90.5 -130.5q0 -43 46.5 -69t88.5 -26q40 0 83.5 21.5t62.5 21.5q15 0 27 -16t12 -33q0 -26 -51.5 -60.5t-149.5 -37.5q-96 0 -166 48.5t-70 145.5q4 115 66.5 163.5
t102.5 65.5q-40 19 -61.5 63t-21.5 102q0 87 51 128t99 41q65 0 136.5 -38.5t71.5 -70.5q-6 -41 -39 -41zM425 978q-21 -80 -49 -80q-36 0 -36 58q0 27 11 101.5t52 156.5q20 44 63 44q56 -6 56 -65q0 -19 -38 -77t-59 -138z" />
    <glyph glyph-name="etatonos" unicode="&#x3ae;" horiz-adv-x="726" 
d="M80 259q0 192 8 267.5t16 140.5t67 65q49 0 65 -48q-17 -163 -23.5 -262t-6.5 -157q14 0 64 125q96 168 204 168q94 0 140 -68t54 -321q0 -189 -26 -334t-65 -153q-70 0 -75 46q0 47 23.5 153t23.5 300q0 247 -78 257q-65 0 -150 -197.5t-184 -197.5q-25 0 -41 26
t-16 190zM440 968q-21 -80 -49 -80q-36 0 -36 58q0 27 11 101.5t52 156.5q20 44 63 44q56 -6 56 -65q0 -19 -38 -77t-59 -138z" />
    <glyph glyph-name="iotatonos" unicode="&#x3af;" horiz-adv-x="325" 
d="M91 597.606q22 104.401 64.5 105.001t74.5 0.599609q27 0 27 -90q-8 -262.803 -21.5 -428.405q-13.5 -165.602 -40.5 -165.602v1.2002q-27 0 -58 21.6006q-20 12 -20 223.202q0 110.401 8 387.604zM250 948q-21 -80 -49 -80q-36 0 -36 58q0 27 11 101.5t52 156.5
q20 44 63 44q56 -6 56 -65q0 -19 -38 -77t-59 -138z" />
    <glyph glyph-name="upsilondieresistonos" unicode="&#x3b0;" horiz-adv-x="800" 
d="M236 732q-15 -210 -15 -336q0 -164 37.5 -226t108.5 -62q135 0 182 86t47 190l2 151q-6 60 -10 225q138 -4 145.5 -61t8 -153t0.5 -132q0 -96 -75 -242t-250 -163q-162 0 -246.5 92.5t-86.5 266.5q0 201 19 279q19 85 133 85zM473 988q-21 -80 -49 -80q-36 0 -36 58
q0 27 11 101.5t52 156.5q20 44 63 44q56 -6 56 -65q0 -19 -38 -77t-59 -138zM244 1147q29 0 60 -20.5t31 -47.5t-34.5 -61t-69.5 -34q-30 0 -60 25t-30 52t33 56.5t70 29.5zM673 1140q29 0 60 -20.5t31 -47.5t-34.5 -61t-69.5 -34q-30 0 -60 25t-30 52t33 56.5t70 29.5z" />
    <glyph glyph-name="alpha" unicode="&#x3b1;" horiz-adv-x="980" 
d="M361 625q-67 0 -108.5 -127.5t-41.5 -213.5q0 -90 33 -131t85 -41q95 0 169.5 76t104.5 152q-50 120 -119.5 202.5t-122.5 82.5zM662 223q-45 -84 -118 -153.5t-204 -69.5q-124 6 -190 72.5t-66 175.5q0 122 56.5 306t207.5 184q146 -6 217 -93t123 -192q47 89 71 187
t69 123q62 0 62 -73q0 -50 -40 -130t-109 -230q21 -52 90.5 -150t186.5 -163h-2q-229 0 -354 206z" />
    <glyph glyph-name="beta" unicode="&#x3b2;" horiz-adv-x="862" 
d="M577 690q228 -75 228 -386q0 -118 -74.5 -206t-221.5 -88q-141 0 -168.5 92t-27.5 159q0 6 3 6q6 0 28.5 -48.5t72.5 -75.5t93 -27q36 0 98.5 40t68.5 132q0 287 -310 349q0 76 52 92q101 61 143 153.5t42 190.5q-35 149 -139 153q-94 -8 -167 -228t-73 -557
q0 -282 20 -483.5t38 -313.5q-114 48 -129.5 83t-35.5 252t-20 370q0 119 9 330.5t114 440t235 228.5q122 0 195.5 -81t79.5 -217q0 -134 -60.5 -242t-93.5 -118z" />
    <glyph glyph-name="gamma" unicode="&#x3b3;" horiz-adv-x="848" 
d="M777 577q-8 -151 -53 -244.5t-226 -356.5q-75 -131 -108 -372q0 -91 36 -201q-2 -30 -44 -30q-45 10 -79.5 61t-34.5 153q0 263 91 415q-214 156 -229 331q4 84 24.5 125t22.5 84q-6 74 -38 107.5t-115 40.5q75 60 150 60q103 -16 132 -119q0 -141 -21 -204t-21 -119
q0 -69 179 -178q123 161 159.5 264t36.5 192q0 85 -91 149l47 23q97 -7 138.5 -60.5t43.5 -120.5z" />
    <glyph glyph-name="delta" unicode="&#x3b4;" horiz-adv-x="802" 
d="M618 361q0 223 -198.5 511.5t-198.5 371.5q0 106 96 146t231 40q102 0 188 -38t86 -61q0 -9 -17 -9q-5 0 -11 2q-90 8 -137.5 9t-97.5 1q-80 0 -136 -23.5t-56 -78.5q0 -71 186 -326.5t186 -535.5q0 -188 -92.5 -278t-257.5 -90q-131 0 -221.5 110t-90.5 228
q0 139 48 214t108 112t142 37q74 0 118 -33t44 -82q0 -64 -51 -64q-49 78 -119 78q-90 -7 -128 -75t-38 -169q6 -102 69.5 -181t142.5 -79q74 0 139.5 58t65.5 205z" />
    <glyph glyph-name="epsilon" unicode="&#x3b5;" horiz-adv-x="550" 
d="M486 607q-16 0 -56.5 18.5t-92.5 18.5q-62 -7 -62 -69q0 -64 52 -100.5t52 -64.5q0 -35 -90.5 -80.5t-90.5 -130.5q0 -43 46.5 -69t88.5 -26q40 0 83.5 21.5t62.5 21.5q15 0 27 -16t12 -33q0 -26 -51.5 -60.5t-149.5 -37.5q-96 0 -166 48.5t-70 145.5q4 115 66.5 163.5
t102.5 65.5q-40 19 -61.5 63t-21.5 102q0 87 51 128t99 41q65 0 136.5 -38.5t71.5 -70.5q-6 -41 -39 -41z" />
    <glyph glyph-name="zeta" unicode="&#x3b6;" horiz-adv-x="611" 
d="M489 1185q0 32 -52 39q-112 0 -197.5 -13.5t-101.5 -13.5q-33 0 -39 61q0 32 106.5 55.5t251.5 23.5q48 0 99 -31t51 -118q0 -78 -110.5 -157t-196 -238t-85.5 -374q0 -203 44 -259t86 -56q110 0 183 -48.5t73 -178.5q-5 -111 -133 -181.5t-158 -77.5q-30 0 -30 34
q199 102 199 244q-2 104 -150 104q-96 0 -171 78.5t-75 335.5q4 245 98.5 415.5t196 241t111.5 114.5z" />
    <glyph glyph-name="eta" unicode="&#x3b7;" horiz-adv-x="734" 
d="M80 259q0 192 8 267.5t16 140.5t67 65q49 0 65 -48q-17 -163 -23.5 -262t-6.5 -157q14 0 64 125q96 168 204 168q94 0 140 -68t54 -321q0 -189 -26 -334t-65 -153q-70 0 -75 46q0 47 23.5 153t23.5 300q0 247 -78 257q-65 0 -150 -197.5t-184 -197.5q-25 0 -41 26
t-16 190z" />
    <glyph glyph-name="theta" unicode="&#x3b8;" horiz-adv-x="960" 
d="M228 648q-6 -55 -6 -137q4 -123 50 -242.5t163 -153.5q160 0 239.5 157.5t94.5 427.5q-153 -1 -251.5 -6t-289.5 -46zM772 819q-2 334 -57 424.5t-119 90.5q-187 0 -260.5 -187.5t-89.5 -365.5q111 18 245.5 28t280.5 10zM95 588q0 334 119.5 593t350.5 259
q198 0 271.5 -144t73.5 -523q-14 -328 -113 -547t-394 -219q-118 0 -213 164.5t-95 416.5z" />
    <glyph glyph-name="iota" unicode="&#x3b9;" horiz-adv-x="322" 
d="M91 597.606q22 104.401 64.5 105.001t74.5 0.599609q27 0 27 -90q-8 -262.803 -21.5 -428.405q-13.5 -165.602 -40.5 -165.602v1.2002q-27 0 -58 21.6006q-20 12 -20 223.202q0 110.401 8 387.604z" />
    <glyph glyph-name="kappa" unicode="&#x3ba;" horiz-adv-x="665" 
d="M202 278q-10 -38 -16 -78l-10 -174q-13 -30 -88 -30q-26 0 -30 47q0 197 10 701q28 36 129 36q-10 -106 -20 -277q126 259 416 259q35 0 58 -54q-144 -13 -233 -94q-87 -79 -149 -182q52 -127 111 -212q67 -98 141 -110q56 0 72.5 12.5t48.5 12.5q20 0 20 -17
q0 -23 -10.5 -54.5t-47.5 -52.5t-97 -21q-64 2 -144 64q-72 55 -161 224z" />
    <glyph glyph-name="lambda" unicode="&#x3bb;" horiz-adv-x="810" 
d="M114 356.5q25 190.5 99 289t266 221.5q-13 96 -49.5 204t-229.5 329q2 30 45 30q44 -10 144 -98.5t159 -214t83.5 -371.5t67.5 -469.5t43 -283.5q-143 16 -182 289t-57 451q-103 -61 -183.5 -174t-86.5 -257.5t-30.5 -209t-53 -71t-95.5 -9.5q35 154 60 344.5z" />
    <glyph glyph-name="mu" unicode="&#x3bc;" horiz-adv-x="830" 
d="M191 730q66 0 66 -37q0 -71 -25.5 -219t-25.5 -323q0 -47 44 -47q81 0 194.5 197t204.5 205q68 0 68 -116l-19 -266q2 -36 23 -51.5t66 -36t45 -34.5q0 -22 -22 -24q-114 0 -170 22q-58 20 -58 75q0 39 1.5 63t15.5 181q-133 -231 -217 -282q-71 -44 -155 -44
q-29 0 -59 34q-62 -226 -134 -538q-8 -50 -66 -50q-56 0 -57 36q152 652 190.5 952t89.5 303z" />
    <glyph glyph-name="nu" unicode="&#x3bd;" horiz-adv-x="679" 
d="M69 702q129 -3 139 -52q79 -464 141 -464q24 0 73 165t128 255t127 90q15 0 27 -2t12 -19q0 -20 -32.5 -54.5t-65.5 -90.5t-97 -278t-198 -235q-138 0 -254 685z" />
    <glyph glyph-name="xi" unicode="&#x3be;" horiz-adv-x="621" 
d="M581 1167q-16 0 -46.5 28.5t-82.5 28.5q-62 -7 -62 -59q0 -64 72 -90.5t72 -69.5q0 -34 -24 -57t-158 -163.5t-134 -355.5q0 -213 44 -269t86 -56q150 0 193 -58.5t43 -228.5q-11 -152 -61 -199q-30 34 -30.5 131t-11.5 174t-149 77q-96 0 -166 78.5t-70 345.5
q4 245 136.5 393.5t172.5 185.5q-40 19 -86.5 58t-46.5 97q0 87 56 133t104 46q65 0 126.5 -38.5t61.5 -70.5q-6 -61 -39 -61z" />
    <glyph glyph-name="omicron" unicode="&#x3bf;" horiz-adv-x="737" 
d="M348 738q186 -6 267 -141t85 -253q0 -108 -106 -220q-103 -124 -254 -124q-124 6 -190 72.5t-66 175.5q0 122 56.5 306t207.5 184zM361 625q-67 0 -108.5 -127.5t-41.5 -213.5q0 -90 33 -131t85 -41q75 0 159.5 81t84.5 167q0 100 -79.5 182.5t-132.5 82.5z" />
    <glyph glyph-name="pi" unicode="&#x3c0;" horiz-adv-x="969" 
d="M329 633q13 -11 13 -32q-3 -305 -72 -587q-11 -37 -74 -37q-54 2 -54 43q76 276 76 586q0 13 5 22q-84 -6 -147 -14q-26 2 -28 24q1 78 54 92q252 36 505 36q160 0 293 -6q69 -14 72 -48q0 -49 -68 -61q-72 3 -148 3q12 -14 12 -37q-10 -105 -10 -217q0 -201 46 -354
q-1 -53 -53 -53q-83 0 -100.5 103t-17.5 324q0 102 5 186q0 28 12 44h-44q-75 -2 -277 -17z" />
    <glyph glyph-name="rho" unicode="&#x3c1;" horiz-adv-x="680" 
d="M206 305q0 -20 1 -110.5t65 -296t64 -305.5q0 -203 -91 -363q-28 0 -41 33t-13 61q40 103 40 231q0 105 -72.5 312t-73 305.5t-0.5 128.5q12 173 102.5 294t209.5 121q107 0 169.5 -56t68.5 -212q-29 -430 -203 -430q-88 1 -129 61q-28 40 -28 72q0 40 8.5 77t33.5 37
t39 -67.5t71 -69.5q56 0 84 333q-15 145 -77 157q-86 0 -153 -78t-75 -235z" />
    <glyph glyph-name="sigma1" unicode="&#x3c2;" horiz-adv-x="611" 
d="M558 736q39 0 39 -18t-100.5 -32t-191 -108t-90.5 -249q0 -113 44 -169t96 -56q100 0 173 -48.5t73 -178.5q-5 -101 -128 -171.5t-153 -77.5q-30 0 -30 34q189 102 189 234q-2 104 -140 104q-106 0 -186 78.5t-80 245.5q4 185 125 298.5t360 113.5z" />
    <glyph glyph-name="sigma" unicode="&#x3c3;" horiz-adv-x="862" 
d="M496 703q-181 -5 -229.5 -124t-48.5 -250q0 -95 34.5 -153t89.5 -58q79 0 168 85.5t89 175.5q0 146 -43.5 212.5t-59.5 111.5zM530 710q101 -43 150 -113t53 -235q0 -113 -112 -231q-108 -131 -267 -131q-131 6 -200.5 91t-69.5 200q0 189 72.5 353t273.5 164
q60 0 152 -7.5t184 -10t92 -44.5q0 -51 -41 -51q-68 1 -141.5 3t-145.5 12z" />
    <glyph glyph-name="tau" unicode="&#x3c4;" horiz-adv-x="653" 
d="M444 768q280 -18 280 -41q0 -10 -106 -32t-188 -31q-25 -273 -25 -424q4 -292 6 -346q-1 -25 -8 -25q-19 0 -67.5 159.5t-48.5 437.5q0 85 7 182l-258 -49q-29 0 -30 12q0 31 20.5 76t37.5 45q127 31 380 36z" />
    <glyph glyph-name="upsilon" unicode="&#x3c5;" horiz-adv-x="800" 
d="M236 732q-15 -210 -15 -336q0 -164 37.5 -226t108.5 -62q135 0 182 86t47 190l2 151q-6 60 -10 225q138 -4 145.5 -61t8 -153t0.5 -132q0 -96 -75 -242t-250 -163q-162 0 -246.5 92.5t-86.5 266.5q0 201 19 279q19 85 133 85z" />
    <glyph glyph-name="phi" unicode="&#x3c6;" horiz-adv-x="1061" 
d="M642 604q-14 -296 -24 -512q91 10 170.5 74t85.5 212q0 122 -50.5 174t-181.5 52zM647 730q155 -4 261.5 -106t106.5 -241q-15 -188 -110 -291t-294 -133q-20 -436 -26 -470q-3 -85 -73 -85q-40 0 -44 69q0 23 16 475q-131 0 -260.5 114t-129.5 266q0 144 60 231.5
t145 113.5q0 -61 -15 -89t-32.5 -57.5t-17.5 -141.5q0 -147 84.5 -226.5t169.5 -83.5q4 106 9 244q6 236 9.5 319t140.5 92z" />
    <glyph glyph-name="chi" unicode="&#x3c7;" horiz-adv-x="838" 
d="M127 -673q-104 0 -104 95q0 30 29.5 132t85 212t125.5 203q-166 316 -166 682q0 45 6.5 68t48.5 28q82 0 82 -37q0 -408 130 -636q132 157 246 287.5t188 385.5q9 -48 9 -95q0 -218 -137.5 -397t-232.5 -293q80 -144 164 -281.5t279 -340.5h-32q-202 0 -497 495
q-118 -139 -159.5 -276t-43 -184.5t-21.5 -47.5z" />
    <glyph glyph-name="psi" unicode="&#x3c8;" horiz-adv-x="1156" 
d="M468 -3q-161 4 -281.5 80t-122.5 323q20 250 39 293q19 47 93 47q39 -5 40 -30q-24 -160 -35 -279q0 -198 79 -253.5t192 -55.5q18 448 39 532t109 84q47 0 47 -54q0 -28 -15 -68q-17 -295 -30 -496q123 10 221.5 65t104.5 299q0 147 -10 252h1q0 25 39 30
q98 -2 113 -111q-5 -159 -5 -269q0 -145 -102 -266.5t-370 -130.5q-28 -404 -28 -592q0 -25 3 -58t3 -44q0 -16 -6 -16q-11 0 -48.5 40.5t-58.5 119.5t-21 209q0 94 10 349z" />
    <glyph glyph-name="omega" unicode="&#x3c9;" horiz-adv-x="1327" 
d="M655 150q-76 -125 -238 -141q-162 0 -246.5 92.5t-86.5 266.5q0 201 69 339q19 85 133 85q-65 -270 -65 -396q0 -164 37.5 -226t108.5 -62q135 0 182 86t47 190l2 151q0 125 86 142q51 -25 53 -165q0 -291 39.5 -347.5t110.5 -56.5q135 0 182 86t47 190q0 191 -76 351
q0 63 38 95q78 -4 131 -106t53 -310q0 -156 -75 -272t-250 -133q-162 0 -246 93q-21 22 -36 48z" />
    <glyph glyph-name="iotadieresis" unicode="&#x3ca;" horiz-adv-x="318" 
d="M113 597.606q22 104.401 64.5 105.001t74.5 0.599609q27 0 27 -90q-8 -262.803 -21.5 -428.405q-13.5 -165.602 -40.5 -165.602v1.2002q-27 0 -58 21.6006q-20 12 -20 223.202q0 110.401 8 387.604zM98 1143q17 42 72 44q53 0 53 -20q0 -13 -22.5 -34t-42.5 -93
q0 -34 19 -49q19 0 39.5 15t43.5 53t47 72.5t54 34.5q38 0 39 -21q0 -12 -11.5 -31t-19.5 -40q-15 -41 -15 -65q3 -29 3 -45q-1 -14 -63 -21q-17 0 -23 12.5t-6 38.5q0 13 4 43q-36 -33 -73 -69q-24 -25 -54 -25q-37 0 -59 17t-22 58q0 55 37 125z" />
    <glyph glyph-name="upsilondieresis" unicode="&#x3cb;" horiz-adv-x="803" 
d="M236 732q-15 -210 -15 -336q0 -164 37.5 -226t108.5 -62q135 0 182 86t47 190l2 151q-6 60 -10 225q138 -4 145.5 -61t8 -153t0.5 -132q0 -96 -75 -242t-250 -163q-162 0 -246.5 92.5t-86.5 266.5q0 201 19 279q19 85 133 85zM306 1173q17 42 72 44q53 0 53 -20
q0 -13 -22.5 -34t-42.5 -93q0 -34 19 -49q19 0 39.5 15t43.5 53t47 72.5t54 34.5q38 0 39 -21q0 -12 -11.5 -31t-19.5 -40q-15 -41 -15 -65q3 -29 3 -45q-1 -14 -63 -21q-17 0 -23 12.5t-6 38.5q0 13 4 43q-36 -33 -73 -69q-24 -25 -54 -25q-37 0 -59 17t-22 58q0 55 37 125
z" />
    <glyph glyph-name="omicrontonos" unicode="&#x3cc;" horiz-adv-x="768" 
d="M348 738q186 -6 267 -141t85 -253q0 -108 -106 -220q-103 -124 -254 -124q-124 6 -190 72.5t-66 175.5q0 122 56.5 306t207.5 184zM361 625q-67 0 -108.5 -127.5t-41.5 -213.5q0 -90 33 -131t85 -41q75 0 159.5 81t84.5 167q0 100 -79.5 182.5t-132.5 82.5zM433 978
q-21 -80 -49 -80q-36 0 -36 58q0 27 11 101.5t52 156.5q20 44 63 44q56 -6 56 -65q0 -19 -38 -77t-59 -138z" />
    <glyph glyph-name="upsilontonos" unicode="&#x3cd;" horiz-adv-x="800" 
d="M236 732q-15 -210 -15 -336q0 -164 37.5 -226t108.5 -62q135 0 182 86t47 190l2 151q-6 60 -10 225q138 -4 145.5 -61t8 -153t0.5 -132q0 -96 -75 -242t-250 -163q-162 0 -246.5 92.5t-86.5 266.5q0 201 19 279q19 85 133 85zM473 988q-21 -80 -49 -80q-36 0 -36 58
q0 27 11 101.5t52 156.5q20 44 63 44q56 -6 56 -65q0 -19 -38 -77t-59 -138z" />
    <glyph glyph-name="omegatonos" unicode="&#x3ce;" horiz-adv-x="1323" 
d="M655 150q-76 -125 -238 -141q-162 0 -246.5 92.5t-86.5 266.5q0 201 69 339q19 85 133 85q-65 -270 -65 -396q0 -164 37.5 -226t108.5 -62q135 0 182 86t47 190l2 151q0 125 86 142q51 -25 53 -165q0 -291 39.5 -347.5t110.5 -56.5q135 0 182 86t47 190q0 191 -76 351
q0 63 38 95q78 -4 131 -106t53 -310q0 -156 -75 -272t-250 -133q-162 0 -246 93q-21 22 -36 48zM740 1008q-21 -80 -49 -80q-36 0 -36 58q0 27 11 101.5t52 156.5q20 44 63 44q56 -6 56 -65q0 -19 -38 -77t-59 -138z" />
    <glyph glyph-name="uni0400" unicode="&#x400;" horiz-adv-x="915" 
d="M223 1237q-31 -35 -45 -35q-10 0 -10 21q0 18 9 55q19 142 356 146q210 0 332 -49.5t122 -72.5q0 -6 -22 -6q-28 0 -151.5 10.5t-276.5 10.5q-258 -13 -314 -80zM351 1267q-69 -224 -106 -542t-44.5 -471t-55.5 -153q-38 0 -45 221q0 200 15 375q10 186 56 382
q43 188 171 188h9zM65 4q-12 0 -12 16q0 82 264 114q76 5 169 5q189 0 300 -27.5t111 -38.5q0 -50 -243 -50.5t-390 -9.5t-199 -9zM257 740q0 35 113.5 55.5t194.5 20.5q65 0 142.5 -11.5t123.5 -31t46 -34.5q0 -33 -100 -38q-26 0 -62 1.5t-70 1.5q-132 0 -194 -16t-91 -16
q-55 0 -79 27.5t-24 40.5zM401 1755q0 35 36 35q19 0 52.5 -5.5t62 -106.5t28.5 -129q-7 -22 -41 -22q-6 0 -10 6q-7 14 -31.5 62.5t-96.5 159.5z" />
    <glyph glyph-name="afii10023" unicode="&#x401;" horiz-adv-x="1028" 
d="M223 1237q-31 -35 -45 -35q-10 0 -10 21q0 18 9 55q19 142 356 146q210 0 332 -49.5t122 -72.5q0 -6 -22 -6q-28 0 -151.5 10.5t-276.5 10.5q-258 -13 -314 -80zM351 1267q-69 -224 -106 -542t-44.5 -471t-55.5 -153q-38 0 -45 221q0 200 15 375q10 186 56 382
q43 188 171 188h9zM65 4q-12 0 -12 16q0 82 264 114q76 5 169 5q189 0 300 -27.5t111 -38.5q0 -50 -243 -50.5t-390 -9.5t-199 -9zM257 740q0 35 113.5 55.5t194.5 20.5q65 0 142.5 -11.5t123.5 -31t46 -34.5q0 -33 -100 -38q-26 0 -62 1.5t-70 1.5q-132 0 -194 -16t-91 -16
q-55 0 -79 27.5t-24 40.5zM403 1874q17 42 72 44q53 0 53 -20q0 -13 -22.5 -34t-42.5 -93q0 -34 19 -49q19 0 39.5 15t43.5 53t47 72.5t54 34.5q38 0 39 -21q0 -12 -11.5 -31t-19.5 -40q-15 -41 -15 -65q3 -29 3 -45q-1 -14 -63 -21q-17 0 -23 12.5t-6 38.5q0 13 4 43
q-36 -33 -73 -69q-24 -25 -54 -25q-37 0 -59 17t-22 58q0 55 37 125z" />
    <glyph glyph-name="afii10051" unicode="&#x402;" horiz-adv-x="1096" 
d="M904 258q0 38 -21 82t-75 45q-68 0 -146 -207q-96 -173 -162 -173q-70 0 -97 52t-27 130q0 233 110 1124q-145 -4 -310 -27l-12 -50q-36 70 -70 98.5t-34 35.5q0 30 148 50.5t248 20.5q78 0 162.5 -10.5t168.5 -27.5q185 -39 254 -77t69 -47q0 -12 -44 -12q-45 0 -193 24
q-117 18 -257 22l-120 -1167q154 362 318 362q161 -11 193 -236q0 -118 -50.5 -193t-105.5 -75q-68 0 -99.5 44.5t-31.5 56.5q0 18 11 18q7 0 31 -11.5t52 -11.5q26 0 58 30.5t32 129.5z" />
    <glyph glyph-name="afii10052" unicode="&#x403;" horiz-adv-x="1037" 
d="M570 1744q67 75 108 75q7 0 7 -8q0 -17 -40.5 -91.5t-62.5 -216.5q0 -44 -68 -44q-61 6 -61 65q0 19 25 82t92 138z" />
    <glyph glyph-name="afii10053" unicode="&#x404;" horiz-adv-x="1073" 
d="M229 593q7 -185 106 -316.5t286 -132.5q131 0 287.5 78t181.5 78q7 0 7 -4q0 -16 -153.5 -144t-362.5 -128q-213 6 -350.5 163t-137.5 413q17 348 257.5 573t377.5 225q24 0 62.5 -18.5t38.5 -113.5q0 -80 -31.5 -173t-51.5 -93q-15 0 -30 104t-18 156q-1 13 -29 13
q-66 0 -234.5 -183t-199.5 -390q130 -28 238 -28q65 0 119 11.5t98 25.5q33 0 33 -10q0 -14 -121 -71t-256 -57q-53 0 -117 22z" />
    <glyph glyph-name="afii10054" unicode="&#x405;" horiz-adv-x="703" 
d="M591.5 1295.5q-57.5 33.5 -107.5 33.5q-80 0 -161 -76t-81 -211q0 -171 173.5 -416.5t173.5 -375.5q0 -105 -66.5 -173.5t-191.5 -68.5q-210 27 -210 127q0 24 16.5 79t37.5 55q13 0 24 -36q16 -84 62.5 -103.5t119.5 -19.5q55 0 83.5 37.5t28.5 73.5q0 83 -198.5 366.5
t-198.5 466.5q0 136 121 256t256 120q102 0 198 -73t96 -96q0 -9 -17 -9q-5 0 -11 2q-90 8 -147.5 41.5z" />
    <glyph glyph-name="afii10055" unicode="&#x406;" horiz-adv-x="384" 
d="M283 1428q57 0 57 -54q0 -28 -15 -68q-86 -656 -100 -968q-4 -43 -4 -80q0 -121 28 -182q23 -40 23 -51q0 -6 -6 -6q-11 0 -42 21q-84 50 -105 109t-21 159q0 150 22 452q38 500 59 584t104 84z" />
    <glyph glyph-name="afii10056" unicode="&#x407;" horiz-adv-x="384" 
d="M284 1428q57 0 57 -54q0 -28 -15 -68q-86 -656 -100 -968q-4 -43 -4 -80q0 -121 28 -182q23 -40 23 -51q0 -6 -6 -6q-11 0 -42 21q-84 50 -105 109t-21 159q0 150 22 452q38 500 59 584t104 84zM87 1874q17 42 72 44q53 0 53 -20q0 -13 -22.5 -34t-42.5 -93q0 -34 19 -49
q19 0 39.5 15t43.5 53t47 72.5t54 34.5q38 0 39 -21q0 -12 -11.5 -31t-19.5 -40q-15 -41 -15 -65q3 -29 3 -45q-1 -14 -63 -21q-17 0 -23 12.5t-6 38.5q0 13 4 43q-36 -33 -73 -69q-24 -25 -54 -25q-37 0 -59 17t-22 58q0 55 37 125z" />
    <glyph glyph-name="afii10057" unicode="&#x408;" horiz-adv-x="726" 
d="M616.5 887q47.5 -507 47.5 -659q-11 -122 -93 -171.5t-149 -49.5q-73 0 -179 70.5t-152 165t-46 136.5q0 61 50 91t71 30t21 -24q0 -122 50 -200t152 -149q44 -25 69 -25q54 0 59 136q0 220 -37 576.5t-37 482.5q0 78 12 93q21 25 48 25q11 0 24 -5q42 -16 89.5 -523z
" />
    <glyph glyph-name="afii10058" unicode="&#x409;" horiz-adv-x="1442" 
d="M902 136q111 0 232.5 66.5t131.5 225.5q0 69 -33.5 150.5t-166.5 81.5q-28 0 -62.5 -8.5t-58.5 -16.5q-5 -62 -17 -238t-26 -261zM869 1277q-74 -12 -134 -12q-89 0 -114 3q-14 -718 -110.5 -982.5t-251.5 -264.5q-52 0 -109 46t-80 164q0 28 19.5 43t31.5 15t21 -12
q64 -151 132 -151q81 0 161 288t80 745q0 70 -10 144q-16 12 -16 30q0 16 20.5 48t60.5 32q27 -1 45.5 -9.5t131.5 -8.5q89 0 233 30q27 0 34.5 -21t7.5 -34q0 -19 -10 -37q-30 -126 -49 -572q46 12 95 12q121 0 224.5 -64.5t103.5 -280.5q-4 -236 -195 -326t-289 -90
q-50 0 -104 21.5t-54 58.5q0 18 10 34t28 16q10 120 21 237.5t13 190.5q-8 7 -8 25q0 17 18 53q13 213 28 393t15 236z" />
    <glyph glyph-name="afii10059" unicode="&#x40a;" horiz-adv-x="1420" 
d="M152 1397q0 29 92 29q63 0 63 -116q0 -92 -27.5 -279t-41.5 -350t-14 -398q0 -133 3.5 -180.5t3.5 -62.5q0 -14 -11 -14q-10 0 -51 43t-59 142t-18 264q0 117 22 345t42 333.5t20 153.5q0 47 -12 64t-12 26zM773 31q-33 -17 -86 -17q-13 0 -26 8q101 441 106 642
q-259 70 -472 70h-44q23 73 152 73q194 -3 370 -51q21 262 21 421q0 65 -3 99t-3 55q0 103 57 103q66 -8 74 -266q9 -129 9 -243q0 -66 -4 -162q45 10 114 10q131 0 229.5 -69.5t98.5 -255.5q-4 -256 -200 -346t-294 -90q-67 0 -99 19zM917 650q-12 -146 -69 -378
q-20 -81 -43 -136q159 1 280 67q151 66 161 225q0 89 -48.5 160.5t-181.5 71.5q-28 0 -87 -8z" />
    <glyph glyph-name="afii10060" unicode="&#x40b;" horiz-adv-x="1096" 
d="M486 1311q-145 -4 -310 -27l-12 -50q-36 70 -70 98.5t-34 35.5q0 30 148 50.5t248 20.5q78 0 162.5 -10.5t168.5 -27.5q185 -39 254 -77t69 -47q0 -12 -44 -12q-45 0 -193 24q-117 18 -257 22l-120 -1167q154 362 318 362q138 -12 162 -256q11 -107 11 -171
q0 -72 -13 -91q-5 -6 -10 -6q-24 0 -60 166q-42 226 -96 227q-68 0 -146 -197q-96 -173 -162 -173q-70 0 -97 52t-27 130q0 233 110 1124z" />
    <glyph glyph-name="afii10061" unicode="&#x40c;" horiz-adv-x="1037" 
d="M570 1744q67 75 108 75q7 0 7 -8q0 -17 -40.5 -91.5t-62.5 -216.5q0 -44 -68 -44q-61 6 -61 65q0 19 25 82t92 138z" />
    <glyph glyph-name="uni040D" unicode="&#x40d;" horiz-adv-x="1124" 
d="M880 810q-100 -286 -254 -496.5t-304 -210.5q-148 13 -189 266.5t-41 694.5q0 96 4 204q103 0 126 -90q-3 -80 -3 -152q0 -374 20.5 -592t98.5 -218q56 0 195 200t250 503t111 359v14q0 40 56 40q64 0 72.5 -25t8.5 -70q0 -67 -8.5 -172t-8.5 -183q0 -185 21.5 -346
t21.5 -254q0 -98 -21.5 -164t-57.5 -72h-1q-36 0 -63 234q-26 260 -34 530zM455 1755q0 35 36 35q19 0 52.5 -5.5t62 -106.5t28.5 -129q-7 -22 -41 -22q-6 0 -10 6q-7 14 -31.5 62.5t-96.5 159.5z" />
    <glyph glyph-name="afii10062" unicode="&#x40e;" horiz-adv-x="838" 
d="M87 -3q-104 0 -104 75q0 30 104.5 102t295.5 425q-326 356 -326 722q0 45 6.5 68t48.5 28q82 0 82 -37q0 -408 290 -676q132 197 166 327.5t78 385.5q69 -68 69 -155q0 -158 -47.5 -317t-237 -449t-297.5 -394.5t-128 -104.5zM296 1915q18 0 18 -22q4 -31 4 -82
q0 -54 39 -87t113 -33q105 0 199 78.5t118 170.5q7 20 27 20q6 0 6 -19q0 -132 -96 -255t-251 -123q-129 0 -191 58t-62 125q0 70 24.5 119.5t51.5 49.5z" />
    <glyph glyph-name="afii10145" unicode="&#x40f;" horiz-adv-x="1150" 
d="M532 4q-175 2 -243 9q-108 9 -138 49q-55 52 -57 756q0 451 9 529q19 85 123 85q-5 -360 -5 -586q10 -704 33 -711q16 -5 148 -7q9 6 20 6q155 -2 290 -4q183 4 190 19q10 21 24 515l2 411q-6 160 -10 355q128 -4 135.5 -76t10 -298t2.5 -262q0 -517 -33 -659
q-6 -126 -263 -132h-105q-7 -190 -19 -314q-14 -138 -41 -138v1q-27 0 -58 18q-20 10 -20 186q0 76 5 248z" />
    <glyph glyph-name="afii10017" unicode="&#x410;" horiz-adv-x="908" 
d="M139 49q-48 0 -60.5 54.5t-12.5 228.5q0 162 46.5 401.5t191.5 455.5t249 216q120 -47 184 -217t78 -371t14 -311q0 -120 -16 -235q-9 -211 -43 -211q-51 0 -53 1q-33 5 -43 81q23 182 23 324q-249 -16 -500 -69q-7 -120 -7 -167q0 -63 9 -152q-27 -29 -60 -29zM211 523
q243 48 485 60q-17 411 -59.5 562t-96.5 151q-40 0 -162.5 -207t-166.5 -566z" />
    <glyph glyph-name="afii10018" unicode="&#x411;" horiz-adv-x="860" 
d="M165 1225q-47 2 -47 33q0 7 6 34.5t91.5 52.5t219 51t204.5 26q77 0 109.5 -19t32.5 -42q0 -12 -13 -38t-56.5 -34.5t-144 -14t-182.5 -20.5t-116 -20q3 -25 3 -81q0 -114 -16 -415q42 4 118 32.5t185 28.5q130 -1 187 -97t57 -221q0 -319 -148.5 -392.5t-266.5 -73.5
q-111 0 -180 73q-12 -16 -39 -25q-30 -15 -40 -15q-43 0 -43 67q74 1055 79 1110zM250 626q-21 -331 -26 -426q15 8 28 8q18 0 55 -34t123 -34q71 0 162 51t91 236q0 78 -22.5 166t-117.5 88q-46 0 -136 -24.5t-157 -30.5z" />
    <glyph glyph-name="afii10019" unicode="&#x412;" horiz-adv-x="1058" 
d="M187 1380.5q146 6.5 305 10.5q87 0 238.5 -5.5t151.5 -85.5q-7 -118 -165 -250.5t-158 -161.5q15 -49 222.5 -216.5t227.5 -339.5q0 -172 -145.5 -252t-386.5 -80q-254 6 -314.5 69t-60.5 343q0 110 23.5 428t95.5 328q70 0 70 -72q-4 -94 -32 -223.5t-39.5 -267
t-11.5 -274.5q0 -139 31.5 -187t220.5 -52q150 0 283.5 65t133.5 180q-10 95 -235 281.5t-225 265.5q3 84 153.5 206t150.5 162q0 30 -150 33q-126 0 -261.5 -16.5t-182.5 -16.5q-84 0 -92 50q6 72 152 78.5z" />
    <glyph glyph-name="afii10020" unicode="&#x413;" horiz-adv-x="860" 
d="M217 16q-8 -40 -68 -40q-57 6 -57 60q0 623 40 1290q6 70 43 70q272 25 647 25q40 -17 40 -115q-358 0 -607 -25q-38 -635 -38 -1265z" />
    <glyph glyph-name="afii10021" unicode="&#x414;" horiz-adv-x="1145" 
d="M996 187l39 -3q36 -30 36 -132q-6 1 -13 1q4 -48 4 -125q0 -32 -13 -140.5t-37 -115.5q-65 4 -72 71q7 93 7 189q0 35 -19 135q-204 -2 -485 -2q-30 0 -225 -19q-34 0 -41 -39.5t-7 -124.5q0 -56 7 -149q-7 -67 -42 -71q-24 7 -52 95.5t-28 180.5q0 57 8 135q5 83 88 90
l19 6q114 533 210.5 769t168 369t160.5 133q75 -3 137 -115t90 -359.5t60 -778.5zM300 185q120 7 148 7q191 0 422 -2q-43 509 -64 749.5t-102 373.5q-116 -161 -199.5 -400.5t-204.5 -727.5z" />
    <glyph glyph-name="afii10022" unicode="&#x415;" horiz-adv-x="1028" 
d="M223 1237q-31 -35 -45 -35q-10 0 -10 21q0 18 9 55q19 142 356 146q210 0 332 -49.5t122 -72.5q0 -6 -22 -6q-28 0 -151.5 10.5t-276.5 10.5q-258 -13 -314 -80zM351 1267q-69 -224 -106 -542t-44.5 -471t-55.5 -153q-38 0 -45 221q0 200 15 375q10 186 56 382
q43 188 171 188h9zM65 4q-12 0 -12 16q0 82 264 114q76 5 169 5q189 0 300 -27.5t111 -38.5q0 -50 -243 -50.5t-390 -9.5t-199 -9zM257 740q0 35 113.5 55.5t194.5 20.5q65 0 142.5 -11.5t123.5 -31t46 -34.5q0 -33 -100 -38q-26 0 -62 1.5t-70 1.5q-132 0 -194 -16t-91 -16
q-55 0 -79 27.5t-24 40.5z" />
    <glyph glyph-name="afii10024" unicode="&#x416;" horiz-adv-x="1243" 
d="M686 806q167 24 249 184q96 188 121 434q15 26 55 26q74 0 74 -62q0 -84 -27 -208t-91 -246t-148 -187q-5 -3 -9 -7q58 -33 96 -87q93 -135 99 -633q-132 0 -132 31q-7 427 -72 511q-58 73 -211 83l-19 -1q-14 -181 -16 -306q-4 -43 -4 -130q0 -71 5.5 -131.5t5.5 -71.5
q0 -6 -6 -6q-11 0 -53.5 65.5t-58.5 164.5t-16 199q0 77 7 205q-132 -34 -206 -160q-101 -173 -126 -379q-15 -96 -55 -96q-64 0 -64 62q0 84 27 208t91 246q62 117 161 192q-61 34 -100 90q-93 134 -99 632q132 0 132 -31q7 -427 73 -511q50 -65 176 -80q4 54 8 113
q25 341 46 425t104 84q57 0 57 -54q0 -28 -15 -68q-37 -282 -59 -500z" />
    <glyph glyph-name="afii10025" unicode="&#x417;" horiz-adv-x="932" 
d="M499.5 877.5q36.5 62.5 64.5 153.5t28 128q0 124 -166 142q-123 0 -196.5 -58.5t-91.5 -58.5q-29 0 -36 65q0 40 110 108.5t232 68.5q86 0 175 -54t89 -208q0 -88 -19.5 -168.5t-99.5 -198.5q70 -36 163 -125.5t101 -303.5q0 -154 -133.5 -258t-315.5 -104
q-183 6 -285.5 109.5t-102.5 139.5q0 16 11 26.5t26 10.5q23 0 131.5 -90t205.5 -90q99 0 209.5 63.5t110.5 203.5q0 131 -46 189t-109.5 102t-236.5 44q-65 5 -70 51q0 46 50 50q165 0 201.5 62.5z" />
    <glyph glyph-name="afii10026" unicode="&#x418;" horiz-adv-x="1124" 
d="M880 810q-100 -286 -254 -496.5t-304 -210.5q-148 13 -189 266.5t-41 694.5q0 96 4 204q103 0 126 -90q-3 -80 -3 -152q0 -374 20.5 -592t98.5 -218q56 0 195 200t250 503t111 359v14q0 40 56 40q64 0 72.5 -25t8.5 -70q0 -67 -8.5 -172t-8.5 -183q0 -185 21.5 -346
t21.5 -254q0 -98 -21.5 -164t-57.5 -72h-1q-36 0 -63 234q-26 260 -34 530z" />
    <glyph glyph-name="afii10027" unicode="&#x419;" horiz-adv-x="1124" 
d="M880 810q-100 -286 -254 -496.5t-304 -210.5q-148 13 -189 266.5t-41 694.5q0 96 4 204q103 0 126 -90q-3 -80 -3 -152q0 -374 20.5 -592t98.5 -218q56 0 195 200t250 503t111 359v14q0 40 56 40q64 0 72.5 -25t8.5 -70q0 -67 -8.5 -172t-8.5 -183q0 -185 21.5 -346
t21.5 -254q0 -98 -21.5 -164t-57.5 -72h-1q-36 0 -63 234q-26 260 -34 530zM351 1915q18 0 18 -22q4 -31 4 -82q0 -54 39 -87t113 -33q105 0 199 78.5t118 170.5q7 20 27 20q6 0 6 -19q0 -132 -96 -255t-251 -123q-129 0 -191 58t-62 125q0 70 24.5 119.5t51.5 49.5z" />
    <glyph glyph-name="afii10028" unicode="&#x41a;" horiz-adv-x="943" 
d="M226 270v-204q-13 -30 -98 -30q-26 0 -30 47q0 407 -6 687q0 280 66 634q28 36 143 36q-56 -306 -70 -627q162 429 502 609q95 0 118 -54q-304 -213 -388 -364t-119 -233q28 -133 145.5 -366t231.5 -245q96 0 142.5 32.5t68.5 32.5q20 0 20 -17q0 -23 -25.5 -69.5
t-72.5 -82.5t-147 -36q-124 12 -244 183.5t-190 371.5q-40 -164 -47 -305z" />
    <glyph glyph-name="afii10029" unicode="&#x41b;" horiz-adv-x="1012" 
d="M697 1395q89 0 233 30q27 0 34.5 -21t7.5 -34q0 -19 -10 -37q-71 -131 -71 -611q0 -150 44.5 -386.5t44.5 -249.5q0 -24 -25 -45t-45 -21q-36 0 -89 263t-53 398q2 480 41 596q-74 -12 -134 -12q-29 0 -54 3q-14 -718 -110.5 -982.5t-251.5 -264.5q-52 0 -109 46t-80 164
q0 28 19.5 43t31.5 15t21 -12q64 -151 132 -151q81 0 161 288t80 745q0 70 -10 144q-16 12 -16 30q0 16 20.5 48t60.5 32q27 -1 45.5 -9.5t81.5 -8.5z" />
    <glyph glyph-name="afii10030" unicode="&#x41c;" horiz-adv-x="1006" 
d="M74 72q23 248 23 466q-10 603 -17 896h126q12 -168 196 -211q66 0 175 78.5t209 78.5q118 0 143 -139t25 -297q0 -161 -43 -387.5t-43 -444.5q-9 -66 -84 -66q-25 0 -27.5 46t-2.5 161q0 166 32.5 342.5t32.5 321.5q0 263 -20.5 293t-63.5 30q-65 0 -154 -83t-168 -83
q-68 0 -201 72q18 -456 24 -696q0 -30 -4 -147.5t-32 -296.5q-103 3 -126 66z" />
    <glyph glyph-name="afii10031" unicode="&#x41d;" horiz-adv-x="1049" 
d="M182 1397q0 29 92 29q63 0 63 -116q0 -92 -27.5 -279t-51.5 -350t-24 -398q0 -133 13.5 -180.5t13.5 -62.5q0 -14 -11 -14q-10 0 -51 43t-69 142t-28 264q0 117 32 345t52 333.5t20 153.5q0 47 -12 64t-12 26zM281 734q23 73 152 73q194 -3 370 -51q21 262 21 421
q0 65 -3 99t-3 55q0 103 57 103q66 -8 74 -266q9 -129 9 -243q0 -93 -8.5 -244t-72 -409t-160.5 -258q-13 0 -26 8q101 441 106 642q-259 70 -472 70h-44z" />
    <glyph glyph-name="afii10032" unicode="&#x41e;" horiz-adv-x="1240" 
d="M94 588q0 334 181.5 593t435.5 259q257 0 365.5 -144t108.5 -493q-15 -358 -181.5 -577t-490.5 -219q-180 0 -299.5 164.5t-119.5 416.5zM234 545q0 -157 69.5 -276.5t245.5 -153.5q164 0 326.5 172.5t168.5 510.5q0 352 -95.5 444t-204.5 92q-212 0 -361 -248.5
t-149 -540.5z" />
    <glyph glyph-name="afii10033" unicode="&#x41f;" horiz-adv-x="1020" 
d="M809 29q5 360 12.5 664t7.5 472q0 144 -22.5 151t-263.5 7q-290 0 -300 -21t-24 -505l-2 -411q6 -160 10 -355q-123 4 -130.5 76t-10 298t-2.5 262q0 646 47 707t372 78q352 0 401.5 -52.5t51.5 -206.5q0 -205 -7.5 -528t-16.5 -551q-19 -85 -123 -85z" />
    <glyph glyph-name="afii10034" unicode="&#x420;" horiz-adv-x="819" 
d="M74 1205q0 51 87.5 125t283.5 84q192 0 285.5 -77t93.5 -205q0 -228 -118.5 -348t-439.5 -164q-35 -422 -47 -524q-12 -94 -31 -94q-30 0 -58 77t-28 235q0 60 12 159.5t49 578.5q20 150 98 203q42 -2 42 -57l-32 -466q280 34 349.5 150t69.5 254q0 75 -39 134.5
t-149 59.5q-69 0 -152 -17t-133 -89q-49 -60 -100 -60q-43 3 -43 41z" />
    <glyph glyph-name="afii10035" unicode="&#x421;" horiz-adv-x="1096" 
d="M698 1260q-1 13 -29 13q-66 0 -248.5 -198.5t-192.5 -451.5q0 -205 103 -341.5t290 -137.5q131 0 292.5 78t186.5 78q7 0 7 -4q0 -16 -158.5 -144t-367.5 -128q-213 6 -350.5 163t-137.5 413q17 348 257.5 573t377.5 225q24 0 62.5 -18.5t38.5 -113.5q0 -80 -46.5 -223
t-66.5 -143q-15 0 -15 102q0 206 -3 258z" />
    <glyph glyph-name="afii10036" unicode="&#x422;" horiz-adv-x="1040" 
d="M144 1234q-36 70 -70 98.5t-34 35.5q0 30 148 50.5t248 20.5q145 0 330.5 -38.5t254.5 -76.5t69 -47q0 -12 -44 -12q-45 0 -193 23.5t-331 23.5q-169 0 -366 -28zM524 1279q42 22 56 22q22 0 22 -32q-6 -76 -26 -354.5t-22 -596.5q0 -229 48 -270q27 -22 27 -32t-24 -10
q-46 0 -108 63t-72 225.5t-10 244.5q0 167 12.5 386.5t33.5 275.5t63 78z" />
    <glyph glyph-name="afii10037" unicode="&#x423;" horiz-adv-x="838" 
d="M87 -3q-104 0 -104 75q0 30 104.5 102t295.5 425q-326 356 -326 722q0 45 6.5 68t48.5 28q82 0 82 -37q0 -408 290 -676q132 197 166 327.5t78 385.5q69 -68 69 -155q0 -158 -47.5 -317t-237 -449t-297.5 -394.5t-128 -104.5z" />
    <glyph glyph-name="afii10038" unicode="&#x424;" horiz-adv-x="1250" 
d="M595 1035q-128 -24 -259 -105.5t-131 -278.5q0 -89 78.5 -165.5t283.5 -80.5q4 109 10 281q6 212 18 349zM728 1034q-19 -366 -29 -612q91 20 220.5 84t135.5 232q0 192 -100.5 244t-226.5 52zM561 278q-227 0 -354 114t-127 296q0 204 166 322.5t351 142.5q4 130 13 174
q19 91 77 91q50 0 50 -75q0 -39 -5 -66.5t-6 -116.5q245 -4 349.5 -106t104.5 -311q-15 -218 -157 -321t-338 -133q-9 -156 -15 -190q-3 -85 -72 -85q-39 0 -43 69q0 23 6 195z" />
    <glyph glyph-name="afii10039" unicode="&#x425;" horiz-adv-x="852" 
d="M167 7q-104 0 -104 95q0 30 29.5 132t85 212t125.5 203q-166 316 -166 682q0 45 6.5 68t48.5 28q82 0 82 -37q0 -408 130 -636q132 157 246 287.5t188 385.5q9 -48 9 -95q0 -218 -137.5 -397t-232.5 -293q80 -144 164 -281.5t279 -340.5h-32q-202 0 -497 495
q-118 -139 -159.5 -276t-43 -184.5t-21.5 -47.5z" />
    <glyph glyph-name="afii10040" unicode="&#x426;" horiz-adv-x="1135" 
d="M141 62q-55 52 -57 756q0 451 9 529q19 85 133 85q-5 -360 -5 -586q10 -694 33 -701q16 -5 148 -7q9 6 20 6q155 -2 290 -4q183 4 190 19q10 21 24 505l2 411q-6 160 -10 355q138 -4 145.5 -76t10 -298t2.5 -262q0 -517 -33 -659q68 -2 129 -3t74 -98q2 -100 5 -310
q-21 -48 -79 -49q-34 1 -53 36q-5 145 -12 285l-337 7q-374 0 -481.5 9.5t-147.5 49.5z" />
    <glyph glyph-name="afii10041" unicode="&#x427;" horiz-adv-x="870" 
d="M82 1045q0 117 2 165.5t2 96.5q0 47 -12 64t-12 26q0 29 92 29q63 0 63 -116q0 -92 -1.5 -157t-1.5 -160q0 -113 16 -160q24 -16 130.5 -37.5t302.5 -39.5q11 262 11 421q0 65 -3 99t-3 55q0 103 57 103q66 -8 74 -266q9 -129 9 -243q0 -93 -8.5 -244t-57 -409
t-145.5 -258q-13 0 -26 8q71 441 86 642q-359 30 -482 60q-74 13 -83.5 154.5t-9.5 166.5z" />
    <glyph glyph-name="afii10042" unicode="&#x428;" horiz-adv-x="1448" 
d="M427 9q-241 0 -291 52.5t-52 756.5q0 451 8 529q18 85 123 85q-5 -360 -5 -586q0 -694 21 -701t150 -17q254 0 263 21t21 496q-1 81 -1 173q0 451 8 529q7 83 123 85q-1 -47 -1 -92q5 -78 8 -284q0 -544 -5 -715q3 -202 14 -206q21 -7 150 -7q254 10 263 31t22 505l2 411
q-6 160 -9 355q127 -4 133.5 -76t9 -298t2.5 -262q0 -646 -48 -707t-329 -78h-580z" />
    <glyph glyph-name="afii10043" unicode="&#x429;" horiz-adv-x="1498" 
d="M754 9h-333q-237 0 -286 52.5t-51 756.5q0 451 8 529q17 85 120 85q-4 -360 -4 -586q0 -694 20.5 -701t147.5 -17q249 0 258 21t21 496q-1 81 -1 173q0 451 8 529q6 83 120 85q-1 -47 -1 -92q6 -78 8 -284q0 -544 -5 -715q3 -165 11 -198q208 -3 375 -6q31 5 33 12
q10 21 22 515l2 411q-5 160 -9 355q125 -4 131.5 -76t9 -298t2.5 -262q0 -501 -28 -650q50 -1 97 -2q55 -1 66 -98q2 -100 5 -310q-19 -48 -71 -49q-31 1 -48 36q-5 145 -11 285l-305 7l-28 -1q-23 -2 -47 -3h-96l-128 -3q-7 1 -13 3z" />
    <glyph glyph-name="afii10044" unicode="&#x42a;" horiz-adv-x="989" 
d="M393 526q-14 -231 -19 -326q15 8 28 8q18 0 55 -34t113 -34q71 0 162 51t91 176q0 78 -37 183q-33 71 -108 71q-46 0 -132 -44.5t-115 -47t-38 -3.5zM420 1294q2 -101 2 -141q0 -114 -23 -515q42 4 88 29.5t104.5 53.5t132.5 28q100 -1 159.5 -97t59.5 -221
q0 -269 -148.5 -342.5t-266.5 -73.5q-111 0 -170 73q-12 -16 -39 -25q-40 -15 -50 -15q-43 0 -43 67q74 1055 78 1097t11 66q-26 -2 -92 -5.5t-268 -37.5q-47 2 -47 33q0 27 16 64.5t91.5 52.5t159 16t154.5 1q77 0 109.5 -9t32.5 -32q0 -12 -11.5 -35t-39.5 -32z" />
    </font>
</defs>
</svg>
